%TF.GenerationSoftware,KiCad,Pcbnew,9.0.0*%
%TF.CreationDate,2025-03-04T12:56:54+00:00*%
%TF.ProjectId,cacophonator,6361636f-7068-46f6-9e61-746f722e6b69,1*%
%TF.SameCoordinates,Original*%
%TF.FileFunction,Legend,Bot*%
%TF.FilePolarity,Positive*%
%FSLAX46Y46*%
G04 Gerber Fmt 4.6, Leading zero omitted, Abs format (unit mm)*
G04 Created by KiCad (PCBNEW 9.0.0) date 2025-03-04 12:56:54*
%MOMM*%
%LPD*%
G01*
G04 APERTURE LIST*
G04 Aperture macros list*
%AMRoundRect*
0 Rectangle with rounded corners*
0 $1 Rounding radius*
0 $2 $3 $4 $5 $6 $7 $8 $9 X,Y pos of 4 corners*
0 Add a 4 corners polygon primitive as box body*
4,1,4,$2,$3,$4,$5,$6,$7,$8,$9,$2,$3,0*
0 Add four circle primitives for the rounded corners*
1,1,$1+$1,$2,$3*
1,1,$1+$1,$4,$5*
1,1,$1+$1,$6,$7*
1,1,$1+$1,$8,$9*
0 Add four rect primitives between the rounded corners*
20,1,$1+$1,$2,$3,$4,$5,0*
20,1,$1+$1,$4,$5,$6,$7,0*
20,1,$1+$1,$6,$7,$8,$9,0*
20,1,$1+$1,$8,$9,$2,$3,0*%
G04 Aperture macros list end*
%ADD10C,5.700000*%
%ADD11RoundRect,0.250000X0.350000X0.625000X-0.350000X0.625000X-0.350000X-0.625000X0.350000X-0.625000X0*%
%ADD12O,1.200000X1.750000*%
%ADD13R,1.200000X1.200000*%
%ADD14C,1.200000*%
%ADD15O,1.750000X1.200000*%
%ADD16RoundRect,0.250000X-0.625000X0.350000X-0.625000X-0.350000X0.625000X-0.350000X0.625000X0.350000X0*%
%ADD17RoundRect,0.250000X0.625000X-0.350000X0.625000X0.350000X-0.625000X0.350000X-0.625000X-0.350000X0*%
%ADD18R,2.000000X2.000000*%
%ADD19C,2.000000*%
%ADD20RoundRect,0.250000X-0.350000X-0.625000X0.350000X-0.625000X0.350000X0.625000X-0.350000X0.625000X0*%
%ADD21C,1.600000*%
%ADD22R,1.600000X1.600000*%
%ADD23O,1.600000X1.600000*%
%ADD24C,1.400000*%
%ADD25O,1.400000X1.400000*%
G04 APERTURE END LIST*
%LPC*%
D10*
%TO.C,H10*%
X162500000Y-130000000D03*
%TD*%
%TO.C,H3*%
X122500000Y-110000000D03*
%TD*%
%TO.C,H2*%
X177500000Y-90000000D03*
%TD*%
%TO.C,H9*%
X150000000Y-130000000D03*
%TD*%
%TO.C,H4*%
X177500000Y-110000000D03*
%TD*%
%TO.C,H5*%
X137500000Y-70000000D03*
%TD*%
%TO.C,H8*%
X137500000Y-130000000D03*
%TD*%
%TO.C,H7*%
X162500000Y-70000000D03*
%TD*%
%TO.C,H6*%
X150000000Y-70000000D03*
%TD*%
%TO.C,H1*%
X122500000Y-90000000D03*
%TD*%
D11*
%TO.C,J1*%
X133050000Y-79000000D03*
D12*
X131050000Y-79000000D03*
%TD*%
D13*
%TO.C,C6*%
X143377401Y-124000000D03*
D14*
X145377401Y-124000000D03*
%TD*%
D15*
%TO.C,BT1*%
X132000000Y-90450000D03*
D16*
X132000000Y-88450000D03*
%TD*%
D14*
%TO.C,C8*%
X160250000Y-113800000D03*
D13*
X160250000Y-111800000D03*
%TD*%
D15*
%TO.C,RV5*%
X169000000Y-104150000D03*
D17*
X169000000Y-106150000D03*
%TD*%
D18*
%TO.C,C7*%
X173500000Y-74882323D03*
D19*
X173500000Y-79882323D03*
%TD*%
D20*
%TO.C,J2*%
X168350000Y-122500000D03*
D12*
X170350000Y-122500000D03*
%TD*%
D11*
%TO.C,SW2*%
X140500000Y-79000000D03*
D12*
X138500000Y-79000000D03*
%TD*%
D11*
%TO.C,SW1*%
X147750000Y-79000000D03*
D12*
X145750000Y-79000000D03*
%TD*%
D20*
%TO.C,RV8*%
X154050000Y-122500000D03*
D12*
X156050000Y-122500000D03*
X158050000Y-122500000D03*
%TD*%
D11*
%TO.C,RV7*%
X162950000Y-79000000D03*
D12*
X160950000Y-79000000D03*
%TD*%
D17*
%TO.C,RV6*%
X169000000Y-97950000D03*
D15*
X169000000Y-95950000D03*
%TD*%
%TO.C,RV4*%
X132000000Y-118500000D03*
D16*
X132000000Y-116500000D03*
%TD*%
%TO.C,RV3*%
X132000000Y-109500000D03*
D15*
X132000000Y-111500000D03*
%TD*%
D16*
%TO.C,RV2*%
X132000000Y-102500000D03*
D15*
X132000000Y-104500000D03*
%TD*%
D16*
%TO.C,RV1*%
X132000000Y-95500000D03*
D15*
X132000000Y-97500000D03*
%TD*%
D11*
%TO.C,D2*%
X155350000Y-79000000D03*
D12*
X153350000Y-79000000D03*
%TD*%
D21*
%TO.C,C3*%
X143300000Y-109035000D03*
X138300000Y-109035000D03*
%TD*%
D22*
%TO.C,U1*%
X147412323Y-96485000D03*
D23*
X147412323Y-99025000D03*
X147412323Y-101565000D03*
X147412323Y-104105000D03*
X147412323Y-106645000D03*
X147412323Y-109185000D03*
X147412323Y-111725000D03*
X155032323Y-111725000D03*
X155032323Y-109185000D03*
X155032323Y-106645000D03*
X155032323Y-104105000D03*
X155032323Y-101565000D03*
X155032323Y-99025000D03*
X155032323Y-96485000D03*
%TD*%
D22*
%TO.C,C11*%
X167950000Y-87500000D03*
D21*
X167950000Y-90000000D03*
%TD*%
D13*
%TO.C,C10*%
X158750000Y-94000000D03*
D14*
X160750000Y-94000000D03*
%TD*%
D24*
%TO.C,R1*%
X143332323Y-95035000D03*
D25*
X138252323Y-95035000D03*
%TD*%
D24*
%TO.C,R11*%
X158740000Y-104100000D03*
D25*
X163820000Y-104100000D03*
%TD*%
D24*
%TO.C,R4*%
X143332323Y-116900000D03*
D25*
X138252323Y-116900000D03*
%TD*%
D21*
%TO.C,C1*%
X143332323Y-92035000D03*
X138332323Y-92035000D03*
%TD*%
%TO.C,C5*%
X153732323Y-92060000D03*
X148732323Y-92060000D03*
%TD*%
D24*
%TO.C,R6*%
X143300000Y-106035000D03*
D25*
X138220000Y-106035000D03*
%TD*%
D22*
%TO.C,D4*%
X146543800Y-88469800D03*
D23*
X138923800Y-88469800D03*
%TD*%
D22*
%TO.C,D3*%
X146540000Y-85640000D03*
D23*
X138920000Y-85640000D03*
%TD*%
D21*
%TO.C,C4*%
X148700000Y-115800000D03*
X153700000Y-115800000D03*
%TD*%
D24*
%TO.C,R14*%
X163820000Y-101600000D03*
D25*
X158740000Y-101600000D03*
%TD*%
%TO.C,R3*%
X138320000Y-112000000D03*
D24*
X143400000Y-112000000D03*
%TD*%
D21*
%TO.C,C9*%
X168300000Y-112500000D03*
D22*
X168300000Y-115000000D03*
%TD*%
D24*
%TO.C,R7*%
X143300000Y-114535000D03*
D25*
X138220000Y-114535000D03*
%TD*%
D24*
%TO.C,R12*%
X163900000Y-106600000D03*
D25*
X158820000Y-106600000D03*
%TD*%
D24*
%TO.C,R10*%
X155460000Y-82900000D03*
D25*
X160540000Y-82900000D03*
%TD*%
D21*
%TO.C,C2*%
X143300000Y-100500000D03*
X138300000Y-100500000D03*
%TD*%
D24*
%TO.C,R13*%
X158740000Y-99100000D03*
D25*
X163820000Y-99100000D03*
%TD*%
D24*
%TO.C,R8*%
X143332323Y-119400000D03*
D25*
X138252323Y-119400000D03*
%TD*%
D24*
%TO.C,R15*%
X152470000Y-87950000D03*
D25*
X157550000Y-87950000D03*
%TD*%
D24*
%TO.C,R5*%
X143280000Y-97535000D03*
D25*
X138200000Y-97535000D03*
%TD*%
D24*
%TO.C,R2*%
X143332323Y-103535000D03*
D25*
X138252323Y-103535000D03*
%TD*%
D23*
%TO.C,D1*%
X152500000Y-85500000D03*
D22*
X160120000Y-85500000D03*
%TD*%
%LPD*%
M02*
