%TF.GenerationSoftware,KiCad,Pcbnew,9.0.0*%
%TF.CreationDate,2025-03-04T12:56:53+00:00*%
%TF.ProjectId,cacophonator,6361636f-7068-46f6-9e61-746f722e6b69,1*%
%TF.SameCoordinates,Original*%
%TF.FileFunction,Copper,L1,Top*%
%TF.FilePolarity,Positive*%
%FSLAX46Y46*%
G04 Gerber Fmt 4.6, Leading zero omitted, Abs format (unit mm)*
G04 Created by KiCad (PCBNEW 9.0.0) date 2025-03-04 12:56:53*
%MOMM*%
%LPD*%
G01*
G04 APERTURE LIST*
G04 Aperture macros list*
%AMRoundRect*
0 Rectangle with rounded corners*
0 $1 Rounding radius*
0 $2 $3 $4 $5 $6 $7 $8 $9 X,Y pos of 4 corners*
0 Add a 4 corners polygon primitive as box body*
4,1,4,$2,$3,$4,$5,$6,$7,$8,$9,$2,$3,0*
0 Add four circle primitives for the rounded corners*
1,1,$1+$1,$2,$3*
1,1,$1+$1,$4,$5*
1,1,$1+$1,$6,$7*
1,1,$1+$1,$8,$9*
0 Add four rect primitives between the rounded corners*
20,1,$1+$1,$2,$3,$4,$5,0*
20,1,$1+$1,$4,$5,$6,$7,0*
20,1,$1+$1,$6,$7,$8,$9,0*
20,1,$1+$1,$8,$9,$2,$3,0*%
G04 Aperture macros list end*
%TA.AperFunction,ComponentPad*%
%ADD10C,5.700000*%
%TD*%
%TA.AperFunction,ComponentPad*%
%ADD11RoundRect,0.250000X0.350000X0.625000X-0.350000X0.625000X-0.350000X-0.625000X0.350000X-0.625000X0*%
%TD*%
%TA.AperFunction,ComponentPad*%
%ADD12O,1.200000X1.750000*%
%TD*%
%TA.AperFunction,ComponentPad*%
%ADD13R,1.200000X1.200000*%
%TD*%
%TA.AperFunction,ComponentPad*%
%ADD14C,1.200000*%
%TD*%
%TA.AperFunction,ComponentPad*%
%ADD15O,1.750000X1.200000*%
%TD*%
%TA.AperFunction,ComponentPad*%
%ADD16RoundRect,0.250000X-0.625000X0.350000X-0.625000X-0.350000X0.625000X-0.350000X0.625000X0.350000X0*%
%TD*%
%TA.AperFunction,ComponentPad*%
%ADD17RoundRect,0.250000X0.625000X-0.350000X0.625000X0.350000X-0.625000X0.350000X-0.625000X-0.350000X0*%
%TD*%
%TA.AperFunction,ComponentPad*%
%ADD18R,2.000000X2.000000*%
%TD*%
%TA.AperFunction,ComponentPad*%
%ADD19C,2.000000*%
%TD*%
%TA.AperFunction,ComponentPad*%
%ADD20RoundRect,0.250000X-0.350000X-0.625000X0.350000X-0.625000X0.350000X0.625000X-0.350000X0.625000X0*%
%TD*%
%TA.AperFunction,ComponentPad*%
%ADD21C,1.600000*%
%TD*%
%TA.AperFunction,ComponentPad*%
%ADD22R,1.600000X1.600000*%
%TD*%
%TA.AperFunction,ComponentPad*%
%ADD23O,1.600000X1.600000*%
%TD*%
%TA.AperFunction,ComponentPad*%
%ADD24C,1.400000*%
%TD*%
%TA.AperFunction,ComponentPad*%
%ADD25O,1.400000X1.400000*%
%TD*%
%TA.AperFunction,ViaPad*%
%ADD26C,0.600000*%
%TD*%
%TA.AperFunction,Conductor*%
%ADD27C,0.500000*%
%TD*%
G04 APERTURE END LIST*
D10*
%TO.P,H10,1*%
%TO.N,N/C*%
X162500000Y-130000000D03*
%TD*%
%TO.P,H3,1*%
%TO.N,N/C*%
X122500000Y-110000000D03*
%TD*%
%TO.P,H2,1*%
%TO.N,N/C*%
X177500000Y-90000000D03*
%TD*%
%TO.P,H9,1*%
%TO.N,N/C*%
X150000000Y-130000000D03*
%TD*%
%TO.P,H4,1*%
%TO.N,N/C*%
X177500000Y-110000000D03*
%TD*%
%TO.P,H5,1*%
%TO.N,N/C*%
X137500000Y-70000000D03*
%TD*%
%TO.P,H8,1*%
%TO.N,N/C*%
X137500000Y-130000000D03*
%TD*%
%TO.P,H7,1*%
%TO.N,N/C*%
X162500000Y-70000000D03*
%TD*%
%TO.P,H6,1*%
%TO.N,N/C*%
X150000000Y-70000000D03*
%TD*%
%TO.P,H1,1*%
%TO.N,N/C*%
X122500000Y-90000000D03*
%TD*%
D11*
%TO.P,J1,1*%
%TO.N,Net-(D3-A)*%
X133050000Y-79000000D03*
D12*
%TO.P,J1,2*%
%TO.N,GND*%
X131050000Y-79000000D03*
%TD*%
D13*
%TO.P,C6,1*%
%TO.N,Net-(C6-Pad1)*%
X143377401Y-124000000D03*
D14*
%TO.P,C6,2*%
%TO.N,Net-(C6-Pad2)*%
X145377401Y-124000000D03*
%TD*%
D15*
%TO.P,BT1,2,-*%
%TO.N,GND*%
X132000000Y-90450000D03*
D16*
%TO.P,BT1,1,+*%
%TO.N,Net-(BT1-+)*%
X132000000Y-88450000D03*
%TD*%
D14*
%TO.P,C8,2*%
%TO.N,GND*%
X160250000Y-113800000D03*
D13*
%TO.P,C8,1*%
%TO.N,Net-(C8-Pad1)*%
X160250000Y-111800000D03*
%TD*%
D15*
%TO.P,RV5,2*%
%TO.N,Net-(R11-Pad2)*%
X169000000Y-104150000D03*
D17*
%TO.P,RV5,1*%
%TO.N,Net-(R12-Pad2)*%
X169000000Y-106150000D03*
%TD*%
D18*
%TO.P,C7,1*%
%TO.N,Net-(D1-K)*%
X173500000Y-74882323D03*
D19*
%TO.P,C7,2*%
%TO.N,GND*%
X173500000Y-79882323D03*
%TD*%
D20*
%TO.P,J2,1,In*%
%TO.N,Net-(J2-In)*%
X168350000Y-122500000D03*
D12*
%TO.P,J2,2,Ext*%
%TO.N,GND*%
X170350000Y-122500000D03*
%TD*%
D11*
%TO.P,SW2,1,1*%
%TO.N,Net-(D3-K)*%
X140500000Y-79000000D03*
D12*
%TO.P,SW2,2,2*%
%TO.N,VCC*%
X138500000Y-79000000D03*
%TD*%
D11*
%TO.P,SW1,1,A*%
%TO.N,Net-(D3-K)*%
X147750000Y-79000000D03*
D12*
%TO.P,SW1,2,B*%
%TO.N,VCC*%
X145750000Y-79000000D03*
%TD*%
D20*
%TO.P,RV8,1,1*%
%TO.N,Net-(C6-Pad2)*%
X154050000Y-122500000D03*
D12*
%TO.P,RV8,2,2*%
%TO.N,Net-(J2-In)*%
X156050000Y-122500000D03*
%TO.P,RV8,3,3*%
%TO.N,GND*%
X158050000Y-122500000D03*
%TD*%
D11*
%TO.P,RV7,1*%
%TO.N,Net-(U1G-VDD)*%
X162950000Y-79000000D03*
D12*
%TO.P,RV7,2*%
%TO.N,Net-(D1-K)*%
X160950000Y-79000000D03*
%TD*%
D17*
%TO.P,RV6,1*%
%TO.N,Net-(R13-Pad2)*%
X169000000Y-97950000D03*
D15*
%TO.P,RV6,2*%
%TO.N,Net-(R14-Pad2)*%
X169000000Y-95950000D03*
%TD*%
%TO.P,RV4,2*%
%TO.N,Net-(R8-Pad2)*%
X132000000Y-118500000D03*
D16*
%TO.P,RV4,1*%
%TO.N,Net-(R4-Pad2)*%
X132000000Y-116500000D03*
%TD*%
%TO.P,RV3,1*%
%TO.N,Net-(R3-Pad2)*%
X132000000Y-109500000D03*
D15*
%TO.P,RV3,2*%
%TO.N,Net-(R7-Pad2)*%
X132000000Y-111500000D03*
%TD*%
D16*
%TO.P,RV2,1*%
%TO.N,Net-(R2-Pad2)*%
X132000000Y-102500000D03*
D15*
%TO.P,RV2,2*%
%TO.N,Net-(R6-Pad2)*%
X132000000Y-104500000D03*
%TD*%
D16*
%TO.P,RV1,1*%
%TO.N,Net-(R1-Pad2)*%
X132000000Y-95500000D03*
D15*
%TO.P,RV1,2*%
%TO.N,Net-(R5-Pad2)*%
X132000000Y-97500000D03*
%TD*%
D11*
%TO.P,D2,1,K*%
%TO.N,Net-(D2-K)*%
X155350000Y-79000000D03*
D12*
%TO.P,D2,2,A*%
%TO.N,VCC*%
X153350000Y-79000000D03*
%TD*%
D21*
%TO.P,C3,1*%
%TO.N,Net-(C3-Pad1)*%
X143300000Y-109035000D03*
%TO.P,C3,2*%
%TO.N,GND*%
X138300000Y-109035000D03*
%TD*%
D22*
%TO.P,U1,1*%
%TO.N,Net-(C1-Pad1)*%
X147412323Y-96485000D03*
D23*
%TO.P,U1,2*%
%TO.N,Net-(R5-Pad2)*%
X147412323Y-99025000D03*
%TO.P,U1,3*%
%TO.N,Net-(C2-Pad1)*%
X147412323Y-101565000D03*
%TO.P,U1,4*%
%TO.N,Net-(R6-Pad2)*%
X147412323Y-104105000D03*
%TO.P,U1,5*%
%TO.N,Net-(C3-Pad1)*%
X147412323Y-106645000D03*
%TO.P,U1,6*%
%TO.N,Net-(R7-Pad2)*%
X147412323Y-109185000D03*
%TO.P,U1,7,VSS*%
%TO.N,GND*%
X147412323Y-111725000D03*
%TO.P,U1,8*%
%TO.N,Net-(R8-Pad2)*%
X155032323Y-111725000D03*
%TO.P,U1,9*%
%TO.N,Net-(C4-Pad1)*%
X155032323Y-109185000D03*
%TO.P,U1,10*%
%TO.N,Net-(R12-Pad2)*%
X155032323Y-106645000D03*
%TO.P,U1,11*%
%TO.N,Net-(C8-Pad1)*%
X155032323Y-104105000D03*
%TO.P,U1,12*%
%TO.N,Net-(R14-Pad2)*%
X155032323Y-101565000D03*
%TO.P,U1,13*%
%TO.N,Net-(C10-Pad1)*%
X155032323Y-99025000D03*
%TO.P,U1,14,VDD*%
%TO.N,Net-(U1G-VDD)*%
X155032323Y-96485000D03*
%TD*%
D22*
%TO.P,C11,1*%
%TO.N,Net-(C11-Pad1)*%
X167950000Y-87500000D03*
D21*
%TO.P,C11,2*%
%TO.N,GND*%
X167950000Y-90000000D03*
%TD*%
D13*
%TO.P,C10,1*%
%TO.N,Net-(C10-Pad1)*%
X158750000Y-94000000D03*
D14*
%TO.P,C10,2*%
%TO.N,GND*%
X160750000Y-94000000D03*
%TD*%
D24*
%TO.P,R1,1*%
%TO.N,Net-(C1-Pad1)*%
X143332323Y-95035000D03*
D25*
%TO.P,R1,2*%
%TO.N,Net-(R1-Pad2)*%
X138252323Y-95035000D03*
%TD*%
D24*
%TO.P,R11,1*%
%TO.N,Net-(C8-Pad1)*%
X158740000Y-104100000D03*
D25*
%TO.P,R11,2*%
%TO.N,Net-(R11-Pad2)*%
X163820000Y-104100000D03*
%TD*%
D24*
%TO.P,R4,1*%
%TO.N,Net-(C4-Pad1)*%
X143332323Y-116900000D03*
D25*
%TO.P,R4,2*%
%TO.N,Net-(R4-Pad2)*%
X138252323Y-116900000D03*
%TD*%
D21*
%TO.P,C1,1*%
%TO.N,Net-(C1-Pad1)*%
X143332323Y-92035000D03*
%TO.P,C1,2*%
%TO.N,GND*%
X138332323Y-92035000D03*
%TD*%
%TO.P,C5,1*%
%TO.N,Net-(U1G-VDD)*%
X153732323Y-92060000D03*
%TO.P,C5,2*%
%TO.N,GND*%
X148732323Y-92060000D03*
%TD*%
D24*
%TO.P,R6,1*%
%TO.N,Net-(C6-Pad1)*%
X143300000Y-106035000D03*
D25*
%TO.P,R6,2*%
%TO.N,Net-(R6-Pad2)*%
X138220000Y-106035000D03*
%TD*%
D22*
%TO.P,D4,1,K*%
%TO.N,Net-(D3-K)*%
X146543800Y-88469800D03*
D23*
%TO.P,D4,2,A*%
%TO.N,Net-(BT1-+)*%
X138923800Y-88469800D03*
%TD*%
D22*
%TO.P,D3,1,K*%
%TO.N,Net-(D3-K)*%
X146540000Y-85640000D03*
D23*
%TO.P,D3,2,A*%
%TO.N,Net-(D3-A)*%
X138920000Y-85640000D03*
%TD*%
D21*
%TO.P,C4,1*%
%TO.N,Net-(C4-Pad1)*%
X148700000Y-115800000D03*
%TO.P,C4,2*%
%TO.N,GND*%
X153700000Y-115800000D03*
%TD*%
D24*
%TO.P,R14,1*%
%TO.N,Net-(C11-Pad1)*%
X163820000Y-101600000D03*
D25*
%TO.P,R14,2*%
%TO.N,Net-(R14-Pad2)*%
X158740000Y-101600000D03*
%TD*%
%TO.P,R3,2*%
%TO.N,Net-(R3-Pad2)*%
X138320000Y-112000000D03*
D24*
%TO.P,R3,1*%
%TO.N,Net-(C3-Pad1)*%
X143400000Y-112000000D03*
%TD*%
D21*
%TO.P,C9,2*%
%TO.N,GND*%
X168300000Y-112500000D03*
D22*
%TO.P,C9,1*%
%TO.N,Net-(C9-Pad1)*%
X168300000Y-115000000D03*
%TD*%
D24*
%TO.P,R7,1*%
%TO.N,Net-(C6-Pad1)*%
X143300000Y-114535000D03*
D25*
%TO.P,R7,2*%
%TO.N,Net-(R7-Pad2)*%
X138220000Y-114535000D03*
%TD*%
D24*
%TO.P,R12,1*%
%TO.N,Net-(C9-Pad1)*%
X163900000Y-106600000D03*
D25*
%TO.P,R12,2*%
%TO.N,Net-(R12-Pad2)*%
X158820000Y-106600000D03*
%TD*%
D24*
%TO.P,R10,1*%
%TO.N,VCC*%
X155460000Y-82900000D03*
D25*
%TO.P,R10,2*%
%TO.N,Net-(D1-K)*%
X160540000Y-82900000D03*
%TD*%
D21*
%TO.P,C2,1*%
%TO.N,Net-(C2-Pad1)*%
X143300000Y-100500000D03*
%TO.P,C2,2*%
%TO.N,GND*%
X138300000Y-100500000D03*
%TD*%
D24*
%TO.P,R13,1*%
%TO.N,Net-(C10-Pad1)*%
X158740000Y-99100000D03*
D25*
%TO.P,R13,2*%
%TO.N,Net-(R13-Pad2)*%
X163820000Y-99100000D03*
%TD*%
D24*
%TO.P,R8,1*%
%TO.N,Net-(C6-Pad1)*%
X143332323Y-119400000D03*
D25*
%TO.P,R8,2*%
%TO.N,Net-(R8-Pad2)*%
X138252323Y-119400000D03*
%TD*%
D24*
%TO.P,R15,1*%
%TO.N,GND*%
X152470000Y-87950000D03*
D25*
%TO.P,R15,2*%
%TO.N,Net-(D2-K)*%
X157550000Y-87950000D03*
%TD*%
D24*
%TO.P,R5,1*%
%TO.N,Net-(C6-Pad1)*%
X143280000Y-97535000D03*
D25*
%TO.P,R5,2*%
%TO.N,Net-(R5-Pad2)*%
X138200000Y-97535000D03*
%TD*%
D24*
%TO.P,R2,1*%
%TO.N,Net-(C2-Pad1)*%
X143332323Y-103535000D03*
D25*
%TO.P,R2,2*%
%TO.N,Net-(R2-Pad2)*%
X138252323Y-103535000D03*
%TD*%
D23*
%TO.P,D1,2,A*%
%TO.N,GND*%
X152500000Y-85500000D03*
D22*
%TO.P,D1,1,K*%
%TO.N,Net-(D1-K)*%
X160120000Y-85500000D03*
%TD*%
D26*
%TO.N,Net-(R8-Pad2)*%
X157250000Y-116000000D03*
%TO.N,Net-(R6-Pad2)*%
X145250000Y-104850000D03*
X140000000Y-104850000D03*
%TO.N,Net-(C8-Pad1)*%
X161500000Y-108700000D03*
X160850000Y-105350000D03*
%TO.N,Net-(R8-Pad2)*%
X139300000Y-121400000D03*
%TO.N,Net-(R7-Pad2)*%
X145325000Y-110400000D03*
X140150000Y-113385000D03*
%TD*%
D27*
%TO.N,Net-(R8-Pad2)*%
X139300000Y-121400000D02*
X146100000Y-121400000D01*
X156250000Y-118800000D02*
X157250000Y-117800000D01*
X157250000Y-117800000D02*
X157250000Y-116000000D01*
X146100000Y-121400000D02*
X148700000Y-118800000D01*
X148700000Y-118800000D02*
X156250000Y-118800000D01*
%TO.N,Net-(R6-Pad2)*%
X140000000Y-104850000D02*
X145250000Y-104850000D01*
%TO.N,Net-(C8-Pad1)*%
X161050000Y-108250000D02*
X161500000Y-108700000D01*
X160850000Y-108050000D02*
X161050000Y-108250000D01*
X160850000Y-105350000D02*
X160850000Y-108050000D01*
%TO.N,Net-(R7-Pad2)*%
X145325000Y-110400000D02*
X145325000Y-112775000D01*
X144715000Y-113385000D02*
X140150000Y-113385000D01*
X145325000Y-112775000D02*
X144715000Y-113385000D01*
%TD*%
%TA.AperFunction,Conductor*%
%TO.N,GND*%
G36*
X184442539Y-65520185D02*
G01*
X184488294Y-65572989D01*
X184499500Y-65624500D01*
X184499500Y-134375500D01*
X184479815Y-134442539D01*
X184427011Y-134488294D01*
X184375500Y-134499500D01*
X115624500Y-134499500D01*
X115557461Y-134479815D01*
X115511706Y-134427011D01*
X115500500Y-134375500D01*
X115500500Y-129830491D01*
X134049500Y-129830491D01*
X134049500Y-130169508D01*
X134082729Y-130506901D01*
X134148870Y-130839410D01*
X134247284Y-131163841D01*
X134377024Y-131477060D01*
X134377026Y-131477065D01*
X134536831Y-131776039D01*
X134536842Y-131776057D01*
X134725184Y-132057930D01*
X134725194Y-132057944D01*
X134940269Y-132320014D01*
X135179985Y-132559730D01*
X135179990Y-132559734D01*
X135179991Y-132559735D01*
X135442061Y-132774810D01*
X135723949Y-132963162D01*
X135723958Y-132963167D01*
X135723960Y-132963168D01*
X136022934Y-133122973D01*
X136022936Y-133122973D01*
X136022942Y-133122977D01*
X136336160Y-133252716D01*
X136660586Y-133351129D01*
X136993096Y-133417270D01*
X137330488Y-133450500D01*
X137330491Y-133450500D01*
X137669509Y-133450500D01*
X137669512Y-133450500D01*
X138006904Y-133417270D01*
X138339414Y-133351129D01*
X138663840Y-133252716D01*
X138977058Y-133122977D01*
X139276051Y-132963162D01*
X139557939Y-132774810D01*
X139820009Y-132559735D01*
X140059735Y-132320009D01*
X140274810Y-132057939D01*
X140463162Y-131776051D01*
X140622977Y-131477058D01*
X140752716Y-131163840D01*
X140851129Y-130839414D01*
X140917270Y-130506904D01*
X140950500Y-130169512D01*
X140950500Y-129830491D01*
X146549500Y-129830491D01*
X146549500Y-130169508D01*
X146582729Y-130506901D01*
X146648870Y-130839410D01*
X146747284Y-131163841D01*
X146877024Y-131477060D01*
X146877026Y-131477065D01*
X147036831Y-131776039D01*
X147036842Y-131776057D01*
X147225184Y-132057930D01*
X147225194Y-132057944D01*
X147440269Y-132320014D01*
X147679985Y-132559730D01*
X147679990Y-132559734D01*
X147679991Y-132559735D01*
X147942061Y-132774810D01*
X148223949Y-132963162D01*
X148223958Y-132963167D01*
X148223960Y-132963168D01*
X148522934Y-133122973D01*
X148522936Y-133122973D01*
X148522942Y-133122977D01*
X148836160Y-133252716D01*
X149160586Y-133351129D01*
X149493096Y-133417270D01*
X149830488Y-133450500D01*
X149830491Y-133450500D01*
X150169509Y-133450500D01*
X150169512Y-133450500D01*
X150506904Y-133417270D01*
X150839414Y-133351129D01*
X151163840Y-133252716D01*
X151477058Y-133122977D01*
X151776051Y-132963162D01*
X152057939Y-132774810D01*
X152320009Y-132559735D01*
X152559735Y-132320009D01*
X152774810Y-132057939D01*
X152963162Y-131776051D01*
X153122977Y-131477058D01*
X153252716Y-131163840D01*
X153351129Y-130839414D01*
X153417270Y-130506904D01*
X153450500Y-130169512D01*
X153450500Y-129830491D01*
X159049500Y-129830491D01*
X159049500Y-130169508D01*
X159082729Y-130506901D01*
X159148870Y-130839410D01*
X159247284Y-131163841D01*
X159377024Y-131477060D01*
X159377026Y-131477065D01*
X159536831Y-131776039D01*
X159536842Y-131776057D01*
X159725184Y-132057930D01*
X159725194Y-132057944D01*
X159940269Y-132320014D01*
X160179985Y-132559730D01*
X160179990Y-132559734D01*
X160179991Y-132559735D01*
X160442061Y-132774810D01*
X160723949Y-132963162D01*
X160723958Y-132963167D01*
X160723960Y-132963168D01*
X161022934Y-133122973D01*
X161022936Y-133122973D01*
X161022942Y-133122977D01*
X161336160Y-133252716D01*
X161660586Y-133351129D01*
X161993096Y-133417270D01*
X162330488Y-133450500D01*
X162330491Y-133450500D01*
X162669509Y-133450500D01*
X162669512Y-133450500D01*
X163006904Y-133417270D01*
X163339414Y-133351129D01*
X163663840Y-133252716D01*
X163977058Y-133122977D01*
X164276051Y-132963162D01*
X164557939Y-132774810D01*
X164820009Y-132559735D01*
X165059735Y-132320009D01*
X165274810Y-132057939D01*
X165463162Y-131776051D01*
X165622977Y-131477058D01*
X165752716Y-131163840D01*
X165851129Y-130839414D01*
X165917270Y-130506904D01*
X165950500Y-130169512D01*
X165950500Y-129830488D01*
X165917270Y-129493096D01*
X165851129Y-129160586D01*
X165752716Y-128836160D01*
X165622977Y-128522942D01*
X165463162Y-128223949D01*
X165274810Y-127942061D01*
X165059735Y-127679991D01*
X165059734Y-127679990D01*
X165059730Y-127679985D01*
X164820014Y-127440269D01*
X164557944Y-127225194D01*
X164557943Y-127225193D01*
X164557939Y-127225190D01*
X164276051Y-127036838D01*
X164276046Y-127036835D01*
X164276039Y-127036831D01*
X163977065Y-126877026D01*
X163977060Y-126877024D01*
X163663841Y-126747284D01*
X163473382Y-126689509D01*
X163339414Y-126648871D01*
X163339411Y-126648870D01*
X163339410Y-126648870D01*
X163006901Y-126582729D01*
X162769199Y-126559318D01*
X162669512Y-126549500D01*
X162330488Y-126549500D01*
X162239738Y-126558437D01*
X161993098Y-126582729D01*
X161660589Y-126648870D01*
X161336158Y-126747284D01*
X161022939Y-126877024D01*
X161022934Y-126877026D01*
X160723960Y-127036831D01*
X160723942Y-127036842D01*
X160442069Y-127225184D01*
X160442055Y-127225194D01*
X160179985Y-127440269D01*
X159940269Y-127679985D01*
X159725194Y-127942055D01*
X159725184Y-127942069D01*
X159536842Y-128223942D01*
X159536831Y-128223960D01*
X159377026Y-128522934D01*
X159377024Y-128522939D01*
X159247284Y-128836158D01*
X159148870Y-129160589D01*
X159082729Y-129493098D01*
X159049500Y-129830491D01*
X153450500Y-129830491D01*
X153450500Y-129830488D01*
X153417270Y-129493096D01*
X153351129Y-129160586D01*
X153252716Y-128836160D01*
X153122977Y-128522942D01*
X152963162Y-128223949D01*
X152774810Y-127942061D01*
X152559735Y-127679991D01*
X152559734Y-127679990D01*
X152559730Y-127679985D01*
X152320014Y-127440269D01*
X152057944Y-127225194D01*
X152057943Y-127225193D01*
X152057939Y-127225190D01*
X151776051Y-127036838D01*
X151776046Y-127036835D01*
X151776039Y-127036831D01*
X151477065Y-126877026D01*
X151477060Y-126877024D01*
X151163841Y-126747284D01*
X150973382Y-126689509D01*
X150839414Y-126648871D01*
X150839411Y-126648870D01*
X150839410Y-126648870D01*
X150506901Y-126582729D01*
X150269199Y-126559318D01*
X150169512Y-126549500D01*
X149830488Y-126549500D01*
X149739738Y-126558437D01*
X149493098Y-126582729D01*
X149160589Y-126648870D01*
X148836158Y-126747284D01*
X148522939Y-126877024D01*
X148522934Y-126877026D01*
X148223960Y-127036831D01*
X148223942Y-127036842D01*
X147942069Y-127225184D01*
X147942055Y-127225194D01*
X147679985Y-127440269D01*
X147440269Y-127679985D01*
X147225194Y-127942055D01*
X147225184Y-127942069D01*
X147036842Y-128223942D01*
X147036831Y-128223960D01*
X146877026Y-128522934D01*
X146877024Y-128522939D01*
X146747284Y-128836158D01*
X146648870Y-129160589D01*
X146582729Y-129493098D01*
X146549500Y-129830491D01*
X140950500Y-129830491D01*
X140950500Y-129830488D01*
X140917270Y-129493096D01*
X140851129Y-129160586D01*
X140752716Y-128836160D01*
X140622977Y-128522942D01*
X140463162Y-128223949D01*
X140274810Y-127942061D01*
X140059735Y-127679991D01*
X140059734Y-127679990D01*
X140059730Y-127679985D01*
X139820014Y-127440269D01*
X139557944Y-127225194D01*
X139557943Y-127225193D01*
X139557939Y-127225190D01*
X139276051Y-127036838D01*
X139276046Y-127036835D01*
X139276039Y-127036831D01*
X138977065Y-126877026D01*
X138977060Y-126877024D01*
X138663841Y-126747284D01*
X138473382Y-126689509D01*
X138339414Y-126648871D01*
X138339411Y-126648870D01*
X138339410Y-126648870D01*
X138006901Y-126582729D01*
X137769199Y-126559318D01*
X137669512Y-126549500D01*
X137330488Y-126549500D01*
X137239738Y-126558437D01*
X136993098Y-126582729D01*
X136660589Y-126648870D01*
X136336158Y-126747284D01*
X136022939Y-126877024D01*
X136022934Y-126877026D01*
X135723960Y-127036831D01*
X135723942Y-127036842D01*
X135442069Y-127225184D01*
X135442055Y-127225194D01*
X135179985Y-127440269D01*
X134940269Y-127679985D01*
X134725194Y-127942055D01*
X134725184Y-127942069D01*
X134536842Y-128223942D01*
X134536831Y-128223960D01*
X134377026Y-128522934D01*
X134377024Y-128522939D01*
X134247284Y-128836158D01*
X134148870Y-129160589D01*
X134082729Y-129493098D01*
X134049500Y-129830491D01*
X115500500Y-129830491D01*
X115500500Y-123360645D01*
X142176901Y-123360645D01*
X142176901Y-124639363D01*
X142192354Y-124756753D01*
X142192357Y-124756762D01*
X142252865Y-124902841D01*
X142349119Y-125028282D01*
X142474560Y-125124536D01*
X142620639Y-125185044D01*
X142738040Y-125200500D01*
X144016761Y-125200499D01*
X144016764Y-125200499D01*
X144134154Y-125185046D01*
X144134158Y-125185044D01*
X144134163Y-125185044D01*
X144280242Y-125124536D01*
X144405683Y-125028282D01*
X144455501Y-124963357D01*
X144511926Y-124922156D01*
X144581672Y-124918001D01*
X144626759Y-124938526D01*
X144748202Y-125026760D01*
X144827748Y-125067290D01*
X144916564Y-125112545D01*
X144916566Y-125112545D01*
X144916569Y-125112547D01*
X145012898Y-125143846D01*
X145096282Y-125170940D01*
X145282915Y-125200500D01*
X145282920Y-125200500D01*
X145471887Y-125200500D01*
X145658519Y-125170940D01*
X145838233Y-125112547D01*
X146006600Y-125026760D01*
X146159474Y-124915690D01*
X146293091Y-124782073D01*
X146404161Y-124629199D01*
X146489948Y-124460832D01*
X146548341Y-124281118D01*
X146577901Y-124094486D01*
X146577901Y-123905513D01*
X146548341Y-123718881D01*
X146505084Y-123585753D01*
X146489948Y-123539168D01*
X146489946Y-123539165D01*
X146489946Y-123539163D01*
X146404160Y-123370800D01*
X146396782Y-123360645D01*
X146293091Y-123217927D01*
X146159474Y-123084310D01*
X146006600Y-122973240D01*
X146003613Y-122971718D01*
X145838237Y-122887454D01*
X145658519Y-122829059D01*
X145471887Y-122799500D01*
X145471882Y-122799500D01*
X145282920Y-122799500D01*
X145282915Y-122799500D01*
X145096282Y-122829059D01*
X144916564Y-122887454D01*
X144748198Y-122973242D01*
X144626760Y-123061472D01*
X144560954Y-123084952D01*
X144492900Y-123069126D01*
X144455499Y-123036640D01*
X144405684Y-122971719D01*
X144405683Y-122971718D01*
X144280242Y-122875464D01*
X144246701Y-122861571D01*
X144134163Y-122814956D01*
X144134161Y-122814955D01*
X144016771Y-122799501D01*
X144016768Y-122799500D01*
X144016762Y-122799500D01*
X144016755Y-122799500D01*
X142738037Y-122799500D01*
X142620647Y-122814953D01*
X142620638Y-122814956D01*
X142474561Y-122875463D01*
X142349119Y-122971718D01*
X142252864Y-123097160D01*
X142192357Y-123243237D01*
X142192356Y-123243239D01*
X142176902Y-123360629D01*
X142176901Y-123360645D01*
X115500500Y-123360645D01*
X115500500Y-116076048D01*
X130524500Y-116076048D01*
X130524500Y-116923951D01*
X130527317Y-116965499D01*
X130571963Y-117145021D01*
X130571964Y-117145023D01*
X130654156Y-117310750D01*
X130770059Y-117454939D01*
X130829885Y-117503029D01*
X130869803Y-117560372D01*
X130872383Y-117630194D01*
X130839881Y-117687355D01*
X130809310Y-117717927D01*
X130698240Y-117870800D01*
X130612454Y-118039163D01*
X130554059Y-118218881D01*
X130524500Y-118405513D01*
X130524500Y-118594486D01*
X130554059Y-118781118D01*
X130612454Y-118960836D01*
X130681052Y-119095465D01*
X130698240Y-119129199D01*
X130809310Y-119282073D01*
X130942927Y-119415690D01*
X131095801Y-119526760D01*
X131148674Y-119553700D01*
X131264163Y-119612545D01*
X131264165Y-119612545D01*
X131264168Y-119612547D01*
X131360497Y-119643846D01*
X131443881Y-119670940D01*
X131630514Y-119700500D01*
X131630519Y-119700500D01*
X132369486Y-119700500D01*
X132556118Y-119670940D01*
X132619025Y-119650500D01*
X132735832Y-119612547D01*
X132904199Y-119526760D01*
X133057073Y-119415690D01*
X133190690Y-119282073D01*
X133301760Y-119129199D01*
X133387547Y-118960832D01*
X133445940Y-118781118D01*
X133455876Y-118718386D01*
X133475500Y-118594486D01*
X133475500Y-118405513D01*
X133445940Y-118218881D01*
X133387660Y-118039516D01*
X133387547Y-118039168D01*
X133387545Y-118039165D01*
X133387545Y-118039163D01*
X133340415Y-117946666D01*
X133301760Y-117870801D01*
X133190690Y-117717927D01*
X133160120Y-117687357D01*
X133126635Y-117626034D01*
X133131619Y-117556342D01*
X133170112Y-117503030D01*
X133229940Y-117454940D01*
X133345842Y-117310753D01*
X133428037Y-117145021D01*
X133472683Y-116965495D01*
X133475500Y-116923954D01*
X133475500Y-116076046D01*
X133472683Y-116034505D01*
X133428037Y-115854979D01*
X133345842Y-115689247D01*
X133261713Y-115584587D01*
X133229940Y-115545059D01*
X133107260Y-115446446D01*
X133085753Y-115429158D01*
X133085751Y-115429157D01*
X133085750Y-115429156D01*
X132920023Y-115346964D01*
X132920021Y-115346963D01*
X132740497Y-115302317D01*
X132740501Y-115302317D01*
X132709339Y-115300204D01*
X132698954Y-115299500D01*
X131301046Y-115299500D01*
X131289177Y-115300304D01*
X131259500Y-115302317D01*
X131079978Y-115346963D01*
X131079976Y-115346964D01*
X130914249Y-115429156D01*
X130770059Y-115545059D01*
X130654156Y-115689249D01*
X130571964Y-115854976D01*
X130571963Y-115854978D01*
X130527317Y-116034500D01*
X130524500Y-116076048D01*
X115500500Y-116076048D01*
X115500500Y-109830488D01*
X119049500Y-109830488D01*
X119049500Y-110169512D01*
X119055735Y-110232815D01*
X119082729Y-110506901D01*
X119139993Y-110794781D01*
X119148871Y-110839414D01*
X119182285Y-110949567D01*
X119247284Y-111163841D01*
X119325330Y-111352259D01*
X119353605Y-111420523D01*
X119377024Y-111477060D01*
X119377026Y-111477065D01*
X119536831Y-111776039D01*
X119536835Y-111776046D01*
X119536838Y-111776051D01*
X119706129Y-112029413D01*
X119725184Y-112057930D01*
X119725194Y-112057944D01*
X119940269Y-112320014D01*
X120179985Y-112559730D01*
X120179990Y-112559734D01*
X120179991Y-112559735D01*
X120442061Y-112774810D01*
X120723949Y-112963162D01*
X120723958Y-112963167D01*
X120723960Y-112963168D01*
X121022934Y-113122973D01*
X121022936Y-113122973D01*
X121022942Y-113122977D01*
X121336160Y-113252716D01*
X121660586Y-113351129D01*
X121993096Y-113417270D01*
X122330488Y-113450500D01*
X122330491Y-113450500D01*
X122669509Y-113450500D01*
X122669512Y-113450500D01*
X123006904Y-113417270D01*
X123339414Y-113351129D01*
X123663840Y-113252716D01*
X123977058Y-113122977D01*
X124276051Y-112963162D01*
X124557939Y-112774810D01*
X124820009Y-112559735D01*
X125059735Y-112320009D01*
X125274810Y-112057939D01*
X125463162Y-111776051D01*
X125622977Y-111477058D01*
X125752716Y-111163840D01*
X125851129Y-110839414D01*
X125917270Y-110506904D01*
X125950500Y-110169512D01*
X125950500Y-109830488D01*
X125917270Y-109493096D01*
X125851129Y-109160586D01*
X125825485Y-109076048D01*
X130524500Y-109076048D01*
X130524500Y-109923951D01*
X130527317Y-109965499D01*
X130571963Y-110145021D01*
X130571964Y-110145023D01*
X130654156Y-110310750D01*
X130654157Y-110310751D01*
X130654158Y-110310753D01*
X130700641Y-110368580D01*
X130770059Y-110454939D01*
X130829885Y-110503029D01*
X130869803Y-110560372D01*
X130872383Y-110630194D01*
X130839881Y-110687355D01*
X130809310Y-110717927D01*
X130698240Y-110870800D01*
X130612454Y-111039163D01*
X130554059Y-111218881D01*
X130524500Y-111405513D01*
X130524500Y-111594486D01*
X130554059Y-111781118D01*
X130612454Y-111960836D01*
X130697252Y-112127259D01*
X130698240Y-112129199D01*
X130809310Y-112282073D01*
X130942927Y-112415690D01*
X131095801Y-112526760D01*
X131160518Y-112559735D01*
X131264163Y-112612545D01*
X131264165Y-112612545D01*
X131264168Y-112612547D01*
X131360497Y-112643846D01*
X131443881Y-112670940D01*
X131630514Y-112700500D01*
X131630519Y-112700500D01*
X132369486Y-112700500D01*
X132556118Y-112670940D01*
X132735832Y-112612547D01*
X132904199Y-112526760D01*
X133057073Y-112415690D01*
X133190690Y-112282073D01*
X133301760Y-112129199D01*
X133387547Y-111960832D01*
X133445940Y-111781118D01*
X133463169Y-111672339D01*
X133475500Y-111594486D01*
X133475500Y-111405513D01*
X133445940Y-111218881D01*
X133388872Y-111043246D01*
X133387547Y-111039168D01*
X133387545Y-111039165D01*
X133387545Y-111039163D01*
X133320154Y-110906902D01*
X133301760Y-110870801D01*
X133190690Y-110717927D01*
X133160120Y-110687357D01*
X133126635Y-110626034D01*
X133131619Y-110556342D01*
X133170112Y-110503030D01*
X133229940Y-110454940D01*
X133345842Y-110310753D01*
X133428037Y-110145021D01*
X133472683Y-109965495D01*
X133475500Y-109923954D01*
X133475500Y-109076046D01*
X133472683Y-109034505D01*
X133454817Y-108962666D01*
X133453593Y-108957742D01*
X133447361Y-108932682D01*
X137000000Y-108932682D01*
X137000000Y-109137317D01*
X137032009Y-109339417D01*
X137095244Y-109534031D01*
X137188141Y-109716350D01*
X137188147Y-109716359D01*
X137220523Y-109760921D01*
X137220524Y-109760922D01*
X137900000Y-109081446D01*
X137900000Y-109087661D01*
X137927259Y-109189394D01*
X137979920Y-109280606D01*
X138054394Y-109355080D01*
X138145606Y-109407741D01*
X138247339Y-109435000D01*
X138253553Y-109435000D01*
X137574076Y-110114474D01*
X137618650Y-110146859D01*
X137800968Y-110239755D01*
X137995582Y-110302990D01*
X138197683Y-110335000D01*
X138402317Y-110335000D01*
X138604417Y-110302990D01*
X138799031Y-110239755D01*
X138981349Y-110146859D01*
X139025921Y-110114474D01*
X138346447Y-109435000D01*
X138352661Y-109435000D01*
X138454394Y-109407741D01*
X138545606Y-109355080D01*
X138620080Y-109280606D01*
X138672741Y-109189394D01*
X138700000Y-109087661D01*
X138700000Y-109081448D01*
X139379474Y-109760922D01*
X139379474Y-109760921D01*
X139411859Y-109716349D01*
X139504755Y-109534031D01*
X139567990Y-109339417D01*
X139600000Y-109137317D01*
X139600000Y-108932682D01*
X139567990Y-108730582D01*
X139504755Y-108535968D01*
X139411859Y-108353650D01*
X139379474Y-108309077D01*
X139379474Y-108309076D01*
X138700000Y-108988551D01*
X138700000Y-108982339D01*
X138672741Y-108880606D01*
X138620080Y-108789394D01*
X138545606Y-108714920D01*
X138454394Y-108662259D01*
X138352661Y-108635000D01*
X138346446Y-108635000D01*
X139025922Y-107955524D01*
X139025921Y-107955523D01*
X138981359Y-107923147D01*
X138981350Y-107923141D01*
X138799031Y-107830244D01*
X138604417Y-107767009D01*
X138402317Y-107735000D01*
X138197683Y-107735000D01*
X137995582Y-107767009D01*
X137800968Y-107830244D01*
X137618644Y-107923143D01*
X137574077Y-107955523D01*
X137574077Y-107955524D01*
X138253554Y-108635000D01*
X138247339Y-108635000D01*
X138145606Y-108662259D01*
X138054394Y-108714920D01*
X137979920Y-108789394D01*
X137927259Y-108880606D01*
X137900000Y-108982339D01*
X137900000Y-108988553D01*
X137220524Y-108309077D01*
X137220523Y-108309077D01*
X137188143Y-108353644D01*
X137095244Y-108535968D01*
X137032009Y-108730582D01*
X137000000Y-108932682D01*
X133447361Y-108932682D01*
X133434410Y-108880606D01*
X133428037Y-108854979D01*
X133345842Y-108689247D01*
X133283189Y-108611304D01*
X133229940Y-108545059D01*
X133095924Y-108437334D01*
X133085753Y-108429158D01*
X133085751Y-108429157D01*
X133085750Y-108429156D01*
X132920023Y-108346964D01*
X132920021Y-108346963D01*
X132740497Y-108302317D01*
X132740501Y-108302317D01*
X132709339Y-108300204D01*
X132698954Y-108299500D01*
X131301046Y-108299500D01*
X131289177Y-108300304D01*
X131259500Y-108302317D01*
X131079978Y-108346963D01*
X131079976Y-108346964D01*
X130914249Y-108429156D01*
X130770059Y-108545059D01*
X130654156Y-108689249D01*
X130571964Y-108854976D01*
X130571963Y-108854978D01*
X130527317Y-109034500D01*
X130524500Y-109076048D01*
X125825485Y-109076048D01*
X125752716Y-108836160D01*
X125622977Y-108522942D01*
X125609322Y-108497396D01*
X125463168Y-108223960D01*
X125463167Y-108223958D01*
X125463162Y-108223949D01*
X125274810Y-107942061D01*
X125059735Y-107679991D01*
X125059734Y-107679990D01*
X125059730Y-107679985D01*
X124820014Y-107440269D01*
X124557944Y-107225194D01*
X124557943Y-107225193D01*
X124557939Y-107225190D01*
X124276051Y-107036838D01*
X124276046Y-107036835D01*
X124276039Y-107036831D01*
X123977065Y-106877026D01*
X123977060Y-106877024D01*
X123663841Y-106747284D01*
X123473382Y-106689509D01*
X123339414Y-106648871D01*
X123339411Y-106648870D01*
X123339410Y-106648870D01*
X123006901Y-106582729D01*
X122769199Y-106559318D01*
X122669512Y-106549500D01*
X122330488Y-106549500D01*
X122239738Y-106558437D01*
X121993098Y-106582729D01*
X121660589Y-106648870D01*
X121336158Y-106747284D01*
X121022939Y-106877024D01*
X121022934Y-106877026D01*
X120723960Y-107036831D01*
X120723942Y-107036842D01*
X120442069Y-107225184D01*
X120442055Y-107225194D01*
X120179985Y-107440269D01*
X119940269Y-107679985D01*
X119725194Y-107942055D01*
X119725184Y-107942069D01*
X119536842Y-108223942D01*
X119536831Y-108223960D01*
X119377026Y-108522934D01*
X119377024Y-108522939D01*
X119247284Y-108836158D01*
X119148870Y-109160589D01*
X119082729Y-109493098D01*
X119060741Y-109716359D01*
X119049500Y-109830488D01*
X115500500Y-109830488D01*
X115500500Y-105932648D01*
X136919500Y-105932648D01*
X136919500Y-106137351D01*
X136951522Y-106339534D01*
X137014781Y-106534223D01*
X137056192Y-106615495D01*
X137100448Y-106702352D01*
X137107715Y-106716613D01*
X137228028Y-106882213D01*
X137372786Y-107026971D01*
X137527749Y-107139556D01*
X137538390Y-107147287D01*
X137654607Y-107206503D01*
X137720776Y-107240218D01*
X137720778Y-107240218D01*
X137720781Y-107240220D01*
X137825137Y-107274127D01*
X137915465Y-107303477D01*
X138016557Y-107319488D01*
X138117648Y-107335500D01*
X138117649Y-107335500D01*
X138322351Y-107335500D01*
X138322352Y-107335500D01*
X138524534Y-107303477D01*
X138719219Y-107240220D01*
X138901610Y-107147287D01*
X139053626Y-107036842D01*
X139067213Y-107026971D01*
X139067215Y-107026968D01*
X139067219Y-107026966D01*
X139211966Y-106882219D01*
X139211968Y-106882215D01*
X139211971Y-106882213D01*
X139275317Y-106795023D01*
X139332287Y-106716610D01*
X139425220Y-106534219D01*
X139488477Y-106339534D01*
X139520500Y-106137352D01*
X139520500Y-105932648D01*
X139503172Y-105823245D01*
X139512127Y-105753952D01*
X139557123Y-105700500D01*
X139623874Y-105679860D01*
X139673094Y-105689285D01*
X139737334Y-105715894D01*
X139737337Y-105715894D01*
X139737341Y-105715896D01*
X139911304Y-105750499D01*
X139911307Y-105750500D01*
X139911309Y-105750500D01*
X140088693Y-105750500D01*
X140088694Y-105750499D01*
X140146682Y-105738964D01*
X140262658Y-105715896D01*
X140262659Y-105715895D01*
X140262666Y-105715894D01*
X140277046Y-105709937D01*
X140324495Y-105700500D01*
X141891084Y-105700500D01*
X141958123Y-105720185D01*
X142003878Y-105772989D01*
X142013822Y-105842147D01*
X142013557Y-105843898D01*
X141999500Y-105932648D01*
X141999500Y-106137351D01*
X142031522Y-106339534D01*
X142094781Y-106534223D01*
X142136192Y-106615495D01*
X142180448Y-106702352D01*
X142187715Y-106716613D01*
X142308028Y-106882213D01*
X142452786Y-107026971D01*
X142607749Y-107139556D01*
X142618390Y-107147287D01*
X142734607Y-107206503D01*
X142800776Y-107240218D01*
X142800778Y-107240218D01*
X142800781Y-107240220D01*
X142905137Y-107274127D01*
X142995465Y-107303477D01*
X143096557Y-107319488D01*
X143197648Y-107335500D01*
X143197649Y-107335500D01*
X143402351Y-107335500D01*
X143402352Y-107335500D01*
X143604534Y-107303477D01*
X143799219Y-107240220D01*
X143981610Y-107147287D01*
X144133626Y-107036842D01*
X144147213Y-107026971D01*
X144147215Y-107026968D01*
X144147219Y-107026966D01*
X144291966Y-106882219D01*
X144291968Y-106882215D01*
X144291971Y-106882213D01*
X144355317Y-106795023D01*
X144412287Y-106716610D01*
X144505220Y-106534219D01*
X144568477Y-106339534D01*
X144600500Y-106137352D01*
X144600500Y-105932648D01*
X144586443Y-105843897D01*
X144588838Y-105825357D01*
X144586178Y-105806853D01*
X144593223Y-105791425D01*
X144595397Y-105774605D01*
X144607436Y-105760303D01*
X144615203Y-105743297D01*
X144629472Y-105734126D01*
X144640394Y-105721153D01*
X144658252Y-105715630D01*
X144673981Y-105705523D01*
X144705684Y-105700964D01*
X144707145Y-105700513D01*
X144708916Y-105700500D01*
X144925505Y-105700500D01*
X144972953Y-105709937D01*
X144987334Y-105715894D01*
X144987338Y-105715894D01*
X144987341Y-105715896D01*
X145161304Y-105750499D01*
X145161307Y-105750500D01*
X145161309Y-105750500D01*
X145338693Y-105750500D01*
X145338694Y-105750499D01*
X145396682Y-105738964D01*
X145512658Y-105715896D01*
X145512661Y-105715894D01*
X145512666Y-105715894D01*
X145652535Y-105657958D01*
X145676540Y-105648016D01*
X145676540Y-105648015D01*
X145676547Y-105648013D01*
X145824035Y-105549464D01*
X145949464Y-105424035D01*
X146048013Y-105276547D01*
X146048786Y-105274682D01*
X146074631Y-105212284D01*
X146115894Y-105112666D01*
X146119676Y-105093656D01*
X146124516Y-105069322D01*
X146156900Y-105007411D01*
X146217616Y-104972837D01*
X146287386Y-104976576D01*
X146339944Y-105014475D01*
X146340909Y-105013652D01*
X146344079Y-105017363D01*
X146499959Y-105173243D01*
X146499964Y-105173247D01*
X146639577Y-105274682D01*
X146682243Y-105330012D01*
X146688222Y-105399625D01*
X146655616Y-105461420D01*
X146639577Y-105475318D01*
X146499964Y-105576752D01*
X146499959Y-105576756D01*
X146344079Y-105732636D01*
X146344075Y-105732641D01*
X146214510Y-105910974D01*
X146114427Y-106107393D01*
X146114426Y-106107396D01*
X146046308Y-106317047D01*
X146011823Y-106534778D01*
X146011823Y-106755221D01*
X146046308Y-106972952D01*
X146114426Y-107182603D01*
X146114427Y-107182606D01*
X146164875Y-107281613D01*
X146198539Y-107347682D01*
X146214510Y-107379025D01*
X146344075Y-107557358D01*
X146344079Y-107557363D01*
X146499959Y-107713243D01*
X146499964Y-107713247D01*
X146639577Y-107814682D01*
X146682243Y-107870012D01*
X146688222Y-107939625D01*
X146655616Y-108001420D01*
X146639577Y-108015318D01*
X146499964Y-108116752D01*
X146499959Y-108116756D01*
X146344079Y-108272636D01*
X146344075Y-108272641D01*
X146214510Y-108450974D01*
X146114427Y-108647393D01*
X146114426Y-108647396D01*
X146046308Y-108857047D01*
X146011823Y-109074778D01*
X146011823Y-109295221D01*
X146046308Y-109512954D01*
X146054499Y-109538163D01*
X146056494Y-109608004D01*
X146020413Y-109667836D01*
X145957712Y-109698664D01*
X145888298Y-109690699D01*
X145867677Y-109679582D01*
X145751553Y-109601990D01*
X145751540Y-109601983D01*
X145587667Y-109534106D01*
X145587658Y-109534103D01*
X145413694Y-109499500D01*
X145413691Y-109499500D01*
X145236309Y-109499500D01*
X145236306Y-109499500D01*
X145062341Y-109534103D01*
X145062332Y-109534106D01*
X144898459Y-109601983D01*
X144898448Y-109601989D01*
X144799674Y-109667988D01*
X144732997Y-109688865D01*
X144665617Y-109670380D01*
X144618927Y-109618401D01*
X144607751Y-109549431D01*
X144612851Y-109526574D01*
X144666015Y-109362951D01*
X144700500Y-109145222D01*
X144700500Y-108924778D01*
X144666015Y-108707049D01*
X144631955Y-108602221D01*
X144597896Y-108497396D01*
X144597895Y-108497393D01*
X144563126Y-108429156D01*
X144497815Y-108300978D01*
X144477223Y-108272635D01*
X144368247Y-108122641D01*
X144368243Y-108122636D01*
X144212363Y-107966756D01*
X144212358Y-107966752D01*
X144034025Y-107837187D01*
X144034024Y-107837186D01*
X144034022Y-107837185D01*
X143971096Y-107805122D01*
X143837606Y-107737104D01*
X143837603Y-107737103D01*
X143627952Y-107668985D01*
X143485033Y-107646349D01*
X143410222Y-107634500D01*
X143189778Y-107634500D01*
X143117201Y-107645995D01*
X142972047Y-107668985D01*
X142762396Y-107737103D01*
X142762393Y-107737104D01*
X142565974Y-107837187D01*
X142387641Y-107966752D01*
X142387636Y-107966756D01*
X142231756Y-108122636D01*
X142231752Y-108122641D01*
X142102187Y-108300974D01*
X142002104Y-108497393D01*
X142002103Y-108497396D01*
X141933985Y-108707047D01*
X141910227Y-108857049D01*
X141899500Y-108924778D01*
X141899500Y-109145222D01*
X141901934Y-109160589D01*
X141933985Y-109362952D01*
X142002103Y-109572603D01*
X142002104Y-109572606D01*
X142062277Y-109690699D01*
X142098057Y-109760921D01*
X142102187Y-109769025D01*
X142231752Y-109947358D01*
X142231756Y-109947363D01*
X142387636Y-110103243D01*
X142387641Y-110103247D01*
X142484581Y-110173677D01*
X142565978Y-110232815D01*
X142692216Y-110297137D01*
X142762393Y-110332895D01*
X142762396Y-110332896D01*
X142867221Y-110366955D01*
X142972049Y-110401015D01*
X143189778Y-110435500D01*
X143189779Y-110435500D01*
X143410221Y-110435500D01*
X143410222Y-110435500D01*
X143627951Y-110401015D01*
X143837606Y-110332895D01*
X144034022Y-110232815D01*
X144179153Y-110127371D01*
X144212357Y-110103248D01*
X144212357Y-110103247D01*
X144212365Y-110103242D01*
X144239793Y-110075813D01*
X144301112Y-110042330D01*
X144370804Y-110047314D01*
X144426738Y-110089184D01*
X144451156Y-110154648D01*
X144449089Y-110187687D01*
X144424500Y-110311304D01*
X144424500Y-110488695D01*
X144459104Y-110662658D01*
X144459106Y-110662666D01*
X144465061Y-110677042D01*
X144466687Y-110685219D01*
X144469477Y-110689560D01*
X144474500Y-110724495D01*
X144474500Y-110935953D01*
X144454815Y-111002992D01*
X144402011Y-111048747D01*
X144332853Y-111058691D01*
X144269297Y-111029666D01*
X144262819Y-111023634D01*
X144247213Y-111008028D01*
X144081613Y-110887715D01*
X144081612Y-110887714D01*
X144081610Y-110887713D01*
X144024653Y-110858691D01*
X143899223Y-110794781D01*
X143704534Y-110731522D01*
X143529995Y-110703878D01*
X143502352Y-110699500D01*
X143297648Y-110699500D01*
X143273329Y-110703351D01*
X143095465Y-110731522D01*
X142900776Y-110794781D01*
X142718386Y-110887715D01*
X142552786Y-111008028D01*
X142408028Y-111152786D01*
X142287715Y-111318386D01*
X142194781Y-111500776D01*
X142131522Y-111695465D01*
X142099500Y-111897648D01*
X142099500Y-112102351D01*
X142131522Y-112304534D01*
X142153503Y-112372181D01*
X142155498Y-112442022D01*
X142119418Y-112501855D01*
X142056717Y-112532684D01*
X142035572Y-112534500D01*
X140474495Y-112534500D01*
X140427046Y-112525062D01*
X140412666Y-112519106D01*
X140412662Y-112519105D01*
X140412658Y-112519103D01*
X140238694Y-112484500D01*
X140238691Y-112484500D01*
X140061309Y-112484500D01*
X140061306Y-112484500D01*
X139887341Y-112519103D01*
X139887332Y-112519106D01*
X139723444Y-112586989D01*
X139720553Y-112588535D01*
X139718867Y-112588885D01*
X139717824Y-112589318D01*
X139717741Y-112589119D01*
X139652148Y-112602768D01*
X139586908Y-112577759D01*
X139545545Y-112521448D01*
X139541193Y-112451714D01*
X139544177Y-112440875D01*
X139588477Y-112304534D01*
X139620500Y-112102352D01*
X139620500Y-111897648D01*
X139588477Y-111695466D01*
X139525220Y-111500781D01*
X139525218Y-111500778D01*
X139525218Y-111500776D01*
X139491503Y-111434607D01*
X139432287Y-111318390D01*
X139394500Y-111266380D01*
X139311971Y-111152786D01*
X139167213Y-111008028D01*
X139001613Y-110887715D01*
X139001612Y-110887714D01*
X139001610Y-110887713D01*
X138944653Y-110858691D01*
X138819223Y-110794781D01*
X138624534Y-110731522D01*
X138449995Y-110703878D01*
X138422352Y-110699500D01*
X138217648Y-110699500D01*
X138193329Y-110703351D01*
X138015465Y-110731522D01*
X137820776Y-110794781D01*
X137638386Y-110887715D01*
X137472786Y-111008028D01*
X137328028Y-111152786D01*
X137207715Y-111318386D01*
X137114781Y-111500776D01*
X137051522Y-111695465D01*
X137019500Y-111897648D01*
X137019500Y-112102351D01*
X137051522Y-112304534D01*
X137114781Y-112499223D01*
X137174275Y-112615984D01*
X137202276Y-112670940D01*
X137207715Y-112681613D01*
X137328028Y-112847213D01*
X137472786Y-112991971D01*
X137638388Y-113112286D01*
X137676172Y-113131538D01*
X137726969Y-113179512D01*
X137743764Y-113247333D01*
X137721227Y-113313468D01*
X137676174Y-113352507D01*
X137538388Y-113422713D01*
X137372786Y-113543028D01*
X137228028Y-113687786D01*
X137107715Y-113853386D01*
X137014781Y-114035776D01*
X136951522Y-114230465D01*
X136919500Y-114432648D01*
X136919500Y-114637351D01*
X136951522Y-114839534D01*
X137014781Y-115034223D01*
X137065675Y-115134106D01*
X137100262Y-115201987D01*
X137107715Y-115216613D01*
X137228028Y-115382213D01*
X137372784Y-115526969D01*
X137513113Y-115628922D01*
X137555780Y-115684252D01*
X137561759Y-115753865D01*
X137529154Y-115815660D01*
X137513114Y-115829559D01*
X137405110Y-115908028D01*
X137405105Y-115908032D01*
X137260351Y-116052786D01*
X137140038Y-116218386D01*
X137047104Y-116400776D01*
X136983845Y-116595465D01*
X136951823Y-116797648D01*
X136951823Y-117002351D01*
X136983845Y-117204534D01*
X137047104Y-117399223D01*
X137090316Y-117484030D01*
X137134549Y-117570842D01*
X137140038Y-117581613D01*
X137260351Y-117747213D01*
X137405109Y-117891971D01*
X137570711Y-118012286D01*
X137624151Y-118039516D01*
X137674946Y-118087490D01*
X137691741Y-118155312D01*
X137669203Y-118221446D01*
X137624151Y-118260484D01*
X137570711Y-118287713D01*
X137405109Y-118408028D01*
X137260351Y-118552786D01*
X137140038Y-118718386D01*
X137047104Y-118900776D01*
X136983845Y-119095465D01*
X136951823Y-119297648D01*
X136951823Y-119502351D01*
X136983845Y-119704534D01*
X137047104Y-119899223D01*
X137140038Y-120081613D01*
X137260351Y-120247213D01*
X137405109Y-120391971D01*
X137553113Y-120499500D01*
X137570713Y-120512287D01*
X137643748Y-120549500D01*
X137753099Y-120605218D01*
X137753101Y-120605218D01*
X137753104Y-120605220D01*
X137857460Y-120639127D01*
X137947788Y-120668477D01*
X138048880Y-120684488D01*
X138149971Y-120700500D01*
X138149972Y-120700500D01*
X138354674Y-120700500D01*
X138354675Y-120700500D01*
X138443393Y-120686448D01*
X138512685Y-120695402D01*
X138566137Y-120740398D01*
X138586777Y-120807150D01*
X138568052Y-120874464D01*
X138565892Y-120877812D01*
X138501990Y-120973446D01*
X138501983Y-120973459D01*
X138434106Y-121137332D01*
X138434103Y-121137341D01*
X138399500Y-121311304D01*
X138399500Y-121488695D01*
X138434103Y-121662658D01*
X138434106Y-121662667D01*
X138501983Y-121826540D01*
X138501990Y-121826553D01*
X138600535Y-121974034D01*
X138600538Y-121974038D01*
X138725961Y-122099461D01*
X138725965Y-122099464D01*
X138873446Y-122198009D01*
X138873459Y-122198016D01*
X138996363Y-122248923D01*
X139037334Y-122265894D01*
X139037336Y-122265894D01*
X139037341Y-122265896D01*
X139211304Y-122300499D01*
X139211307Y-122300500D01*
X139211309Y-122300500D01*
X139388693Y-122300500D01*
X139388694Y-122300499D01*
X139446682Y-122288964D01*
X139562658Y-122265896D01*
X139562659Y-122265895D01*
X139562666Y-122265894D01*
X139577046Y-122259937D01*
X139624495Y-122250500D01*
X146183768Y-122250500D01*
X146183769Y-122250499D01*
X146348082Y-122217816D01*
X146395890Y-122198013D01*
X146502863Y-122153704D01*
X146642162Y-122060627D01*
X146758907Y-121943882D01*
X146901742Y-121801048D01*
X152849500Y-121801048D01*
X152849500Y-123198951D01*
X152852317Y-123240499D01*
X152896963Y-123420021D01*
X152896964Y-123420023D01*
X152979156Y-123585750D01*
X153095059Y-123729940D01*
X153175261Y-123794408D01*
X153239247Y-123845842D01*
X153404979Y-123928037D01*
X153584501Y-123972682D01*
X153584502Y-123972682D01*
X153584505Y-123972683D01*
X153626046Y-123975500D01*
X153626048Y-123975500D01*
X154473952Y-123975500D01*
X154473954Y-123975500D01*
X154515495Y-123972683D01*
X154695021Y-123928037D01*
X154860753Y-123845842D01*
X155004940Y-123729940D01*
X155053030Y-123670113D01*
X155110371Y-123630195D01*
X155180193Y-123627615D01*
X155237357Y-123660120D01*
X155267927Y-123690690D01*
X155420801Y-123801760D01*
X155500347Y-123842290D01*
X155589163Y-123887545D01*
X155589165Y-123887545D01*
X155589168Y-123887547D01*
X155644480Y-123905519D01*
X155768881Y-123945940D01*
X155955514Y-123975500D01*
X155955519Y-123975500D01*
X156144486Y-123975500D01*
X156331118Y-123945940D01*
X156386220Y-123928036D01*
X156510832Y-123887547D01*
X156679199Y-123801760D01*
X156832073Y-123690690D01*
X156965690Y-123557073D01*
X157011794Y-123493615D01*
X157067122Y-123450951D01*
X157136736Y-123444972D01*
X157198531Y-123477577D01*
X157207607Y-123488048D01*
X157207795Y-123487889D01*
X157210965Y-123491600D01*
X157333397Y-123614032D01*
X157473475Y-123715804D01*
X157627744Y-123794408D01*
X157792415Y-123847914D01*
X157792414Y-123847914D01*
X157799999Y-123849115D01*
X157800000Y-123849114D01*
X157800000Y-122780330D01*
X157819745Y-122800075D01*
X157905255Y-122849444D01*
X158000630Y-122875000D01*
X158099370Y-122875000D01*
X158194745Y-122849444D01*
X158280255Y-122800075D01*
X158300000Y-122780330D01*
X158300000Y-123849115D01*
X158307584Y-123847914D01*
X158472255Y-123794408D01*
X158626524Y-123715804D01*
X158766602Y-123614032D01*
X158889032Y-123491602D01*
X158990804Y-123351524D01*
X159069408Y-123197257D01*
X159122914Y-123032584D01*
X159150000Y-122861571D01*
X159150000Y-122750000D01*
X158330330Y-122750000D01*
X158350075Y-122730255D01*
X158399444Y-122644745D01*
X158425000Y-122549370D01*
X158425000Y-122450630D01*
X158399444Y-122355255D01*
X158350075Y-122269745D01*
X158330330Y-122250000D01*
X159150000Y-122250000D01*
X159150000Y-122138428D01*
X159122914Y-121967415D01*
X159080625Y-121837266D01*
X159080624Y-121837263D01*
X159069409Y-121802746D01*
X159068544Y-121801048D01*
X167149500Y-121801048D01*
X167149500Y-123198951D01*
X167152317Y-123240499D01*
X167196963Y-123420021D01*
X167196964Y-123420023D01*
X167279156Y-123585750D01*
X167395059Y-123729940D01*
X167475261Y-123794408D01*
X167539247Y-123845842D01*
X167704979Y-123928037D01*
X167884501Y-123972682D01*
X167884502Y-123972682D01*
X167884505Y-123972683D01*
X167926046Y-123975500D01*
X167926048Y-123975500D01*
X168773952Y-123975500D01*
X168773954Y-123975500D01*
X168815495Y-123972683D01*
X168995021Y-123928037D01*
X169160753Y-123845842D01*
X169304940Y-123729940D01*
X169336491Y-123690690D01*
X169416365Y-123591322D01*
X169473708Y-123551403D01*
X169543530Y-123548823D01*
X169600693Y-123581328D01*
X169633397Y-123614032D01*
X169773475Y-123715804D01*
X169927744Y-123794408D01*
X170092415Y-123847914D01*
X170092414Y-123847914D01*
X170099999Y-123849115D01*
X170100000Y-123849114D01*
X170100000Y-122780330D01*
X170119745Y-122800075D01*
X170205255Y-122849444D01*
X170300630Y-122875000D01*
X170399370Y-122875000D01*
X170494745Y-122849444D01*
X170580255Y-122800075D01*
X170600000Y-122780330D01*
X170600000Y-123849115D01*
X170607584Y-123847914D01*
X170772255Y-123794408D01*
X170926524Y-123715804D01*
X171066602Y-123614032D01*
X171189032Y-123491602D01*
X171290804Y-123351524D01*
X171369408Y-123197257D01*
X171422914Y-123032584D01*
X171450000Y-122861571D01*
X171450000Y-122750000D01*
X170630330Y-122750000D01*
X170650075Y-122730255D01*
X170699444Y-122644745D01*
X170725000Y-122549370D01*
X170725000Y-122450630D01*
X170699444Y-122355255D01*
X170650075Y-122269745D01*
X170630330Y-122250000D01*
X171450000Y-122250000D01*
X171450000Y-122138428D01*
X171422914Y-121967415D01*
X171369408Y-121802742D01*
X171290804Y-121648475D01*
X171189032Y-121508397D01*
X171066602Y-121385967D01*
X170926524Y-121284195D01*
X170772257Y-121205591D01*
X170607589Y-121152087D01*
X170607581Y-121152085D01*
X170600000Y-121150884D01*
X170600000Y-122219670D01*
X170580255Y-122199925D01*
X170494745Y-122150556D01*
X170399370Y-122125000D01*
X170300630Y-122125000D01*
X170205255Y-122150556D01*
X170119745Y-122199925D01*
X170100000Y-122219670D01*
X170100000Y-121150884D01*
X170099999Y-121150884D01*
X170092418Y-121152085D01*
X170092410Y-121152087D01*
X169927742Y-121205591D01*
X169773475Y-121284195D01*
X169633397Y-121385967D01*
X169600692Y-121418672D01*
X169539368Y-121452157D01*
X169469677Y-121447171D01*
X169416365Y-121408678D01*
X169398109Y-121385967D01*
X169304940Y-121270060D01*
X169160753Y-121154158D01*
X169160751Y-121154157D01*
X169160750Y-121154156D01*
X168995023Y-121071964D01*
X168995021Y-121071963D01*
X168815497Y-121027317D01*
X168815501Y-121027317D01*
X168784339Y-121025204D01*
X168773954Y-121024500D01*
X167926046Y-121024500D01*
X167914177Y-121025304D01*
X167884500Y-121027317D01*
X167704978Y-121071963D01*
X167704976Y-121071964D01*
X167539249Y-121154156D01*
X167395059Y-121270059D01*
X167279156Y-121414249D01*
X167196964Y-121579976D01*
X167196963Y-121579978D01*
X167152317Y-121759500D01*
X167149500Y-121801048D01*
X159068544Y-121801048D01*
X158990804Y-121648475D01*
X158889032Y-121508397D01*
X158766602Y-121385967D01*
X158626524Y-121284195D01*
X158472257Y-121205591D01*
X158307589Y-121152087D01*
X158307581Y-121152085D01*
X158300000Y-121150884D01*
X158300000Y-122219670D01*
X158280255Y-122199925D01*
X158194745Y-122150556D01*
X158099370Y-122125000D01*
X158000630Y-122125000D01*
X157905255Y-122150556D01*
X157819745Y-122199925D01*
X157800000Y-122219670D01*
X157800000Y-121150884D01*
X157799999Y-121150884D01*
X157792418Y-121152085D01*
X157792410Y-121152087D01*
X157627742Y-121205591D01*
X157473475Y-121284195D01*
X157333397Y-121385967D01*
X157210965Y-121508399D01*
X157207795Y-121512111D01*
X157206481Y-121510989D01*
X157157033Y-121549074D01*
X157087416Y-121555013D01*
X157025640Y-121522372D01*
X157011797Y-121506388D01*
X156965690Y-121442927D01*
X156832073Y-121309310D01*
X156679199Y-121198240D01*
X156510836Y-121112454D01*
X156331118Y-121054059D01*
X156144486Y-121024500D01*
X156144481Y-121024500D01*
X155955519Y-121024500D01*
X155955514Y-121024500D01*
X155768881Y-121054059D01*
X155589163Y-121112454D01*
X155420800Y-121198240D01*
X155267927Y-121309310D01*
X155237355Y-121339881D01*
X155176031Y-121373364D01*
X155106339Y-121368377D01*
X155053029Y-121329885D01*
X155004939Y-121270059D01*
X154915593Y-121198240D01*
X154860753Y-121154158D01*
X154860751Y-121154157D01*
X154860750Y-121154156D01*
X154695023Y-121071964D01*
X154695021Y-121071963D01*
X154515497Y-121027317D01*
X154515501Y-121027317D01*
X154484339Y-121025204D01*
X154473954Y-121024500D01*
X153626046Y-121024500D01*
X153614177Y-121025304D01*
X153584500Y-121027317D01*
X153404978Y-121071963D01*
X153404976Y-121071964D01*
X153239249Y-121154156D01*
X153095059Y-121270059D01*
X152979156Y-121414249D01*
X152896964Y-121579976D01*
X152896963Y-121579978D01*
X152852317Y-121759500D01*
X152849500Y-121801048D01*
X146901742Y-121801048D01*
X146991524Y-121711266D01*
X149015969Y-119686819D01*
X149077292Y-119653334D01*
X149103650Y-119650500D01*
X156333768Y-119650500D01*
X156333769Y-119650499D01*
X156388538Y-119639605D01*
X156498074Y-119617818D01*
X156498078Y-119617816D01*
X156498082Y-119617816D01*
X156543415Y-119599037D01*
X156652863Y-119553704D01*
X156792162Y-119460627D01*
X157910627Y-118342162D01*
X158003704Y-118202862D01*
X158067816Y-118048081D01*
X158080924Y-117982185D01*
X158100500Y-117883767D01*
X158100500Y-116324495D01*
X158109939Y-116277042D01*
X158115894Y-116262666D01*
X158150500Y-116088691D01*
X158150500Y-115911309D01*
X158150500Y-115911306D01*
X158150499Y-115911304D01*
X158115896Y-115737341D01*
X158115893Y-115737332D01*
X158048016Y-115573459D01*
X158048009Y-115573446D01*
X157949464Y-115425965D01*
X157949461Y-115425961D01*
X157824038Y-115300538D01*
X157824034Y-115300535D01*
X157676553Y-115201990D01*
X157676540Y-115201983D01*
X157512667Y-115134106D01*
X157512658Y-115134103D01*
X157338694Y-115099500D01*
X157338691Y-115099500D01*
X157161309Y-115099500D01*
X157161306Y-115099500D01*
X156987341Y-115134103D01*
X156987332Y-115134106D01*
X156823459Y-115201983D01*
X156823446Y-115201990D01*
X156675965Y-115300535D01*
X156675961Y-115300538D01*
X156550538Y-115425961D01*
X156550535Y-115425965D01*
X156451990Y-115573446D01*
X156451983Y-115573459D01*
X156384106Y-115737332D01*
X156384103Y-115737341D01*
X156349500Y-115911304D01*
X156349500Y-116088695D01*
X156384104Y-116262658D01*
X156384106Y-116262666D01*
X156390061Y-116277042D01*
X156399500Y-116324495D01*
X156399500Y-117396349D01*
X156379815Y-117463388D01*
X156363181Y-117484030D01*
X155934030Y-117913181D01*
X155872707Y-117946666D01*
X155846349Y-117949500D01*
X148616228Y-117949500D01*
X148451925Y-117982182D01*
X148451917Y-117982184D01*
X148379244Y-118012287D01*
X148379243Y-118012287D01*
X148297142Y-118046293D01*
X148297140Y-118046294D01*
X148297137Y-118046295D01*
X148297137Y-118046296D01*
X148208953Y-118105220D01*
X148157831Y-118139379D01*
X148157831Y-118139380D01*
X145784030Y-120513181D01*
X145722707Y-120546666D01*
X145696349Y-120549500D01*
X144321370Y-120549500D01*
X144254331Y-120529815D01*
X144208576Y-120477011D01*
X144198632Y-120407853D01*
X144227657Y-120344297D01*
X144233689Y-120337819D01*
X144277211Y-120294297D01*
X144324289Y-120247219D01*
X144324291Y-120247215D01*
X144324294Y-120247213D01*
X144377055Y-120174590D01*
X144444610Y-120081610D01*
X144537543Y-119899219D01*
X144600800Y-119704534D01*
X144632823Y-119502352D01*
X144632823Y-119297648D01*
X144600800Y-119095466D01*
X144537543Y-118900781D01*
X144537541Y-118900778D01*
X144537541Y-118900776D01*
X144503826Y-118834607D01*
X144444610Y-118718390D01*
X144436879Y-118707749D01*
X144324294Y-118552786D01*
X144179536Y-118408028D01*
X144013936Y-118287715D01*
X144013935Y-118287714D01*
X144013933Y-118287713D01*
X143960494Y-118260484D01*
X143909699Y-118212510D01*
X143892904Y-118144689D01*
X143915441Y-118078554D01*
X143960495Y-118039515D01*
X143961186Y-118039163D01*
X144013933Y-118012287D01*
X144150342Y-117913181D01*
X144179536Y-117891971D01*
X144179538Y-117891968D01*
X144179542Y-117891966D01*
X144324289Y-117747219D01*
X144324291Y-117747215D01*
X144324294Y-117747213D01*
X144442281Y-117584815D01*
X144444610Y-117581610D01*
X144537543Y-117399219D01*
X144600800Y-117204534D01*
X144632823Y-117002352D01*
X144632823Y-116797648D01*
X144600800Y-116595466D01*
X144578203Y-116525921D01*
X144537541Y-116400776D01*
X144486106Y-116299830D01*
X144444610Y-116218390D01*
X144431249Y-116200000D01*
X144324294Y-116052786D01*
X144179540Y-115908032D01*
X144179535Y-115908028D01*
X144039208Y-115806075D01*
X144022031Y-115783799D01*
X144002422Y-115763622D01*
X144000978Y-115756498D01*
X143996542Y-115750745D01*
X143994134Y-115722719D01*
X143988548Y-115695144D01*
X143990636Y-115689778D01*
X147299500Y-115689778D01*
X147299500Y-115910222D01*
X147299672Y-115911306D01*
X147333985Y-116127952D01*
X147402103Y-116337603D01*
X147402104Y-116337606D01*
X147470122Y-116471096D01*
X147498057Y-116525921D01*
X147502187Y-116534025D01*
X147631752Y-116712358D01*
X147631756Y-116712363D01*
X147787636Y-116868243D01*
X147787641Y-116868247D01*
X147943192Y-116981260D01*
X147965978Y-116997815D01*
X148094375Y-117063237D01*
X148162393Y-117097895D01*
X148162396Y-117097896D01*
X148267221Y-117131955D01*
X148372049Y-117166015D01*
X148589778Y-117200500D01*
X148589779Y-117200500D01*
X148810221Y-117200500D01*
X148810222Y-117200500D01*
X149027951Y-117166015D01*
X149237606Y-117097895D01*
X149434022Y-116997815D01*
X149612365Y-116868242D01*
X149768242Y-116712365D01*
X149897815Y-116534022D01*
X149997895Y-116337606D01*
X150066015Y-116127951D01*
X150100500Y-115910222D01*
X150100500Y-115697682D01*
X152400000Y-115697682D01*
X152400000Y-115902317D01*
X152432009Y-116104417D01*
X152495244Y-116299031D01*
X152588141Y-116481350D01*
X152588147Y-116481359D01*
X152620523Y-116525921D01*
X152620524Y-116525922D01*
X153300000Y-115846446D01*
X153300000Y-115852661D01*
X153327259Y-115954394D01*
X153379920Y-116045606D01*
X153454394Y-116120080D01*
X153545606Y-116172741D01*
X153647339Y-116200000D01*
X153653553Y-116200000D01*
X152974076Y-116879474D01*
X153018650Y-116911859D01*
X153200968Y-117004755D01*
X153395582Y-117067990D01*
X153597683Y-117100000D01*
X153802317Y-117100000D01*
X154004417Y-117067990D01*
X154199031Y-117004755D01*
X154381349Y-116911859D01*
X154425921Y-116879474D01*
X153746447Y-116200000D01*
X153752661Y-116200000D01*
X153854394Y-116172741D01*
X153945606Y-116120080D01*
X154020080Y-116045606D01*
X154072741Y-115954394D01*
X154100000Y-115852661D01*
X154100000Y-115846448D01*
X154779474Y-116525922D01*
X154779474Y-116525921D01*
X154811859Y-116481349D01*
X154904755Y-116299031D01*
X154967990Y-116104417D01*
X155000000Y-115902317D01*
X155000000Y-115697682D01*
X154967990Y-115495582D01*
X154904755Y-115300968D01*
X154811859Y-115118650D01*
X154779474Y-115074077D01*
X154779474Y-115074076D01*
X154100000Y-115753551D01*
X154100000Y-115747339D01*
X154072741Y-115645606D01*
X154020080Y-115554394D01*
X153945606Y-115479920D01*
X153854394Y-115427259D01*
X153752661Y-115400000D01*
X153746446Y-115400000D01*
X154410156Y-114736289D01*
X159667261Y-114736289D01*
X159667262Y-114736290D01*
X159673471Y-114740801D01*
X159827742Y-114819408D01*
X159992415Y-114872914D01*
X160163429Y-114900000D01*
X160336571Y-114900000D01*
X160507584Y-114872914D01*
X160672257Y-114819408D01*
X160826525Y-114740803D01*
X160832736Y-114736289D01*
X160832737Y-114736289D01*
X160250001Y-114153553D01*
X160250000Y-114153553D01*
X159667261Y-114736289D01*
X154410156Y-114736289D01*
X154425921Y-114720524D01*
X154425921Y-114720523D01*
X154381359Y-114688147D01*
X154381350Y-114688141D01*
X154199031Y-114595244D01*
X154004417Y-114532009D01*
X153802317Y-114500000D01*
X153597683Y-114500000D01*
X153395582Y-114532009D01*
X153200968Y-114595244D01*
X153018644Y-114688143D01*
X152974077Y-114720523D01*
X152974077Y-114720524D01*
X153653554Y-115400000D01*
X153647339Y-115400000D01*
X153545606Y-115427259D01*
X153454394Y-115479920D01*
X153379920Y-115554394D01*
X153327259Y-115645606D01*
X153300000Y-115747339D01*
X153300000Y-115753553D01*
X152620524Y-115074077D01*
X152620523Y-115074077D01*
X152588143Y-115118644D01*
X152495244Y-115300968D01*
X152432009Y-115495582D01*
X152400000Y-115697682D01*
X150100500Y-115697682D01*
X150100500Y-115689778D01*
X150066015Y-115472049D01*
X150010288Y-115300535D01*
X149997896Y-115262396D01*
X149997895Y-115262393D01*
X149932528Y-115134106D01*
X149897815Y-115065978D01*
X149777226Y-114900000D01*
X149768247Y-114887641D01*
X149768243Y-114887636D01*
X149612363Y-114731756D01*
X149612358Y-114731752D01*
X149434025Y-114602187D01*
X149434024Y-114602186D01*
X149434022Y-114602185D01*
X149371096Y-114570122D01*
X149237606Y-114502104D01*
X149237603Y-114502103D01*
X149027952Y-114433985D01*
X148919086Y-114416742D01*
X148810222Y-114399500D01*
X148589778Y-114399500D01*
X148517201Y-114410995D01*
X148372047Y-114433985D01*
X148162396Y-114502103D01*
X148162393Y-114502104D01*
X147965974Y-114602187D01*
X147787641Y-114731752D01*
X147787636Y-114731756D01*
X147631756Y-114887636D01*
X147631752Y-114887641D01*
X147502187Y-115065974D01*
X147402104Y-115262393D01*
X147402103Y-115262396D01*
X147333985Y-115472047D01*
X147325287Y-115526966D01*
X147299500Y-115689778D01*
X143990636Y-115689778D01*
X143991184Y-115688371D01*
X143990563Y-115681132D01*
X144003690Y-115656251D01*
X144013898Y-115630035D01*
X144021338Y-115622804D01*
X144023168Y-115619337D01*
X144039200Y-115605445D01*
X144147219Y-115526966D01*
X144291966Y-115382219D01*
X144291968Y-115382215D01*
X144291971Y-115382213D01*
X144352064Y-115299500D01*
X144412287Y-115216610D01*
X144505220Y-115034219D01*
X144568477Y-114839534D01*
X144600500Y-114637352D01*
X144600500Y-114432648D01*
X144591986Y-114378896D01*
X144600940Y-114309606D01*
X144645936Y-114256153D01*
X144712687Y-114235513D01*
X144714459Y-114235500D01*
X144798768Y-114235500D01*
X144798769Y-114235499D01*
X144963082Y-114202816D01*
X145010890Y-114183013D01*
X145117863Y-114138704D01*
X145257162Y-114045627D01*
X145985626Y-113317162D01*
X146078704Y-113177863D01*
X146078707Y-113177856D01*
X146140152Y-113029513D01*
X146140155Y-113029505D01*
X146142816Y-113023082D01*
X146175500Y-112858767D01*
X146175500Y-112615984D01*
X146195185Y-112548945D01*
X146247989Y-112503190D01*
X146317147Y-112493246D01*
X146380703Y-112522271D01*
X146399818Y-112543099D01*
X146420735Y-112571889D01*
X146420740Y-112571895D01*
X146565427Y-112716582D01*
X146730973Y-112836859D01*
X146913291Y-112929754D01*
X147107901Y-112992988D01*
X147162323Y-113001607D01*
X147162323Y-112040686D01*
X147166717Y-112045080D01*
X147257929Y-112097741D01*
X147359662Y-112125000D01*
X147464984Y-112125000D01*
X147566717Y-112097741D01*
X147657929Y-112045080D01*
X147662323Y-112040686D01*
X147662323Y-113001606D01*
X147716744Y-112992988D01*
X147911354Y-112929754D01*
X148093672Y-112836859D01*
X148259217Y-112716582D01*
X148259218Y-112716582D01*
X148403905Y-112571895D01*
X148403905Y-112571894D01*
X148524182Y-112406349D01*
X148617078Y-112224029D01*
X148680313Y-112029413D01*
X148688932Y-111975000D01*
X147728009Y-111975000D01*
X147732403Y-111970606D01*
X147785064Y-111879394D01*
X147812323Y-111777661D01*
X147812323Y-111672339D01*
X147785064Y-111570606D01*
X147732403Y-111479394D01*
X147728009Y-111475000D01*
X148688932Y-111475000D01*
X148680313Y-111420586D01*
X148617078Y-111225970D01*
X148524182Y-111043650D01*
X148403905Y-110878105D01*
X148403905Y-110878104D01*
X148259218Y-110733417D01*
X148092751Y-110612471D01*
X148050086Y-110557141D01*
X148044107Y-110487527D01*
X148076713Y-110425732D01*
X148109338Y-110401670D01*
X148146345Y-110382815D01*
X148324688Y-110253242D01*
X148480565Y-110097365D01*
X148610138Y-109919022D01*
X148710218Y-109722606D01*
X148778338Y-109512951D01*
X148812823Y-109295222D01*
X148812823Y-109074778D01*
X148778338Y-108857049D01*
X148729600Y-108707047D01*
X148710219Y-108647396D01*
X148710218Y-108647393D01*
X148675560Y-108579375D01*
X148610138Y-108450978D01*
X148593583Y-108428192D01*
X148480570Y-108272641D01*
X148480566Y-108272636D01*
X148324686Y-108116756D01*
X148324681Y-108116752D01*
X148185068Y-108015318D01*
X148142402Y-107959989D01*
X148136423Y-107890375D01*
X148169028Y-107828580D01*
X148185068Y-107814682D01*
X148324681Y-107713247D01*
X148324679Y-107713247D01*
X148324688Y-107713242D01*
X148480565Y-107557365D01*
X148610138Y-107379022D01*
X148710218Y-107182606D01*
X148778338Y-106972951D01*
X148812823Y-106755222D01*
X148812823Y-106534778D01*
X148778338Y-106317049D01*
X148719952Y-106137352D01*
X148710219Y-106107396D01*
X148710218Y-106107393D01*
X148675560Y-106039375D01*
X148610138Y-105910978D01*
X148546397Y-105823245D01*
X148480570Y-105732641D01*
X148480566Y-105732636D01*
X148324686Y-105576756D01*
X148324681Y-105576752D01*
X148185068Y-105475318D01*
X148142402Y-105419989D01*
X148136423Y-105350375D01*
X148169028Y-105288580D01*
X148185068Y-105274682D01*
X148324681Y-105173247D01*
X148324679Y-105173247D01*
X148324688Y-105173242D01*
X148480565Y-105017365D01*
X148610138Y-104839022D01*
X148710218Y-104642606D01*
X148778338Y-104432951D01*
X148812823Y-104215222D01*
X148812823Y-103994778D01*
X148778338Y-103777049D01*
X148744278Y-103672221D01*
X148710219Y-103567396D01*
X148710218Y-103567393D01*
X148675560Y-103499375D01*
X148610138Y-103370978D01*
X148524267Y-103252786D01*
X148480570Y-103192641D01*
X148480566Y-103192636D01*
X148324686Y-103036756D01*
X148324681Y-103036752D01*
X148185068Y-102935318D01*
X148142402Y-102879989D01*
X148136423Y-102810375D01*
X148169028Y-102748580D01*
X148185068Y-102734682D01*
X148324681Y-102633247D01*
X148324679Y-102633247D01*
X148324688Y-102633242D01*
X148480565Y-102477365D01*
X148610138Y-102299022D01*
X148710218Y-102102606D01*
X148711319Y-102099219D01*
X148732345Y-102034505D01*
X148778338Y-101892951D01*
X148812823Y-101675222D01*
X148812823Y-101454778D01*
X148778338Y-101237049D01*
X148710218Y-101027394D01*
X148710218Y-101027393D01*
X148654675Y-100918386D01*
X148610138Y-100830978D01*
X148548112Y-100745606D01*
X148480570Y-100652641D01*
X148480566Y-100652636D01*
X148324686Y-100496756D01*
X148324681Y-100496752D01*
X148185068Y-100395318D01*
X148142402Y-100339989D01*
X148136423Y-100270375D01*
X148169028Y-100208580D01*
X148185068Y-100194682D01*
X148324681Y-100093247D01*
X148324679Y-100093247D01*
X148324688Y-100093242D01*
X148480565Y-99937365D01*
X148610138Y-99759022D01*
X148710218Y-99562606D01*
X148778338Y-99352951D01*
X148812823Y-99135222D01*
X148812823Y-98914778D01*
X148778338Y-98697049D01*
X148710218Y-98487394D01*
X148710218Y-98487393D01*
X148656625Y-98382213D01*
X148610138Y-98290978D01*
X148556107Y-98216610D01*
X148480570Y-98112641D01*
X148480566Y-98112636D01*
X148407599Y-98039669D01*
X148374114Y-97978346D01*
X148379098Y-97908654D01*
X148420970Y-97852721D01*
X148447818Y-97837431D01*
X148515164Y-97809536D01*
X148640605Y-97713282D01*
X148736859Y-97587841D01*
X148797367Y-97441762D01*
X148812823Y-97324361D01*
X148812822Y-96374778D01*
X153631823Y-96374778D01*
X153631823Y-96595222D01*
X153646416Y-96687357D01*
X153666308Y-96812952D01*
X153734426Y-97022603D01*
X153734427Y-97022606D01*
X153793860Y-97139247D01*
X153834436Y-97218881D01*
X153834510Y-97219025D01*
X153964075Y-97397358D01*
X153964079Y-97397363D01*
X154119959Y-97553243D01*
X154119964Y-97553247D01*
X154259577Y-97654682D01*
X154302243Y-97710012D01*
X154308222Y-97779625D01*
X154275616Y-97841420D01*
X154259577Y-97855318D01*
X154119964Y-97956752D01*
X154119959Y-97956756D01*
X153964079Y-98112636D01*
X153964075Y-98112641D01*
X153834510Y-98290974D01*
X153734427Y-98487393D01*
X153734426Y-98487396D01*
X153666308Y-98697047D01*
X153656218Y-98760753D01*
X153631823Y-98914778D01*
X153631823Y-99135222D01*
X153633797Y-99147683D01*
X153666308Y-99352952D01*
X153734426Y-99562603D01*
X153734427Y-99562606D01*
X153834510Y-99759025D01*
X153964075Y-99937358D01*
X153964079Y-99937363D01*
X154119959Y-100093243D01*
X154119964Y-100093247D01*
X154259577Y-100194682D01*
X154302243Y-100250012D01*
X154308222Y-100319625D01*
X154275616Y-100381420D01*
X154259577Y-100395318D01*
X154119964Y-100496752D01*
X154119959Y-100496756D01*
X153964079Y-100652636D01*
X153964075Y-100652641D01*
X153834510Y-100830974D01*
X153734427Y-101027393D01*
X153734426Y-101027396D01*
X153666308Y-101237047D01*
X153648899Y-101346963D01*
X153631823Y-101454778D01*
X153631823Y-101675222D01*
X153636120Y-101702351D01*
X153666308Y-101892952D01*
X153734426Y-102102603D01*
X153734427Y-102102606D01*
X153834510Y-102299025D01*
X153964075Y-102477358D01*
X153964079Y-102477363D01*
X154119959Y-102633243D01*
X154119964Y-102633247D01*
X154259577Y-102734682D01*
X154302243Y-102790012D01*
X154308222Y-102859625D01*
X154275616Y-102921420D01*
X154259577Y-102935318D01*
X154119964Y-103036752D01*
X154119959Y-103036756D01*
X153964079Y-103192636D01*
X153964075Y-103192641D01*
X153834510Y-103370974D01*
X153734427Y-103567393D01*
X153734426Y-103567396D01*
X153666308Y-103777047D01*
X153631823Y-103994778D01*
X153631823Y-104215221D01*
X153666308Y-104432952D01*
X153734426Y-104642603D01*
X153734427Y-104642606D01*
X153834510Y-104839025D01*
X153964075Y-105017358D01*
X153964079Y-105017363D01*
X154119959Y-105173243D01*
X154119964Y-105173247D01*
X154259577Y-105274682D01*
X154302243Y-105330012D01*
X154308222Y-105399625D01*
X154275616Y-105461420D01*
X154259577Y-105475318D01*
X154119964Y-105576752D01*
X154119959Y-105576756D01*
X153964079Y-105732636D01*
X153964075Y-105732641D01*
X153834510Y-105910974D01*
X153734427Y-106107393D01*
X153734426Y-106107396D01*
X153666308Y-106317047D01*
X153631823Y-106534778D01*
X153631823Y-106755221D01*
X153666308Y-106972952D01*
X153734426Y-107182603D01*
X153734427Y-107182606D01*
X153784875Y-107281613D01*
X153818539Y-107347682D01*
X153834510Y-107379025D01*
X153964075Y-107557358D01*
X153964079Y-107557363D01*
X154119959Y-107713243D01*
X154119964Y-107713247D01*
X154259577Y-107814682D01*
X154302243Y-107870012D01*
X154308222Y-107939625D01*
X154275616Y-108001420D01*
X154259577Y-108015318D01*
X154119964Y-108116752D01*
X154119959Y-108116756D01*
X153964079Y-108272636D01*
X153964075Y-108272641D01*
X153834510Y-108450974D01*
X153734427Y-108647393D01*
X153734426Y-108647396D01*
X153666308Y-108857047D01*
X153631823Y-109074778D01*
X153631823Y-109295221D01*
X153666308Y-109512952D01*
X153734426Y-109722603D01*
X153734427Y-109722606D01*
X153789397Y-109830488D01*
X153834507Y-109919021D01*
X153834510Y-109919025D01*
X153964075Y-110097358D01*
X153964079Y-110097363D01*
X154119959Y-110253243D01*
X154119964Y-110253247D01*
X154259577Y-110354682D01*
X154302243Y-110410012D01*
X154308222Y-110479625D01*
X154275616Y-110541420D01*
X154259577Y-110555318D01*
X154119964Y-110656752D01*
X154119959Y-110656756D01*
X153964079Y-110812636D01*
X153964075Y-110812641D01*
X153834510Y-110990974D01*
X153734427Y-111187393D01*
X153734426Y-111187396D01*
X153666308Y-111397047D01*
X153631823Y-111614778D01*
X153631823Y-111835221D01*
X153666308Y-112052952D01*
X153734426Y-112262603D01*
X153734427Y-112262606D01*
X153763679Y-112320014D01*
X153830784Y-112451714D01*
X153834510Y-112459025D01*
X153964075Y-112637358D01*
X153964079Y-112637363D01*
X154119959Y-112793243D01*
X154119964Y-112793247D01*
X154266899Y-112900000D01*
X154298301Y-112922815D01*
X154408842Y-112979139D01*
X154494716Y-113022895D01*
X154494719Y-113022896D01*
X154599354Y-113056893D01*
X154704372Y-113091015D01*
X154922101Y-113125500D01*
X154922102Y-113125500D01*
X155142544Y-113125500D01*
X155142545Y-113125500D01*
X155360274Y-113091015D01*
X155569350Y-113023083D01*
X155569926Y-113022896D01*
X155569929Y-113022895D01*
X155766345Y-112922815D01*
X155944688Y-112793242D01*
X156100565Y-112637365D01*
X156230138Y-112459022D01*
X156330218Y-112262606D01*
X156398338Y-112052951D01*
X156432823Y-111835222D01*
X156432823Y-111614778D01*
X156398338Y-111397049D01*
X156330218Y-111187394D01*
X156316589Y-111160645D01*
X159049500Y-111160645D01*
X159049500Y-112439363D01*
X159064953Y-112556753D01*
X159064956Y-112556762D01*
X159105396Y-112654394D01*
X159125464Y-112702841D01*
X159221718Y-112828282D01*
X159347159Y-112924536D01*
X159347162Y-112924537D01*
X159347163Y-112924538D01*
X159354153Y-112928574D01*
X159402371Y-112979139D01*
X159415596Y-113047745D01*
X159392476Y-113108847D01*
X159309197Y-113223472D01*
X159230591Y-113377742D01*
X159177085Y-113542415D01*
X159150000Y-113713428D01*
X159150000Y-113886571D01*
X159177085Y-114057584D01*
X159230592Y-114222259D01*
X159309196Y-114376525D01*
X159313709Y-114382736D01*
X159313709Y-114382737D01*
X159955145Y-113741300D01*
X159950000Y-113760504D01*
X159950000Y-113839496D01*
X159970444Y-113915796D01*
X160009940Y-113984205D01*
X160065795Y-114040060D01*
X160134204Y-114079556D01*
X160210504Y-114100000D01*
X160289496Y-114100000D01*
X160365796Y-114079556D01*
X160434205Y-114040060D01*
X160490060Y-113984205D01*
X160529556Y-113915796D01*
X160550000Y-113839496D01*
X160550000Y-113760504D01*
X160544854Y-113741301D01*
X161186289Y-114382736D01*
X161190803Y-114376525D01*
X161269408Y-114222257D01*
X161289427Y-114160645D01*
X166899500Y-114160645D01*
X166899500Y-115839363D01*
X166914953Y-115956753D01*
X166914956Y-115956762D01*
X166969604Y-116088695D01*
X166975464Y-116102841D01*
X167071718Y-116228282D01*
X167197159Y-116324536D01*
X167343238Y-116385044D01*
X167460639Y-116400500D01*
X169139360Y-116400499D01*
X169139363Y-116400499D01*
X169256753Y-116385046D01*
X169256757Y-116385044D01*
X169256762Y-116385044D01*
X169402841Y-116324536D01*
X169528282Y-116228282D01*
X169624536Y-116102841D01*
X169685044Y-115956762D01*
X169700500Y-115839361D01*
X169700499Y-114160640D01*
X169700499Y-114160639D01*
X169700499Y-114160636D01*
X169685046Y-114043246D01*
X169685044Y-114043239D01*
X169685044Y-114043238D01*
X169624536Y-113897159D01*
X169528282Y-113771718D01*
X169402841Y-113675464D01*
X169256762Y-113614956D01*
X169256760Y-113614955D01*
X169139370Y-113599501D01*
X169139367Y-113599500D01*
X169139361Y-113599500D01*
X169139354Y-113599500D01*
X169097310Y-113599500D01*
X169030271Y-113579815D01*
X169009629Y-113563181D01*
X168346447Y-112900000D01*
X168352661Y-112900000D01*
X168454394Y-112872741D01*
X168545606Y-112820080D01*
X168620080Y-112745606D01*
X168672741Y-112654394D01*
X168700000Y-112552661D01*
X168700000Y-112546447D01*
X169379474Y-113225921D01*
X169411859Y-113181349D01*
X169504755Y-112999031D01*
X169567990Y-112804417D01*
X169600000Y-112602317D01*
X169600000Y-112397682D01*
X169567990Y-112195582D01*
X169504755Y-112000968D01*
X169411859Y-111818650D01*
X169379474Y-111774077D01*
X169379474Y-111774076D01*
X168700000Y-112453551D01*
X168700000Y-112447339D01*
X168672741Y-112345606D01*
X168620080Y-112254394D01*
X168545606Y-112179920D01*
X168454394Y-112127259D01*
X168352661Y-112100000D01*
X168346446Y-112100000D01*
X169025922Y-111420524D01*
X169025921Y-111420523D01*
X168981359Y-111388147D01*
X168981350Y-111388141D01*
X168799031Y-111295244D01*
X168604417Y-111232009D01*
X168402317Y-111200000D01*
X168197683Y-111200000D01*
X167995582Y-111232009D01*
X167800968Y-111295244D01*
X167618644Y-111388143D01*
X167574077Y-111420523D01*
X167574077Y-111420524D01*
X168253554Y-112100000D01*
X168247339Y-112100000D01*
X168145606Y-112127259D01*
X168054394Y-112179920D01*
X167979920Y-112254394D01*
X167927259Y-112345606D01*
X167900000Y-112447339D01*
X167900000Y-112453553D01*
X167220524Y-111774077D01*
X167220523Y-111774077D01*
X167188143Y-111818644D01*
X167095244Y-112000968D01*
X167032009Y-112195582D01*
X167000000Y-112397682D01*
X167000000Y-112602317D01*
X167032009Y-112804417D01*
X167095244Y-112999031D01*
X167188141Y-113181350D01*
X167188147Y-113181359D01*
X167220523Y-113225921D01*
X167220524Y-113225922D01*
X167900000Y-112546446D01*
X167900000Y-112552661D01*
X167927259Y-112654394D01*
X167979920Y-112745606D01*
X168054394Y-112820080D01*
X168145606Y-112872741D01*
X168247339Y-112900000D01*
X168253553Y-112900000D01*
X167590370Y-113563181D01*
X167529047Y-113596666D01*
X167502692Y-113599500D01*
X167460637Y-113599500D01*
X167343246Y-113614953D01*
X167343237Y-113614956D01*
X167197160Y-113675463D01*
X167071718Y-113771718D01*
X166975463Y-113897160D01*
X166914956Y-114043237D01*
X166914955Y-114043239D01*
X166899675Y-114159306D01*
X166899501Y-114160636D01*
X166899500Y-114160645D01*
X161289427Y-114160645D01*
X161303199Y-114118261D01*
X161303199Y-114118260D01*
X161322913Y-114057588D01*
X161322913Y-114057585D01*
X161350000Y-113886571D01*
X161350000Y-113713428D01*
X161322914Y-113542415D01*
X161269408Y-113377742D01*
X161190801Y-113223471D01*
X161107524Y-113108848D01*
X161084044Y-113043042D01*
X161099870Y-112974988D01*
X161145849Y-112928572D01*
X161152833Y-112924538D01*
X161152841Y-112924536D01*
X161278282Y-112828282D01*
X161374536Y-112702841D01*
X161435044Y-112556762D01*
X161450500Y-112439361D01*
X161450499Y-111160640D01*
X161450499Y-111160639D01*
X161450499Y-111160636D01*
X161435046Y-111043246D01*
X161435044Y-111043239D01*
X161435044Y-111043238D01*
X161374536Y-110897159D01*
X161278282Y-110771718D01*
X161152841Y-110675464D01*
X161107666Y-110656752D01*
X161006762Y-110614956D01*
X161006760Y-110614955D01*
X160889370Y-110599501D01*
X160889367Y-110599500D01*
X160889361Y-110599500D01*
X160889354Y-110599500D01*
X159610636Y-110599500D01*
X159493246Y-110614953D01*
X159493237Y-110614956D01*
X159347160Y-110675463D01*
X159221718Y-110771718D01*
X159125463Y-110897160D01*
X159064956Y-111043237D01*
X159064955Y-111043239D01*
X159050534Y-111152786D01*
X159049501Y-111160636D01*
X159049500Y-111160645D01*
X156316589Y-111160645D01*
X156230138Y-110990978D01*
X156190160Y-110935953D01*
X156100570Y-110812641D01*
X156100566Y-110812636D01*
X155944686Y-110656756D01*
X155944681Y-110656752D01*
X155805068Y-110555318D01*
X155762402Y-110499989D01*
X155756423Y-110430375D01*
X155789028Y-110368580D01*
X155805068Y-110354682D01*
X155944681Y-110253247D01*
X155944679Y-110253247D01*
X155944688Y-110253242D01*
X156100565Y-110097365D01*
X156230138Y-109919022D01*
X156232133Y-109915105D01*
X156275249Y-109830488D01*
X174049500Y-109830488D01*
X174049500Y-110169512D01*
X174055735Y-110232815D01*
X174082729Y-110506901D01*
X174139993Y-110794781D01*
X174148871Y-110839414D01*
X174182285Y-110949567D01*
X174247284Y-111163841D01*
X174325330Y-111352259D01*
X174353605Y-111420523D01*
X174377024Y-111477060D01*
X174377026Y-111477065D01*
X174536831Y-111776039D01*
X174536835Y-111776046D01*
X174536838Y-111776051D01*
X174706129Y-112029413D01*
X174725184Y-112057930D01*
X174725194Y-112057944D01*
X174940269Y-112320014D01*
X175179985Y-112559730D01*
X175179990Y-112559734D01*
X175179991Y-112559735D01*
X175442061Y-112774810D01*
X175723949Y-112963162D01*
X175723958Y-112963167D01*
X175723960Y-112963168D01*
X176022934Y-113122973D01*
X176022936Y-113122973D01*
X176022942Y-113122977D01*
X176336160Y-113252716D01*
X176660586Y-113351129D01*
X176993096Y-113417270D01*
X177330488Y-113450500D01*
X177330491Y-113450500D01*
X177669509Y-113450500D01*
X177669512Y-113450500D01*
X178006904Y-113417270D01*
X178339414Y-113351129D01*
X178663840Y-113252716D01*
X178977058Y-113122977D01*
X179276051Y-112963162D01*
X179557939Y-112774810D01*
X179820009Y-112559735D01*
X180059735Y-112320009D01*
X180274810Y-112057939D01*
X180463162Y-111776051D01*
X180622977Y-111477058D01*
X180752716Y-111163840D01*
X180851129Y-110839414D01*
X180917270Y-110506904D01*
X180950500Y-110169512D01*
X180950500Y-109830488D01*
X180917270Y-109493096D01*
X180851129Y-109160586D01*
X180752716Y-108836160D01*
X180622977Y-108522942D01*
X180609322Y-108497396D01*
X180463168Y-108223960D01*
X180463167Y-108223958D01*
X180463162Y-108223949D01*
X180274810Y-107942061D01*
X180059735Y-107679991D01*
X180059734Y-107679990D01*
X180059730Y-107679985D01*
X179820014Y-107440269D01*
X179557944Y-107225194D01*
X179557943Y-107225193D01*
X179557939Y-107225190D01*
X179276051Y-107036838D01*
X179276046Y-107036835D01*
X179276039Y-107036831D01*
X178977065Y-106877026D01*
X178977060Y-106877024D01*
X178663841Y-106747284D01*
X178473382Y-106689509D01*
X178339414Y-106648871D01*
X178339411Y-106648870D01*
X178339410Y-106648870D01*
X178006901Y-106582729D01*
X177769199Y-106559318D01*
X177669512Y-106549500D01*
X177330488Y-106549500D01*
X177239738Y-106558437D01*
X176993098Y-106582729D01*
X176660589Y-106648870D01*
X176336158Y-106747284D01*
X176022939Y-106877024D01*
X176022934Y-106877026D01*
X175723960Y-107036831D01*
X175723942Y-107036842D01*
X175442069Y-107225184D01*
X175442055Y-107225194D01*
X175179985Y-107440269D01*
X174940269Y-107679985D01*
X174725194Y-107942055D01*
X174725184Y-107942069D01*
X174536842Y-108223942D01*
X174536831Y-108223960D01*
X174377026Y-108522934D01*
X174377024Y-108522939D01*
X174247284Y-108836158D01*
X174148870Y-109160589D01*
X174082729Y-109493098D01*
X174060741Y-109716359D01*
X174049500Y-109830488D01*
X156275249Y-109830488D01*
X156305482Y-109771154D01*
X156305484Y-109771149D01*
X156330218Y-109722606D01*
X156330219Y-109722603D01*
X156347964Y-109667988D01*
X156398338Y-109512951D01*
X156432823Y-109295222D01*
X156432823Y-109074778D01*
X156398338Y-108857049D01*
X156349600Y-108707047D01*
X156330219Y-108647396D01*
X156330218Y-108647393D01*
X156295560Y-108579375D01*
X156230138Y-108450978D01*
X156213583Y-108428192D01*
X156100570Y-108272641D01*
X156100566Y-108272636D01*
X155944686Y-108116756D01*
X155944681Y-108116752D01*
X155805068Y-108015318D01*
X155762402Y-107959989D01*
X155756423Y-107890375D01*
X155789028Y-107828580D01*
X155805068Y-107814682D01*
X155944681Y-107713247D01*
X155944679Y-107713247D01*
X155944688Y-107713242D01*
X156100565Y-107557365D01*
X156230138Y-107379022D01*
X156330218Y-107182606D01*
X156398338Y-106972951D01*
X156432823Y-106755222D01*
X156432823Y-106534778D01*
X156398338Y-106317049D01*
X156339952Y-106137352D01*
X156330219Y-106107396D01*
X156330218Y-106107393D01*
X156295560Y-106039375D01*
X156230138Y-105910978D01*
X156166397Y-105823245D01*
X156100570Y-105732641D01*
X156100566Y-105732636D01*
X155944686Y-105576756D01*
X155944681Y-105576752D01*
X155805068Y-105475318D01*
X155762402Y-105419989D01*
X155756423Y-105350375D01*
X155789028Y-105288580D01*
X155805068Y-105274682D01*
X155944681Y-105173247D01*
X155944679Y-105173247D01*
X155944688Y-105173242D01*
X156100565Y-105017365D01*
X156230138Y-104839022D01*
X156330218Y-104642606D01*
X156398338Y-104432951D01*
X156432823Y-104215222D01*
X156432823Y-103994778D01*
X156398338Y-103777049D01*
X156364278Y-103672221D01*
X156330219Y-103567396D01*
X156330218Y-103567393D01*
X156295560Y-103499375D01*
X156230138Y-103370978D01*
X156144267Y-103252786D01*
X156100570Y-103192641D01*
X156100566Y-103192636D01*
X155944686Y-103036756D01*
X155944681Y-103036752D01*
X155805068Y-102935318D01*
X155762402Y-102879989D01*
X155756423Y-102810375D01*
X155789028Y-102748580D01*
X155805068Y-102734682D01*
X155944681Y-102633247D01*
X155944679Y-102633247D01*
X155944688Y-102633242D01*
X156100565Y-102477365D01*
X156230138Y-102299022D01*
X156330218Y-102102606D01*
X156331319Y-102099219D01*
X156352345Y-102034505D01*
X156398338Y-101892951D01*
X156432823Y-101675222D01*
X156432823Y-101454778D01*
X156398338Y-101237049D01*
X156330218Y-101027394D01*
X156330218Y-101027393D01*
X156274675Y-100918386D01*
X156230138Y-100830978D01*
X156168112Y-100745606D01*
X156100570Y-100652641D01*
X156100566Y-100652636D01*
X155944686Y-100496756D01*
X155944681Y-100496752D01*
X155805068Y-100395318D01*
X155762402Y-100339989D01*
X155756423Y-100270375D01*
X155789028Y-100208580D01*
X155805068Y-100194682D01*
X155944681Y-100093247D01*
X155944679Y-100093247D01*
X155944688Y-100093242D01*
X156100565Y-99937365D01*
X156230138Y-99759022D01*
X156330218Y-99562606D01*
X156398338Y-99352951D01*
X156432823Y-99135222D01*
X156432823Y-98997648D01*
X157439500Y-98997648D01*
X157439500Y-99202351D01*
X157471522Y-99404534D01*
X157534781Y-99599223D01*
X157598691Y-99724653D01*
X157623874Y-99774076D01*
X157627715Y-99781613D01*
X157748028Y-99947213D01*
X157892786Y-100091971D01*
X158058388Y-100212286D01*
X158111828Y-100239516D01*
X158162623Y-100287490D01*
X158179418Y-100355312D01*
X158156880Y-100421446D01*
X158111828Y-100460484D01*
X158058388Y-100487713D01*
X157892786Y-100608028D01*
X157748028Y-100752786D01*
X157627715Y-100918386D01*
X157534781Y-101100776D01*
X157471522Y-101295465D01*
X157439500Y-101497648D01*
X157439500Y-101702351D01*
X157471522Y-101904534D01*
X157534781Y-102099223D01*
X157598691Y-102224653D01*
X157620025Y-102266522D01*
X157627715Y-102281613D01*
X157748028Y-102447213D01*
X157892786Y-102591971D01*
X158058388Y-102712286D01*
X158111828Y-102739516D01*
X158162623Y-102787490D01*
X158179418Y-102855312D01*
X158156880Y-102921446D01*
X158111828Y-102960484D01*
X158058388Y-102987713D01*
X157892786Y-103108028D01*
X157748028Y-103252786D01*
X157627715Y-103418386D01*
X157534781Y-103600776D01*
X157471522Y-103795465D01*
X157440444Y-103991688D01*
X157439500Y-103997648D01*
X157439500Y-104202352D01*
X157441758Y-104216610D01*
X157471522Y-104404534D01*
X157534781Y-104599223D01*
X157560927Y-104650536D01*
X157627462Y-104781118D01*
X157627715Y-104781613D01*
X157748028Y-104947213D01*
X157892786Y-105091971D01*
X158058385Y-105212284D01*
X158058387Y-105212285D01*
X158058390Y-105212287D01*
X158148444Y-105258172D01*
X158151828Y-105259896D01*
X158202624Y-105307871D01*
X158219419Y-105375692D01*
X158196882Y-105441827D01*
X158151829Y-105480865D01*
X158138388Y-105487713D01*
X157972786Y-105608028D01*
X157828028Y-105752786D01*
X157707715Y-105918386D01*
X157614781Y-106100776D01*
X157551522Y-106295465D01*
X157519500Y-106497648D01*
X157519500Y-106702351D01*
X157551522Y-106904534D01*
X157614781Y-107099223D01*
X157707715Y-107281613D01*
X157828028Y-107447213D01*
X157972786Y-107591971D01*
X158093938Y-107679991D01*
X158138390Y-107712287D01*
X158245788Y-107767009D01*
X158320776Y-107805218D01*
X158320778Y-107805218D01*
X158320781Y-107805220D01*
X158392676Y-107828580D01*
X158515465Y-107868477D01*
X158525157Y-107870012D01*
X158717648Y-107900500D01*
X158717649Y-107900500D01*
X158922351Y-107900500D01*
X158922352Y-107900500D01*
X159124534Y-107868477D01*
X159319219Y-107805220D01*
X159501610Y-107712287D01*
X159594590Y-107644732D01*
X159667213Y-107591971D01*
X159667215Y-107591968D01*
X159667219Y-107591966D01*
X159787819Y-107471366D01*
X159849142Y-107437881D01*
X159918834Y-107442865D01*
X159974767Y-107484737D01*
X159999184Y-107550201D01*
X159999500Y-107559047D01*
X159999500Y-108133771D01*
X160032181Y-108298074D01*
X160032184Y-108298083D01*
X160046965Y-108333767D01*
X160096292Y-108452856D01*
X160096299Y-108452869D01*
X160189372Y-108592161D01*
X160189375Y-108592165D01*
X160304258Y-108707047D01*
X160389373Y-108792162D01*
X160529893Y-108932682D01*
X160669150Y-109071938D01*
X160696030Y-109112166D01*
X160701985Y-109126544D01*
X160800535Y-109274034D01*
X160800538Y-109274038D01*
X160925961Y-109399461D01*
X160925965Y-109399464D01*
X161073446Y-109498009D01*
X161073459Y-109498016D01*
X161196363Y-109548923D01*
X161237334Y-109565894D01*
X161237336Y-109565894D01*
X161237341Y-109565896D01*
X161411304Y-109600499D01*
X161411307Y-109600500D01*
X161411309Y-109600500D01*
X161588693Y-109600500D01*
X161588694Y-109600499D01*
X161646682Y-109588964D01*
X161762658Y-109565896D01*
X161762661Y-109565894D01*
X161762666Y-109565894D01*
X161926547Y-109498013D01*
X162074035Y-109399464D01*
X162199464Y-109274035D01*
X162298013Y-109126547D01*
X162365894Y-108962666D01*
X162366874Y-108957742D01*
X162391058Y-108836158D01*
X162400500Y-108788691D01*
X162400500Y-108611309D01*
X162400500Y-108611306D01*
X162400499Y-108611304D01*
X162365896Y-108437341D01*
X162365893Y-108437332D01*
X162362506Y-108429156D01*
X162348923Y-108396363D01*
X162298016Y-108273459D01*
X162298009Y-108273446D01*
X162199464Y-108125965D01*
X162199461Y-108125961D01*
X162074038Y-108000538D01*
X162074034Y-108000535D01*
X161926544Y-107901985D01*
X161912166Y-107896030D01*
X161905233Y-107891397D01*
X161900192Y-107890301D01*
X161871941Y-107869153D01*
X161736817Y-107734028D01*
X161703334Y-107672707D01*
X161700500Y-107646349D01*
X161700500Y-105674495D01*
X161709939Y-105627042D01*
X161715894Y-105612666D01*
X161750500Y-105438691D01*
X161750500Y-105261309D01*
X161750500Y-105261306D01*
X161750499Y-105261304D01*
X161715896Y-105087341D01*
X161715893Y-105087332D01*
X161648016Y-104923459D01*
X161648009Y-104923446D01*
X161549464Y-104775965D01*
X161549461Y-104775961D01*
X161424038Y-104650538D01*
X161424034Y-104650535D01*
X161276553Y-104551990D01*
X161276540Y-104551983D01*
X161112667Y-104484106D01*
X161112658Y-104484103D01*
X160938694Y-104449500D01*
X160938691Y-104449500D01*
X160761309Y-104449500D01*
X160761306Y-104449500D01*
X160587341Y-104484103D01*
X160587332Y-104484106D01*
X160423459Y-104551983D01*
X160423446Y-104551990D01*
X160275965Y-104650535D01*
X160275961Y-104650538D01*
X160150538Y-104775961D01*
X160075843Y-104887748D01*
X160075823Y-104887779D01*
X160051987Y-104923453D01*
X160048688Y-104931416D01*
X160048685Y-104931422D01*
X159984106Y-105087332D01*
X159984103Y-105087341D01*
X159949500Y-105261304D01*
X159949500Y-105438695D01*
X159981891Y-105601536D01*
X159975664Y-105671128D01*
X159932801Y-105726305D01*
X159866911Y-105749549D01*
X159798914Y-105733481D01*
X159772593Y-105713408D01*
X159667213Y-105608028D01*
X159501611Y-105487713D01*
X159408171Y-105440102D01*
X159357376Y-105392127D01*
X159340581Y-105324306D01*
X159363119Y-105258172D01*
X159408173Y-105219133D01*
X159421610Y-105212287D01*
X159455340Y-105187781D01*
X159587213Y-105091971D01*
X159587215Y-105091968D01*
X159587219Y-105091966D01*
X159731966Y-104947219D01*
X159852287Y-104781610D01*
X159945220Y-104599219D01*
X160008477Y-104404534D01*
X160040500Y-104202352D01*
X160040500Y-103997648D01*
X160008477Y-103795466D01*
X160002492Y-103777047D01*
X159973350Y-103687355D01*
X159945220Y-103600781D01*
X159945218Y-103600778D01*
X159945218Y-103600776D01*
X159904468Y-103520801D01*
X159852287Y-103418390D01*
X159844556Y-103407749D01*
X159731971Y-103252786D01*
X159587213Y-103108028D01*
X159421613Y-102987715D01*
X159421612Y-102987714D01*
X159421610Y-102987713D01*
X159368171Y-102960484D01*
X159317376Y-102912510D01*
X159300581Y-102844689D01*
X159323118Y-102778554D01*
X159368172Y-102739515D01*
X159377657Y-102734682D01*
X159421610Y-102712287D01*
X159530407Y-102633242D01*
X159587213Y-102591971D01*
X159587215Y-102591968D01*
X159587219Y-102591966D01*
X159731966Y-102447219D01*
X159731968Y-102447215D01*
X159731971Y-102447213D01*
X159817289Y-102329781D01*
X159852287Y-102281610D01*
X159945220Y-102099219D01*
X160008477Y-101904534D01*
X160040500Y-101702352D01*
X160040500Y-101497648D01*
X160016634Y-101346964D01*
X160008477Y-101295465D01*
X159945218Y-101100776D01*
X159907827Y-101027393D01*
X159852287Y-100918390D01*
X159838926Y-100900000D01*
X159731971Y-100752786D01*
X159587213Y-100608028D01*
X159421613Y-100487715D01*
X159421612Y-100487714D01*
X159421610Y-100487713D01*
X159368171Y-100460484D01*
X159317376Y-100412510D01*
X159300581Y-100344689D01*
X159323118Y-100278554D01*
X159368172Y-100239515D01*
X159421610Y-100212287D01*
X159538642Y-100127259D01*
X159587213Y-100091971D01*
X159587215Y-100091968D01*
X159587219Y-100091966D01*
X159731966Y-99947219D01*
X159731968Y-99947215D01*
X159731971Y-99947213D01*
X159825380Y-99818644D01*
X159852287Y-99781610D01*
X159945220Y-99599219D01*
X160008477Y-99404534D01*
X160040500Y-99202352D01*
X160040500Y-98997648D01*
X162519500Y-98997648D01*
X162519500Y-99202351D01*
X162551522Y-99404534D01*
X162614781Y-99599223D01*
X162678691Y-99724653D01*
X162703874Y-99774076D01*
X162707715Y-99781613D01*
X162828028Y-99947213D01*
X162972786Y-100091971D01*
X163138388Y-100212286D01*
X163191828Y-100239516D01*
X163242623Y-100287490D01*
X163259418Y-100355312D01*
X163236880Y-100421446D01*
X163191828Y-100460484D01*
X163138388Y-100487713D01*
X162972786Y-100608028D01*
X162828028Y-100752786D01*
X162707715Y-100918386D01*
X162614781Y-101100776D01*
X162551522Y-101295465D01*
X162519500Y-101497648D01*
X162519500Y-101702351D01*
X162551522Y-101904534D01*
X162614781Y-102099223D01*
X162678691Y-102224653D01*
X162700025Y-102266522D01*
X162707715Y-102281613D01*
X162828028Y-102447213D01*
X162972786Y-102591971D01*
X163138388Y-102712286D01*
X163191828Y-102739516D01*
X163242623Y-102787490D01*
X163259418Y-102855312D01*
X163236880Y-102921446D01*
X163191828Y-102960484D01*
X163138388Y-102987713D01*
X162972786Y-103108028D01*
X162828028Y-103252786D01*
X162707715Y-103418386D01*
X162614781Y-103600776D01*
X162551522Y-103795465D01*
X162520444Y-103991688D01*
X162519500Y-103997648D01*
X162519500Y-104202352D01*
X162521758Y-104216610D01*
X162551522Y-104404534D01*
X162614781Y-104599223D01*
X162640927Y-104650536D01*
X162707462Y-104781118D01*
X162707715Y-104781613D01*
X162828028Y-104947213D01*
X162972786Y-105091971D01*
X163138385Y-105212284D01*
X163138387Y-105212285D01*
X163138390Y-105212287D01*
X163228444Y-105258172D01*
X163231828Y-105259896D01*
X163282624Y-105307871D01*
X163299419Y-105375692D01*
X163276882Y-105441827D01*
X163231829Y-105480865D01*
X163218388Y-105487713D01*
X163052786Y-105608028D01*
X162908028Y-105752786D01*
X162787715Y-105918386D01*
X162694781Y-106100776D01*
X162631522Y-106295465D01*
X162599500Y-106497648D01*
X162599500Y-106702351D01*
X162631522Y-106904534D01*
X162694781Y-107099223D01*
X162787715Y-107281613D01*
X162908028Y-107447213D01*
X163052786Y-107591971D01*
X163173938Y-107679991D01*
X163218390Y-107712287D01*
X163325788Y-107767009D01*
X163400776Y-107805218D01*
X163400778Y-107805218D01*
X163400781Y-107805220D01*
X163472676Y-107828580D01*
X163595465Y-107868477D01*
X163605157Y-107870012D01*
X163797648Y-107900500D01*
X163797649Y-107900500D01*
X164002351Y-107900500D01*
X164002352Y-107900500D01*
X164204534Y-107868477D01*
X164399219Y-107805220D01*
X164581610Y-107712287D01*
X164674590Y-107644732D01*
X164747213Y-107591971D01*
X164747215Y-107591968D01*
X164747219Y-107591966D01*
X164891966Y-107447219D01*
X164891968Y-107447215D01*
X164891971Y-107447213D01*
X164962236Y-107350500D01*
X165012287Y-107281610D01*
X165105220Y-107099219D01*
X165168477Y-106904534D01*
X165200500Y-106702352D01*
X165200500Y-106497648D01*
X165175457Y-106339534D01*
X165168477Y-106295465D01*
X165139127Y-106205137D01*
X165105220Y-106100781D01*
X165105218Y-106100778D01*
X165105218Y-106100776D01*
X165071503Y-106034607D01*
X165012287Y-105918390D01*
X164956894Y-105842147D01*
X164891971Y-105752786D01*
X164747213Y-105608028D01*
X164581611Y-105487713D01*
X164488171Y-105440102D01*
X164437376Y-105392127D01*
X164420581Y-105324306D01*
X164443119Y-105258172D01*
X164488173Y-105219133D01*
X164501610Y-105212287D01*
X164535340Y-105187781D01*
X164667213Y-105091971D01*
X164667215Y-105091968D01*
X164667219Y-105091966D01*
X164811966Y-104947219D01*
X164811968Y-104947215D01*
X164811971Y-104947213D01*
X164890575Y-104839022D01*
X164932287Y-104781610D01*
X165025220Y-104599219D01*
X165088477Y-104404534D01*
X165120500Y-104202352D01*
X165120500Y-104055513D01*
X167524500Y-104055513D01*
X167524500Y-104244486D01*
X167554059Y-104431118D01*
X167612454Y-104610836D01*
X167665149Y-104714255D01*
X167698240Y-104779199D01*
X167809310Y-104932073D01*
X167809312Y-104932075D01*
X167839878Y-104962641D01*
X167873363Y-105023964D01*
X167868379Y-105093656D01*
X167829886Y-105146968D01*
X167770060Y-105195058D01*
X167654156Y-105339249D01*
X167571964Y-105504976D01*
X167571963Y-105504978D01*
X167527317Y-105684500D01*
X167527317Y-105684505D01*
X167524898Y-105720185D01*
X167524500Y-105726048D01*
X167524500Y-106573951D01*
X167527317Y-106615499D01*
X167571963Y-106795021D01*
X167571964Y-106795023D01*
X167654156Y-106960750D01*
X167770059Y-107104940D01*
X167852173Y-107170945D01*
X167914247Y-107220842D01*
X168079979Y-107303037D01*
X168259501Y-107347682D01*
X168259502Y-107347682D01*
X168259505Y-107347683D01*
X168301046Y-107350500D01*
X168301048Y-107350500D01*
X169698952Y-107350500D01*
X169698954Y-107350500D01*
X169740495Y-107347683D01*
X169920021Y-107303037D01*
X170085753Y-107220842D01*
X170229940Y-107104940D01*
X170345842Y-106960753D01*
X170428037Y-106795021D01*
X170472683Y-106615495D01*
X170475500Y-106573954D01*
X170475500Y-105726046D01*
X170472683Y-105684505D01*
X170428037Y-105504979D01*
X170345842Y-105339247D01*
X170282057Y-105259896D01*
X170229940Y-105195059D01*
X170170114Y-105146970D01*
X170130196Y-105089626D01*
X170127616Y-105019804D01*
X170160120Y-104962641D01*
X170190690Y-104932073D01*
X170301760Y-104779199D01*
X170387547Y-104610832D01*
X170445940Y-104431118D01*
X170448151Y-104417157D01*
X170475500Y-104244486D01*
X170475500Y-104055513D01*
X170445940Y-103868881D01*
X170387545Y-103689163D01*
X170301759Y-103520800D01*
X170190690Y-103367927D01*
X170057073Y-103234310D01*
X169904199Y-103123240D01*
X169735836Y-103037454D01*
X169556118Y-102979059D01*
X169369486Y-102949500D01*
X169369481Y-102949500D01*
X168630519Y-102949500D01*
X168630514Y-102949500D01*
X168443881Y-102979059D01*
X168264163Y-103037454D01*
X168095800Y-103123240D01*
X168065822Y-103145021D01*
X167942927Y-103234310D01*
X167942925Y-103234312D01*
X167942924Y-103234312D01*
X167809312Y-103367924D01*
X167809312Y-103367925D01*
X167809310Y-103367927D01*
X167772649Y-103418386D01*
X167698240Y-103520800D01*
X167612454Y-103689163D01*
X167554059Y-103868881D01*
X167524500Y-104055513D01*
X165120500Y-104055513D01*
X165120500Y-103997648D01*
X165088477Y-103795466D01*
X165082492Y-103777047D01*
X165053350Y-103687355D01*
X165025220Y-103600781D01*
X165025218Y-103600778D01*
X165025218Y-103600776D01*
X164984468Y-103520801D01*
X164932287Y-103418390D01*
X164924556Y-103407749D01*
X164811971Y-103252786D01*
X164667213Y-103108028D01*
X164501613Y-102987715D01*
X164501612Y-102987714D01*
X164501610Y-102987713D01*
X164448171Y-102960484D01*
X164397376Y-102912510D01*
X164380581Y-102844689D01*
X164403118Y-102778554D01*
X164448172Y-102739515D01*
X164457657Y-102734682D01*
X164501610Y-102712287D01*
X164610407Y-102633242D01*
X164667213Y-102591971D01*
X164667215Y-102591968D01*
X164667219Y-102591966D01*
X164811966Y-102447219D01*
X164811968Y-102447215D01*
X164811971Y-102447213D01*
X164897289Y-102329781D01*
X164932287Y-102281610D01*
X165025220Y-102099219D01*
X165088477Y-101904534D01*
X165120500Y-101702352D01*
X165120500Y-101497648D01*
X165096634Y-101346964D01*
X165088477Y-101295465D01*
X165025218Y-101100776D01*
X164987827Y-101027393D01*
X164932287Y-100918390D01*
X164918926Y-100900000D01*
X164811971Y-100752786D01*
X164667213Y-100608028D01*
X164501613Y-100487715D01*
X164501612Y-100487714D01*
X164501610Y-100487713D01*
X164448171Y-100460484D01*
X164397376Y-100412510D01*
X164380581Y-100344689D01*
X164403118Y-100278554D01*
X164448172Y-100239515D01*
X164501610Y-100212287D01*
X164618642Y-100127259D01*
X164667213Y-100091971D01*
X164667215Y-100091968D01*
X164667219Y-100091966D01*
X164811966Y-99947219D01*
X164811968Y-99947215D01*
X164811971Y-99947213D01*
X164905380Y-99818644D01*
X164932287Y-99781610D01*
X165025220Y-99599219D01*
X165088477Y-99404534D01*
X165120500Y-99202352D01*
X165120500Y-98997648D01*
X165088477Y-98795465D01*
X165025218Y-98600776D01*
X164967446Y-98487394D01*
X164932287Y-98418390D01*
X164924556Y-98407749D01*
X164811971Y-98252786D01*
X164667213Y-98108028D01*
X164501613Y-97987715D01*
X164501612Y-97987714D01*
X164501610Y-97987713D01*
X164444653Y-97958691D01*
X164319223Y-97894781D01*
X164124534Y-97831522D01*
X163949995Y-97803878D01*
X163922352Y-97799500D01*
X163717648Y-97799500D01*
X163714561Y-97799989D01*
X163515465Y-97831522D01*
X163320776Y-97894781D01*
X163138386Y-97987715D01*
X162972786Y-98108028D01*
X162828028Y-98252786D01*
X162707715Y-98418386D01*
X162614781Y-98600776D01*
X162551522Y-98795465D01*
X162519500Y-98997648D01*
X160040500Y-98997648D01*
X160008477Y-98795465D01*
X159945218Y-98600776D01*
X159887446Y-98487394D01*
X159852287Y-98418390D01*
X159844556Y-98407749D01*
X159731971Y-98252786D01*
X159587213Y-98108028D01*
X159421613Y-97987715D01*
X159421612Y-97987714D01*
X159421610Y-97987713D01*
X159364653Y-97958691D01*
X159239223Y-97894781D01*
X159044534Y-97831522D01*
X158869995Y-97803878D01*
X158842352Y-97799500D01*
X158637648Y-97799500D01*
X158634561Y-97799989D01*
X158435465Y-97831522D01*
X158240776Y-97894781D01*
X158058386Y-97987715D01*
X157892786Y-98108028D01*
X157748028Y-98252786D01*
X157627715Y-98418386D01*
X157534781Y-98600776D01*
X157471522Y-98795465D01*
X157439500Y-98997648D01*
X156432823Y-98997648D01*
X156432823Y-98914778D01*
X156398338Y-98697049D01*
X156330218Y-98487394D01*
X156330218Y-98487393D01*
X156276625Y-98382213D01*
X156230138Y-98290978D01*
X156176107Y-98216610D01*
X156100570Y-98112641D01*
X156100566Y-98112636D01*
X155944686Y-97956756D01*
X155944681Y-97956752D01*
X155805068Y-97855318D01*
X155762402Y-97799989D01*
X155756423Y-97730375D01*
X155789028Y-97668580D01*
X155805068Y-97654682D01*
X155944681Y-97553247D01*
X155944679Y-97553247D01*
X155944688Y-97553242D01*
X156100565Y-97397365D01*
X156230138Y-97219022D01*
X156330218Y-97022606D01*
X156398338Y-96812951D01*
X156432823Y-96595222D01*
X156432823Y-96374778D01*
X156398338Y-96157049D01*
X156336101Y-95965499D01*
X156330219Y-95947396D01*
X156330215Y-95947388D01*
X156309607Y-95906941D01*
X156283403Y-95855513D01*
X167524500Y-95855513D01*
X167524500Y-96044486D01*
X167554059Y-96231118D01*
X167612454Y-96410836D01*
X167679810Y-96543028D01*
X167698240Y-96579199D01*
X167809310Y-96732073D01*
X167809312Y-96732075D01*
X167839878Y-96762641D01*
X167873363Y-96823964D01*
X167868379Y-96893656D01*
X167829886Y-96946968D01*
X167770060Y-96995058D01*
X167654156Y-97139249D01*
X167571964Y-97304976D01*
X167571963Y-97304978D01*
X167527317Y-97484500D01*
X167527317Y-97484505D01*
X167524500Y-97526046D01*
X167524500Y-98373954D01*
X167525707Y-98391757D01*
X167527317Y-98415499D01*
X167571963Y-98595021D01*
X167571964Y-98595023D01*
X167654156Y-98760750D01*
X167770059Y-98904940D01*
X167852173Y-98970945D01*
X167914247Y-99020842D01*
X168079979Y-99103037D01*
X168259501Y-99147682D01*
X168259502Y-99147682D01*
X168259505Y-99147683D01*
X168301046Y-99150500D01*
X168301048Y-99150500D01*
X169698952Y-99150500D01*
X169698954Y-99150500D01*
X169740495Y-99147683D01*
X169920021Y-99103037D01*
X170085753Y-99020842D01*
X170229940Y-98904940D01*
X170345842Y-98760753D01*
X170428037Y-98595021D01*
X170472683Y-98415495D01*
X170475500Y-98373954D01*
X170475500Y-97526046D01*
X170472683Y-97484505D01*
X170428037Y-97304979D01*
X170345842Y-97139247D01*
X170295945Y-97077173D01*
X170229940Y-96995059D01*
X170170114Y-96946970D01*
X170130196Y-96889626D01*
X170127616Y-96819804D01*
X170160120Y-96762641D01*
X170190690Y-96732073D01*
X170301760Y-96579199D01*
X170387547Y-96410832D01*
X170445940Y-96231118D01*
X170452794Y-96187845D01*
X170475500Y-96044486D01*
X170475500Y-95855513D01*
X170445940Y-95668881D01*
X170400242Y-95528239D01*
X170387547Y-95489168D01*
X170387545Y-95489165D01*
X170387545Y-95489163D01*
X170301759Y-95320800D01*
X170190690Y-95167927D01*
X170057073Y-95034310D01*
X169904199Y-94923240D01*
X169864160Y-94902839D01*
X169735836Y-94837454D01*
X169556118Y-94779059D01*
X169369486Y-94749500D01*
X169369481Y-94749500D01*
X168630519Y-94749500D01*
X168630514Y-94749500D01*
X168443881Y-94779059D01*
X168264163Y-94837454D01*
X168095800Y-94923240D01*
X168008579Y-94986610D01*
X167942927Y-95034310D01*
X167942925Y-95034312D01*
X167942924Y-95034312D01*
X167809312Y-95167924D01*
X167809312Y-95167925D01*
X167809310Y-95167927D01*
X167785646Y-95200498D01*
X167698240Y-95320800D01*
X167612454Y-95489163D01*
X167554059Y-95668881D01*
X167524500Y-95855513D01*
X156283403Y-95855513D01*
X156230137Y-95750976D01*
X156100570Y-95572641D01*
X156100566Y-95572636D01*
X155944686Y-95416756D01*
X155944681Y-95416752D01*
X155766348Y-95287187D01*
X155766347Y-95287186D01*
X155766345Y-95287185D01*
X155703419Y-95255122D01*
X155569929Y-95187104D01*
X155569926Y-95187103D01*
X155360275Y-95118985D01*
X155240111Y-95099953D01*
X155142545Y-95084500D01*
X154922101Y-95084500D01*
X154849524Y-95095995D01*
X154704370Y-95118985D01*
X154494719Y-95187103D01*
X154494716Y-95187104D01*
X154298297Y-95287187D01*
X154119964Y-95416752D01*
X154119959Y-95416756D01*
X153964079Y-95572636D01*
X153964075Y-95572641D01*
X153834510Y-95750974D01*
X153734427Y-95947393D01*
X153734426Y-95947396D01*
X153666308Y-96157047D01*
X153653135Y-96240220D01*
X153631823Y-96374778D01*
X148812822Y-96374778D01*
X148812822Y-95645640D01*
X148812822Y-95645639D01*
X148812822Y-95645636D01*
X148797369Y-95528246D01*
X148797367Y-95528239D01*
X148797367Y-95528238D01*
X148736859Y-95382159D01*
X148640605Y-95256718D01*
X148515164Y-95160464D01*
X148459364Y-95137351D01*
X148369085Y-95099956D01*
X148369083Y-95099955D01*
X148251693Y-95084501D01*
X148251690Y-95084500D01*
X148251684Y-95084500D01*
X148251677Y-95084500D01*
X146572959Y-95084500D01*
X146455569Y-95099953D01*
X146455560Y-95099956D01*
X146309483Y-95160463D01*
X146184041Y-95256718D01*
X146087786Y-95382160D01*
X146027279Y-95528237D01*
X146027278Y-95528239D01*
X146021433Y-95572641D01*
X146011824Y-95645636D01*
X146011823Y-95645645D01*
X146011823Y-97324363D01*
X146027276Y-97441753D01*
X146027279Y-97441762D01*
X146073455Y-97553242D01*
X146087787Y-97587841D01*
X146184041Y-97713282D01*
X146309482Y-97809536D01*
X146376814Y-97837426D01*
X146376817Y-97837427D01*
X146431221Y-97881268D01*
X146453286Y-97947562D01*
X146436007Y-98015261D01*
X146417047Y-98039669D01*
X146344074Y-98112642D01*
X146214510Y-98290974D01*
X146114427Y-98487393D01*
X146114426Y-98487396D01*
X146046308Y-98697047D01*
X146036218Y-98760753D01*
X146011823Y-98914778D01*
X146011823Y-99135222D01*
X146013797Y-99147683D01*
X146046308Y-99352952D01*
X146114426Y-99562603D01*
X146114427Y-99562606D01*
X146214510Y-99759025D01*
X146344075Y-99937358D01*
X146344079Y-99937363D01*
X146499959Y-100093243D01*
X146499964Y-100093247D01*
X146639577Y-100194682D01*
X146682243Y-100250012D01*
X146688222Y-100319625D01*
X146655616Y-100381420D01*
X146639577Y-100395318D01*
X146499964Y-100496752D01*
X146499959Y-100496756D01*
X146344079Y-100652636D01*
X146344075Y-100652641D01*
X146214510Y-100830974D01*
X146114427Y-101027393D01*
X146114426Y-101027396D01*
X146046308Y-101237047D01*
X146028899Y-101346963D01*
X146011823Y-101454778D01*
X146011823Y-101675222D01*
X146016120Y-101702351D01*
X146046308Y-101892952D01*
X146114426Y-102102603D01*
X146114427Y-102102606D01*
X146214510Y-102299025D01*
X146344075Y-102477358D01*
X146344079Y-102477363D01*
X146499959Y-102633243D01*
X146499964Y-102633247D01*
X146639577Y-102734682D01*
X146682243Y-102790012D01*
X146688222Y-102859625D01*
X146655616Y-102921420D01*
X146639577Y-102935318D01*
X146499964Y-103036752D01*
X146499959Y-103036756D01*
X146344079Y-103192636D01*
X146344075Y-103192641D01*
X146214510Y-103370974D01*
X146114427Y-103567393D01*
X146114426Y-103567396D01*
X146046308Y-103777047D01*
X146011823Y-103994778D01*
X146011823Y-104044023D01*
X145992138Y-104111062D01*
X145939334Y-104156817D01*
X145870176Y-104166761D01*
X145818932Y-104147125D01*
X145676553Y-104051990D01*
X145676540Y-104051983D01*
X145512667Y-103984106D01*
X145512658Y-103984103D01*
X145338694Y-103949500D01*
X145338691Y-103949500D01*
X145161309Y-103949500D01*
X145161306Y-103949500D01*
X144987341Y-103984103D01*
X144987337Y-103984105D01*
X144987335Y-103984105D01*
X144987334Y-103984106D01*
X144972953Y-103990062D01*
X144964779Y-103991688D01*
X144960440Y-103994477D01*
X144925505Y-103999500D01*
X144719496Y-103999500D01*
X144652457Y-103979815D01*
X144606702Y-103927011D01*
X144596758Y-103857853D01*
X144599900Y-103844338D01*
X144599661Y-103844281D01*
X144600797Y-103839542D01*
X144600800Y-103839534D01*
X144632823Y-103637352D01*
X144632823Y-103432648D01*
X144622572Y-103367924D01*
X144600800Y-103230465D01*
X144561017Y-103108028D01*
X144537543Y-103035781D01*
X144537541Y-103035778D01*
X144537541Y-103035776D01*
X144499177Y-102960484D01*
X144444610Y-102853390D01*
X144398564Y-102790012D01*
X144324294Y-102687786D01*
X144179536Y-102543028D01*
X144013936Y-102422715D01*
X144013935Y-102422714D01*
X144013933Y-102422713D01*
X143956976Y-102393691D01*
X143831546Y-102329781D01*
X143636857Y-102266522D01*
X143462318Y-102238878D01*
X143434675Y-102234500D01*
X143229971Y-102234500D01*
X143205652Y-102238351D01*
X143027788Y-102266522D01*
X142833099Y-102329781D01*
X142650709Y-102422715D01*
X142485109Y-102543028D01*
X142340351Y-102687786D01*
X142220038Y-102853386D01*
X142127104Y-103035776D01*
X142063845Y-103230465D01*
X142031823Y-103432648D01*
X142031823Y-103637351D01*
X142063846Y-103839535D01*
X142064985Y-103844281D01*
X142063296Y-103844686D01*
X142065074Y-103907030D01*
X142028991Y-103966861D01*
X141966288Y-103997685D01*
X141945150Y-103999500D01*
X140324495Y-103999500D01*
X140277046Y-103990062D01*
X140262666Y-103984106D01*
X140262662Y-103984105D01*
X140262658Y-103984103D01*
X140088694Y-103949500D01*
X140088691Y-103949500D01*
X139911309Y-103949500D01*
X139911306Y-103949500D01*
X139737341Y-103984103D01*
X139737332Y-103984106D01*
X139681345Y-104007296D01*
X139611875Y-104014763D01*
X139549397Y-103983487D01*
X139513746Y-103923397D01*
X139515965Y-103854411D01*
X139520800Y-103839534D01*
X139552823Y-103637352D01*
X139552823Y-103432648D01*
X139542572Y-103367924D01*
X139520800Y-103230465D01*
X139481017Y-103108028D01*
X139457543Y-103035781D01*
X139457541Y-103035778D01*
X139457541Y-103035776D01*
X139419177Y-102960484D01*
X139364610Y-102853390D01*
X139318564Y-102790012D01*
X139244294Y-102687786D01*
X139099536Y-102543028D01*
X138933936Y-102422715D01*
X138933935Y-102422714D01*
X138933933Y-102422713D01*
X138876976Y-102393691D01*
X138751546Y-102329781D01*
X138556857Y-102266522D01*
X138382318Y-102238878D01*
X138354675Y-102234500D01*
X138149971Y-102234500D01*
X138125652Y-102238351D01*
X137947788Y-102266522D01*
X137753099Y-102329781D01*
X137570709Y-102422715D01*
X137405109Y-102543028D01*
X137260351Y-102687786D01*
X137140038Y-102853386D01*
X137047104Y-103035776D01*
X136983845Y-103230465D01*
X136951823Y-103432648D01*
X136951823Y-103637351D01*
X136983845Y-103839534D01*
X137047104Y-104034223D01*
X137109570Y-104156817D01*
X137139328Y-104215221D01*
X137140038Y-104216613D01*
X137260351Y-104382213D01*
X137405109Y-104526971D01*
X137520542Y-104610836D01*
X137570713Y-104647287D01*
X137607989Y-104666280D01*
X137658785Y-104714255D01*
X137675580Y-104782076D01*
X137653043Y-104848211D01*
X137607990Y-104887249D01*
X137538388Y-104922713D01*
X137372786Y-105043028D01*
X137228028Y-105187786D01*
X137107715Y-105353386D01*
X137014781Y-105535776D01*
X136951522Y-105730465D01*
X136919500Y-105932648D01*
X115500500Y-105932648D01*
X115500500Y-102076048D01*
X130524500Y-102076048D01*
X130524500Y-102923951D01*
X130527317Y-102965499D01*
X130571963Y-103145021D01*
X130571964Y-103145023D01*
X130654156Y-103310750D01*
X130770059Y-103454939D01*
X130829885Y-103503029D01*
X130869803Y-103560372D01*
X130872383Y-103630194D01*
X130839881Y-103687355D01*
X130809310Y-103717927D01*
X130698240Y-103870800D01*
X130612454Y-104039163D01*
X130554059Y-104218881D01*
X130524500Y-104405513D01*
X130524500Y-104594486D01*
X130554059Y-104781118D01*
X130612454Y-104960836D01*
X130698240Y-105129199D01*
X130809310Y-105282073D01*
X130942927Y-105415690D01*
X131095801Y-105526760D01*
X131175347Y-105567290D01*
X131264163Y-105612545D01*
X131264165Y-105612545D01*
X131264168Y-105612547D01*
X131308779Y-105627042D01*
X131443881Y-105670940D01*
X131630514Y-105700500D01*
X131630519Y-105700500D01*
X132369486Y-105700500D01*
X132556118Y-105670940D01*
X132626670Y-105648016D01*
X132735832Y-105612547D01*
X132904199Y-105526760D01*
X133057073Y-105415690D01*
X133190690Y-105282073D01*
X133301760Y-105129199D01*
X133387547Y-104960832D01*
X133445940Y-104781118D01*
X133461525Y-104682720D01*
X133475500Y-104594486D01*
X133475500Y-104405513D01*
X133445940Y-104218881D01*
X133410907Y-104111062D01*
X133387547Y-104039168D01*
X133387545Y-104039165D01*
X133387545Y-104039163D01*
X133328559Y-103923397D01*
X133301760Y-103870801D01*
X133190690Y-103717927D01*
X133160120Y-103687357D01*
X133126635Y-103626034D01*
X133131619Y-103556342D01*
X133170112Y-103503030D01*
X133229940Y-103454940D01*
X133345842Y-103310753D01*
X133428037Y-103145021D01*
X133472683Y-102965495D01*
X133475500Y-102923954D01*
X133475500Y-102076046D01*
X133472683Y-102034505D01*
X133428037Y-101854979D01*
X133345842Y-101689247D01*
X133282063Y-101609903D01*
X133229940Y-101545059D01*
X133117625Y-101454778D01*
X133085753Y-101429158D01*
X133085751Y-101429157D01*
X133085750Y-101429156D01*
X132920023Y-101346964D01*
X132920021Y-101346963D01*
X132740497Y-101302317D01*
X132740501Y-101302317D01*
X132709339Y-101300204D01*
X132698954Y-101299500D01*
X131301046Y-101299500D01*
X131289177Y-101300304D01*
X131259500Y-101302317D01*
X131079978Y-101346963D01*
X131079976Y-101346964D01*
X130914249Y-101429156D01*
X130770059Y-101545059D01*
X130654156Y-101689249D01*
X130571964Y-101854976D01*
X130571963Y-101854978D01*
X130527317Y-102034500D01*
X130524500Y-102076048D01*
X115500500Y-102076048D01*
X115500500Y-100397682D01*
X137000000Y-100397682D01*
X137000000Y-100602317D01*
X137032009Y-100804417D01*
X137095244Y-100999031D01*
X137188141Y-101181350D01*
X137188147Y-101181359D01*
X137220523Y-101225921D01*
X137220524Y-101225922D01*
X137900000Y-100546446D01*
X137900000Y-100552661D01*
X137927259Y-100654394D01*
X137979920Y-100745606D01*
X138054394Y-100820080D01*
X138145606Y-100872741D01*
X138247339Y-100900000D01*
X138253553Y-100900000D01*
X137574076Y-101579474D01*
X137618650Y-101611859D01*
X137800968Y-101704755D01*
X137995582Y-101767990D01*
X138197683Y-101800000D01*
X138402317Y-101800000D01*
X138604417Y-101767990D01*
X138799031Y-101704755D01*
X138981349Y-101611859D01*
X139025921Y-101579474D01*
X138346447Y-100900000D01*
X138352661Y-100900000D01*
X138454394Y-100872741D01*
X138545606Y-100820080D01*
X138620080Y-100745606D01*
X138672741Y-100654394D01*
X138700000Y-100552661D01*
X138700000Y-100546448D01*
X139379474Y-101225922D01*
X139379474Y-101225921D01*
X139411859Y-101181349D01*
X139504755Y-100999031D01*
X139567990Y-100804417D01*
X139600000Y-100602317D01*
X139600000Y-100397682D01*
X139598748Y-100389778D01*
X141899500Y-100389778D01*
X141899500Y-100610221D01*
X141933985Y-100827952D01*
X142002103Y-101037603D01*
X142002104Y-101037606D01*
X142070122Y-101171096D01*
X142098057Y-101225921D01*
X142102187Y-101234025D01*
X142231752Y-101412358D01*
X142231756Y-101412363D01*
X142387636Y-101568243D01*
X142387641Y-101568247D01*
X142534880Y-101675221D01*
X142565978Y-101697815D01*
X142694375Y-101763237D01*
X142762393Y-101797895D01*
X142762396Y-101797896D01*
X142867221Y-101831955D01*
X142972049Y-101866015D01*
X143189778Y-101900500D01*
X143189779Y-101900500D01*
X143410221Y-101900500D01*
X143410222Y-101900500D01*
X143627951Y-101866015D01*
X143837606Y-101797895D01*
X144034022Y-101697815D01*
X144212365Y-101568242D01*
X144368242Y-101412365D01*
X144497815Y-101234022D01*
X144597895Y-101037606D01*
X144666015Y-100827951D01*
X144700500Y-100610222D01*
X144700500Y-100389778D01*
X144666015Y-100172049D01*
X144597895Y-99962394D01*
X144597895Y-99962393D01*
X144563237Y-99894375D01*
X144497815Y-99765978D01*
X144481260Y-99743192D01*
X144368247Y-99587641D01*
X144368243Y-99587636D01*
X144212363Y-99431756D01*
X144212358Y-99431752D01*
X144034025Y-99302187D01*
X144034024Y-99302186D01*
X144034022Y-99302185D01*
X143971096Y-99270122D01*
X143837606Y-99202104D01*
X143837603Y-99202103D01*
X143627952Y-99133985D01*
X143519086Y-99116742D01*
X143410222Y-99099500D01*
X143189778Y-99099500D01*
X143117201Y-99110995D01*
X142972047Y-99133985D01*
X142762396Y-99202103D01*
X142762393Y-99202104D01*
X142565974Y-99302187D01*
X142387641Y-99431752D01*
X142387636Y-99431756D01*
X142231756Y-99587636D01*
X142231752Y-99587641D01*
X142102187Y-99765974D01*
X142002104Y-99962393D01*
X142002103Y-99962396D01*
X141933985Y-100172047D01*
X141899500Y-100389778D01*
X139598748Y-100389778D01*
X139567990Y-100195582D01*
X139504755Y-100000968D01*
X139411859Y-99818650D01*
X139379474Y-99774077D01*
X139379474Y-99774076D01*
X138700000Y-100453551D01*
X138700000Y-100447339D01*
X138672741Y-100345606D01*
X138620080Y-100254394D01*
X138545606Y-100179920D01*
X138454394Y-100127259D01*
X138352661Y-100100000D01*
X138346446Y-100100000D01*
X139025922Y-99420524D01*
X139025921Y-99420523D01*
X138981359Y-99388147D01*
X138981350Y-99388141D01*
X138799031Y-99295244D01*
X138604417Y-99232009D01*
X138402317Y-99200000D01*
X138197683Y-99200000D01*
X137995582Y-99232009D01*
X137800968Y-99295244D01*
X137618644Y-99388143D01*
X137574077Y-99420523D01*
X137574077Y-99420524D01*
X138253554Y-100100000D01*
X138247339Y-100100000D01*
X138145606Y-100127259D01*
X138054394Y-100179920D01*
X137979920Y-100254394D01*
X137927259Y-100345606D01*
X137900000Y-100447339D01*
X137900000Y-100453553D01*
X137220524Y-99774077D01*
X137220523Y-99774077D01*
X137188143Y-99818644D01*
X137095244Y-100000968D01*
X137032009Y-100195582D01*
X137000000Y-100397682D01*
X115500500Y-100397682D01*
X115500500Y-95076048D01*
X130524500Y-95076048D01*
X130524500Y-95923951D01*
X130527317Y-95965499D01*
X130571963Y-96145021D01*
X130571964Y-96145023D01*
X130654156Y-96310750D01*
X130654157Y-96310751D01*
X130654158Y-96310753D01*
X130680170Y-96343113D01*
X130770059Y-96454939D01*
X130829885Y-96503029D01*
X130869803Y-96560372D01*
X130872383Y-96630194D01*
X130839881Y-96687355D01*
X130809310Y-96717927D01*
X130698240Y-96870800D01*
X130612454Y-97039163D01*
X130554059Y-97218881D01*
X130524500Y-97405513D01*
X130524500Y-97594486D01*
X130554059Y-97781118D01*
X130612454Y-97960836D01*
X130649845Y-98034219D01*
X130698240Y-98129199D01*
X130809310Y-98282073D01*
X130942927Y-98415690D01*
X131095801Y-98526760D01*
X131175347Y-98567290D01*
X131264163Y-98612545D01*
X131264165Y-98612545D01*
X131264168Y-98612547D01*
X131360497Y-98643846D01*
X131443881Y-98670940D01*
X131630514Y-98700500D01*
X131630519Y-98700500D01*
X132369486Y-98700500D01*
X132556118Y-98670940D01*
X132735832Y-98612547D01*
X132904199Y-98526760D01*
X133057073Y-98415690D01*
X133190690Y-98282073D01*
X133301760Y-98129199D01*
X133387547Y-97960832D01*
X133445940Y-97781118D01*
X133457202Y-97710012D01*
X133475500Y-97594486D01*
X133475500Y-97432648D01*
X136899500Y-97432648D01*
X136899500Y-97637351D01*
X136931522Y-97839534D01*
X136994781Y-98034223D01*
X137087715Y-98216613D01*
X137208028Y-98382213D01*
X137352786Y-98526971D01*
X137454379Y-98600781D01*
X137518390Y-98647287D01*
X137622826Y-98700500D01*
X137700776Y-98740218D01*
X137700778Y-98740218D01*
X137700781Y-98740220D01*
X137805137Y-98774127D01*
X137895465Y-98803477D01*
X137996557Y-98819488D01*
X138097648Y-98835500D01*
X138097649Y-98835500D01*
X138302351Y-98835500D01*
X138302352Y-98835500D01*
X138504534Y-98803477D01*
X138699219Y-98740220D01*
X138881610Y-98647287D01*
X138974590Y-98579732D01*
X139047213Y-98526971D01*
X139047215Y-98526968D01*
X139047219Y-98526966D01*
X139191966Y-98382219D01*
X139191968Y-98382215D01*
X139191971Y-98382213D01*
X139264725Y-98282074D01*
X139312287Y-98216610D01*
X139405220Y-98034219D01*
X139468477Y-97839534D01*
X139500500Y-97637352D01*
X139500500Y-97432648D01*
X141979500Y-97432648D01*
X141979500Y-97637351D01*
X142011522Y-97839534D01*
X142074781Y-98034223D01*
X142167715Y-98216613D01*
X142288028Y-98382213D01*
X142432786Y-98526971D01*
X142534379Y-98600781D01*
X142598390Y-98647287D01*
X142702826Y-98700500D01*
X142780776Y-98740218D01*
X142780778Y-98740218D01*
X142780781Y-98740220D01*
X142885137Y-98774127D01*
X142975465Y-98803477D01*
X143076557Y-98819488D01*
X143177648Y-98835500D01*
X143177649Y-98835500D01*
X143382351Y-98835500D01*
X143382352Y-98835500D01*
X143584534Y-98803477D01*
X143779219Y-98740220D01*
X143961610Y-98647287D01*
X144054590Y-98579732D01*
X144127213Y-98526971D01*
X144127215Y-98526968D01*
X144127219Y-98526966D01*
X144271966Y-98382219D01*
X144271968Y-98382215D01*
X144271971Y-98382213D01*
X144344725Y-98282074D01*
X144392287Y-98216610D01*
X144485220Y-98034219D01*
X144548477Y-97839534D01*
X144580500Y-97637352D01*
X144580500Y-97432648D01*
X144560279Y-97304978D01*
X144548477Y-97230465D01*
X144518838Y-97139247D01*
X144485220Y-97035781D01*
X144485218Y-97035778D01*
X144485218Y-97035776D01*
X144439967Y-96946968D01*
X144392287Y-96853390D01*
X144367886Y-96819804D01*
X144271971Y-96687786D01*
X144127213Y-96543028D01*
X143961611Y-96422713D01*
X143934334Y-96408815D01*
X143883537Y-96360841D01*
X143866742Y-96293020D01*
X143889279Y-96226885D01*
X143934332Y-96187845D01*
X144013933Y-96147287D01*
X144155428Y-96044486D01*
X144179536Y-96026971D01*
X144179538Y-96026968D01*
X144179542Y-96026966D01*
X144324289Y-95882219D01*
X144324291Y-95882215D01*
X144324294Y-95882213D01*
X144419640Y-95750978D01*
X144444610Y-95716610D01*
X144537543Y-95534219D01*
X144600800Y-95339534D01*
X144632823Y-95137352D01*
X144632823Y-94932648D01*
X144608497Y-94779060D01*
X144600800Y-94730465D01*
X144571198Y-94639360D01*
X144537543Y-94535781D01*
X144537541Y-94535778D01*
X144537541Y-94535776D01*
X144503826Y-94469607D01*
X144444610Y-94353390D01*
X144407504Y-94302317D01*
X144324294Y-94187786D01*
X144179536Y-94043028D01*
X144013936Y-93922715D01*
X144013935Y-93922714D01*
X144013933Y-93922713D01*
X143938355Y-93884204D01*
X143831546Y-93829781D01*
X143636857Y-93766522D01*
X143462318Y-93738878D01*
X143434675Y-93734500D01*
X143229971Y-93734500D01*
X143205652Y-93738351D01*
X143027788Y-93766522D01*
X142833099Y-93829781D01*
X142650709Y-93922715D01*
X142485109Y-94043028D01*
X142340351Y-94187786D01*
X142220038Y-94353386D01*
X142127104Y-94535776D01*
X142063845Y-94730465D01*
X142037651Y-94895849D01*
X142031823Y-94932648D01*
X142031823Y-95137352D01*
X142035484Y-95160464D01*
X142063845Y-95339534D01*
X142127104Y-95534223D01*
X142220038Y-95716613D01*
X142340351Y-95882213D01*
X142485109Y-96026971D01*
X142650708Y-96147284D01*
X142650710Y-96147285D01*
X142650713Y-96147287D01*
X142677988Y-96161184D01*
X142728784Y-96209157D01*
X142745580Y-96276977D01*
X142723044Y-96343113D01*
X142677990Y-96382153D01*
X142598388Y-96422713D01*
X142432786Y-96543028D01*
X142288028Y-96687786D01*
X142167715Y-96853386D01*
X142074781Y-97035776D01*
X142011522Y-97230465D01*
X141979500Y-97432648D01*
X139500500Y-97432648D01*
X139480279Y-97304978D01*
X139468477Y-97230465D01*
X139438838Y-97139247D01*
X139405220Y-97035781D01*
X139405218Y-97035778D01*
X139405218Y-97035776D01*
X139359967Y-96946968D01*
X139312287Y-96853390D01*
X139287886Y-96819804D01*
X139191971Y-96687786D01*
X139047213Y-96543028D01*
X138881611Y-96422713D01*
X138854334Y-96408815D01*
X138803537Y-96360841D01*
X138786742Y-96293020D01*
X138809279Y-96226885D01*
X138854332Y-96187845D01*
X138933933Y-96147287D01*
X139075428Y-96044486D01*
X139099536Y-96026971D01*
X139099538Y-96026968D01*
X139099542Y-96026966D01*
X139244289Y-95882219D01*
X139244291Y-95882215D01*
X139244294Y-95882213D01*
X139339640Y-95750978D01*
X139364610Y-95716610D01*
X139457543Y-95534219D01*
X139520800Y-95339534D01*
X139552823Y-95137352D01*
X139552823Y-94932648D01*
X139528497Y-94779060D01*
X139520800Y-94730465D01*
X139491198Y-94639360D01*
X139457543Y-94535781D01*
X139457541Y-94535778D01*
X139457541Y-94535776D01*
X139423826Y-94469607D01*
X139364610Y-94353390D01*
X139327504Y-94302317D01*
X139244294Y-94187786D01*
X139099536Y-94043028D01*
X138933936Y-93922715D01*
X138933935Y-93922714D01*
X138933933Y-93922713D01*
X138858355Y-93884204D01*
X138751546Y-93829781D01*
X138556857Y-93766522D01*
X138382318Y-93738878D01*
X138354675Y-93734500D01*
X138149971Y-93734500D01*
X138125652Y-93738351D01*
X137947788Y-93766522D01*
X137753099Y-93829781D01*
X137570709Y-93922715D01*
X137405109Y-94043028D01*
X137260351Y-94187786D01*
X137140038Y-94353386D01*
X137047104Y-94535776D01*
X136983845Y-94730465D01*
X136957651Y-94895849D01*
X136951823Y-94932648D01*
X136951823Y-95137352D01*
X136955484Y-95160464D01*
X136983845Y-95339534D01*
X137047104Y-95534223D01*
X137140038Y-95716613D01*
X137260351Y-95882213D01*
X137405109Y-96026971D01*
X137570708Y-96147284D01*
X137570710Y-96147285D01*
X137570713Y-96147287D01*
X137597988Y-96161184D01*
X137648784Y-96209157D01*
X137665580Y-96276977D01*
X137643044Y-96343113D01*
X137597990Y-96382153D01*
X137518388Y-96422713D01*
X137352786Y-96543028D01*
X137208028Y-96687786D01*
X137087715Y-96853386D01*
X136994781Y-97035776D01*
X136931522Y-97230465D01*
X136899500Y-97432648D01*
X133475500Y-97432648D01*
X133475500Y-97405513D01*
X133445940Y-97218881D01*
X133387545Y-97039163D01*
X133313405Y-96893656D01*
X133301760Y-96870801D01*
X133190690Y-96717927D01*
X133160120Y-96687357D01*
X133126635Y-96626034D01*
X133131619Y-96556342D01*
X133170112Y-96503030D01*
X133229940Y-96454940D01*
X133345842Y-96310753D01*
X133428037Y-96145021D01*
X133472683Y-95965495D01*
X133475500Y-95923954D01*
X133475500Y-95076046D01*
X133472683Y-95034505D01*
X133471135Y-95028282D01*
X133447352Y-94932648D01*
X133428037Y-94854979D01*
X133345842Y-94689247D01*
X133295945Y-94627173D01*
X133229940Y-94545059D01*
X133127785Y-94462945D01*
X133085753Y-94429158D01*
X133085751Y-94429157D01*
X133085750Y-94429156D01*
X132920023Y-94346964D01*
X132920021Y-94346963D01*
X132740497Y-94302317D01*
X132740501Y-94302317D01*
X132706327Y-94300000D01*
X132698954Y-94299500D01*
X131301046Y-94299500D01*
X131293673Y-94300000D01*
X131259500Y-94302317D01*
X131079978Y-94346963D01*
X131079976Y-94346964D01*
X130914249Y-94429156D01*
X130770059Y-94545059D01*
X130654156Y-94689249D01*
X130571964Y-94854976D01*
X130571963Y-94854978D01*
X130527317Y-95034500D01*
X130524500Y-95076048D01*
X115500500Y-95076048D01*
X115500500Y-89830488D01*
X119049500Y-89830488D01*
X119049500Y-90169512D01*
X119056995Y-90245606D01*
X119082729Y-90506901D01*
X119148428Y-90837187D01*
X119148871Y-90839414D01*
X119155779Y-90862187D01*
X119247284Y-91163841D01*
X119377024Y-91477060D01*
X119377026Y-91477065D01*
X119536831Y-91776039D01*
X119536842Y-91776057D01*
X119725184Y-92057930D01*
X119725194Y-92057944D01*
X119940269Y-92320014D01*
X120179985Y-92559730D01*
X120179990Y-92559734D01*
X120179991Y-92559735D01*
X120442061Y-92774810D01*
X120723949Y-92963162D01*
X120723958Y-92963167D01*
X120723960Y-92963168D01*
X121022934Y-93122973D01*
X121022936Y-93122973D01*
X121022942Y-93122977D01*
X121336160Y-93252716D01*
X121660586Y-93351129D01*
X121993096Y-93417270D01*
X122330488Y-93450500D01*
X122330491Y-93450500D01*
X122669509Y-93450500D01*
X122669512Y-93450500D01*
X123006904Y-93417270D01*
X123339414Y-93351129D01*
X123663840Y-93252716D01*
X123977058Y-93122977D01*
X124276051Y-92963162D01*
X124557939Y-92774810D01*
X124820009Y-92559735D01*
X125059735Y-92320009D01*
X125274810Y-92057939D01*
X125358504Y-91932682D01*
X137032323Y-91932682D01*
X137032323Y-92137317D01*
X137064332Y-92339417D01*
X137127567Y-92534031D01*
X137220464Y-92716350D01*
X137220470Y-92716359D01*
X137252846Y-92760921D01*
X137252847Y-92760922D01*
X137932323Y-92081446D01*
X137932323Y-92087661D01*
X137959582Y-92189394D01*
X138012243Y-92280606D01*
X138086717Y-92355080D01*
X138177929Y-92407741D01*
X138279662Y-92435000D01*
X138285876Y-92435000D01*
X137606399Y-93114474D01*
X137650973Y-93146859D01*
X137833291Y-93239755D01*
X138027905Y-93302990D01*
X138230006Y-93335000D01*
X138434640Y-93335000D01*
X138636740Y-93302990D01*
X138831354Y-93239755D01*
X139013672Y-93146859D01*
X139058244Y-93114474D01*
X138378770Y-92435000D01*
X138384984Y-92435000D01*
X138486717Y-92407741D01*
X138577929Y-92355080D01*
X138652403Y-92280606D01*
X138705064Y-92189394D01*
X138732323Y-92087661D01*
X138732323Y-92081448D01*
X139411797Y-92760922D01*
X139411797Y-92760921D01*
X139444182Y-92716349D01*
X139537078Y-92534031D01*
X139600313Y-92339417D01*
X139632323Y-92137317D01*
X139632323Y-91932682D01*
X139631071Y-91924778D01*
X141931823Y-91924778D01*
X141931823Y-92145222D01*
X141935783Y-92170222D01*
X141966308Y-92362952D01*
X142034426Y-92572603D01*
X142034427Y-92572606D01*
X142102445Y-92706096D01*
X142130380Y-92760921D01*
X142134510Y-92769025D01*
X142264075Y-92947358D01*
X142264079Y-92947363D01*
X142419959Y-93103243D01*
X142419964Y-93103247D01*
X142575515Y-93216260D01*
X142598301Y-93232815D01*
X142726698Y-93298237D01*
X142794716Y-93332895D01*
X142794719Y-93332896D01*
X142880124Y-93360645D01*
X143004372Y-93401015D01*
X143222101Y-93435500D01*
X143222102Y-93435500D01*
X143442544Y-93435500D01*
X143442545Y-93435500D01*
X143660274Y-93401015D01*
X143869929Y-93332895D01*
X144066345Y-93232815D01*
X144244688Y-93103242D01*
X144400565Y-92947365D01*
X144530138Y-92769022D01*
X144630218Y-92572606D01*
X144698338Y-92362951D01*
X144732823Y-92145222D01*
X144732823Y-91957682D01*
X147432323Y-91957682D01*
X147432323Y-92162317D01*
X147464332Y-92364417D01*
X147527567Y-92559031D01*
X147620464Y-92741350D01*
X147620470Y-92741359D01*
X147652846Y-92785921D01*
X147652847Y-92785922D01*
X148332323Y-92106446D01*
X148332323Y-92112661D01*
X148359582Y-92214394D01*
X148412243Y-92305606D01*
X148486717Y-92380080D01*
X148577929Y-92432741D01*
X148679662Y-92460000D01*
X148685876Y-92460000D01*
X148006399Y-93139474D01*
X148050973Y-93171859D01*
X148233291Y-93264755D01*
X148427905Y-93327990D01*
X148630006Y-93360000D01*
X148834640Y-93360000D01*
X149036740Y-93327990D01*
X149231354Y-93264755D01*
X149413672Y-93171859D01*
X149458244Y-93139474D01*
X148778770Y-92460000D01*
X148784984Y-92460000D01*
X148886717Y-92432741D01*
X148977929Y-92380080D01*
X149052403Y-92305606D01*
X149105064Y-92214394D01*
X149132323Y-92112661D01*
X149132323Y-92106448D01*
X149811797Y-92785922D01*
X149811797Y-92785921D01*
X149844182Y-92741349D01*
X149937078Y-92559031D01*
X150000313Y-92364417D01*
X150032323Y-92162317D01*
X150032323Y-91957682D01*
X150031071Y-91949778D01*
X152331823Y-91949778D01*
X152331823Y-92170221D01*
X152366308Y-92387952D01*
X152434426Y-92597603D01*
X152434427Y-92597606D01*
X152494931Y-92716349D01*
X152530380Y-92785921D01*
X152534510Y-92794025D01*
X152664075Y-92972358D01*
X152664079Y-92972363D01*
X152819959Y-93128243D01*
X152819964Y-93128247D01*
X152963887Y-93232812D01*
X152998301Y-93257815D01*
X153126698Y-93323237D01*
X153194716Y-93357895D01*
X153194719Y-93357896D01*
X153299544Y-93391955D01*
X153404372Y-93426015D01*
X153622101Y-93460500D01*
X153622102Y-93460500D01*
X153842544Y-93460500D01*
X153842545Y-93460500D01*
X154060274Y-93426015D01*
X154261465Y-93360645D01*
X157549500Y-93360645D01*
X157549500Y-94639363D01*
X157564953Y-94756753D01*
X157564956Y-94756762D01*
X157625464Y-94902841D01*
X157721718Y-95028282D01*
X157847159Y-95124536D01*
X157993238Y-95185044D01*
X158110639Y-95200500D01*
X159389360Y-95200499D01*
X159389363Y-95200499D01*
X159506753Y-95185046D01*
X159506757Y-95185044D01*
X159506762Y-95185044D01*
X159652841Y-95124536D01*
X159778282Y-95028282D01*
X159874536Y-94902841D01*
X159874538Y-94902833D01*
X159878572Y-94895849D01*
X159929135Y-94847630D01*
X159997742Y-94834403D01*
X160058848Y-94857524D01*
X160173471Y-94940801D01*
X160327742Y-95019408D01*
X160492415Y-95072914D01*
X160663429Y-95100000D01*
X160836571Y-95100000D01*
X161007584Y-95072914D01*
X161172257Y-95019408D01*
X161326525Y-94940803D01*
X161332736Y-94936289D01*
X160691301Y-94294854D01*
X160710504Y-94300000D01*
X160789496Y-94300000D01*
X160865796Y-94279556D01*
X160934205Y-94240060D01*
X160990060Y-94184205D01*
X161029556Y-94115796D01*
X161050000Y-94039496D01*
X161050000Y-93999999D01*
X161103553Y-93999999D01*
X161103553Y-94000000D01*
X161686289Y-94582736D01*
X161690803Y-94576525D01*
X161769408Y-94422257D01*
X161822914Y-94257584D01*
X161850000Y-94086571D01*
X161850000Y-93913428D01*
X161822914Y-93742415D01*
X161769408Y-93577742D01*
X161690801Y-93423471D01*
X161686290Y-93417262D01*
X161686289Y-93417261D01*
X161103553Y-93999999D01*
X161050000Y-93999999D01*
X161050000Y-93960504D01*
X161029556Y-93884204D01*
X160990060Y-93815795D01*
X160934205Y-93759940D01*
X160865796Y-93720444D01*
X160789496Y-93700000D01*
X160710504Y-93700000D01*
X160691300Y-93705145D01*
X161332737Y-93063709D01*
X161326525Y-93059196D01*
X161172259Y-92980592D01*
X161007584Y-92927085D01*
X160836571Y-92900000D01*
X160663429Y-92900000D01*
X160492415Y-92927085D01*
X160327742Y-92980591D01*
X160173472Y-93059197D01*
X160058847Y-93142476D01*
X159993041Y-93165955D01*
X159924987Y-93150129D01*
X159878574Y-93104153D01*
X159874538Y-93097163D01*
X159874536Y-93097160D01*
X159874536Y-93097159D01*
X159778282Y-92971718D01*
X159652841Y-92875464D01*
X159506762Y-92814956D01*
X159506760Y-92814955D01*
X159389370Y-92799501D01*
X159389367Y-92799500D01*
X159389361Y-92799500D01*
X159389354Y-92799500D01*
X158110636Y-92799500D01*
X157993246Y-92814953D01*
X157993237Y-92814956D01*
X157847160Y-92875463D01*
X157721718Y-92971718D01*
X157625463Y-93097160D01*
X157564956Y-93243237D01*
X157564955Y-93243239D01*
X157549501Y-93360629D01*
X157549500Y-93360645D01*
X154261465Y-93360645D01*
X154269929Y-93357895D01*
X154466345Y-93257815D01*
X154466537Y-93257675D01*
X154468488Y-93256259D01*
X154468488Y-93256258D01*
X154644681Y-93128247D01*
X154644679Y-93128247D01*
X154644688Y-93128242D01*
X154800565Y-92972365D01*
X154930138Y-92794022D01*
X155030218Y-92597606D01*
X155098338Y-92387951D01*
X155132823Y-92170222D01*
X155132823Y-91949778D01*
X155098338Y-91732049D01*
X155039188Y-91550000D01*
X155030219Y-91522396D01*
X155030218Y-91522393D01*
X154995560Y-91454375D01*
X154930138Y-91325978D01*
X154842065Y-91204755D01*
X154800570Y-91147641D01*
X154800566Y-91147636D01*
X154644686Y-90991756D01*
X154644681Y-90991752D01*
X154466348Y-90862187D01*
X154466347Y-90862186D01*
X154466345Y-90862185D01*
X154393366Y-90825000D01*
X154269929Y-90762104D01*
X154269926Y-90762103D01*
X154060275Y-90693985D01*
X153951409Y-90676742D01*
X153842545Y-90659500D01*
X153622101Y-90659500D01*
X153562215Y-90668985D01*
X153404370Y-90693985D01*
X153194719Y-90762103D01*
X153194716Y-90762104D01*
X152998297Y-90862187D01*
X152819964Y-90991752D01*
X152819959Y-90991756D01*
X152664079Y-91147636D01*
X152664075Y-91147641D01*
X152534510Y-91325974D01*
X152434427Y-91522393D01*
X152434426Y-91522396D01*
X152366308Y-91732047D01*
X152331823Y-91949778D01*
X150031071Y-91949778D01*
X150000313Y-91755582D01*
X149937078Y-91560968D01*
X149844182Y-91378650D01*
X149811797Y-91334077D01*
X149811797Y-91334076D01*
X149132323Y-92013551D01*
X149132323Y-92007339D01*
X149105064Y-91905606D01*
X149052403Y-91814394D01*
X148977929Y-91739920D01*
X148886717Y-91687259D01*
X148784984Y-91660000D01*
X148778769Y-91660000D01*
X149458245Y-90980524D01*
X149458244Y-90980523D01*
X149413682Y-90948147D01*
X149413673Y-90948141D01*
X149231354Y-90855244D01*
X149036740Y-90792009D01*
X148834640Y-90760000D01*
X148630006Y-90760000D01*
X148427905Y-90792009D01*
X148233291Y-90855244D01*
X148050967Y-90948143D01*
X148006400Y-90980523D01*
X148006400Y-90980524D01*
X148685877Y-91660000D01*
X148679662Y-91660000D01*
X148577929Y-91687259D01*
X148486717Y-91739920D01*
X148412243Y-91814394D01*
X148359582Y-91905606D01*
X148332323Y-92007339D01*
X148332323Y-92013553D01*
X147652847Y-91334077D01*
X147652846Y-91334077D01*
X147620466Y-91378644D01*
X147527567Y-91560968D01*
X147464332Y-91755582D01*
X147432323Y-91957682D01*
X144732823Y-91957682D01*
X144732823Y-91924778D01*
X144698338Y-91707049D01*
X144650874Y-91560968D01*
X144630219Y-91497396D01*
X144630218Y-91497393D01*
X144569711Y-91378644D01*
X144530138Y-91300978D01*
X144506171Y-91267990D01*
X144400570Y-91122641D01*
X144400566Y-91122636D01*
X144244686Y-90966756D01*
X144244681Y-90966752D01*
X144066348Y-90837187D01*
X144066347Y-90837186D01*
X144066345Y-90837185D01*
X143977683Y-90792009D01*
X143869929Y-90737104D01*
X143869926Y-90737103D01*
X143660275Y-90668985D01*
X143469340Y-90638744D01*
X143442545Y-90634500D01*
X143222101Y-90634500D01*
X143195312Y-90638743D01*
X143004370Y-90668985D01*
X142794719Y-90737103D01*
X142794716Y-90737104D01*
X142598297Y-90837187D01*
X142419964Y-90966752D01*
X142419959Y-90966756D01*
X142264079Y-91122636D01*
X142264075Y-91122641D01*
X142134510Y-91300974D01*
X142034427Y-91497393D01*
X142034426Y-91497396D01*
X141966308Y-91707047D01*
X141958621Y-91755582D01*
X141931823Y-91924778D01*
X139631071Y-91924778D01*
X139600313Y-91730582D01*
X139537078Y-91535968D01*
X139444182Y-91353650D01*
X139411797Y-91309077D01*
X139411797Y-91309076D01*
X138732323Y-91988551D01*
X138732323Y-91982339D01*
X138705064Y-91880606D01*
X138652403Y-91789394D01*
X138577929Y-91714920D01*
X138486717Y-91662259D01*
X138384984Y-91635000D01*
X138378769Y-91635000D01*
X139058245Y-90955524D01*
X139058244Y-90955523D01*
X139013682Y-90923147D01*
X139013673Y-90923141D01*
X138831354Y-90830244D01*
X138636740Y-90767009D01*
X138434640Y-90735000D01*
X138230006Y-90735000D01*
X138027905Y-90767009D01*
X137833291Y-90830244D01*
X137650967Y-90923143D01*
X137606400Y-90955523D01*
X137606400Y-90955524D01*
X138285877Y-91635000D01*
X138279662Y-91635000D01*
X138177929Y-91662259D01*
X138086717Y-91714920D01*
X138012243Y-91789394D01*
X137959582Y-91880606D01*
X137932323Y-91982339D01*
X137932323Y-91988553D01*
X137252847Y-91309077D01*
X137252846Y-91309077D01*
X137220466Y-91353644D01*
X137127567Y-91535968D01*
X137064332Y-91730582D01*
X137032323Y-91932682D01*
X125358504Y-91932682D01*
X125463162Y-91776051D01*
X125622977Y-91477058D01*
X125752716Y-91163840D01*
X125851129Y-90839414D01*
X125917270Y-90506904D01*
X125950500Y-90169512D01*
X125950500Y-89830488D01*
X125917270Y-89493096D01*
X125851129Y-89160586D01*
X125752716Y-88836160D01*
X125622977Y-88522942D01*
X125587598Y-88456753D01*
X125463168Y-88223960D01*
X125463167Y-88223958D01*
X125463162Y-88223949D01*
X125330928Y-88026048D01*
X130524500Y-88026048D01*
X130524500Y-88873951D01*
X130527317Y-88915499D01*
X130571963Y-89095021D01*
X130571964Y-89095023D01*
X130654156Y-89260750D01*
X130654157Y-89260751D01*
X130654158Y-89260753D01*
X130770060Y-89404940D01*
X130908678Y-89516366D01*
X130948596Y-89573708D01*
X130951176Y-89643530D01*
X130918672Y-89700692D01*
X130885967Y-89733397D01*
X130784195Y-89873475D01*
X130705591Y-90027744D01*
X130652085Y-90192415D01*
X130650884Y-90199999D01*
X130650885Y-90200000D01*
X131719670Y-90200000D01*
X131699925Y-90219745D01*
X131650556Y-90305255D01*
X131625000Y-90400630D01*
X131625000Y-90499370D01*
X131650556Y-90594745D01*
X131699925Y-90680255D01*
X131719670Y-90700000D01*
X130650885Y-90700000D01*
X130652085Y-90707584D01*
X130705591Y-90872255D01*
X130784195Y-91026524D01*
X130885967Y-91166602D01*
X131008397Y-91289032D01*
X131148475Y-91390804D01*
X131302742Y-91469408D01*
X131467415Y-91522914D01*
X131638429Y-91550000D01*
X131750000Y-91550000D01*
X131750000Y-90730330D01*
X131769745Y-90750075D01*
X131855255Y-90799444D01*
X131950630Y-90825000D01*
X132049370Y-90825000D01*
X132144745Y-90799444D01*
X132230255Y-90750075D01*
X132250000Y-90730330D01*
X132250000Y-91550000D01*
X132361571Y-91550000D01*
X132532584Y-91522914D01*
X132697257Y-91469408D01*
X132851524Y-91390804D01*
X132991602Y-91289032D01*
X133114032Y-91166602D01*
X133215804Y-91026524D01*
X133256585Y-90946488D01*
X133294408Y-90872255D01*
X133347914Y-90707584D01*
X133349115Y-90700000D01*
X132280330Y-90700000D01*
X132300075Y-90680255D01*
X132349444Y-90594745D01*
X132375000Y-90499370D01*
X132375000Y-90400630D01*
X132349444Y-90305255D01*
X132300075Y-90219745D01*
X132280330Y-90200000D01*
X133349115Y-90200000D01*
X133349115Y-90199999D01*
X133347914Y-90192415D01*
X133294408Y-90027744D01*
X133215804Y-89873475D01*
X133114032Y-89733397D01*
X133081328Y-89700693D01*
X133047843Y-89639370D01*
X133052827Y-89569678D01*
X133091321Y-89516366D01*
X133166459Y-89455967D01*
X133229938Y-89404942D01*
X133229940Y-89404940D01*
X133345842Y-89260753D01*
X133428037Y-89095021D01*
X133472683Y-88915495D01*
X133475500Y-88873954D01*
X133475500Y-88026046D01*
X133472683Y-87984505D01*
X133428037Y-87804979D01*
X133345842Y-87639247D01*
X133244398Y-87513046D01*
X133229940Y-87495059D01*
X133127785Y-87412945D01*
X133085753Y-87379158D01*
X133085751Y-87379157D01*
X133085750Y-87379156D01*
X132920023Y-87296964D01*
X132920021Y-87296963D01*
X132740497Y-87252317D01*
X132740501Y-87252317D01*
X132709339Y-87250204D01*
X132698954Y-87249500D01*
X131301046Y-87249500D01*
X131289177Y-87250304D01*
X131259500Y-87252317D01*
X131079978Y-87296963D01*
X131079976Y-87296964D01*
X130914249Y-87379156D01*
X130770059Y-87495059D01*
X130654156Y-87639249D01*
X130571964Y-87804976D01*
X130571963Y-87804978D01*
X130527317Y-87984500D01*
X130524500Y-88026048D01*
X125330928Y-88026048D01*
X125274810Y-87942061D01*
X125059735Y-87679991D01*
X125059734Y-87679990D01*
X125059730Y-87679985D01*
X124820014Y-87440269D01*
X124557944Y-87225194D01*
X124557943Y-87225193D01*
X124557939Y-87225190D01*
X124276051Y-87036838D01*
X124276046Y-87036835D01*
X124276039Y-87036831D01*
X123977065Y-86877026D01*
X123977060Y-86877024D01*
X123955957Y-86868283D01*
X123751148Y-86783448D01*
X123663841Y-86747284D01*
X123447054Y-86681523D01*
X123339414Y-86648871D01*
X123339411Y-86648870D01*
X123339410Y-86648870D01*
X123006901Y-86582729D01*
X122769199Y-86559318D01*
X122669512Y-86549500D01*
X122330488Y-86549500D01*
X122239738Y-86558437D01*
X121993098Y-86582729D01*
X121660589Y-86648870D01*
X121336158Y-86747284D01*
X121022939Y-86877024D01*
X121022934Y-86877026D01*
X120723960Y-87036831D01*
X120723942Y-87036842D01*
X120442069Y-87225184D01*
X120442055Y-87225194D01*
X120179985Y-87440269D01*
X119940269Y-87679985D01*
X119725194Y-87942055D01*
X119725184Y-87942069D01*
X119536842Y-88223942D01*
X119536831Y-88223960D01*
X119377026Y-88522934D01*
X119377024Y-88522939D01*
X119247284Y-88836158D01*
X119148870Y-89160589D01*
X119082729Y-89493098D01*
X119059063Y-89733397D01*
X119049500Y-89830488D01*
X115500500Y-89830488D01*
X115500500Y-85529778D01*
X137519500Y-85529778D01*
X137519500Y-85750222D01*
X137536742Y-85859086D01*
X137553985Y-85967952D01*
X137622103Y-86177603D01*
X137622104Y-86177606D01*
X137670058Y-86271718D01*
X137708362Y-86346894D01*
X137722187Y-86374025D01*
X137851752Y-86552358D01*
X137851756Y-86552363D01*
X138007636Y-86708243D01*
X138007641Y-86708247D01*
X138104727Y-86778783D01*
X138185978Y-86837815D01*
X138306538Y-86899244D01*
X138382393Y-86937895D01*
X138386894Y-86939759D01*
X138386391Y-86940972D01*
X138439115Y-86977006D01*
X138466328Y-87041359D01*
X138454428Y-87110208D01*
X138407196Y-87161694D01*
X138390602Y-87170078D01*
X138386200Y-87171901D01*
X138189774Y-87271987D01*
X138011441Y-87401552D01*
X138011436Y-87401556D01*
X137855556Y-87557436D01*
X137855552Y-87557441D01*
X137725987Y-87735774D01*
X137625904Y-87932193D01*
X137625903Y-87932196D01*
X137557785Y-88141847D01*
X137523300Y-88359578D01*
X137523300Y-88580021D01*
X137557785Y-88797752D01*
X137625903Y-89007403D01*
X137625904Y-89007406D01*
X137683505Y-89120451D01*
X137703956Y-89160589D01*
X137725987Y-89203825D01*
X137855552Y-89382158D01*
X137855556Y-89382163D01*
X138011436Y-89538043D01*
X138011441Y-89538047D01*
X138060525Y-89573708D01*
X138189778Y-89667615D01*
X138254697Y-89700693D01*
X138386193Y-89767695D01*
X138386196Y-89767696D01*
X138468188Y-89794336D01*
X138595849Y-89835815D01*
X138813578Y-89870300D01*
X138813579Y-89870300D01*
X139034021Y-89870300D01*
X139034022Y-89870300D01*
X139251751Y-89835815D01*
X139461406Y-89767695D01*
X139657822Y-89667615D01*
X139836165Y-89538042D01*
X139992042Y-89382165D01*
X140121615Y-89203822D01*
X140221695Y-89007406D01*
X140289815Y-88797751D01*
X140324300Y-88580022D01*
X140324300Y-88359578D01*
X140289815Y-88141849D01*
X140238690Y-87984500D01*
X140221696Y-87932196D01*
X140221695Y-87932193D01*
X140187037Y-87864175D01*
X140121615Y-87735778D01*
X140045083Y-87630440D01*
X139992047Y-87557441D01*
X139992043Y-87557436D01*
X139836163Y-87401556D01*
X139836158Y-87401552D01*
X139657825Y-87271987D01*
X139657824Y-87271986D01*
X139657822Y-87271985D01*
X139594896Y-87239922D01*
X139461406Y-87171904D01*
X139456906Y-87170041D01*
X139457406Y-87168832D01*
X139404671Y-87132777D01*
X139377469Y-87068420D01*
X139389380Y-86999573D01*
X139436621Y-86948094D01*
X139453213Y-86939715D01*
X139457600Y-86937897D01*
X139457600Y-86937896D01*
X139457606Y-86937895D01*
X139654022Y-86837815D01*
X139832365Y-86708242D01*
X139988242Y-86552365D01*
X140117815Y-86374022D01*
X140217895Y-86177606D01*
X140286015Y-85967951D01*
X140320500Y-85750222D01*
X140320500Y-85529778D01*
X140286015Y-85312049D01*
X140217895Y-85102394D01*
X140217895Y-85102393D01*
X140117813Y-84905975D01*
X140091287Y-84869464D01*
X140091286Y-84869463D01*
X140041287Y-84800645D01*
X145139500Y-84800645D01*
X145139500Y-86479363D01*
X145154953Y-86596753D01*
X145154956Y-86596762D01*
X145201132Y-86708242D01*
X145215464Y-86742841D01*
X145298664Y-86851269D01*
X145311719Y-86868283D01*
X145323111Y-86877024D01*
X145428617Y-86957982D01*
X145469820Y-87014409D01*
X145473975Y-87084155D01*
X145439763Y-87145075D01*
X145428618Y-87154732D01*
X145315520Y-87241516D01*
X145315519Y-87241517D01*
X145315518Y-87241518D01*
X145273967Y-87295669D01*
X145219263Y-87366960D01*
X145158756Y-87513037D01*
X145158755Y-87513039D01*
X145152910Y-87557441D01*
X145143301Y-87630436D01*
X145143300Y-87630445D01*
X145143300Y-89309163D01*
X145158753Y-89426553D01*
X145158756Y-89426562D01*
X145204932Y-89538042D01*
X145219264Y-89572641D01*
X145315518Y-89698082D01*
X145440959Y-89794336D01*
X145587038Y-89854844D01*
X145704439Y-89870300D01*
X147383160Y-89870299D01*
X147383163Y-89870299D01*
X147500553Y-89854846D01*
X147500557Y-89854844D01*
X147500562Y-89854844D01*
X147646641Y-89794336D01*
X147772082Y-89698082D01*
X147868336Y-89572641D01*
X147928844Y-89426562D01*
X147944300Y-89309161D01*
X147944300Y-88957882D01*
X151815669Y-88957882D01*
X151815670Y-88957883D01*
X151841059Y-88976329D01*
X152009362Y-89062085D01*
X152188997Y-89120451D01*
X152375553Y-89150000D01*
X152564447Y-89150000D01*
X152751002Y-89120451D01*
X152930637Y-89062085D01*
X153098937Y-88976331D01*
X153124328Y-88957883D01*
X153124328Y-88957882D01*
X152470001Y-88303554D01*
X152470000Y-88303554D01*
X151815669Y-88957882D01*
X147944300Y-88957882D01*
X147944299Y-88456762D01*
X147944299Y-87855552D01*
X151270000Y-87855552D01*
X151270000Y-88044447D01*
X151299548Y-88231002D01*
X151357914Y-88410637D01*
X151443666Y-88578933D01*
X151462116Y-88604328D01*
X152116446Y-87950000D01*
X152116446Y-87949999D01*
X152070369Y-87903922D01*
X152120000Y-87903922D01*
X152120000Y-87996078D01*
X152143852Y-88085095D01*
X152189930Y-88164905D01*
X152255095Y-88230070D01*
X152334905Y-88276148D01*
X152423922Y-88300000D01*
X152516078Y-88300000D01*
X152605095Y-88276148D01*
X152684905Y-88230070D01*
X152750070Y-88164905D01*
X152796148Y-88085095D01*
X152820000Y-87996078D01*
X152820000Y-87949999D01*
X152823554Y-87949999D01*
X152823554Y-87950000D01*
X153477882Y-88604328D01*
X153477883Y-88604328D01*
X153496331Y-88578937D01*
X153582085Y-88410637D01*
X153640451Y-88231002D01*
X153670000Y-88044447D01*
X153670000Y-87855552D01*
X153668748Y-87847648D01*
X156249500Y-87847648D01*
X156249500Y-88052351D01*
X156281522Y-88254534D01*
X156344781Y-88449223D01*
X156408691Y-88574653D01*
X156423054Y-88602841D01*
X156437715Y-88631613D01*
X156558028Y-88797213D01*
X156702786Y-88941971D01*
X156857749Y-89054556D01*
X156868390Y-89062287D01*
X156982543Y-89120451D01*
X157050776Y-89155218D01*
X157050778Y-89155218D01*
X157050781Y-89155220D01*
X157155137Y-89189127D01*
X157245465Y-89218477D01*
X157346557Y-89234488D01*
X157447648Y-89250500D01*
X157447649Y-89250500D01*
X157652351Y-89250500D01*
X157652352Y-89250500D01*
X157854534Y-89218477D01*
X158049219Y-89155220D01*
X158231610Y-89062287D01*
X158324590Y-88994732D01*
X158397213Y-88941971D01*
X158397215Y-88941968D01*
X158397219Y-88941966D01*
X158541966Y-88797219D01*
X158541968Y-88797215D01*
X158541971Y-88797213D01*
X158594732Y-88724590D01*
X158662287Y-88631610D01*
X158755220Y-88449219D01*
X158818477Y-88254534D01*
X158850500Y-88052352D01*
X158850500Y-87847648D01*
X158818477Y-87645466D01*
X158816456Y-87639247D01*
X158775449Y-87513039D01*
X158755220Y-87450781D01*
X158755218Y-87450778D01*
X158755218Y-87450776D01*
X158712510Y-87366959D01*
X158662287Y-87268390D01*
X158630901Y-87225190D01*
X158541971Y-87102786D01*
X158397213Y-86958028D01*
X158231613Y-86837715D01*
X158231612Y-86837714D01*
X158231610Y-86837713D01*
X158174653Y-86808691D01*
X158049223Y-86744781D01*
X157854534Y-86681522D01*
X157679995Y-86653878D01*
X157652352Y-86649500D01*
X157447648Y-86649500D01*
X157423329Y-86653351D01*
X157245465Y-86681522D01*
X157050776Y-86744781D01*
X156868386Y-86837715D01*
X156702786Y-86958028D01*
X156558028Y-87102786D01*
X156437715Y-87268386D01*
X156344781Y-87450776D01*
X156281522Y-87645465D01*
X156249500Y-87847648D01*
X153668748Y-87847648D01*
X153640451Y-87668997D01*
X153582085Y-87489362D01*
X153496329Y-87321059D01*
X153477883Y-87295670D01*
X153477882Y-87295669D01*
X152823554Y-87949999D01*
X152820000Y-87949999D01*
X152820000Y-87903922D01*
X152796148Y-87814905D01*
X152750070Y-87735095D01*
X152684905Y-87669930D01*
X152605095Y-87623852D01*
X152516078Y-87600000D01*
X152423922Y-87600000D01*
X152334905Y-87623852D01*
X152255095Y-87669930D01*
X152189930Y-87735095D01*
X152143852Y-87814905D01*
X152120000Y-87903922D01*
X152070369Y-87903922D01*
X151462116Y-87295669D01*
X151462116Y-87295670D01*
X151443669Y-87321060D01*
X151357914Y-87489362D01*
X151299548Y-87668997D01*
X151270000Y-87855552D01*
X147944299Y-87855552D01*
X147944299Y-87850686D01*
X147944299Y-87630436D01*
X147928846Y-87513046D01*
X147928844Y-87513039D01*
X147928844Y-87513038D01*
X147868336Y-87366959D01*
X147772082Y-87241518D01*
X147772080Y-87241517D01*
X147772080Y-87241516D01*
X147678931Y-87170041D01*
X147655181Y-87151817D01*
X147613979Y-87095390D01*
X147609824Y-87025644D01*
X147644036Y-86964724D01*
X147655177Y-86955069D01*
X147768282Y-86868282D01*
X147864536Y-86742841D01*
X147925044Y-86596762D01*
X147940500Y-86479361D01*
X147940499Y-85250000D01*
X151223391Y-85250000D01*
X152184314Y-85250000D01*
X152179920Y-85254394D01*
X152127259Y-85345606D01*
X152100000Y-85447339D01*
X152100000Y-85552661D01*
X152127259Y-85654394D01*
X152179920Y-85745606D01*
X152184314Y-85750000D01*
X151223391Y-85750000D01*
X151232009Y-85804413D01*
X151295244Y-85999029D01*
X151388140Y-86181349D01*
X151508417Y-86346894D01*
X151508417Y-86346895D01*
X151653104Y-86491582D01*
X151818652Y-86611861D01*
X151918996Y-86662988D01*
X151969792Y-86710962D01*
X151986588Y-86778783D01*
X151964051Y-86844918D01*
X151918998Y-86883957D01*
X151841063Y-86923668D01*
X151815670Y-86942116D01*
X151815669Y-86942116D01*
X152470000Y-87596446D01*
X152470001Y-87596446D01*
X153124328Y-86942116D01*
X153098933Y-86923666D01*
X153051002Y-86899244D01*
X153000206Y-86851269D01*
X152983411Y-86783448D01*
X153005948Y-86717313D01*
X153051003Y-86678274D01*
X153181347Y-86611861D01*
X153346894Y-86491582D01*
X153346895Y-86491582D01*
X153491582Y-86346895D01*
X153491582Y-86346894D01*
X153611859Y-86181349D01*
X153704755Y-85999029D01*
X153767990Y-85804413D01*
X153776609Y-85750000D01*
X152815686Y-85750000D01*
X152820080Y-85745606D01*
X152872741Y-85654394D01*
X152900000Y-85552661D01*
X152900000Y-85447339D01*
X152872741Y-85345606D01*
X152820080Y-85254394D01*
X152815686Y-85250000D01*
X153776609Y-85250000D01*
X153767990Y-85195586D01*
X153704755Y-85000970D01*
X153611859Y-84818650D01*
X153547063Y-84729466D01*
X153497060Y-84660645D01*
X158719500Y-84660645D01*
X158719500Y-86339363D01*
X158734953Y-86456753D01*
X158734956Y-86456762D01*
X158770775Y-86543238D01*
X158795464Y-86602841D01*
X158891718Y-86728282D01*
X159017159Y-86824536D01*
X159163238Y-86885044D01*
X159280639Y-86900500D01*
X160959360Y-86900499D01*
X160959363Y-86900499D01*
X161076753Y-86885046D01*
X161076757Y-86885044D01*
X161076762Y-86885044D01*
X161222841Y-86824536D01*
X161348282Y-86728282D01*
X161400182Y-86660645D01*
X166549500Y-86660645D01*
X166549500Y-88339363D01*
X166564953Y-88456753D01*
X166564956Y-88456762D01*
X166616011Y-88580021D01*
X166625464Y-88602841D01*
X166721718Y-88728282D01*
X166847159Y-88824536D01*
X166993238Y-88885044D01*
X167110639Y-88900500D01*
X167152689Y-88900499D01*
X167219726Y-88920182D01*
X167240370Y-88936818D01*
X167903553Y-89600000D01*
X167897339Y-89600000D01*
X167795606Y-89627259D01*
X167704394Y-89679920D01*
X167629920Y-89754394D01*
X167577259Y-89845606D01*
X167550000Y-89947339D01*
X167550000Y-89953553D01*
X166870524Y-89274077D01*
X166870523Y-89274077D01*
X166838143Y-89318644D01*
X166745244Y-89500968D01*
X166682009Y-89695582D01*
X166650000Y-89897682D01*
X166650000Y-90102317D01*
X166682009Y-90304417D01*
X166745244Y-90499031D01*
X166838141Y-90681350D01*
X166838147Y-90681359D01*
X166870523Y-90725921D01*
X166870524Y-90725922D01*
X167550000Y-90046446D01*
X167550000Y-90052661D01*
X167577259Y-90154394D01*
X167629920Y-90245606D01*
X167704394Y-90320080D01*
X167795606Y-90372741D01*
X167897339Y-90400000D01*
X167903553Y-90400000D01*
X167224076Y-91079474D01*
X167268650Y-91111859D01*
X167450968Y-91204755D01*
X167645582Y-91267990D01*
X167847683Y-91300000D01*
X168052317Y-91300000D01*
X168254417Y-91267990D01*
X168449031Y-91204755D01*
X168631349Y-91111859D01*
X168675921Y-91079474D01*
X167996447Y-90400000D01*
X168002661Y-90400000D01*
X168104394Y-90372741D01*
X168195606Y-90320080D01*
X168270080Y-90245606D01*
X168322741Y-90154394D01*
X168350000Y-90052661D01*
X168350000Y-90046448D01*
X169029474Y-90725922D01*
X169029474Y-90725921D01*
X169061859Y-90681349D01*
X169154755Y-90499031D01*
X169217990Y-90304417D01*
X169250000Y-90102317D01*
X169250000Y-89897681D01*
X169241948Y-89846841D01*
X169239358Y-89830488D01*
X174049500Y-89830488D01*
X174049500Y-90169512D01*
X174056995Y-90245606D01*
X174082729Y-90506901D01*
X174148428Y-90837187D01*
X174148871Y-90839414D01*
X174155779Y-90862187D01*
X174247284Y-91163841D01*
X174377024Y-91477060D01*
X174377026Y-91477065D01*
X174536831Y-91776039D01*
X174536842Y-91776057D01*
X174725184Y-92057930D01*
X174725194Y-92057944D01*
X174940269Y-92320014D01*
X175179985Y-92559730D01*
X175179990Y-92559734D01*
X175179991Y-92559735D01*
X175442061Y-92774810D01*
X175723949Y-92963162D01*
X175723958Y-92963167D01*
X175723960Y-92963168D01*
X176022934Y-93122973D01*
X176022936Y-93122973D01*
X176022942Y-93122977D01*
X176336160Y-93252716D01*
X176660586Y-93351129D01*
X176993096Y-93417270D01*
X177330488Y-93450500D01*
X177330491Y-93450500D01*
X177669509Y-93450500D01*
X177669512Y-93450500D01*
X178006904Y-93417270D01*
X178339414Y-93351129D01*
X178663840Y-93252716D01*
X178977058Y-93122977D01*
X179276051Y-92963162D01*
X179557939Y-92774810D01*
X179820009Y-92559735D01*
X180059735Y-92320009D01*
X180274810Y-92057939D01*
X180463162Y-91776051D01*
X180622977Y-91477058D01*
X180752716Y-91163840D01*
X180851129Y-90839414D01*
X180917270Y-90506904D01*
X180950500Y-90169512D01*
X180950500Y-89830488D01*
X180917270Y-89493096D01*
X180851129Y-89160586D01*
X180752716Y-88836160D01*
X180622977Y-88522942D01*
X180587598Y-88456753D01*
X180463168Y-88223960D01*
X180463167Y-88223958D01*
X180463162Y-88223949D01*
X180274810Y-87942061D01*
X180059735Y-87679991D01*
X180059734Y-87679990D01*
X180059730Y-87679985D01*
X179820014Y-87440269D01*
X179557944Y-87225194D01*
X179557943Y-87225193D01*
X179557939Y-87225190D01*
X179276051Y-87036838D01*
X179276046Y-87036835D01*
X179276039Y-87036831D01*
X178977065Y-86877026D01*
X178977060Y-86877024D01*
X178955957Y-86868283D01*
X178751148Y-86783448D01*
X178663841Y-86747284D01*
X178447054Y-86681523D01*
X178339414Y-86648871D01*
X178339411Y-86648870D01*
X178339410Y-86648870D01*
X178006901Y-86582729D01*
X177769199Y-86559318D01*
X177669512Y-86549500D01*
X177330488Y-86549500D01*
X177239738Y-86558437D01*
X176993098Y-86582729D01*
X176660589Y-86648870D01*
X176336158Y-86747284D01*
X176022939Y-86877024D01*
X176022934Y-86877026D01*
X175723960Y-87036831D01*
X175723942Y-87036842D01*
X175442069Y-87225184D01*
X175442055Y-87225194D01*
X175179985Y-87440269D01*
X174940269Y-87679985D01*
X174725194Y-87942055D01*
X174725184Y-87942069D01*
X174536842Y-88223942D01*
X174536831Y-88223960D01*
X174377026Y-88522934D01*
X174377024Y-88522939D01*
X174247284Y-88836158D01*
X174148870Y-89160589D01*
X174082729Y-89493098D01*
X174059063Y-89733397D01*
X174049500Y-89830488D01*
X169239358Y-89830488D01*
X169217990Y-89695582D01*
X169154755Y-89500968D01*
X169061859Y-89318650D01*
X169029474Y-89274077D01*
X169029474Y-89274076D01*
X168350000Y-89953551D01*
X168350000Y-89947339D01*
X168322741Y-89845606D01*
X168270080Y-89754394D01*
X168195606Y-89679920D01*
X168104394Y-89627259D01*
X168002661Y-89600000D01*
X167996445Y-89600000D01*
X168659628Y-88936818D01*
X168720951Y-88903333D01*
X168747308Y-88900499D01*
X168789360Y-88900499D01*
X168789363Y-88900499D01*
X168906753Y-88885046D01*
X168906757Y-88885044D01*
X168906762Y-88885044D01*
X169052841Y-88824536D01*
X169178282Y-88728282D01*
X169274536Y-88602841D01*
X169335044Y-88456762D01*
X169350500Y-88339361D01*
X169350499Y-86660640D01*
X169350499Y-86660639D01*
X169350499Y-86660636D01*
X169335046Y-86543246D01*
X169335044Y-86543239D01*
X169335044Y-86543238D01*
X169274536Y-86397159D01*
X169178282Y-86271718D01*
X169052841Y-86175464D01*
X168906762Y-86114956D01*
X168906760Y-86114955D01*
X168789370Y-86099501D01*
X168789367Y-86099500D01*
X168789361Y-86099500D01*
X168789354Y-86099500D01*
X167110636Y-86099500D01*
X166993246Y-86114953D01*
X166993237Y-86114956D01*
X166847160Y-86175463D01*
X166721718Y-86271718D01*
X166625463Y-86397160D01*
X166564956Y-86543237D01*
X166564955Y-86543239D01*
X166551049Y-86648870D01*
X166549501Y-86660636D01*
X166549500Y-86660645D01*
X161400182Y-86660645D01*
X161444536Y-86602841D01*
X161505044Y-86456762D01*
X161520500Y-86339361D01*
X161520499Y-84660640D01*
X161520499Y-84660639D01*
X161520499Y-84660636D01*
X161505046Y-84543246D01*
X161505044Y-84543239D01*
X161505044Y-84543238D01*
X161444536Y-84397159D01*
X161348282Y-84271718D01*
X161244751Y-84192276D01*
X161203550Y-84135849D01*
X161199395Y-84066102D01*
X161233608Y-84005182D01*
X161247345Y-83993589D01*
X161387219Y-83891966D01*
X161531966Y-83747219D01*
X161531968Y-83747215D01*
X161531971Y-83747213D01*
X161584732Y-83674590D01*
X161652287Y-83581610D01*
X161745220Y-83399219D01*
X161808477Y-83204534D01*
X161840500Y-83002352D01*
X161840500Y-82797648D01*
X161808477Y-82595466D01*
X161745220Y-82400781D01*
X161745218Y-82400778D01*
X161745218Y-82400776D01*
X161711503Y-82334607D01*
X161652287Y-82218390D01*
X161644556Y-82207749D01*
X161531971Y-82052786D01*
X161387213Y-81908028D01*
X161221613Y-81787715D01*
X161221612Y-81787714D01*
X161221610Y-81787713D01*
X161164653Y-81758691D01*
X161039223Y-81694781D01*
X160844534Y-81631522D01*
X160669995Y-81603878D01*
X160642352Y-81599500D01*
X160437648Y-81599500D01*
X160413329Y-81603351D01*
X160235465Y-81631522D01*
X160040776Y-81694781D01*
X159858386Y-81787715D01*
X159692786Y-81908028D01*
X159548028Y-82052786D01*
X159427715Y-82218386D01*
X159334781Y-82400776D01*
X159271522Y-82595465D01*
X159239500Y-82797648D01*
X159239500Y-83002351D01*
X159271522Y-83204534D01*
X159334781Y-83399223D01*
X159427715Y-83581613D01*
X159548028Y-83747213D01*
X159688634Y-83887819D01*
X159722119Y-83949142D01*
X159717135Y-84018834D01*
X159675263Y-84074767D01*
X159609799Y-84099184D01*
X159600953Y-84099500D01*
X159280636Y-84099500D01*
X159163246Y-84114953D01*
X159163237Y-84114956D01*
X159017160Y-84175463D01*
X158891718Y-84271718D01*
X158795463Y-84397160D01*
X158734956Y-84543237D01*
X158734955Y-84543239D01*
X158731201Y-84571758D01*
X158719501Y-84660636D01*
X158719500Y-84660645D01*
X153497060Y-84660645D01*
X153491582Y-84653105D01*
X153491582Y-84653104D01*
X153346895Y-84508417D01*
X153181349Y-84388140D01*
X152999029Y-84295244D01*
X152804413Y-84232009D01*
X152750000Y-84223390D01*
X152750000Y-85184314D01*
X152745606Y-85179920D01*
X152654394Y-85127259D01*
X152552661Y-85100000D01*
X152447339Y-85100000D01*
X152345606Y-85127259D01*
X152254394Y-85179920D01*
X152250000Y-85184314D01*
X152250000Y-84223390D01*
X152195586Y-84232009D01*
X152000970Y-84295244D01*
X151818650Y-84388140D01*
X151653105Y-84508417D01*
X151653104Y-84508417D01*
X151508417Y-84653104D01*
X151508417Y-84653105D01*
X151388140Y-84818650D01*
X151295244Y-85000970D01*
X151232009Y-85195586D01*
X151223391Y-85250000D01*
X147940499Y-85250000D01*
X147940499Y-84800640D01*
X147940499Y-84800639D01*
X147940499Y-84800636D01*
X147925046Y-84683246D01*
X147925044Y-84683239D01*
X147925044Y-84683238D01*
X147864536Y-84537159D01*
X147768282Y-84411718D01*
X147642841Y-84315464D01*
X147496762Y-84254956D01*
X147496760Y-84254955D01*
X147379370Y-84239501D01*
X147379367Y-84239500D01*
X147379361Y-84239500D01*
X147379354Y-84239500D01*
X145700636Y-84239500D01*
X145583246Y-84254953D01*
X145583237Y-84254956D01*
X145437160Y-84315463D01*
X145311718Y-84411718D01*
X145215463Y-84537160D01*
X145154956Y-84683237D01*
X145154955Y-84683239D01*
X145139501Y-84800629D01*
X145139501Y-84800636D01*
X145139500Y-84800645D01*
X140041287Y-84800645D01*
X139988247Y-84727641D01*
X139988243Y-84727636D01*
X139832363Y-84571756D01*
X139832358Y-84571752D01*
X139654025Y-84442187D01*
X139654024Y-84442186D01*
X139654022Y-84442185D01*
X139591096Y-84410122D01*
X139457606Y-84342104D01*
X139457603Y-84342103D01*
X139247952Y-84273985D01*
X139127788Y-84254953D01*
X139030222Y-84239500D01*
X138809778Y-84239500D01*
X138737201Y-84250995D01*
X138592047Y-84273985D01*
X138382396Y-84342103D01*
X138382393Y-84342104D01*
X138185974Y-84442187D01*
X138007641Y-84571752D01*
X138007636Y-84571756D01*
X137851756Y-84727636D01*
X137851752Y-84727641D01*
X137722187Y-84905974D01*
X137622104Y-85102393D01*
X137622103Y-85102396D01*
X137553985Y-85312047D01*
X137553985Y-85312049D01*
X137519500Y-85529778D01*
X115500500Y-85529778D01*
X115500500Y-82797648D01*
X154159500Y-82797648D01*
X154159500Y-83002351D01*
X154191522Y-83204534D01*
X154254781Y-83399223D01*
X154347715Y-83581613D01*
X154468028Y-83747213D01*
X154612786Y-83891971D01*
X154767749Y-84004556D01*
X154778390Y-84012287D01*
X154884008Y-84066102D01*
X154960776Y-84105218D01*
X154960778Y-84105218D01*
X154960781Y-84105220D01*
X155055047Y-84135849D01*
X155155465Y-84168477D01*
X155199573Y-84175463D01*
X155357648Y-84200500D01*
X155357649Y-84200500D01*
X155562351Y-84200500D01*
X155562352Y-84200500D01*
X155764534Y-84168477D01*
X155959219Y-84105220D01*
X156141610Y-84012287D01*
X156234590Y-83944732D01*
X156307213Y-83891971D01*
X156307215Y-83891968D01*
X156307219Y-83891966D01*
X156451966Y-83747219D01*
X156451968Y-83747215D01*
X156451971Y-83747213D01*
X156504732Y-83674590D01*
X156572287Y-83581610D01*
X156665220Y-83399219D01*
X156728477Y-83204534D01*
X156760500Y-83002352D01*
X156760500Y-82797648D01*
X156728477Y-82595466D01*
X156665220Y-82400781D01*
X156665218Y-82400778D01*
X156665218Y-82400776D01*
X156631503Y-82334607D01*
X156572287Y-82218390D01*
X156564556Y-82207749D01*
X156451971Y-82052786D01*
X156307213Y-81908028D01*
X156141613Y-81787715D01*
X156141612Y-81787714D01*
X156141610Y-81787713D01*
X156084653Y-81758691D01*
X155959223Y-81694781D01*
X155764534Y-81631522D01*
X155589995Y-81603878D01*
X155562352Y-81599500D01*
X155357648Y-81599500D01*
X155333329Y-81603351D01*
X155155465Y-81631522D01*
X154960776Y-81694781D01*
X154778386Y-81787715D01*
X154612786Y-81908028D01*
X154468028Y-82052786D01*
X154347715Y-82218386D01*
X154254781Y-82400776D01*
X154191522Y-82595465D01*
X154159500Y-82797648D01*
X115500500Y-82797648D01*
X115500500Y-78638428D01*
X129950000Y-78638428D01*
X129950000Y-78750000D01*
X130769670Y-78750000D01*
X130749925Y-78769745D01*
X130700556Y-78855255D01*
X130675000Y-78950630D01*
X130675000Y-79049370D01*
X130700556Y-79144745D01*
X130749925Y-79230255D01*
X130769670Y-79250000D01*
X129950000Y-79250000D01*
X129950000Y-79361571D01*
X129977085Y-79532584D01*
X130030591Y-79697257D01*
X130109195Y-79851524D01*
X130210967Y-79991602D01*
X130333397Y-80114032D01*
X130473475Y-80215804D01*
X130627744Y-80294408D01*
X130792415Y-80347914D01*
X130792414Y-80347914D01*
X130799999Y-80349115D01*
X130800000Y-80349114D01*
X130800000Y-79280330D01*
X130819745Y-79300075D01*
X130905255Y-79349444D01*
X131000630Y-79375000D01*
X131099370Y-79375000D01*
X131194745Y-79349444D01*
X131280255Y-79300075D01*
X131300000Y-79280330D01*
X131300000Y-80349115D01*
X131307584Y-80347914D01*
X131472255Y-80294408D01*
X131626524Y-80215804D01*
X131766601Y-80114033D01*
X131799305Y-80081329D01*
X131860627Y-80047843D01*
X131930319Y-80052827D01*
X131983634Y-80091321D01*
X132095059Y-80229940D01*
X132160350Y-80282422D01*
X132239247Y-80345842D01*
X132404979Y-80428037D01*
X132584501Y-80472682D01*
X132584502Y-80472682D01*
X132584505Y-80472683D01*
X132626046Y-80475500D01*
X132626048Y-80475500D01*
X133473952Y-80475500D01*
X133473954Y-80475500D01*
X133515495Y-80472683D01*
X133695021Y-80428037D01*
X133860753Y-80345842D01*
X134004940Y-80229940D01*
X134120842Y-80085753D01*
X134203037Y-79920021D01*
X134247683Y-79740495D01*
X134250500Y-79698954D01*
X134250500Y-78630513D01*
X137299500Y-78630513D01*
X137299500Y-79369486D01*
X137329059Y-79556118D01*
X137387454Y-79735836D01*
X137446401Y-79851524D01*
X137473240Y-79904199D01*
X137584310Y-80057073D01*
X137717927Y-80190690D01*
X137870801Y-80301760D01*
X137950347Y-80342290D01*
X138039163Y-80387545D01*
X138039165Y-80387545D01*
X138039168Y-80387547D01*
X138135497Y-80418846D01*
X138218881Y-80445940D01*
X138405514Y-80475500D01*
X138405519Y-80475500D01*
X138594486Y-80475500D01*
X138781118Y-80445940D01*
X138836220Y-80428036D01*
X138960832Y-80387547D01*
X139129199Y-80301760D01*
X139282073Y-80190690D01*
X139312641Y-80160121D01*
X139373963Y-80126636D01*
X139443655Y-80131620D01*
X139496970Y-80170114D01*
X139545059Y-80229940D01*
X139610350Y-80282422D01*
X139689247Y-80345842D01*
X139854979Y-80428037D01*
X140034501Y-80472682D01*
X140034502Y-80472682D01*
X140034505Y-80472683D01*
X140076046Y-80475500D01*
X140076048Y-80475500D01*
X140923952Y-80475500D01*
X140923954Y-80475500D01*
X140965495Y-80472683D01*
X141145021Y-80428037D01*
X141310753Y-80345842D01*
X141454940Y-80229940D01*
X141570842Y-80085753D01*
X141653037Y-79920021D01*
X141697683Y-79740495D01*
X141700500Y-79698954D01*
X141700500Y-78630513D01*
X144549500Y-78630513D01*
X144549500Y-79369486D01*
X144579059Y-79556118D01*
X144637454Y-79735836D01*
X144696401Y-79851524D01*
X144723240Y-79904199D01*
X144834310Y-80057073D01*
X144967927Y-80190690D01*
X145120801Y-80301760D01*
X145200347Y-80342290D01*
X145289163Y-80387545D01*
X145289165Y-80387545D01*
X145289168Y-80387547D01*
X145385497Y-80418846D01*
X145468881Y-80445940D01*
X145655514Y-80475500D01*
X145655519Y-80475500D01*
X145844486Y-80475500D01*
X146031118Y-80445940D01*
X146086220Y-80428036D01*
X146210832Y-80387547D01*
X146379199Y-80301760D01*
X146532073Y-80190690D01*
X146562641Y-80160121D01*
X146623963Y-80126636D01*
X146693655Y-80131620D01*
X146746970Y-80170114D01*
X146795059Y-80229940D01*
X146860350Y-80282422D01*
X146939247Y-80345842D01*
X147104979Y-80428037D01*
X147284501Y-80472682D01*
X147284502Y-80472682D01*
X147284505Y-80472683D01*
X147326046Y-80475500D01*
X147326048Y-80475500D01*
X148173952Y-80475500D01*
X148173954Y-80475500D01*
X148215495Y-80472683D01*
X148395021Y-80428037D01*
X148560753Y-80345842D01*
X148704940Y-80229940D01*
X148820842Y-80085753D01*
X148903037Y-79920021D01*
X148947683Y-79740495D01*
X148950500Y-79698954D01*
X148950500Y-78630513D01*
X152149500Y-78630513D01*
X152149500Y-79369486D01*
X152179059Y-79556118D01*
X152237454Y-79735836D01*
X152296401Y-79851524D01*
X152323240Y-79904199D01*
X152434310Y-80057073D01*
X152567927Y-80190690D01*
X152720801Y-80301760D01*
X152800347Y-80342290D01*
X152889163Y-80387545D01*
X152889165Y-80387545D01*
X152889168Y-80387547D01*
X152985497Y-80418846D01*
X153068881Y-80445940D01*
X153255514Y-80475500D01*
X153255519Y-80475500D01*
X153444486Y-80475500D01*
X153631118Y-80445940D01*
X153686220Y-80428036D01*
X153810832Y-80387547D01*
X153979199Y-80301760D01*
X154132073Y-80190690D01*
X154162641Y-80160121D01*
X154223963Y-80126636D01*
X154293655Y-80131620D01*
X154346970Y-80170114D01*
X154395059Y-80229940D01*
X154460350Y-80282422D01*
X154539247Y-80345842D01*
X154704979Y-80428037D01*
X154884501Y-80472682D01*
X154884502Y-80472682D01*
X154884505Y-80472683D01*
X154926046Y-80475500D01*
X154926048Y-80475500D01*
X155773952Y-80475500D01*
X155773954Y-80475500D01*
X155815495Y-80472683D01*
X155995021Y-80428037D01*
X156160753Y-80345842D01*
X156304940Y-80229940D01*
X156420842Y-80085753D01*
X156503037Y-79920021D01*
X156547683Y-79740495D01*
X156550500Y-79698954D01*
X156550500Y-78630513D01*
X159749500Y-78630513D01*
X159749500Y-79369486D01*
X159779059Y-79556118D01*
X159837454Y-79735836D01*
X159896401Y-79851524D01*
X159923240Y-79904199D01*
X160034310Y-80057073D01*
X160167927Y-80190690D01*
X160320801Y-80301760D01*
X160400347Y-80342290D01*
X160489163Y-80387545D01*
X160489165Y-80387545D01*
X160489168Y-80387547D01*
X160585497Y-80418846D01*
X160668881Y-80445940D01*
X160855514Y-80475500D01*
X160855519Y-80475500D01*
X161044486Y-80475500D01*
X161231118Y-80445940D01*
X161286220Y-80428036D01*
X161410832Y-80387547D01*
X161579199Y-80301760D01*
X161732073Y-80190690D01*
X161762641Y-80160121D01*
X161823963Y-80126636D01*
X161893655Y-80131620D01*
X161946970Y-80170114D01*
X161995059Y-80229940D01*
X162060350Y-80282422D01*
X162139247Y-80345842D01*
X162304979Y-80428037D01*
X162484501Y-80472682D01*
X162484502Y-80472682D01*
X162484505Y-80472683D01*
X162526046Y-80475500D01*
X162526048Y-80475500D01*
X163373952Y-80475500D01*
X163373954Y-80475500D01*
X163415495Y-80472683D01*
X163595021Y-80428037D01*
X163760753Y-80345842D01*
X163904940Y-80229940D01*
X164020842Y-80085753D01*
X164103037Y-79920021D01*
X164141770Y-79764270D01*
X172000000Y-79764270D01*
X172000000Y-80000375D01*
X172036934Y-80233570D01*
X172109897Y-80458125D01*
X172217087Y-80668497D01*
X172277338Y-80751427D01*
X172277340Y-80751428D01*
X173017037Y-80011731D01*
X173034075Y-80075316D01*
X173099901Y-80189330D01*
X173192993Y-80282422D01*
X173307007Y-80348248D01*
X173370590Y-80365285D01*
X172630893Y-81104981D01*
X172713828Y-81165237D01*
X172924197Y-81272425D01*
X173148752Y-81345388D01*
X173148751Y-81345388D01*
X173381948Y-81382323D01*
X173618052Y-81382323D01*
X173851247Y-81345388D01*
X174075802Y-81272425D01*
X174286163Y-81165241D01*
X174286169Y-81165237D01*
X174369104Y-81104981D01*
X174369105Y-81104981D01*
X173629408Y-80365285D01*
X173692993Y-80348248D01*
X173807007Y-80282422D01*
X173900099Y-80189330D01*
X173965925Y-80075316D01*
X173982962Y-80011731D01*
X174722658Y-80751428D01*
X174722658Y-80751427D01*
X174782914Y-80668492D01*
X174782918Y-80668486D01*
X174890102Y-80458125D01*
X174963065Y-80233570D01*
X175000000Y-80000375D01*
X175000000Y-79764270D01*
X174963065Y-79531075D01*
X174890102Y-79306520D01*
X174782914Y-79096151D01*
X174722658Y-79013217D01*
X174722658Y-79013216D01*
X173982962Y-79752913D01*
X173965925Y-79689330D01*
X173900099Y-79575316D01*
X173807007Y-79482224D01*
X173692993Y-79416398D01*
X173629409Y-79399360D01*
X174369105Y-78659663D01*
X174369104Y-78659661D01*
X174286174Y-78599410D01*
X174075802Y-78492220D01*
X173851247Y-78419257D01*
X173851248Y-78419257D01*
X173618052Y-78382323D01*
X173381948Y-78382323D01*
X173148752Y-78419257D01*
X172924197Y-78492220D01*
X172713830Y-78599407D01*
X172630894Y-78659663D01*
X173370591Y-79399360D01*
X173307007Y-79416398D01*
X173192993Y-79482224D01*
X173099901Y-79575316D01*
X173034075Y-79689330D01*
X173017037Y-79752914D01*
X172277340Y-79013217D01*
X172217084Y-79096153D01*
X172109897Y-79306520D01*
X172036934Y-79531075D01*
X172000000Y-79764270D01*
X164141770Y-79764270D01*
X164147683Y-79740495D01*
X164150500Y-79698954D01*
X164150500Y-78301046D01*
X164147683Y-78259505D01*
X164103037Y-78079979D01*
X164020842Y-77914247D01*
X163936492Y-77809312D01*
X163904940Y-77770059D01*
X163802785Y-77687945D01*
X163760753Y-77654158D01*
X163760751Y-77654157D01*
X163760750Y-77654156D01*
X163595023Y-77571964D01*
X163595021Y-77571963D01*
X163415497Y-77527317D01*
X163415501Y-77527317D01*
X163384339Y-77525204D01*
X163373954Y-77524500D01*
X162526046Y-77524500D01*
X162514177Y-77525304D01*
X162484500Y-77527317D01*
X162304978Y-77571963D01*
X162304976Y-77571964D01*
X162139249Y-77654156D01*
X161995058Y-77770060D01*
X161946968Y-77829886D01*
X161889623Y-77869804D01*
X161819801Y-77872382D01*
X161762641Y-77839878D01*
X161732075Y-77809312D01*
X161732073Y-77809310D01*
X161579199Y-77698240D01*
X161410836Y-77612454D01*
X161231118Y-77554059D01*
X161044486Y-77524500D01*
X161044481Y-77524500D01*
X160855519Y-77524500D01*
X160855514Y-77524500D01*
X160668881Y-77554059D01*
X160489163Y-77612454D01*
X160320800Y-77698240D01*
X160233579Y-77761610D01*
X160167927Y-77809310D01*
X160167925Y-77809312D01*
X160167924Y-77809312D01*
X160034312Y-77942924D01*
X160034312Y-77942925D01*
X160034310Y-77942927D01*
X160028317Y-77951176D01*
X159923240Y-78095800D01*
X159837454Y-78264163D01*
X159779059Y-78443881D01*
X159749500Y-78630513D01*
X156550500Y-78630513D01*
X156550500Y-78301046D01*
X156547683Y-78259505D01*
X156503037Y-78079979D01*
X156420842Y-77914247D01*
X156336492Y-77809312D01*
X156304940Y-77770059D01*
X156202785Y-77687945D01*
X156160753Y-77654158D01*
X156160751Y-77654157D01*
X156160750Y-77654156D01*
X155995023Y-77571964D01*
X155995021Y-77571963D01*
X155815497Y-77527317D01*
X155815501Y-77527317D01*
X155784339Y-77525204D01*
X155773954Y-77524500D01*
X154926046Y-77524500D01*
X154914177Y-77525304D01*
X154884500Y-77527317D01*
X154704978Y-77571963D01*
X154704976Y-77571964D01*
X154539249Y-77654156D01*
X154395058Y-77770060D01*
X154346968Y-77829886D01*
X154289623Y-77869804D01*
X154219801Y-77872382D01*
X154162641Y-77839878D01*
X154132075Y-77809312D01*
X154132073Y-77809310D01*
X153979199Y-77698240D01*
X153810836Y-77612454D01*
X153631118Y-77554059D01*
X153444486Y-77524500D01*
X153444481Y-77524500D01*
X153255519Y-77524500D01*
X153255514Y-77524500D01*
X153068881Y-77554059D01*
X152889163Y-77612454D01*
X152720800Y-77698240D01*
X152633579Y-77761610D01*
X152567927Y-77809310D01*
X152567925Y-77809312D01*
X152567924Y-77809312D01*
X152434312Y-77942924D01*
X152434312Y-77942925D01*
X152434310Y-77942927D01*
X152428317Y-77951176D01*
X152323240Y-78095800D01*
X152237454Y-78264163D01*
X152179059Y-78443881D01*
X152149500Y-78630513D01*
X148950500Y-78630513D01*
X148950500Y-78301046D01*
X148947683Y-78259505D01*
X148903037Y-78079979D01*
X148820842Y-77914247D01*
X148736492Y-77809312D01*
X148704940Y-77770059D01*
X148602785Y-77687945D01*
X148560753Y-77654158D01*
X148560751Y-77654157D01*
X148560750Y-77654156D01*
X148395023Y-77571964D01*
X148395021Y-77571963D01*
X148215497Y-77527317D01*
X148215501Y-77527317D01*
X148184339Y-77525204D01*
X148173954Y-77524500D01*
X147326046Y-77524500D01*
X147314177Y-77525304D01*
X147284500Y-77527317D01*
X147104978Y-77571963D01*
X147104976Y-77571964D01*
X146939249Y-77654156D01*
X146795058Y-77770060D01*
X146746968Y-77829886D01*
X146689623Y-77869804D01*
X146619801Y-77872382D01*
X146562641Y-77839878D01*
X146532075Y-77809312D01*
X146532073Y-77809310D01*
X146379199Y-77698240D01*
X146210836Y-77612454D01*
X146031118Y-77554059D01*
X145844486Y-77524500D01*
X145844481Y-77524500D01*
X145655519Y-77524500D01*
X145655514Y-77524500D01*
X145468881Y-77554059D01*
X145289163Y-77612454D01*
X145120800Y-77698240D01*
X145033579Y-77761610D01*
X144967927Y-77809310D01*
X144967925Y-77809312D01*
X144967924Y-77809312D01*
X144834312Y-77942924D01*
X144834312Y-77942925D01*
X144834310Y-77942927D01*
X144828317Y-77951176D01*
X144723240Y-78095800D01*
X144637454Y-78264163D01*
X144579059Y-78443881D01*
X144549500Y-78630513D01*
X141700500Y-78630513D01*
X141700500Y-78301046D01*
X141697683Y-78259505D01*
X141653037Y-78079979D01*
X141570842Y-77914247D01*
X141486492Y-77809312D01*
X141454940Y-77770059D01*
X141352785Y-77687945D01*
X141310753Y-77654158D01*
X141310751Y-77654157D01*
X141310750Y-77654156D01*
X141145023Y-77571964D01*
X141145021Y-77571963D01*
X140965497Y-77527317D01*
X140965501Y-77527317D01*
X140934339Y-77525204D01*
X140923954Y-77524500D01*
X140076046Y-77524500D01*
X140064177Y-77525304D01*
X140034500Y-77527317D01*
X139854978Y-77571963D01*
X139854976Y-77571964D01*
X139689249Y-77654156D01*
X139545058Y-77770060D01*
X139496968Y-77829886D01*
X139439623Y-77869804D01*
X139369801Y-77872382D01*
X139312641Y-77839878D01*
X139282075Y-77809312D01*
X139282073Y-77809310D01*
X139129199Y-77698240D01*
X138960836Y-77612454D01*
X138781118Y-77554059D01*
X138594486Y-77524500D01*
X138594481Y-77524500D01*
X138405519Y-77524500D01*
X138405514Y-77524500D01*
X138218881Y-77554059D01*
X138039163Y-77612454D01*
X137870800Y-77698240D01*
X137783579Y-77761610D01*
X137717927Y-77809310D01*
X137717925Y-77809312D01*
X137717924Y-77809312D01*
X137584312Y-77942924D01*
X137584312Y-77942925D01*
X137584310Y-77942927D01*
X137578317Y-77951176D01*
X137473240Y-78095800D01*
X137387454Y-78264163D01*
X137329059Y-78443881D01*
X137299500Y-78630513D01*
X134250500Y-78630513D01*
X134250500Y-78301046D01*
X134247683Y-78259505D01*
X134203037Y-78079979D01*
X134120842Y-77914247D01*
X134036492Y-77809312D01*
X134004940Y-77770059D01*
X133902785Y-77687945D01*
X133860753Y-77654158D01*
X133860751Y-77654157D01*
X133860750Y-77654156D01*
X133695023Y-77571964D01*
X133695021Y-77571963D01*
X133515497Y-77527317D01*
X133515501Y-77527317D01*
X133484339Y-77525204D01*
X133473954Y-77524500D01*
X132626046Y-77524500D01*
X132614177Y-77525304D01*
X132584500Y-77527317D01*
X132404978Y-77571963D01*
X132404976Y-77571964D01*
X132239249Y-77654156D01*
X132095059Y-77770060D01*
X131983634Y-77908678D01*
X131926290Y-77948596D01*
X131856468Y-77951176D01*
X131799306Y-77918671D01*
X131766602Y-77885967D01*
X131626524Y-77784195D01*
X131472257Y-77705591D01*
X131307589Y-77652087D01*
X131307581Y-77652085D01*
X131300000Y-77650884D01*
X131300000Y-78719670D01*
X131280255Y-78699925D01*
X131194745Y-78650556D01*
X131099370Y-78625000D01*
X131000630Y-78625000D01*
X130905255Y-78650556D01*
X130819745Y-78699925D01*
X130800000Y-78719670D01*
X130800000Y-77650884D01*
X130799999Y-77650884D01*
X130792418Y-77652085D01*
X130792410Y-77652087D01*
X130627742Y-77705591D01*
X130473475Y-77784195D01*
X130333397Y-77885967D01*
X130210967Y-78008397D01*
X130109195Y-78148475D01*
X130030591Y-78302742D01*
X129977085Y-78467415D01*
X129950000Y-78638428D01*
X115500500Y-78638428D01*
X115500500Y-73842968D01*
X171899500Y-73842968D01*
X171899500Y-75921686D01*
X171914953Y-76039076D01*
X171914956Y-76039085D01*
X171975464Y-76185164D01*
X172071718Y-76310605D01*
X172197159Y-76406859D01*
X172343238Y-76467367D01*
X172460639Y-76482823D01*
X174539360Y-76482822D01*
X174539363Y-76482822D01*
X174656753Y-76467369D01*
X174656757Y-76467367D01*
X174656762Y-76467367D01*
X174802841Y-76406859D01*
X174928282Y-76310605D01*
X175024536Y-76185164D01*
X175085044Y-76039085D01*
X175100500Y-75921684D01*
X175100499Y-73842963D01*
X175100499Y-73842962D01*
X175100499Y-73842959D01*
X175085046Y-73725569D01*
X175085044Y-73725562D01*
X175085044Y-73725561D01*
X175024536Y-73579482D01*
X174928282Y-73454041D01*
X174802841Y-73357787D01*
X174786767Y-73351129D01*
X174656762Y-73297279D01*
X174656760Y-73297278D01*
X174539370Y-73281824D01*
X174539367Y-73281823D01*
X174539361Y-73281823D01*
X174539354Y-73281823D01*
X172460636Y-73281823D01*
X172343246Y-73297276D01*
X172343237Y-73297279D01*
X172197160Y-73357786D01*
X172071718Y-73454041D01*
X171975463Y-73579483D01*
X171914956Y-73725560D01*
X171914955Y-73725562D01*
X171899501Y-73842952D01*
X171899501Y-73842959D01*
X171899500Y-73842968D01*
X115500500Y-73842968D01*
X115500500Y-69830491D01*
X134049500Y-69830491D01*
X134049500Y-70169508D01*
X134082729Y-70506901D01*
X134148870Y-70839410D01*
X134247284Y-71163841D01*
X134377024Y-71477060D01*
X134377026Y-71477065D01*
X134536831Y-71776039D01*
X134536842Y-71776057D01*
X134725184Y-72057930D01*
X134725194Y-72057944D01*
X134940269Y-72320014D01*
X135179985Y-72559730D01*
X135179990Y-72559734D01*
X135179991Y-72559735D01*
X135442061Y-72774810D01*
X135723949Y-72963162D01*
X135723958Y-72963167D01*
X135723960Y-72963168D01*
X136022934Y-73122973D01*
X136022936Y-73122973D01*
X136022942Y-73122977D01*
X136336160Y-73252716D01*
X136660586Y-73351129D01*
X136993096Y-73417270D01*
X137330488Y-73450500D01*
X137330491Y-73450500D01*
X137669509Y-73450500D01*
X137669512Y-73450500D01*
X138006904Y-73417270D01*
X138339414Y-73351129D01*
X138663840Y-73252716D01*
X138977058Y-73122977D01*
X139276051Y-72963162D01*
X139557939Y-72774810D01*
X139820009Y-72559735D01*
X140059735Y-72320009D01*
X140274810Y-72057939D01*
X140463162Y-71776051D01*
X140622977Y-71477058D01*
X140752716Y-71163840D01*
X140851129Y-70839414D01*
X140917270Y-70506904D01*
X140950500Y-70169512D01*
X140950500Y-69830491D01*
X146549500Y-69830491D01*
X146549500Y-70169508D01*
X146582729Y-70506901D01*
X146648870Y-70839410D01*
X146747284Y-71163841D01*
X146877024Y-71477060D01*
X146877026Y-71477065D01*
X147036831Y-71776039D01*
X147036842Y-71776057D01*
X147225184Y-72057930D01*
X147225194Y-72057944D01*
X147440269Y-72320014D01*
X147679985Y-72559730D01*
X147679990Y-72559734D01*
X147679991Y-72559735D01*
X147942061Y-72774810D01*
X148223949Y-72963162D01*
X148223958Y-72963167D01*
X148223960Y-72963168D01*
X148522934Y-73122973D01*
X148522936Y-73122973D01*
X148522942Y-73122977D01*
X148836160Y-73252716D01*
X149160586Y-73351129D01*
X149493096Y-73417270D01*
X149830488Y-73450500D01*
X149830491Y-73450500D01*
X150169509Y-73450500D01*
X150169512Y-73450500D01*
X150506904Y-73417270D01*
X150839414Y-73351129D01*
X151163840Y-73252716D01*
X151477058Y-73122977D01*
X151776051Y-72963162D01*
X152057939Y-72774810D01*
X152320009Y-72559735D01*
X152559735Y-72320009D01*
X152774810Y-72057939D01*
X152963162Y-71776051D01*
X153122977Y-71477058D01*
X153252716Y-71163840D01*
X153351129Y-70839414D01*
X153417270Y-70506904D01*
X153450500Y-70169512D01*
X153450500Y-69830491D01*
X159049500Y-69830491D01*
X159049500Y-70169508D01*
X159082729Y-70506901D01*
X159148870Y-70839410D01*
X159247284Y-71163841D01*
X159377024Y-71477060D01*
X159377026Y-71477065D01*
X159536831Y-71776039D01*
X159536842Y-71776057D01*
X159725184Y-72057930D01*
X159725194Y-72057944D01*
X159940269Y-72320014D01*
X160179985Y-72559730D01*
X160179990Y-72559734D01*
X160179991Y-72559735D01*
X160442061Y-72774810D01*
X160723949Y-72963162D01*
X160723958Y-72963167D01*
X160723960Y-72963168D01*
X161022934Y-73122973D01*
X161022936Y-73122973D01*
X161022942Y-73122977D01*
X161336160Y-73252716D01*
X161660586Y-73351129D01*
X161993096Y-73417270D01*
X162330488Y-73450500D01*
X162330491Y-73450500D01*
X162669509Y-73450500D01*
X162669512Y-73450500D01*
X163006904Y-73417270D01*
X163339414Y-73351129D01*
X163663840Y-73252716D01*
X163977058Y-73122977D01*
X164276051Y-72963162D01*
X164557939Y-72774810D01*
X164820009Y-72559735D01*
X165059735Y-72320009D01*
X165274810Y-72057939D01*
X165463162Y-71776051D01*
X165622977Y-71477058D01*
X165752716Y-71163840D01*
X165851129Y-70839414D01*
X165917270Y-70506904D01*
X165950500Y-70169512D01*
X165950500Y-69830488D01*
X165917270Y-69493096D01*
X165851129Y-69160586D01*
X165752716Y-68836160D01*
X165622977Y-68522942D01*
X165463162Y-68223949D01*
X165274810Y-67942061D01*
X165059735Y-67679991D01*
X165059734Y-67679990D01*
X165059730Y-67679985D01*
X164820014Y-67440269D01*
X164557944Y-67225194D01*
X164557943Y-67225193D01*
X164557939Y-67225190D01*
X164276051Y-67036838D01*
X164276046Y-67036835D01*
X164276039Y-67036831D01*
X163977065Y-66877026D01*
X163977060Y-66877024D01*
X163663841Y-66747284D01*
X163473382Y-66689509D01*
X163339414Y-66648871D01*
X163339411Y-66648870D01*
X163339410Y-66648870D01*
X163006901Y-66582729D01*
X162769199Y-66559318D01*
X162669512Y-66549500D01*
X162330488Y-66549500D01*
X162239738Y-66558437D01*
X161993098Y-66582729D01*
X161660589Y-66648870D01*
X161336158Y-66747284D01*
X161022939Y-66877024D01*
X161022934Y-66877026D01*
X160723960Y-67036831D01*
X160723942Y-67036842D01*
X160442069Y-67225184D01*
X160442055Y-67225194D01*
X160179985Y-67440269D01*
X159940269Y-67679985D01*
X159725194Y-67942055D01*
X159725184Y-67942069D01*
X159536842Y-68223942D01*
X159536831Y-68223960D01*
X159377026Y-68522934D01*
X159377024Y-68522939D01*
X159247284Y-68836158D01*
X159148870Y-69160589D01*
X159082729Y-69493098D01*
X159049500Y-69830491D01*
X153450500Y-69830491D01*
X153450500Y-69830488D01*
X153417270Y-69493096D01*
X153351129Y-69160586D01*
X153252716Y-68836160D01*
X153122977Y-68522942D01*
X152963162Y-68223949D01*
X152774810Y-67942061D01*
X152559735Y-67679991D01*
X152559734Y-67679990D01*
X152559730Y-67679985D01*
X152320014Y-67440269D01*
X152057944Y-67225194D01*
X152057943Y-67225193D01*
X152057939Y-67225190D01*
X151776051Y-67036838D01*
X151776046Y-67036835D01*
X151776039Y-67036831D01*
X151477065Y-66877026D01*
X151477060Y-66877024D01*
X151163841Y-66747284D01*
X150973382Y-66689509D01*
X150839414Y-66648871D01*
X150839411Y-66648870D01*
X150839410Y-66648870D01*
X150506901Y-66582729D01*
X150269199Y-66559318D01*
X150169512Y-66549500D01*
X149830488Y-66549500D01*
X149739738Y-66558437D01*
X149493098Y-66582729D01*
X149160589Y-66648870D01*
X148836158Y-66747284D01*
X148522939Y-66877024D01*
X148522934Y-66877026D01*
X148223960Y-67036831D01*
X148223942Y-67036842D01*
X147942069Y-67225184D01*
X147942055Y-67225194D01*
X147679985Y-67440269D01*
X147440269Y-67679985D01*
X147225194Y-67942055D01*
X147225184Y-67942069D01*
X147036842Y-68223942D01*
X147036831Y-68223960D01*
X146877026Y-68522934D01*
X146877024Y-68522939D01*
X146747284Y-68836158D01*
X146648870Y-69160589D01*
X146582729Y-69493098D01*
X146549500Y-69830491D01*
X140950500Y-69830491D01*
X140950500Y-69830488D01*
X140917270Y-69493096D01*
X140851129Y-69160586D01*
X140752716Y-68836160D01*
X140622977Y-68522942D01*
X140463162Y-68223949D01*
X140274810Y-67942061D01*
X140059735Y-67679991D01*
X140059734Y-67679990D01*
X140059730Y-67679985D01*
X139820014Y-67440269D01*
X139557944Y-67225194D01*
X139557943Y-67225193D01*
X139557939Y-67225190D01*
X139276051Y-67036838D01*
X139276046Y-67036835D01*
X139276039Y-67036831D01*
X138977065Y-66877026D01*
X138977060Y-66877024D01*
X138663841Y-66747284D01*
X138473382Y-66689509D01*
X138339414Y-66648871D01*
X138339411Y-66648870D01*
X138339410Y-66648870D01*
X138006901Y-66582729D01*
X137769199Y-66559318D01*
X137669512Y-66549500D01*
X137330488Y-66549500D01*
X137239738Y-66558437D01*
X136993098Y-66582729D01*
X136660589Y-66648870D01*
X136336158Y-66747284D01*
X136022939Y-66877024D01*
X136022934Y-66877026D01*
X135723960Y-67036831D01*
X135723942Y-67036842D01*
X135442069Y-67225184D01*
X135442055Y-67225194D01*
X135179985Y-67440269D01*
X134940269Y-67679985D01*
X134725194Y-67942055D01*
X134725184Y-67942069D01*
X134536842Y-68223942D01*
X134536831Y-68223960D01*
X134377026Y-68522934D01*
X134377024Y-68522939D01*
X134247284Y-68836158D01*
X134148870Y-69160589D01*
X134082729Y-69493098D01*
X134049500Y-69830491D01*
X115500500Y-69830491D01*
X115500500Y-65624500D01*
X115520185Y-65557461D01*
X115572989Y-65511706D01*
X115624500Y-65500500D01*
X184375500Y-65500500D01*
X184442539Y-65520185D01*
G37*
%TD.AperFunction*%
%TD*%
M02*
