M48
; DRILL file {KiCad 9.0.0} date 2025-03-04T13:01:01+0000
; FORMAT={-:-/ absolute / metric / decimal}
; #@! TF.CreationDate,2025-03-04T13:01:01+00:00
; #@! TF.GenerationSoftware,Kicad,Pcbnew,9.0.0
; #@! TF.FileFunction,Plated,1,2,PTH
FMAT,2
METRIC
; #@! TA.AperFunction,Plated,PTH,ViaDrill
T1C0.300
; #@! TA.AperFunction,Plated,PTH,ComponentDrill
T2C0.600
; #@! TA.AperFunction,Plated,PTH,ComponentDrill
T3C0.700
; #@! TA.AperFunction,Plated,PTH,ComponentDrill
T4C0.750
; #@! TA.AperFunction,Plated,PTH,ComponentDrill
T5C0.800
; #@! TA.AperFunction,Plated,PTH,ComponentDrill
T6C1.000
; #@! TA.AperFunction,Plated,PTH,ComponentDrill
T7C3.200
%
G90
G05
T1
X139.3Y-121.4
X140.0Y-104.85
X140.15Y-113.385
X145.25Y-104.85
X145.325Y-110.4
X157.25Y-116.0
X160.85Y-105.35
X161.5Y-108.7
T2
X143.377Y-124.0
X145.377Y-124.0
X158.75Y-94.0
X160.25Y-111.8
X160.25Y-113.8
X160.75Y-94.0
T3
X138.2Y-97.535
X138.22Y-106.035
X138.22Y-114.535
X138.252Y-95.035
X138.252Y-103.535
X138.252Y-116.9
X138.252Y-119.4
X138.32Y-112.0
X143.28Y-97.535
X143.3Y-106.035
X143.3Y-114.535
X143.332Y-95.035
X143.332Y-103.535
X143.332Y-116.9
X143.332Y-119.4
X143.4Y-112.0
X152.47Y-87.95
X155.46Y-82.9
X157.55Y-87.95
X158.74Y-99.1
X158.74Y-101.6
X158.74Y-104.1
X158.82Y-106.6
X160.54Y-82.9
X163.82Y-99.1
X163.82Y-101.6
X163.82Y-104.1
X163.9Y-106.6
T4
X131.05Y-79.0
X132.0Y-88.45
X132.0Y-90.45
X132.0Y-95.5
X132.0Y-97.5
X132.0Y-102.5
X132.0Y-104.5
X132.0Y-109.5
X132.0Y-111.5
X132.0Y-116.5
X132.0Y-118.5
X133.05Y-79.0
X138.5Y-79.0
X140.5Y-79.0
X145.75Y-79.0
X147.75Y-79.0
X153.35Y-79.0
X154.05Y-122.5
X155.35Y-79.0
X156.05Y-122.5
X158.05Y-122.5
X160.95Y-79.0
X162.95Y-79.0
X168.35Y-122.5
X169.0Y-95.95
X169.0Y-97.95
X169.0Y-104.15
X169.0Y-106.15
X170.35Y-122.5
T5
X138.3Y-100.5
X138.3Y-109.035
X138.332Y-92.035
X138.92Y-85.64
X138.924Y-88.47
X143.3Y-100.5
X143.3Y-109.035
X143.332Y-92.035
X146.54Y-85.64
X146.544Y-88.47
X147.412Y-96.485
X147.412Y-99.025
X147.412Y-101.565
X147.412Y-104.105
X147.412Y-106.645
X147.412Y-109.185
X147.412Y-111.725
X148.7Y-115.8
X148.732Y-92.06
X152.5Y-85.5
X153.7Y-115.8
X153.732Y-92.06
X155.032Y-96.485
X155.032Y-99.025
X155.032Y-101.565
X155.032Y-104.105
X155.032Y-106.645
X155.032Y-109.185
X155.032Y-111.725
X160.12Y-85.5
X167.95Y-87.5
X167.95Y-90.0
X168.3Y-112.5
X168.3Y-115.0
T6
X173.5Y-74.882
X173.5Y-79.882
T7
X122.5Y-90.0
X122.5Y-110.0
X137.5Y-70.0
X137.5Y-130.0
X150.0Y-70.0
X150.0Y-130.0
X162.5Y-70.0
X162.5Y-130.0
X177.5Y-90.0
X177.5Y-110.0
M30
