%TF.GenerationSoftware,KiCad,Pcbnew,9.0.0*%
%TF.CreationDate,2025-03-04T12:56:54+00:00*%
%TF.ProjectId,cacophonator,6361636f-7068-46f6-9e61-746f722e6b69,1*%
%TF.SameCoordinates,Original*%
%TF.FileFunction,Legend,Top*%
%TF.FilePolarity,Positive*%
%FSLAX46Y46*%
G04 Gerber Fmt 4.6, Leading zero omitted, Abs format (unit mm)*
G04 Created by KiCad (PCBNEW 9.0.0) date 2025-03-04 12:56:54*
%MOMM*%
%LPD*%
G01*
G04 APERTURE LIST*
G04 Aperture macros list*
%AMRoundRect*
0 Rectangle with rounded corners*
0 $1 Rounding radius*
0 $2 $3 $4 $5 $6 $7 $8 $9 X,Y pos of 4 corners*
0 Add a 4 corners polygon primitive as box body*
4,1,4,$2,$3,$4,$5,$6,$7,$8,$9,$2,$3,0*
0 Add four circle primitives for the rounded corners*
1,1,$1+$1,$2,$3*
1,1,$1+$1,$4,$5*
1,1,$1+$1,$6,$7*
1,1,$1+$1,$8,$9*
0 Add four rect primitives between the rounded corners*
20,1,$1+$1,$2,$3,$4,$5,0*
20,1,$1+$1,$4,$5,$6,$7,0*
20,1,$1+$1,$6,$7,$8,$9,0*
20,1,$1+$1,$8,$9,$2,$3,0*%
G04 Aperture macros list end*
%ADD10C,0.200000*%
%ADD11C,0.300000*%
%ADD12C,0.150000*%
%ADD13C,0.120000*%
%ADD14C,5.700000*%
%ADD15RoundRect,0.250000X0.350000X0.625000X-0.350000X0.625000X-0.350000X-0.625000X0.350000X-0.625000X0*%
%ADD16O,1.200000X1.750000*%
%ADD17R,1.200000X1.200000*%
%ADD18C,1.200000*%
%ADD19O,1.750000X1.200000*%
%ADD20RoundRect,0.250000X-0.625000X0.350000X-0.625000X-0.350000X0.625000X-0.350000X0.625000X0.350000X0*%
%ADD21RoundRect,0.250000X0.625000X-0.350000X0.625000X0.350000X-0.625000X0.350000X-0.625000X-0.350000X0*%
%ADD22R,2.000000X2.000000*%
%ADD23C,2.000000*%
%ADD24RoundRect,0.250000X-0.350000X-0.625000X0.350000X-0.625000X0.350000X0.625000X-0.350000X0.625000X0*%
%ADD25C,1.600000*%
%ADD26R,1.600000X1.600000*%
%ADD27O,1.600000X1.600000*%
%ADD28C,1.400000*%
%ADD29O,1.400000X1.400000*%
G04 APERTURE END LIST*
D10*
X130295238Y-75252219D02*
X130295238Y-74252219D01*
X130295238Y-74252219D02*
X130533333Y-74252219D01*
X130533333Y-74252219D02*
X130676190Y-74299838D01*
X130676190Y-74299838D02*
X130771428Y-74395076D01*
X130771428Y-74395076D02*
X130819047Y-74490314D01*
X130819047Y-74490314D02*
X130866666Y-74680790D01*
X130866666Y-74680790D02*
X130866666Y-74823647D01*
X130866666Y-74823647D02*
X130819047Y-75014123D01*
X130819047Y-75014123D02*
X130771428Y-75109361D01*
X130771428Y-75109361D02*
X130676190Y-75204600D01*
X130676190Y-75204600D02*
X130533333Y-75252219D01*
X130533333Y-75252219D02*
X130295238Y-75252219D01*
X131866666Y-75156980D02*
X131819047Y-75204600D01*
X131819047Y-75204600D02*
X131676190Y-75252219D01*
X131676190Y-75252219D02*
X131580952Y-75252219D01*
X131580952Y-75252219D02*
X131438095Y-75204600D01*
X131438095Y-75204600D02*
X131342857Y-75109361D01*
X131342857Y-75109361D02*
X131295238Y-75014123D01*
X131295238Y-75014123D02*
X131247619Y-74823647D01*
X131247619Y-74823647D02*
X131247619Y-74680790D01*
X131247619Y-74680790D02*
X131295238Y-74490314D01*
X131295238Y-74490314D02*
X131342857Y-74395076D01*
X131342857Y-74395076D02*
X131438095Y-74299838D01*
X131438095Y-74299838D02*
X131580952Y-74252219D01*
X131580952Y-74252219D02*
X131676190Y-74252219D01*
X131676190Y-74252219D02*
X131819047Y-74299838D01*
X131819047Y-74299838D02*
X131866666Y-74347457D01*
X133057143Y-75252219D02*
X133057143Y-74252219D01*
X133533333Y-75252219D02*
X133533333Y-74252219D01*
X133533333Y-74252219D02*
X134104761Y-75252219D01*
X134104761Y-75252219D02*
X134104761Y-74252219D01*
X153745863Y-75367219D02*
X153269673Y-75367219D01*
X153269673Y-75367219D02*
X153269673Y-74367219D01*
X154079197Y-74843409D02*
X154412530Y-74843409D01*
X154555387Y-75367219D02*
X154079197Y-75367219D01*
X154079197Y-75367219D02*
X154079197Y-74367219D01*
X154079197Y-74367219D02*
X154555387Y-74367219D01*
X154983959Y-75367219D02*
X154983959Y-74367219D01*
X154983959Y-74367219D02*
X155222054Y-74367219D01*
X155222054Y-74367219D02*
X155364911Y-74414838D01*
X155364911Y-74414838D02*
X155460149Y-74510076D01*
X155460149Y-74510076D02*
X155507768Y-74605314D01*
X155507768Y-74605314D02*
X155555387Y-74795790D01*
X155555387Y-74795790D02*
X155555387Y-74938647D01*
X155555387Y-74938647D02*
X155507768Y-75129123D01*
X155507768Y-75129123D02*
X155460149Y-75224361D01*
X155460149Y-75224361D02*
X155364911Y-75319600D01*
X155364911Y-75319600D02*
X155222054Y-75367219D01*
X155222054Y-75367219D02*
X154983959Y-75367219D01*
X126952219Y-97947618D02*
X126952219Y-97757142D01*
X126952219Y-97757142D02*
X126999838Y-97661904D01*
X126999838Y-97661904D02*
X127095076Y-97566666D01*
X127095076Y-97566666D02*
X127285552Y-97519047D01*
X127285552Y-97519047D02*
X127618885Y-97519047D01*
X127618885Y-97519047D02*
X127809361Y-97566666D01*
X127809361Y-97566666D02*
X127904600Y-97661904D01*
X127904600Y-97661904D02*
X127952219Y-97757142D01*
X127952219Y-97757142D02*
X127952219Y-97947618D01*
X127952219Y-97947618D02*
X127904600Y-98042856D01*
X127904600Y-98042856D02*
X127809361Y-98138094D01*
X127809361Y-98138094D02*
X127618885Y-98185713D01*
X127618885Y-98185713D02*
X127285552Y-98185713D01*
X127285552Y-98185713D02*
X127095076Y-98138094D01*
X127095076Y-98138094D02*
X126999838Y-98042856D01*
X126999838Y-98042856D02*
X126952219Y-97947618D01*
X127904600Y-97138094D02*
X127952219Y-96995237D01*
X127952219Y-96995237D02*
X127952219Y-96757142D01*
X127952219Y-96757142D02*
X127904600Y-96661904D01*
X127904600Y-96661904D02*
X127856980Y-96614285D01*
X127856980Y-96614285D02*
X127761742Y-96566666D01*
X127761742Y-96566666D02*
X127666504Y-96566666D01*
X127666504Y-96566666D02*
X127571266Y-96614285D01*
X127571266Y-96614285D02*
X127523647Y-96661904D01*
X127523647Y-96661904D02*
X127476028Y-96757142D01*
X127476028Y-96757142D02*
X127428409Y-96947618D01*
X127428409Y-96947618D02*
X127380790Y-97042856D01*
X127380790Y-97042856D02*
X127333171Y-97090475D01*
X127333171Y-97090475D02*
X127237933Y-97138094D01*
X127237933Y-97138094D02*
X127142695Y-97138094D01*
X127142695Y-97138094D02*
X127047457Y-97090475D01*
X127047457Y-97090475D02*
X126999838Y-97042856D01*
X126999838Y-97042856D02*
X126952219Y-96947618D01*
X126952219Y-96947618D02*
X126952219Y-96709523D01*
X126952219Y-96709523D02*
X126999838Y-96566666D01*
X127856980Y-95566666D02*
X127904600Y-95614285D01*
X127904600Y-95614285D02*
X127952219Y-95757142D01*
X127952219Y-95757142D02*
X127952219Y-95852380D01*
X127952219Y-95852380D02*
X127904600Y-95995237D01*
X127904600Y-95995237D02*
X127809361Y-96090475D01*
X127809361Y-96090475D02*
X127714123Y-96138094D01*
X127714123Y-96138094D02*
X127523647Y-96185713D01*
X127523647Y-96185713D02*
X127380790Y-96185713D01*
X127380790Y-96185713D02*
X127190314Y-96138094D01*
X127190314Y-96138094D02*
X127095076Y-96090475D01*
X127095076Y-96090475D02*
X126999838Y-95995237D01*
X126999838Y-95995237D02*
X126952219Y-95852380D01*
X126952219Y-95852380D02*
X126952219Y-95757142D01*
X126952219Y-95757142D02*
X126999838Y-95614285D01*
X126999838Y-95614285D02*
X127047457Y-95566666D01*
X127952219Y-94614285D02*
X127952219Y-95185713D01*
X127952219Y-94899999D02*
X126952219Y-94899999D01*
X126952219Y-94899999D02*
X127095076Y-94995237D01*
X127095076Y-94995237D02*
X127190314Y-95090475D01*
X127190314Y-95090475D02*
X127237933Y-95185713D01*
D11*
X181350828Y-131816917D02*
X181350828Y-130745489D01*
X180707971Y-131388346D02*
X182636542Y-131816917D01*
X181993685Y-130888346D02*
X181993685Y-131959774D01*
X182636542Y-131316917D02*
X180707971Y-130888346D01*
X181350828Y-130245489D02*
X182850828Y-130245489D01*
X181422257Y-130245489D02*
X181350828Y-130102632D01*
X181350828Y-130102632D02*
X181350828Y-129816917D01*
X181350828Y-129816917D02*
X181422257Y-129674060D01*
X181422257Y-129674060D02*
X181493685Y-129602632D01*
X181493685Y-129602632D02*
X181636542Y-129531203D01*
X181636542Y-129531203D02*
X182065114Y-129531203D01*
X182065114Y-129531203D02*
X182207971Y-129602632D01*
X182207971Y-129602632D02*
X182279400Y-129674060D01*
X182279400Y-129674060D02*
X182350828Y-129816917D01*
X182350828Y-129816917D02*
X182350828Y-130102632D01*
X182350828Y-130102632D02*
X182279400Y-130245489D01*
X182350828Y-128888346D02*
X181350828Y-128888346D01*
X181636542Y-128888346D02*
X181493685Y-128816917D01*
X181493685Y-128816917D02*
X181422257Y-128745489D01*
X181422257Y-128745489D02*
X181350828Y-128602631D01*
X181350828Y-128602631D02*
X181350828Y-128459774D01*
X182350828Y-127316918D02*
X181565114Y-127316918D01*
X181565114Y-127316918D02*
X181422257Y-127388346D01*
X181422257Y-127388346D02*
X181350828Y-127531203D01*
X181350828Y-127531203D02*
X181350828Y-127816918D01*
X181350828Y-127816918D02*
X181422257Y-127959775D01*
X182279400Y-127316918D02*
X182350828Y-127459775D01*
X182350828Y-127459775D02*
X182350828Y-127816918D01*
X182350828Y-127816918D02*
X182279400Y-127959775D01*
X182279400Y-127959775D02*
X182136542Y-128031203D01*
X182136542Y-128031203D02*
X181993685Y-128031203D01*
X181993685Y-128031203D02*
X181850828Y-127959775D01*
X181850828Y-127959775D02*
X181779400Y-127816918D01*
X181779400Y-127816918D02*
X181779400Y-127459775D01*
X181779400Y-127459775D02*
X181707971Y-127316918D01*
X181350828Y-125959775D02*
X182565114Y-125959775D01*
X182565114Y-125959775D02*
X182707971Y-126031203D01*
X182707971Y-126031203D02*
X182779400Y-126102632D01*
X182779400Y-126102632D02*
X182850828Y-126245489D01*
X182850828Y-126245489D02*
X182850828Y-126459775D01*
X182850828Y-126459775D02*
X182779400Y-126602632D01*
X182279400Y-125959775D02*
X182350828Y-126102632D01*
X182350828Y-126102632D02*
X182350828Y-126388346D01*
X182350828Y-126388346D02*
X182279400Y-126531203D01*
X182279400Y-126531203D02*
X182207971Y-126602632D01*
X182207971Y-126602632D02*
X182065114Y-126674060D01*
X182065114Y-126674060D02*
X181636542Y-126674060D01*
X181636542Y-126674060D02*
X181493685Y-126602632D01*
X181493685Y-126602632D02*
X181422257Y-126531203D01*
X181422257Y-126531203D02*
X181350828Y-126388346D01*
X181350828Y-126388346D02*
X181350828Y-126102632D01*
X181350828Y-126102632D02*
X181422257Y-125959775D01*
X182350828Y-125245489D02*
X181350828Y-125245489D01*
X181493685Y-125245489D02*
X181422257Y-125174060D01*
X181422257Y-125174060D02*
X181350828Y-125031203D01*
X181350828Y-125031203D02*
X181350828Y-124816917D01*
X181350828Y-124816917D02*
X181422257Y-124674060D01*
X181422257Y-124674060D02*
X181565114Y-124602632D01*
X181565114Y-124602632D02*
X182350828Y-124602632D01*
X181565114Y-124602632D02*
X181422257Y-124531203D01*
X181422257Y-124531203D02*
X181350828Y-124388346D01*
X181350828Y-124388346D02*
X181350828Y-124174060D01*
X181350828Y-124174060D02*
X181422257Y-124031203D01*
X181422257Y-124031203D02*
X181565114Y-123959774D01*
X181565114Y-123959774D02*
X182350828Y-123959774D01*
X182350828Y-122602632D02*
X181565114Y-122602632D01*
X181565114Y-122602632D02*
X181422257Y-122674060D01*
X181422257Y-122674060D02*
X181350828Y-122816917D01*
X181350828Y-122816917D02*
X181350828Y-123102632D01*
X181350828Y-123102632D02*
X181422257Y-123245489D01*
X182279400Y-122602632D02*
X182350828Y-122745489D01*
X182350828Y-122745489D02*
X182350828Y-123102632D01*
X182350828Y-123102632D02*
X182279400Y-123245489D01*
X182279400Y-123245489D02*
X182136542Y-123316917D01*
X182136542Y-123316917D02*
X181993685Y-123316917D01*
X181993685Y-123316917D02*
X181850828Y-123245489D01*
X181850828Y-123245489D02*
X181779400Y-123102632D01*
X181779400Y-123102632D02*
X181779400Y-122745489D01*
X181779400Y-122745489D02*
X181707971Y-122602632D01*
D10*
X118603006Y-69433465D02*
X118745863Y-69481084D01*
X118745863Y-69481084D02*
X118793482Y-69528703D01*
X118793482Y-69528703D02*
X118841101Y-69623941D01*
X118841101Y-69623941D02*
X118841101Y-69766798D01*
X118841101Y-69766798D02*
X118793482Y-69862036D01*
X118793482Y-69862036D02*
X118745863Y-69909656D01*
X118745863Y-69909656D02*
X118650625Y-69957275D01*
X118650625Y-69957275D02*
X118269673Y-69957275D01*
X118269673Y-69957275D02*
X118269673Y-68957275D01*
X118269673Y-68957275D02*
X118603006Y-68957275D01*
X118603006Y-68957275D02*
X118698244Y-69004894D01*
X118698244Y-69004894D02*
X118745863Y-69052513D01*
X118745863Y-69052513D02*
X118793482Y-69147751D01*
X118793482Y-69147751D02*
X118793482Y-69242989D01*
X118793482Y-69242989D02*
X118745863Y-69338227D01*
X118745863Y-69338227D02*
X118698244Y-69385846D01*
X118698244Y-69385846D02*
X118603006Y-69433465D01*
X118603006Y-69433465D02*
X118269673Y-69433465D01*
X119698244Y-69957275D02*
X119698244Y-69433465D01*
X119698244Y-69433465D02*
X119650625Y-69338227D01*
X119650625Y-69338227D02*
X119555387Y-69290608D01*
X119555387Y-69290608D02*
X119364911Y-69290608D01*
X119364911Y-69290608D02*
X119269673Y-69338227D01*
X119698244Y-69909656D02*
X119603006Y-69957275D01*
X119603006Y-69957275D02*
X119364911Y-69957275D01*
X119364911Y-69957275D02*
X119269673Y-69909656D01*
X119269673Y-69909656D02*
X119222054Y-69814417D01*
X119222054Y-69814417D02*
X119222054Y-69719179D01*
X119222054Y-69719179D02*
X119269673Y-69623941D01*
X119269673Y-69623941D02*
X119364911Y-69576322D01*
X119364911Y-69576322D02*
X119603006Y-69576322D01*
X119603006Y-69576322D02*
X119698244Y-69528703D01*
X120031578Y-69290608D02*
X120412530Y-69290608D01*
X120174435Y-68957275D02*
X120174435Y-69814417D01*
X120174435Y-69814417D02*
X120222054Y-69909656D01*
X120222054Y-69909656D02*
X120317292Y-69957275D01*
X120317292Y-69957275D02*
X120412530Y-69957275D01*
X120603007Y-69290608D02*
X120983959Y-69290608D01*
X120745864Y-68957275D02*
X120745864Y-69814417D01*
X120745864Y-69814417D02*
X120793483Y-69909656D01*
X120793483Y-69909656D02*
X120888721Y-69957275D01*
X120888721Y-69957275D02*
X120983959Y-69957275D01*
X121698245Y-69909656D02*
X121603007Y-69957275D01*
X121603007Y-69957275D02*
X121412531Y-69957275D01*
X121412531Y-69957275D02*
X121317293Y-69909656D01*
X121317293Y-69909656D02*
X121269674Y-69814417D01*
X121269674Y-69814417D02*
X121269674Y-69433465D01*
X121269674Y-69433465D02*
X121317293Y-69338227D01*
X121317293Y-69338227D02*
X121412531Y-69290608D01*
X121412531Y-69290608D02*
X121603007Y-69290608D01*
X121603007Y-69290608D02*
X121698245Y-69338227D01*
X121698245Y-69338227D02*
X121745864Y-69433465D01*
X121745864Y-69433465D02*
X121745864Y-69528703D01*
X121745864Y-69528703D02*
X121269674Y-69623941D01*
X122174436Y-69957275D02*
X122174436Y-69290608D01*
X122174436Y-69481084D02*
X122222055Y-69385846D01*
X122222055Y-69385846D02*
X122269674Y-69338227D01*
X122269674Y-69338227D02*
X122364912Y-69290608D01*
X122364912Y-69290608D02*
X122460150Y-69290608D01*
X122698246Y-69290608D02*
X122936341Y-69957275D01*
X123174436Y-69290608D02*
X122936341Y-69957275D01*
X122936341Y-69957275D02*
X122841103Y-70195370D01*
X122841103Y-70195370D02*
X122793484Y-70242989D01*
X122793484Y-70242989D02*
X122698246Y-70290608D01*
X124364913Y-69957275D02*
X124555389Y-69957275D01*
X124555389Y-69957275D02*
X124650627Y-69909656D01*
X124650627Y-69909656D02*
X124698246Y-69862036D01*
X124698246Y-69862036D02*
X124793484Y-69719179D01*
X124793484Y-69719179D02*
X124841103Y-69528703D01*
X124841103Y-69528703D02*
X124841103Y-69147751D01*
X124841103Y-69147751D02*
X124793484Y-69052513D01*
X124793484Y-69052513D02*
X124745865Y-69004894D01*
X124745865Y-69004894D02*
X124650627Y-68957275D01*
X124650627Y-68957275D02*
X124460151Y-68957275D01*
X124460151Y-68957275D02*
X124364913Y-69004894D01*
X124364913Y-69004894D02*
X124317294Y-69052513D01*
X124317294Y-69052513D02*
X124269675Y-69147751D01*
X124269675Y-69147751D02*
X124269675Y-69385846D01*
X124269675Y-69385846D02*
X124317294Y-69481084D01*
X124317294Y-69481084D02*
X124364913Y-69528703D01*
X124364913Y-69528703D02*
X124460151Y-69576322D01*
X124460151Y-69576322D02*
X124650627Y-69576322D01*
X124650627Y-69576322D02*
X124745865Y-69528703D01*
X124745865Y-69528703D02*
X124793484Y-69481084D01*
X124793484Y-69481084D02*
X124841103Y-69385846D01*
X125126818Y-68957275D02*
X125460151Y-69957275D01*
X125460151Y-69957275D02*
X125793484Y-68957275D01*
X118269673Y-71567219D02*
X118269673Y-70567219D01*
X118269673Y-70567219D02*
X118507768Y-70567219D01*
X118507768Y-70567219D02*
X118650625Y-70614838D01*
X118650625Y-70614838D02*
X118745863Y-70710076D01*
X118745863Y-70710076D02*
X118793482Y-70805314D01*
X118793482Y-70805314D02*
X118841101Y-70995790D01*
X118841101Y-70995790D02*
X118841101Y-71138647D01*
X118841101Y-71138647D02*
X118793482Y-71329123D01*
X118793482Y-71329123D02*
X118745863Y-71424361D01*
X118745863Y-71424361D02*
X118650625Y-71519600D01*
X118650625Y-71519600D02*
X118507768Y-71567219D01*
X118507768Y-71567219D02*
X118269673Y-71567219D01*
X119841101Y-71471980D02*
X119793482Y-71519600D01*
X119793482Y-71519600D02*
X119650625Y-71567219D01*
X119650625Y-71567219D02*
X119555387Y-71567219D01*
X119555387Y-71567219D02*
X119412530Y-71519600D01*
X119412530Y-71519600D02*
X119317292Y-71424361D01*
X119317292Y-71424361D02*
X119269673Y-71329123D01*
X119269673Y-71329123D02*
X119222054Y-71138647D01*
X119222054Y-71138647D02*
X119222054Y-70995790D01*
X119222054Y-70995790D02*
X119269673Y-70805314D01*
X119269673Y-70805314D02*
X119317292Y-70710076D01*
X119317292Y-70710076D02*
X119412530Y-70614838D01*
X119412530Y-70614838D02*
X119555387Y-70567219D01*
X119555387Y-70567219D02*
X119650625Y-70567219D01*
X119650625Y-70567219D02*
X119793482Y-70614838D01*
X119793482Y-70614838D02*
X119841101Y-70662457D01*
X121031578Y-71567219D02*
X121031578Y-70567219D01*
X121507768Y-71567219D02*
X121507768Y-70567219D01*
X121507768Y-70567219D02*
X122079196Y-71567219D01*
X122079196Y-71567219D02*
X122079196Y-70567219D01*
X123603006Y-71948171D02*
X123555387Y-71900552D01*
X123555387Y-71900552D02*
X123460149Y-71757695D01*
X123460149Y-71757695D02*
X123412530Y-71662457D01*
X123412530Y-71662457D02*
X123364911Y-71519600D01*
X123364911Y-71519600D02*
X123317292Y-71281504D01*
X123317292Y-71281504D02*
X123317292Y-71091028D01*
X123317292Y-71091028D02*
X123364911Y-70852933D01*
X123364911Y-70852933D02*
X123412530Y-70710076D01*
X123412530Y-70710076D02*
X123460149Y-70614838D01*
X123460149Y-70614838D02*
X123555387Y-70471980D01*
X123555387Y-70471980D02*
X123603006Y-70424361D01*
X123983959Y-71567219D02*
X123983959Y-70567219D01*
X123983959Y-70567219D02*
X124317292Y-71281504D01*
X124317292Y-71281504D02*
X124650625Y-70567219D01*
X124650625Y-70567219D02*
X124650625Y-71567219D01*
X125555387Y-71567219D02*
X125555387Y-71043409D01*
X125555387Y-71043409D02*
X125507768Y-70948171D01*
X125507768Y-70948171D02*
X125412530Y-70900552D01*
X125412530Y-70900552D02*
X125222054Y-70900552D01*
X125222054Y-70900552D02*
X125126816Y-70948171D01*
X125555387Y-71519600D02*
X125460149Y-71567219D01*
X125460149Y-71567219D02*
X125222054Y-71567219D01*
X125222054Y-71567219D02*
X125126816Y-71519600D01*
X125126816Y-71519600D02*
X125079197Y-71424361D01*
X125079197Y-71424361D02*
X125079197Y-71329123D01*
X125079197Y-71329123D02*
X125126816Y-71233885D01*
X125126816Y-71233885D02*
X125222054Y-71186266D01*
X125222054Y-71186266D02*
X125460149Y-71186266D01*
X125460149Y-71186266D02*
X125555387Y-71138647D01*
X125936340Y-71567219D02*
X126460149Y-70900552D01*
X125936340Y-70900552D02*
X126460149Y-71567219D01*
X126745864Y-71948171D02*
X126793483Y-71900552D01*
X126793483Y-71900552D02*
X126888721Y-71757695D01*
X126888721Y-71757695D02*
X126936340Y-71662457D01*
X126936340Y-71662457D02*
X126983959Y-71519600D01*
X126983959Y-71519600D02*
X127031578Y-71281504D01*
X127031578Y-71281504D02*
X127031578Y-71091028D01*
X127031578Y-71091028D02*
X126983959Y-70852933D01*
X126983959Y-70852933D02*
X126936340Y-70710076D01*
X126936340Y-70710076D02*
X126888721Y-70614838D01*
X126888721Y-70614838D02*
X126793483Y-70471980D01*
X126793483Y-70471980D02*
X126745864Y-70424361D01*
X128793483Y-71567219D02*
X128222055Y-71567219D01*
X128507769Y-71567219D02*
X128507769Y-70567219D01*
X128507769Y-70567219D02*
X128412531Y-70710076D01*
X128412531Y-70710076D02*
X128317293Y-70805314D01*
X128317293Y-70805314D02*
X128222055Y-70852933D01*
X129698245Y-70567219D02*
X129222055Y-70567219D01*
X129222055Y-70567219D02*
X129174436Y-71043409D01*
X129174436Y-71043409D02*
X129222055Y-70995790D01*
X129222055Y-70995790D02*
X129317293Y-70948171D01*
X129317293Y-70948171D02*
X129555388Y-70948171D01*
X129555388Y-70948171D02*
X129650626Y-70995790D01*
X129650626Y-70995790D02*
X129698245Y-71043409D01*
X129698245Y-71043409D02*
X129745864Y-71138647D01*
X129745864Y-71138647D02*
X129745864Y-71376742D01*
X129745864Y-71376742D02*
X129698245Y-71471980D01*
X129698245Y-71471980D02*
X129650626Y-71519600D01*
X129650626Y-71519600D02*
X129555388Y-71567219D01*
X129555388Y-71567219D02*
X129317293Y-71567219D01*
X129317293Y-71567219D02*
X129222055Y-71519600D01*
X129222055Y-71519600D02*
X129174436Y-71471980D01*
X130031579Y-70567219D02*
X130364912Y-71567219D01*
X130364912Y-71567219D02*
X130698245Y-70567219D01*
X117375000Y-68200000D02*
X131825000Y-68200000D01*
X131825000Y-72450000D01*
X117375000Y-72450000D01*
X117375000Y-68200000D01*
X117800000Y-122300000D02*
X136100000Y-122300000D01*
X136100000Y-125500000D01*
X117800000Y-125500000D01*
X117800000Y-122300000D01*
X137697619Y-74302219D02*
X137888095Y-74302219D01*
X137888095Y-74302219D02*
X137983333Y-74349838D01*
X137983333Y-74349838D02*
X138078571Y-74445076D01*
X138078571Y-74445076D02*
X138126190Y-74635552D01*
X138126190Y-74635552D02*
X138126190Y-74968885D01*
X138126190Y-74968885D02*
X138078571Y-75159361D01*
X138078571Y-75159361D02*
X137983333Y-75254600D01*
X137983333Y-75254600D02*
X137888095Y-75302219D01*
X137888095Y-75302219D02*
X137697619Y-75302219D01*
X137697619Y-75302219D02*
X137602381Y-75254600D01*
X137602381Y-75254600D02*
X137507143Y-75159361D01*
X137507143Y-75159361D02*
X137459524Y-74968885D01*
X137459524Y-74968885D02*
X137459524Y-74635552D01*
X137459524Y-74635552D02*
X137507143Y-74445076D01*
X137507143Y-74445076D02*
X137602381Y-74349838D01*
X137602381Y-74349838D02*
X137697619Y-74302219D01*
X138554762Y-75302219D02*
X138554762Y-74302219D01*
X138554762Y-74302219D02*
X139126190Y-75302219D01*
X139126190Y-75302219D02*
X139126190Y-74302219D01*
X140316667Y-75254600D02*
X140459524Y-75302219D01*
X140459524Y-75302219D02*
X140697619Y-75302219D01*
X140697619Y-75302219D02*
X140792857Y-75254600D01*
X140792857Y-75254600D02*
X140840476Y-75206980D01*
X140840476Y-75206980D02*
X140888095Y-75111742D01*
X140888095Y-75111742D02*
X140888095Y-75016504D01*
X140888095Y-75016504D02*
X140840476Y-74921266D01*
X140840476Y-74921266D02*
X140792857Y-74873647D01*
X140792857Y-74873647D02*
X140697619Y-74826028D01*
X140697619Y-74826028D02*
X140507143Y-74778409D01*
X140507143Y-74778409D02*
X140411905Y-74730790D01*
X140411905Y-74730790D02*
X140364286Y-74683171D01*
X140364286Y-74683171D02*
X140316667Y-74587933D01*
X140316667Y-74587933D02*
X140316667Y-74492695D01*
X140316667Y-74492695D02*
X140364286Y-74397457D01*
X140364286Y-74397457D02*
X140411905Y-74349838D01*
X140411905Y-74349838D02*
X140507143Y-74302219D01*
X140507143Y-74302219D02*
X140745238Y-74302219D01*
X140745238Y-74302219D02*
X140888095Y-74349838D01*
X141221429Y-74302219D02*
X141459524Y-75302219D01*
X141459524Y-75302219D02*
X141650000Y-74587933D01*
X141650000Y-74587933D02*
X141840476Y-75302219D01*
X141840476Y-75302219D02*
X142078572Y-74302219D01*
X143221429Y-74921266D02*
X143983334Y-74921266D01*
X143602381Y-75302219D02*
X143602381Y-74540314D01*
X145221429Y-75302219D02*
X145221429Y-74302219D01*
X145221429Y-74302219D02*
X145602381Y-74302219D01*
X145602381Y-74302219D02*
X145697619Y-74349838D01*
X145697619Y-74349838D02*
X145745238Y-74397457D01*
X145745238Y-74397457D02*
X145792857Y-74492695D01*
X145792857Y-74492695D02*
X145792857Y-74635552D01*
X145792857Y-74635552D02*
X145745238Y-74730790D01*
X145745238Y-74730790D02*
X145697619Y-74778409D01*
X145697619Y-74778409D02*
X145602381Y-74826028D01*
X145602381Y-74826028D02*
X145221429Y-74826028D01*
X146221429Y-74302219D02*
X146221429Y-75111742D01*
X146221429Y-75111742D02*
X146269048Y-75206980D01*
X146269048Y-75206980D02*
X146316667Y-75254600D01*
X146316667Y-75254600D02*
X146411905Y-75302219D01*
X146411905Y-75302219D02*
X146602381Y-75302219D01*
X146602381Y-75302219D02*
X146697619Y-75254600D01*
X146697619Y-75254600D02*
X146745238Y-75206980D01*
X146745238Y-75206980D02*
X146792857Y-75111742D01*
X146792857Y-75111742D02*
X146792857Y-74302219D01*
X147221429Y-75254600D02*
X147364286Y-75302219D01*
X147364286Y-75302219D02*
X147602381Y-75302219D01*
X147602381Y-75302219D02*
X147697619Y-75254600D01*
X147697619Y-75254600D02*
X147745238Y-75206980D01*
X147745238Y-75206980D02*
X147792857Y-75111742D01*
X147792857Y-75111742D02*
X147792857Y-75016504D01*
X147792857Y-75016504D02*
X147745238Y-74921266D01*
X147745238Y-74921266D02*
X147697619Y-74873647D01*
X147697619Y-74873647D02*
X147602381Y-74826028D01*
X147602381Y-74826028D02*
X147411905Y-74778409D01*
X147411905Y-74778409D02*
X147316667Y-74730790D01*
X147316667Y-74730790D02*
X147269048Y-74683171D01*
X147269048Y-74683171D02*
X147221429Y-74587933D01*
X147221429Y-74587933D02*
X147221429Y-74492695D01*
X147221429Y-74492695D02*
X147269048Y-74397457D01*
X147269048Y-74397457D02*
X147316667Y-74349838D01*
X147316667Y-74349838D02*
X147411905Y-74302219D01*
X147411905Y-74302219D02*
X147650000Y-74302219D01*
X147650000Y-74302219D02*
X147792857Y-74349838D01*
X148221429Y-75302219D02*
X148221429Y-74302219D01*
X148221429Y-74778409D02*
X148792857Y-74778409D01*
X148792857Y-75302219D02*
X148792857Y-74302219D01*
X127428409Y-91900000D02*
X127476028Y-91757143D01*
X127476028Y-91757143D02*
X127523647Y-91709524D01*
X127523647Y-91709524D02*
X127618885Y-91661905D01*
X127618885Y-91661905D02*
X127761742Y-91661905D01*
X127761742Y-91661905D02*
X127856980Y-91709524D01*
X127856980Y-91709524D02*
X127904600Y-91757143D01*
X127904600Y-91757143D02*
X127952219Y-91852381D01*
X127952219Y-91852381D02*
X127952219Y-92233333D01*
X127952219Y-92233333D02*
X126952219Y-92233333D01*
X126952219Y-92233333D02*
X126952219Y-91900000D01*
X126952219Y-91900000D02*
X126999838Y-91804762D01*
X126999838Y-91804762D02*
X127047457Y-91757143D01*
X127047457Y-91757143D02*
X127142695Y-91709524D01*
X127142695Y-91709524D02*
X127237933Y-91709524D01*
X127237933Y-91709524D02*
X127333171Y-91757143D01*
X127333171Y-91757143D02*
X127380790Y-91804762D01*
X127380790Y-91804762D02*
X127428409Y-91900000D01*
X127428409Y-91900000D02*
X127428409Y-92233333D01*
X127666504Y-91280952D02*
X127666504Y-90804762D01*
X127952219Y-91376190D02*
X126952219Y-91042857D01*
X126952219Y-91042857D02*
X127952219Y-90709524D01*
X126952219Y-90519047D02*
X126952219Y-89947619D01*
X127952219Y-90233333D02*
X126952219Y-90233333D01*
X126952219Y-89757142D02*
X126952219Y-89185714D01*
X127952219Y-89471428D02*
X126952219Y-89471428D01*
X127428409Y-88852380D02*
X127428409Y-88519047D01*
X127952219Y-88376190D02*
X127952219Y-88852380D01*
X127952219Y-88852380D02*
X126952219Y-88852380D01*
X126952219Y-88852380D02*
X126952219Y-88376190D01*
X127952219Y-87376190D02*
X127476028Y-87709523D01*
X127952219Y-87947618D02*
X126952219Y-87947618D01*
X126952219Y-87947618D02*
X126952219Y-87566666D01*
X126952219Y-87566666D02*
X126999838Y-87471428D01*
X126999838Y-87471428D02*
X127047457Y-87423809D01*
X127047457Y-87423809D02*
X127142695Y-87376190D01*
X127142695Y-87376190D02*
X127285552Y-87376190D01*
X127285552Y-87376190D02*
X127380790Y-87423809D01*
X127380790Y-87423809D02*
X127428409Y-87471428D01*
X127428409Y-87471428D02*
X127476028Y-87566666D01*
X127476028Y-87566666D02*
X127476028Y-87947618D01*
X127476028Y-86757142D02*
X127952219Y-86757142D01*
X126952219Y-87090475D02*
X127476028Y-86757142D01*
X127476028Y-86757142D02*
X126952219Y-86423809D01*
X126952219Y-118997618D02*
X126952219Y-118807142D01*
X126952219Y-118807142D02*
X126999838Y-118711904D01*
X126999838Y-118711904D02*
X127095076Y-118616666D01*
X127095076Y-118616666D02*
X127285552Y-118569047D01*
X127285552Y-118569047D02*
X127618885Y-118569047D01*
X127618885Y-118569047D02*
X127809361Y-118616666D01*
X127809361Y-118616666D02*
X127904600Y-118711904D01*
X127904600Y-118711904D02*
X127952219Y-118807142D01*
X127952219Y-118807142D02*
X127952219Y-118997618D01*
X127952219Y-118997618D02*
X127904600Y-119092856D01*
X127904600Y-119092856D02*
X127809361Y-119188094D01*
X127809361Y-119188094D02*
X127618885Y-119235713D01*
X127618885Y-119235713D02*
X127285552Y-119235713D01*
X127285552Y-119235713D02*
X127095076Y-119188094D01*
X127095076Y-119188094D02*
X126999838Y-119092856D01*
X126999838Y-119092856D02*
X126952219Y-118997618D01*
X127904600Y-118188094D02*
X127952219Y-118045237D01*
X127952219Y-118045237D02*
X127952219Y-117807142D01*
X127952219Y-117807142D02*
X127904600Y-117711904D01*
X127904600Y-117711904D02*
X127856980Y-117664285D01*
X127856980Y-117664285D02*
X127761742Y-117616666D01*
X127761742Y-117616666D02*
X127666504Y-117616666D01*
X127666504Y-117616666D02*
X127571266Y-117664285D01*
X127571266Y-117664285D02*
X127523647Y-117711904D01*
X127523647Y-117711904D02*
X127476028Y-117807142D01*
X127476028Y-117807142D02*
X127428409Y-117997618D01*
X127428409Y-117997618D02*
X127380790Y-118092856D01*
X127380790Y-118092856D02*
X127333171Y-118140475D01*
X127333171Y-118140475D02*
X127237933Y-118188094D01*
X127237933Y-118188094D02*
X127142695Y-118188094D01*
X127142695Y-118188094D02*
X127047457Y-118140475D01*
X127047457Y-118140475D02*
X126999838Y-118092856D01*
X126999838Y-118092856D02*
X126952219Y-117997618D01*
X126952219Y-117997618D02*
X126952219Y-117759523D01*
X126952219Y-117759523D02*
X126999838Y-117616666D01*
X127856980Y-116616666D02*
X127904600Y-116664285D01*
X127904600Y-116664285D02*
X127952219Y-116807142D01*
X127952219Y-116807142D02*
X127952219Y-116902380D01*
X127952219Y-116902380D02*
X127904600Y-117045237D01*
X127904600Y-117045237D02*
X127809361Y-117140475D01*
X127809361Y-117140475D02*
X127714123Y-117188094D01*
X127714123Y-117188094D02*
X127523647Y-117235713D01*
X127523647Y-117235713D02*
X127380790Y-117235713D01*
X127380790Y-117235713D02*
X127190314Y-117188094D01*
X127190314Y-117188094D02*
X127095076Y-117140475D01*
X127095076Y-117140475D02*
X126999838Y-117045237D01*
X126999838Y-117045237D02*
X126952219Y-116902380D01*
X126952219Y-116902380D02*
X126952219Y-116807142D01*
X126952219Y-116807142D02*
X126999838Y-116664285D01*
X126999838Y-116664285D02*
X127047457Y-116616666D01*
X127285552Y-115759523D02*
X127952219Y-115759523D01*
X126904600Y-115997618D02*
X127618885Y-116235713D01*
X127618885Y-116235713D02*
X127618885Y-115616666D01*
X126952219Y-112147618D02*
X126952219Y-111957142D01*
X126952219Y-111957142D02*
X126999838Y-111861904D01*
X126999838Y-111861904D02*
X127095076Y-111766666D01*
X127095076Y-111766666D02*
X127285552Y-111719047D01*
X127285552Y-111719047D02*
X127618885Y-111719047D01*
X127618885Y-111719047D02*
X127809361Y-111766666D01*
X127809361Y-111766666D02*
X127904600Y-111861904D01*
X127904600Y-111861904D02*
X127952219Y-111957142D01*
X127952219Y-111957142D02*
X127952219Y-112147618D01*
X127952219Y-112147618D02*
X127904600Y-112242856D01*
X127904600Y-112242856D02*
X127809361Y-112338094D01*
X127809361Y-112338094D02*
X127618885Y-112385713D01*
X127618885Y-112385713D02*
X127285552Y-112385713D01*
X127285552Y-112385713D02*
X127095076Y-112338094D01*
X127095076Y-112338094D02*
X126999838Y-112242856D01*
X126999838Y-112242856D02*
X126952219Y-112147618D01*
X127904600Y-111338094D02*
X127952219Y-111195237D01*
X127952219Y-111195237D02*
X127952219Y-110957142D01*
X127952219Y-110957142D02*
X127904600Y-110861904D01*
X127904600Y-110861904D02*
X127856980Y-110814285D01*
X127856980Y-110814285D02*
X127761742Y-110766666D01*
X127761742Y-110766666D02*
X127666504Y-110766666D01*
X127666504Y-110766666D02*
X127571266Y-110814285D01*
X127571266Y-110814285D02*
X127523647Y-110861904D01*
X127523647Y-110861904D02*
X127476028Y-110957142D01*
X127476028Y-110957142D02*
X127428409Y-111147618D01*
X127428409Y-111147618D02*
X127380790Y-111242856D01*
X127380790Y-111242856D02*
X127333171Y-111290475D01*
X127333171Y-111290475D02*
X127237933Y-111338094D01*
X127237933Y-111338094D02*
X127142695Y-111338094D01*
X127142695Y-111338094D02*
X127047457Y-111290475D01*
X127047457Y-111290475D02*
X126999838Y-111242856D01*
X126999838Y-111242856D02*
X126952219Y-111147618D01*
X126952219Y-111147618D02*
X126952219Y-110909523D01*
X126952219Y-110909523D02*
X126999838Y-110766666D01*
X127856980Y-109766666D02*
X127904600Y-109814285D01*
X127904600Y-109814285D02*
X127952219Y-109957142D01*
X127952219Y-109957142D02*
X127952219Y-110052380D01*
X127952219Y-110052380D02*
X127904600Y-110195237D01*
X127904600Y-110195237D02*
X127809361Y-110290475D01*
X127809361Y-110290475D02*
X127714123Y-110338094D01*
X127714123Y-110338094D02*
X127523647Y-110385713D01*
X127523647Y-110385713D02*
X127380790Y-110385713D01*
X127380790Y-110385713D02*
X127190314Y-110338094D01*
X127190314Y-110338094D02*
X127095076Y-110290475D01*
X127095076Y-110290475D02*
X126999838Y-110195237D01*
X126999838Y-110195237D02*
X126952219Y-110052380D01*
X126952219Y-110052380D02*
X126952219Y-109957142D01*
X126952219Y-109957142D02*
X126999838Y-109814285D01*
X126999838Y-109814285D02*
X127047457Y-109766666D01*
X126952219Y-109433332D02*
X126952219Y-108814285D01*
X126952219Y-108814285D02*
X127333171Y-109147618D01*
X127333171Y-109147618D02*
X127333171Y-109004761D01*
X127333171Y-109004761D02*
X127380790Y-108909523D01*
X127380790Y-108909523D02*
X127428409Y-108861904D01*
X127428409Y-108861904D02*
X127523647Y-108814285D01*
X127523647Y-108814285D02*
X127761742Y-108814285D01*
X127761742Y-108814285D02*
X127856980Y-108861904D01*
X127856980Y-108861904D02*
X127904600Y-108909523D01*
X127904600Y-108909523D02*
X127952219Y-109004761D01*
X127952219Y-109004761D02*
X127952219Y-109290475D01*
X127952219Y-109290475D02*
X127904600Y-109385713D01*
X127904600Y-109385713D02*
X127856980Y-109433332D01*
X118176816Y-126397331D02*
X118510149Y-127397331D01*
X118510149Y-127397331D02*
X118843482Y-126397331D01*
X119700625Y-127397331D02*
X119129197Y-127397331D01*
X119414911Y-127397331D02*
X119414911Y-126397331D01*
X119414911Y-126397331D02*
X119319673Y-126540188D01*
X119319673Y-126540188D02*
X119224435Y-126635426D01*
X119224435Y-126635426D02*
X119129197Y-126683045D01*
X121510149Y-126921140D02*
X121462530Y-126873521D01*
X121462530Y-126873521D02*
X121367292Y-126825902D01*
X121367292Y-126825902D02*
X121272054Y-126825902D01*
X121272054Y-126825902D02*
X121176816Y-126873521D01*
X121176816Y-126873521D02*
X121129197Y-126921140D01*
X121129197Y-126921140D02*
X121081578Y-127016378D01*
X121081578Y-127016378D02*
X121081578Y-127111616D01*
X121081578Y-127111616D02*
X121129197Y-127206854D01*
X121129197Y-127206854D02*
X121176816Y-127254473D01*
X121176816Y-127254473D02*
X121272054Y-127302092D01*
X121272054Y-127302092D02*
X121367292Y-127302092D01*
X121367292Y-127302092D02*
X121462530Y-127254473D01*
X121462530Y-127254473D02*
X121510149Y-127206854D01*
X121510149Y-126825902D02*
X121510149Y-127206854D01*
X121510149Y-127206854D02*
X121557768Y-127254473D01*
X121557768Y-127254473D02*
X121605387Y-127254473D01*
X121605387Y-127254473D02*
X121700626Y-127206854D01*
X121700626Y-127206854D02*
X121748245Y-127111616D01*
X121748245Y-127111616D02*
X121748245Y-126873521D01*
X121748245Y-126873521D02*
X121653007Y-126730664D01*
X121653007Y-126730664D02*
X121510149Y-126635426D01*
X121510149Y-126635426D02*
X121319673Y-126587807D01*
X121319673Y-126587807D02*
X121129197Y-126635426D01*
X121129197Y-126635426D02*
X120986340Y-126730664D01*
X120986340Y-126730664D02*
X120891102Y-126873521D01*
X120891102Y-126873521D02*
X120843483Y-127063997D01*
X120843483Y-127063997D02*
X120891102Y-127254473D01*
X120891102Y-127254473D02*
X120986340Y-127397331D01*
X120986340Y-127397331D02*
X121129197Y-127492569D01*
X121129197Y-127492569D02*
X121319673Y-127540188D01*
X121319673Y-127540188D02*
X121510149Y-127492569D01*
X121510149Y-127492569D02*
X121653007Y-127397331D01*
X122891102Y-126492569D02*
X122938721Y-126444950D01*
X122938721Y-126444950D02*
X123033959Y-126397331D01*
X123033959Y-126397331D02*
X123272054Y-126397331D01*
X123272054Y-126397331D02*
X123367292Y-126444950D01*
X123367292Y-126444950D02*
X123414911Y-126492569D01*
X123414911Y-126492569D02*
X123462530Y-126587807D01*
X123462530Y-126587807D02*
X123462530Y-126683045D01*
X123462530Y-126683045D02*
X123414911Y-126825902D01*
X123414911Y-126825902D02*
X122843483Y-127397331D01*
X122843483Y-127397331D02*
X123462530Y-127397331D01*
X124081578Y-126397331D02*
X124176816Y-126397331D01*
X124176816Y-126397331D02*
X124272054Y-126444950D01*
X124272054Y-126444950D02*
X124319673Y-126492569D01*
X124319673Y-126492569D02*
X124367292Y-126587807D01*
X124367292Y-126587807D02*
X124414911Y-126778283D01*
X124414911Y-126778283D02*
X124414911Y-127016378D01*
X124414911Y-127016378D02*
X124367292Y-127206854D01*
X124367292Y-127206854D02*
X124319673Y-127302092D01*
X124319673Y-127302092D02*
X124272054Y-127349712D01*
X124272054Y-127349712D02*
X124176816Y-127397331D01*
X124176816Y-127397331D02*
X124081578Y-127397331D01*
X124081578Y-127397331D02*
X123986340Y-127349712D01*
X123986340Y-127349712D02*
X123938721Y-127302092D01*
X123938721Y-127302092D02*
X123891102Y-127206854D01*
X123891102Y-127206854D02*
X123843483Y-127016378D01*
X123843483Y-127016378D02*
X123843483Y-126778283D01*
X123843483Y-126778283D02*
X123891102Y-126587807D01*
X123891102Y-126587807D02*
X123938721Y-126492569D01*
X123938721Y-126492569D02*
X123986340Y-126444950D01*
X123986340Y-126444950D02*
X124081578Y-126397331D01*
X124795864Y-126492569D02*
X124843483Y-126444950D01*
X124843483Y-126444950D02*
X124938721Y-126397331D01*
X124938721Y-126397331D02*
X125176816Y-126397331D01*
X125176816Y-126397331D02*
X125272054Y-126444950D01*
X125272054Y-126444950D02*
X125319673Y-126492569D01*
X125319673Y-126492569D02*
X125367292Y-126587807D01*
X125367292Y-126587807D02*
X125367292Y-126683045D01*
X125367292Y-126683045D02*
X125319673Y-126825902D01*
X125319673Y-126825902D02*
X124748245Y-127397331D01*
X124748245Y-127397331D02*
X125367292Y-127397331D01*
X126272054Y-126397331D02*
X125795864Y-126397331D01*
X125795864Y-126397331D02*
X125748245Y-126873521D01*
X125748245Y-126873521D02*
X125795864Y-126825902D01*
X125795864Y-126825902D02*
X125891102Y-126778283D01*
X125891102Y-126778283D02*
X126129197Y-126778283D01*
X126129197Y-126778283D02*
X126224435Y-126825902D01*
X126224435Y-126825902D02*
X126272054Y-126873521D01*
X126272054Y-126873521D02*
X126319673Y-126968759D01*
X126319673Y-126968759D02*
X126319673Y-127206854D01*
X126319673Y-127206854D02*
X126272054Y-127302092D01*
X126272054Y-127302092D02*
X126224435Y-127349712D01*
X126224435Y-127349712D02*
X126129197Y-127397331D01*
X126129197Y-127397331D02*
X125891102Y-127397331D01*
X125891102Y-127397331D02*
X125795864Y-127349712D01*
X125795864Y-127349712D02*
X125748245Y-127302092D01*
X118319673Y-129007275D02*
X118319673Y-128007275D01*
X118319673Y-128007275D02*
X118653006Y-128721560D01*
X118653006Y-128721560D02*
X118986339Y-128007275D01*
X118986339Y-128007275D02*
X118986339Y-129007275D01*
X119462530Y-129007275D02*
X119462530Y-128007275D01*
X120462529Y-128054894D02*
X120367291Y-128007275D01*
X120367291Y-128007275D02*
X120224434Y-128007275D01*
X120224434Y-128007275D02*
X120081577Y-128054894D01*
X120081577Y-128054894D02*
X119986339Y-128150132D01*
X119986339Y-128150132D02*
X119938720Y-128245370D01*
X119938720Y-128245370D02*
X119891101Y-128435846D01*
X119891101Y-128435846D02*
X119891101Y-128578703D01*
X119891101Y-128578703D02*
X119938720Y-128769179D01*
X119938720Y-128769179D02*
X119986339Y-128864417D01*
X119986339Y-128864417D02*
X120081577Y-128959656D01*
X120081577Y-128959656D02*
X120224434Y-129007275D01*
X120224434Y-129007275D02*
X120319672Y-129007275D01*
X120319672Y-129007275D02*
X120462529Y-128959656D01*
X120462529Y-128959656D02*
X120510148Y-128912036D01*
X120510148Y-128912036D02*
X120510148Y-128578703D01*
X120510148Y-128578703D02*
X120319672Y-128578703D01*
X120938720Y-128007275D02*
X120938720Y-128816798D01*
X120938720Y-128816798D02*
X120986339Y-128912036D01*
X120986339Y-128912036D02*
X121033958Y-128959656D01*
X121033958Y-128959656D02*
X121129196Y-129007275D01*
X121129196Y-129007275D02*
X121319672Y-129007275D01*
X121319672Y-129007275D02*
X121414910Y-128959656D01*
X121414910Y-128959656D02*
X121462529Y-128912036D01*
X121462529Y-128912036D02*
X121510148Y-128816798D01*
X121510148Y-128816798D02*
X121510148Y-128007275D01*
X121986339Y-128483465D02*
X122319672Y-128483465D01*
X122462529Y-129007275D02*
X121986339Y-129007275D01*
X121986339Y-129007275D02*
X121986339Y-128007275D01*
X121986339Y-128007275D02*
X122462529Y-128007275D01*
X123367291Y-129007275D02*
X122891101Y-129007275D01*
X122891101Y-129007275D02*
X122891101Y-128007275D01*
X124462530Y-129007275D02*
X124462530Y-128007275D01*
X124462530Y-128007275D02*
X124795863Y-128721560D01*
X124795863Y-128721560D02*
X125129196Y-128007275D01*
X125129196Y-128007275D02*
X125129196Y-129007275D01*
X125605387Y-129007275D02*
X125605387Y-128007275D01*
X126653005Y-129007275D02*
X126319672Y-128531084D01*
X126081577Y-129007275D02*
X126081577Y-128007275D01*
X126081577Y-128007275D02*
X126462529Y-128007275D01*
X126462529Y-128007275D02*
X126557767Y-128054894D01*
X126557767Y-128054894D02*
X126605386Y-128102513D01*
X126605386Y-128102513D02*
X126653005Y-128197751D01*
X126653005Y-128197751D02*
X126653005Y-128340608D01*
X126653005Y-128340608D02*
X126605386Y-128435846D01*
X126605386Y-128435846D02*
X126557767Y-128483465D01*
X126557767Y-128483465D02*
X126462529Y-128531084D01*
X126462529Y-128531084D02*
X126081577Y-128531084D01*
X127033958Y-128721560D02*
X127510148Y-128721560D01*
X126938720Y-129007275D02*
X127272053Y-128007275D01*
X127272053Y-128007275D02*
X127605386Y-129007275D01*
X127938720Y-129007275D02*
X127938720Y-128007275D01*
X127938720Y-128007275D02*
X128510148Y-129007275D01*
X128510148Y-129007275D02*
X128510148Y-128007275D01*
X128986339Y-129007275D02*
X128986339Y-128007275D01*
X128986339Y-128007275D02*
X129224434Y-128007275D01*
X129224434Y-128007275D02*
X129367291Y-128054894D01*
X129367291Y-128054894D02*
X129462529Y-128150132D01*
X129462529Y-128150132D02*
X129510148Y-128245370D01*
X129510148Y-128245370D02*
X129557767Y-128435846D01*
X129557767Y-128435846D02*
X129557767Y-128578703D01*
X129557767Y-128578703D02*
X129510148Y-128769179D01*
X129510148Y-128769179D02*
X129462529Y-128864417D01*
X129462529Y-128864417D02*
X129367291Y-128959656D01*
X129367291Y-128959656D02*
X129224434Y-129007275D01*
X129224434Y-129007275D02*
X128986339Y-129007275D01*
X129938720Y-128721560D02*
X130414910Y-128721560D01*
X129843482Y-129007275D02*
X130176815Y-128007275D01*
X130176815Y-128007275D02*
X130510148Y-129007275D01*
X118176816Y-129617219D02*
X118748244Y-129617219D01*
X118462530Y-130617219D02*
X118462530Y-129617219D01*
X119081578Y-130617219D02*
X119081578Y-129617219D01*
X119510149Y-130331504D02*
X119986339Y-130331504D01*
X119414911Y-130617219D02*
X119748244Y-129617219D01*
X119748244Y-129617219D02*
X120081577Y-130617219D01*
X120938720Y-129664838D02*
X120843482Y-129617219D01*
X120843482Y-129617219D02*
X120700625Y-129617219D01*
X120700625Y-129617219D02*
X120557768Y-129664838D01*
X120557768Y-129664838D02*
X120462530Y-129760076D01*
X120462530Y-129760076D02*
X120414911Y-129855314D01*
X120414911Y-129855314D02*
X120367292Y-130045790D01*
X120367292Y-130045790D02*
X120367292Y-130188647D01*
X120367292Y-130188647D02*
X120414911Y-130379123D01*
X120414911Y-130379123D02*
X120462530Y-130474361D01*
X120462530Y-130474361D02*
X120557768Y-130569600D01*
X120557768Y-130569600D02*
X120700625Y-130617219D01*
X120700625Y-130617219D02*
X120795863Y-130617219D01*
X120795863Y-130617219D02*
X120938720Y-130569600D01*
X120938720Y-130569600D02*
X120986339Y-130521980D01*
X120986339Y-130521980D02*
X120986339Y-130188647D01*
X120986339Y-130188647D02*
X120795863Y-130188647D01*
X121605387Y-129617219D02*
X121795863Y-129617219D01*
X121795863Y-129617219D02*
X121891101Y-129664838D01*
X121891101Y-129664838D02*
X121986339Y-129760076D01*
X121986339Y-129760076D02*
X122033958Y-129950552D01*
X122033958Y-129950552D02*
X122033958Y-130283885D01*
X122033958Y-130283885D02*
X121986339Y-130474361D01*
X121986339Y-130474361D02*
X121891101Y-130569600D01*
X121891101Y-130569600D02*
X121795863Y-130617219D01*
X121795863Y-130617219D02*
X121605387Y-130617219D01*
X121605387Y-130617219D02*
X121510149Y-130569600D01*
X121510149Y-130569600D02*
X121414911Y-130474361D01*
X121414911Y-130474361D02*
X121367292Y-130283885D01*
X121367292Y-130283885D02*
X121367292Y-129950552D01*
X121367292Y-129950552D02*
X121414911Y-129760076D01*
X121414911Y-129760076D02*
X121510149Y-129664838D01*
X121510149Y-129664838D02*
X121605387Y-129617219D01*
X123224435Y-130617219D02*
X123224435Y-129617219D01*
X123224435Y-129617219D02*
X123557768Y-130331504D01*
X123557768Y-130331504D02*
X123891101Y-129617219D01*
X123891101Y-129617219D02*
X123891101Y-130617219D01*
X124367292Y-130617219D02*
X124367292Y-129617219D01*
X125414910Y-130617219D02*
X125081577Y-130141028D01*
X124843482Y-130617219D02*
X124843482Y-129617219D01*
X124843482Y-129617219D02*
X125224434Y-129617219D01*
X125224434Y-129617219D02*
X125319672Y-129664838D01*
X125319672Y-129664838D02*
X125367291Y-129712457D01*
X125367291Y-129712457D02*
X125414910Y-129807695D01*
X125414910Y-129807695D02*
X125414910Y-129950552D01*
X125414910Y-129950552D02*
X125367291Y-130045790D01*
X125367291Y-130045790D02*
X125319672Y-130093409D01*
X125319672Y-130093409D02*
X125224434Y-130141028D01*
X125224434Y-130141028D02*
X124843482Y-130141028D01*
X125795863Y-130331504D02*
X126272053Y-130331504D01*
X125700625Y-130617219D02*
X126033958Y-129617219D01*
X126033958Y-129617219D02*
X126367291Y-130617219D01*
X126700625Y-130617219D02*
X126700625Y-129617219D01*
X126700625Y-129617219D02*
X127272053Y-130617219D01*
X127272053Y-130617219D02*
X127272053Y-129617219D01*
X127748244Y-130617219D02*
X127748244Y-129617219D01*
X127748244Y-129617219D02*
X127986339Y-129617219D01*
X127986339Y-129617219D02*
X128129196Y-129664838D01*
X128129196Y-129664838D02*
X128224434Y-129760076D01*
X128224434Y-129760076D02*
X128272053Y-129855314D01*
X128272053Y-129855314D02*
X128319672Y-130045790D01*
X128319672Y-130045790D02*
X128319672Y-130188647D01*
X128319672Y-130188647D02*
X128272053Y-130379123D01*
X128272053Y-130379123D02*
X128224434Y-130474361D01*
X128224434Y-130474361D02*
X128129196Y-130569600D01*
X128129196Y-130569600D02*
X127986339Y-130617219D01*
X127986339Y-130617219D02*
X127748244Y-130617219D01*
X128700625Y-130331504D02*
X129176815Y-130331504D01*
X128605387Y-130617219D02*
X128938720Y-129617219D01*
X128938720Y-129617219D02*
X129272053Y-130617219D01*
D11*
X119261653Y-124457971D02*
X119190225Y-124529400D01*
X119190225Y-124529400D02*
X118975939Y-124600828D01*
X118975939Y-124600828D02*
X118833082Y-124600828D01*
X118833082Y-124600828D02*
X118618796Y-124529400D01*
X118618796Y-124529400D02*
X118475939Y-124386542D01*
X118475939Y-124386542D02*
X118404510Y-124243685D01*
X118404510Y-124243685D02*
X118333082Y-123957971D01*
X118333082Y-123957971D02*
X118333082Y-123743685D01*
X118333082Y-123743685D02*
X118404510Y-123457971D01*
X118404510Y-123457971D02*
X118475939Y-123315114D01*
X118475939Y-123315114D02*
X118618796Y-123172257D01*
X118618796Y-123172257D02*
X118833082Y-123100828D01*
X118833082Y-123100828D02*
X118975939Y-123100828D01*
X118975939Y-123100828D02*
X119190225Y-123172257D01*
X119190225Y-123172257D02*
X119261653Y-123243685D01*
X119833082Y-124172257D02*
X120547368Y-124172257D01*
X119690225Y-124600828D02*
X120190225Y-123100828D01*
X120190225Y-123100828D02*
X120690225Y-124600828D01*
X122047367Y-124457971D02*
X121975939Y-124529400D01*
X121975939Y-124529400D02*
X121761653Y-124600828D01*
X121761653Y-124600828D02*
X121618796Y-124600828D01*
X121618796Y-124600828D02*
X121404510Y-124529400D01*
X121404510Y-124529400D02*
X121261653Y-124386542D01*
X121261653Y-124386542D02*
X121190224Y-124243685D01*
X121190224Y-124243685D02*
X121118796Y-123957971D01*
X121118796Y-123957971D02*
X121118796Y-123743685D01*
X121118796Y-123743685D02*
X121190224Y-123457971D01*
X121190224Y-123457971D02*
X121261653Y-123315114D01*
X121261653Y-123315114D02*
X121404510Y-123172257D01*
X121404510Y-123172257D02*
X121618796Y-123100828D01*
X121618796Y-123100828D02*
X121761653Y-123100828D01*
X121761653Y-123100828D02*
X121975939Y-123172257D01*
X121975939Y-123172257D02*
X122047367Y-123243685D01*
X122975939Y-123100828D02*
X123261653Y-123100828D01*
X123261653Y-123100828D02*
X123404510Y-123172257D01*
X123404510Y-123172257D02*
X123547367Y-123315114D01*
X123547367Y-123315114D02*
X123618796Y-123600828D01*
X123618796Y-123600828D02*
X123618796Y-124100828D01*
X123618796Y-124100828D02*
X123547367Y-124386542D01*
X123547367Y-124386542D02*
X123404510Y-124529400D01*
X123404510Y-124529400D02*
X123261653Y-124600828D01*
X123261653Y-124600828D02*
X122975939Y-124600828D01*
X122975939Y-124600828D02*
X122833082Y-124529400D01*
X122833082Y-124529400D02*
X122690224Y-124386542D01*
X122690224Y-124386542D02*
X122618796Y-124100828D01*
X122618796Y-124100828D02*
X122618796Y-123600828D01*
X122618796Y-123600828D02*
X122690224Y-123315114D01*
X122690224Y-123315114D02*
X122833082Y-123172257D01*
X122833082Y-123172257D02*
X122975939Y-123100828D01*
X124261653Y-124600828D02*
X124261653Y-123100828D01*
X124261653Y-123100828D02*
X124833082Y-123100828D01*
X124833082Y-123100828D02*
X124975939Y-123172257D01*
X124975939Y-123172257D02*
X125047368Y-123243685D01*
X125047368Y-123243685D02*
X125118796Y-123386542D01*
X125118796Y-123386542D02*
X125118796Y-123600828D01*
X125118796Y-123600828D02*
X125047368Y-123743685D01*
X125047368Y-123743685D02*
X124975939Y-123815114D01*
X124975939Y-123815114D02*
X124833082Y-123886542D01*
X124833082Y-123886542D02*
X124261653Y-123886542D01*
X125761653Y-124600828D02*
X125761653Y-123100828D01*
X125761653Y-123815114D02*
X126618796Y-123815114D01*
X126618796Y-124600828D02*
X126618796Y-123100828D01*
X127618797Y-123100828D02*
X127904511Y-123100828D01*
X127904511Y-123100828D02*
X128047368Y-123172257D01*
X128047368Y-123172257D02*
X128190225Y-123315114D01*
X128190225Y-123315114D02*
X128261654Y-123600828D01*
X128261654Y-123600828D02*
X128261654Y-124100828D01*
X128261654Y-124100828D02*
X128190225Y-124386542D01*
X128190225Y-124386542D02*
X128047368Y-124529400D01*
X128047368Y-124529400D02*
X127904511Y-124600828D01*
X127904511Y-124600828D02*
X127618797Y-124600828D01*
X127618797Y-124600828D02*
X127475940Y-124529400D01*
X127475940Y-124529400D02*
X127333082Y-124386542D01*
X127333082Y-124386542D02*
X127261654Y-124100828D01*
X127261654Y-124100828D02*
X127261654Y-123600828D01*
X127261654Y-123600828D02*
X127333082Y-123315114D01*
X127333082Y-123315114D02*
X127475940Y-123172257D01*
X127475940Y-123172257D02*
X127618797Y-123100828D01*
X128904511Y-124600828D02*
X128904511Y-123100828D01*
X128904511Y-123100828D02*
X129761654Y-124600828D01*
X129761654Y-124600828D02*
X129761654Y-123100828D01*
X130404512Y-124172257D02*
X131118798Y-124172257D01*
X130261655Y-124600828D02*
X130761655Y-123100828D01*
X130761655Y-123100828D02*
X131261655Y-124600828D01*
X131547369Y-123100828D02*
X132404512Y-123100828D01*
X131975940Y-124600828D02*
X131975940Y-123100828D01*
X133190226Y-123100828D02*
X133475940Y-123100828D01*
X133475940Y-123100828D02*
X133618797Y-123172257D01*
X133618797Y-123172257D02*
X133761654Y-123315114D01*
X133761654Y-123315114D02*
X133833083Y-123600828D01*
X133833083Y-123600828D02*
X133833083Y-124100828D01*
X133833083Y-124100828D02*
X133761654Y-124386542D01*
X133761654Y-124386542D02*
X133618797Y-124529400D01*
X133618797Y-124529400D02*
X133475940Y-124600828D01*
X133475940Y-124600828D02*
X133190226Y-124600828D01*
X133190226Y-124600828D02*
X133047369Y-124529400D01*
X133047369Y-124529400D02*
X132904511Y-124386542D01*
X132904511Y-124386542D02*
X132833083Y-124100828D01*
X132833083Y-124100828D02*
X132833083Y-123600828D01*
X132833083Y-123600828D02*
X132904511Y-123315114D01*
X132904511Y-123315114D02*
X133047369Y-123172257D01*
X133047369Y-123172257D02*
X133190226Y-123100828D01*
X135333083Y-124600828D02*
X134833083Y-123886542D01*
X134475940Y-124600828D02*
X134475940Y-123100828D01*
X134475940Y-123100828D02*
X135047369Y-123100828D01*
X135047369Y-123100828D02*
X135190226Y-123172257D01*
X135190226Y-123172257D02*
X135261655Y-123243685D01*
X135261655Y-123243685D02*
X135333083Y-123386542D01*
X135333083Y-123386542D02*
X135333083Y-123600828D01*
X135333083Y-123600828D02*
X135261655Y-123743685D01*
X135261655Y-123743685D02*
X135190226Y-123815114D01*
X135190226Y-123815114D02*
X135047369Y-123886542D01*
X135047369Y-123886542D02*
X134475940Y-123886542D01*
D10*
X173902219Y-98483332D02*
X172902219Y-98483332D01*
X172902219Y-98483332D02*
X173616504Y-98149999D01*
X173616504Y-98149999D02*
X172902219Y-97816666D01*
X172902219Y-97816666D02*
X173902219Y-97816666D01*
X172902219Y-97149999D02*
X172902219Y-96959523D01*
X172902219Y-96959523D02*
X172949838Y-96864285D01*
X172949838Y-96864285D02*
X173045076Y-96769047D01*
X173045076Y-96769047D02*
X173235552Y-96721428D01*
X173235552Y-96721428D02*
X173568885Y-96721428D01*
X173568885Y-96721428D02*
X173759361Y-96769047D01*
X173759361Y-96769047D02*
X173854600Y-96864285D01*
X173854600Y-96864285D02*
X173902219Y-96959523D01*
X173902219Y-96959523D02*
X173902219Y-97149999D01*
X173902219Y-97149999D02*
X173854600Y-97245237D01*
X173854600Y-97245237D02*
X173759361Y-97340475D01*
X173759361Y-97340475D02*
X173568885Y-97388094D01*
X173568885Y-97388094D02*
X173235552Y-97388094D01*
X173235552Y-97388094D02*
X173045076Y-97340475D01*
X173045076Y-97340475D02*
X172949838Y-97245237D01*
X172949838Y-97245237D02*
X172902219Y-97149999D01*
X173902219Y-96292856D02*
X172902219Y-96292856D01*
X172902219Y-96292856D02*
X172902219Y-96054761D01*
X172902219Y-96054761D02*
X172949838Y-95911904D01*
X172949838Y-95911904D02*
X173045076Y-95816666D01*
X173045076Y-95816666D02*
X173140314Y-95769047D01*
X173140314Y-95769047D02*
X173330790Y-95721428D01*
X173330790Y-95721428D02*
X173473647Y-95721428D01*
X173473647Y-95721428D02*
X173664123Y-95769047D01*
X173664123Y-95769047D02*
X173759361Y-95816666D01*
X173759361Y-95816666D02*
X173854600Y-95911904D01*
X173854600Y-95911904D02*
X173902219Y-96054761D01*
X173902219Y-96054761D02*
X173902219Y-96292856D01*
X172997457Y-95340475D02*
X172949838Y-95292856D01*
X172949838Y-95292856D02*
X172902219Y-95197618D01*
X172902219Y-95197618D02*
X172902219Y-94959523D01*
X172902219Y-94959523D02*
X172949838Y-94864285D01*
X172949838Y-94864285D02*
X172997457Y-94816666D01*
X172997457Y-94816666D02*
X173092695Y-94769047D01*
X173092695Y-94769047D02*
X173187933Y-94769047D01*
X173187933Y-94769047D02*
X173330790Y-94816666D01*
X173330790Y-94816666D02*
X173902219Y-95388094D01*
X173902219Y-95388094D02*
X173902219Y-94769047D01*
X173952219Y-106983332D02*
X172952219Y-106983332D01*
X172952219Y-106983332D02*
X173666504Y-106649999D01*
X173666504Y-106649999D02*
X172952219Y-106316666D01*
X172952219Y-106316666D02*
X173952219Y-106316666D01*
X172952219Y-105649999D02*
X172952219Y-105459523D01*
X172952219Y-105459523D02*
X172999838Y-105364285D01*
X172999838Y-105364285D02*
X173095076Y-105269047D01*
X173095076Y-105269047D02*
X173285552Y-105221428D01*
X173285552Y-105221428D02*
X173618885Y-105221428D01*
X173618885Y-105221428D02*
X173809361Y-105269047D01*
X173809361Y-105269047D02*
X173904600Y-105364285D01*
X173904600Y-105364285D02*
X173952219Y-105459523D01*
X173952219Y-105459523D02*
X173952219Y-105649999D01*
X173952219Y-105649999D02*
X173904600Y-105745237D01*
X173904600Y-105745237D02*
X173809361Y-105840475D01*
X173809361Y-105840475D02*
X173618885Y-105888094D01*
X173618885Y-105888094D02*
X173285552Y-105888094D01*
X173285552Y-105888094D02*
X173095076Y-105840475D01*
X173095076Y-105840475D02*
X172999838Y-105745237D01*
X172999838Y-105745237D02*
X172952219Y-105649999D01*
X173952219Y-104792856D02*
X172952219Y-104792856D01*
X172952219Y-104792856D02*
X172952219Y-104554761D01*
X172952219Y-104554761D02*
X172999838Y-104411904D01*
X172999838Y-104411904D02*
X173095076Y-104316666D01*
X173095076Y-104316666D02*
X173190314Y-104269047D01*
X173190314Y-104269047D02*
X173380790Y-104221428D01*
X173380790Y-104221428D02*
X173523647Y-104221428D01*
X173523647Y-104221428D02*
X173714123Y-104269047D01*
X173714123Y-104269047D02*
X173809361Y-104316666D01*
X173809361Y-104316666D02*
X173904600Y-104411904D01*
X173904600Y-104411904D02*
X173952219Y-104554761D01*
X173952219Y-104554761D02*
X173952219Y-104792856D01*
X173952219Y-103269047D02*
X173952219Y-103840475D01*
X173952219Y-103554761D02*
X172952219Y-103554761D01*
X172952219Y-103554761D02*
X173095076Y-103649999D01*
X173095076Y-103649999D02*
X173190314Y-103745237D01*
X173190314Y-103745237D02*
X173237933Y-103840475D01*
X159572054Y-75319600D02*
X159714911Y-75367219D01*
X159714911Y-75367219D02*
X159953006Y-75367219D01*
X159953006Y-75367219D02*
X160048244Y-75319600D01*
X160048244Y-75319600D02*
X160095863Y-75271980D01*
X160095863Y-75271980D02*
X160143482Y-75176742D01*
X160143482Y-75176742D02*
X160143482Y-75081504D01*
X160143482Y-75081504D02*
X160095863Y-74986266D01*
X160095863Y-74986266D02*
X160048244Y-74938647D01*
X160048244Y-74938647D02*
X159953006Y-74891028D01*
X159953006Y-74891028D02*
X159762530Y-74843409D01*
X159762530Y-74843409D02*
X159667292Y-74795790D01*
X159667292Y-74795790D02*
X159619673Y-74748171D01*
X159619673Y-74748171D02*
X159572054Y-74652933D01*
X159572054Y-74652933D02*
X159572054Y-74557695D01*
X159572054Y-74557695D02*
X159619673Y-74462457D01*
X159619673Y-74462457D02*
X159667292Y-74414838D01*
X159667292Y-74414838D02*
X159762530Y-74367219D01*
X159762530Y-74367219D02*
X160000625Y-74367219D01*
X160000625Y-74367219D02*
X160143482Y-74414838D01*
X160429197Y-74367219D02*
X161000625Y-74367219D01*
X160714911Y-75367219D02*
X160714911Y-74367219D01*
X161286340Y-75081504D02*
X161762530Y-75081504D01*
X161191102Y-75367219D02*
X161524435Y-74367219D01*
X161524435Y-74367219D02*
X161857768Y-75367219D01*
X162762530Y-75367219D02*
X162429197Y-74891028D01*
X162191102Y-75367219D02*
X162191102Y-74367219D01*
X162191102Y-74367219D02*
X162572054Y-74367219D01*
X162572054Y-74367219D02*
X162667292Y-74414838D01*
X162667292Y-74414838D02*
X162714911Y-74462457D01*
X162714911Y-74462457D02*
X162762530Y-74557695D01*
X162762530Y-74557695D02*
X162762530Y-74700552D01*
X162762530Y-74700552D02*
X162714911Y-74795790D01*
X162714911Y-74795790D02*
X162667292Y-74843409D01*
X162667292Y-74843409D02*
X162572054Y-74891028D01*
X162572054Y-74891028D02*
X162191102Y-74891028D01*
X163048245Y-74367219D02*
X163381578Y-75367219D01*
X163381578Y-75367219D02*
X163714911Y-74367219D01*
X164048245Y-74843409D02*
X164381578Y-74843409D01*
X164524435Y-75367219D02*
X164048245Y-75367219D01*
X164048245Y-75367219D02*
X164048245Y-74367219D01*
X164048245Y-74367219D02*
X164524435Y-74367219D01*
X126952219Y-105097618D02*
X126952219Y-104907142D01*
X126952219Y-104907142D02*
X126999838Y-104811904D01*
X126999838Y-104811904D02*
X127095076Y-104716666D01*
X127095076Y-104716666D02*
X127285552Y-104669047D01*
X127285552Y-104669047D02*
X127618885Y-104669047D01*
X127618885Y-104669047D02*
X127809361Y-104716666D01*
X127809361Y-104716666D02*
X127904600Y-104811904D01*
X127904600Y-104811904D02*
X127952219Y-104907142D01*
X127952219Y-104907142D02*
X127952219Y-105097618D01*
X127952219Y-105097618D02*
X127904600Y-105192856D01*
X127904600Y-105192856D02*
X127809361Y-105288094D01*
X127809361Y-105288094D02*
X127618885Y-105335713D01*
X127618885Y-105335713D02*
X127285552Y-105335713D01*
X127285552Y-105335713D02*
X127095076Y-105288094D01*
X127095076Y-105288094D02*
X126999838Y-105192856D01*
X126999838Y-105192856D02*
X126952219Y-105097618D01*
X127904600Y-104288094D02*
X127952219Y-104145237D01*
X127952219Y-104145237D02*
X127952219Y-103907142D01*
X127952219Y-103907142D02*
X127904600Y-103811904D01*
X127904600Y-103811904D02*
X127856980Y-103764285D01*
X127856980Y-103764285D02*
X127761742Y-103716666D01*
X127761742Y-103716666D02*
X127666504Y-103716666D01*
X127666504Y-103716666D02*
X127571266Y-103764285D01*
X127571266Y-103764285D02*
X127523647Y-103811904D01*
X127523647Y-103811904D02*
X127476028Y-103907142D01*
X127476028Y-103907142D02*
X127428409Y-104097618D01*
X127428409Y-104097618D02*
X127380790Y-104192856D01*
X127380790Y-104192856D02*
X127333171Y-104240475D01*
X127333171Y-104240475D02*
X127237933Y-104288094D01*
X127237933Y-104288094D02*
X127142695Y-104288094D01*
X127142695Y-104288094D02*
X127047457Y-104240475D01*
X127047457Y-104240475D02*
X126999838Y-104192856D01*
X126999838Y-104192856D02*
X126952219Y-104097618D01*
X126952219Y-104097618D02*
X126952219Y-103859523D01*
X126952219Y-103859523D02*
X126999838Y-103716666D01*
X127856980Y-102716666D02*
X127904600Y-102764285D01*
X127904600Y-102764285D02*
X127952219Y-102907142D01*
X127952219Y-102907142D02*
X127952219Y-103002380D01*
X127952219Y-103002380D02*
X127904600Y-103145237D01*
X127904600Y-103145237D02*
X127809361Y-103240475D01*
X127809361Y-103240475D02*
X127714123Y-103288094D01*
X127714123Y-103288094D02*
X127523647Y-103335713D01*
X127523647Y-103335713D02*
X127380790Y-103335713D01*
X127380790Y-103335713D02*
X127190314Y-103288094D01*
X127190314Y-103288094D02*
X127095076Y-103240475D01*
X127095076Y-103240475D02*
X126999838Y-103145237D01*
X126999838Y-103145237D02*
X126952219Y-103002380D01*
X126952219Y-103002380D02*
X126952219Y-102907142D01*
X126952219Y-102907142D02*
X126999838Y-102764285D01*
X126999838Y-102764285D02*
X127047457Y-102716666D01*
X127047457Y-102335713D02*
X126999838Y-102288094D01*
X126999838Y-102288094D02*
X126952219Y-102192856D01*
X126952219Y-102192856D02*
X126952219Y-101954761D01*
X126952219Y-101954761D02*
X126999838Y-101859523D01*
X126999838Y-101859523D02*
X127047457Y-101811904D01*
X127047457Y-101811904D02*
X127142695Y-101764285D01*
X127142695Y-101764285D02*
X127237933Y-101764285D01*
X127237933Y-101764285D02*
X127380790Y-101811904D01*
X127380790Y-101811904D02*
X127952219Y-102383332D01*
X127952219Y-102383332D02*
X127952219Y-101764285D01*
X153376816Y-125967219D02*
X153710149Y-126967219D01*
X153710149Y-126967219D02*
X154043482Y-125967219D01*
X154567292Y-125967219D02*
X154757768Y-125967219D01*
X154757768Y-125967219D02*
X154853006Y-126014838D01*
X154853006Y-126014838D02*
X154948244Y-126110076D01*
X154948244Y-126110076D02*
X154995863Y-126300552D01*
X154995863Y-126300552D02*
X154995863Y-126633885D01*
X154995863Y-126633885D02*
X154948244Y-126824361D01*
X154948244Y-126824361D02*
X154853006Y-126919600D01*
X154853006Y-126919600D02*
X154757768Y-126967219D01*
X154757768Y-126967219D02*
X154567292Y-126967219D01*
X154567292Y-126967219D02*
X154472054Y-126919600D01*
X154472054Y-126919600D02*
X154376816Y-126824361D01*
X154376816Y-126824361D02*
X154329197Y-126633885D01*
X154329197Y-126633885D02*
X154329197Y-126300552D01*
X154329197Y-126300552D02*
X154376816Y-126110076D01*
X154376816Y-126110076D02*
X154472054Y-126014838D01*
X154472054Y-126014838D02*
X154567292Y-125967219D01*
X155900625Y-126967219D02*
X155424435Y-126967219D01*
X155424435Y-126967219D02*
X155424435Y-125967219D01*
X156233959Y-125967219D02*
X156233959Y-126776742D01*
X156233959Y-126776742D02*
X156281578Y-126871980D01*
X156281578Y-126871980D02*
X156329197Y-126919600D01*
X156329197Y-126919600D02*
X156424435Y-126967219D01*
X156424435Y-126967219D02*
X156614911Y-126967219D01*
X156614911Y-126967219D02*
X156710149Y-126919600D01*
X156710149Y-126919600D02*
X156757768Y-126871980D01*
X156757768Y-126871980D02*
X156805387Y-126776742D01*
X156805387Y-126776742D02*
X156805387Y-125967219D01*
X157281578Y-126967219D02*
X157281578Y-125967219D01*
X157281578Y-125967219D02*
X157614911Y-126681504D01*
X157614911Y-126681504D02*
X157948244Y-125967219D01*
X157948244Y-125967219D02*
X157948244Y-126967219D01*
X158424435Y-126443409D02*
X158757768Y-126443409D01*
X158900625Y-126967219D02*
X158424435Y-126967219D01*
X158424435Y-126967219D02*
X158424435Y-125967219D01*
X158424435Y-125967219D02*
X158900625Y-125967219D01*
X167326191Y-126521560D02*
X167802381Y-126521560D01*
X167230953Y-126807275D02*
X167564286Y-125807275D01*
X167564286Y-125807275D02*
X167897619Y-126807275D01*
X168230953Y-125807275D02*
X168230953Y-126616798D01*
X168230953Y-126616798D02*
X168278572Y-126712036D01*
X168278572Y-126712036D02*
X168326191Y-126759656D01*
X168326191Y-126759656D02*
X168421429Y-126807275D01*
X168421429Y-126807275D02*
X168611905Y-126807275D01*
X168611905Y-126807275D02*
X168707143Y-126759656D01*
X168707143Y-126759656D02*
X168754762Y-126712036D01*
X168754762Y-126712036D02*
X168802381Y-126616798D01*
X168802381Y-126616798D02*
X168802381Y-125807275D01*
X169278572Y-126807275D02*
X169278572Y-125807275D01*
X169278572Y-125807275D02*
X169516667Y-125807275D01*
X169516667Y-125807275D02*
X169659524Y-125854894D01*
X169659524Y-125854894D02*
X169754762Y-125950132D01*
X169754762Y-125950132D02*
X169802381Y-126045370D01*
X169802381Y-126045370D02*
X169850000Y-126235846D01*
X169850000Y-126235846D02*
X169850000Y-126378703D01*
X169850000Y-126378703D02*
X169802381Y-126569179D01*
X169802381Y-126569179D02*
X169754762Y-126664417D01*
X169754762Y-126664417D02*
X169659524Y-126759656D01*
X169659524Y-126759656D02*
X169516667Y-126807275D01*
X169516667Y-126807275D02*
X169278572Y-126807275D01*
X170278572Y-126807275D02*
X170278572Y-125807275D01*
X170945238Y-125807275D02*
X171135714Y-125807275D01*
X171135714Y-125807275D02*
X171230952Y-125854894D01*
X171230952Y-125854894D02*
X171326190Y-125950132D01*
X171326190Y-125950132D02*
X171373809Y-126140608D01*
X171373809Y-126140608D02*
X171373809Y-126473941D01*
X171373809Y-126473941D02*
X171326190Y-126664417D01*
X171326190Y-126664417D02*
X171230952Y-126759656D01*
X171230952Y-126759656D02*
X171135714Y-126807275D01*
X171135714Y-126807275D02*
X170945238Y-126807275D01*
X170945238Y-126807275D02*
X170850000Y-126759656D01*
X170850000Y-126759656D02*
X170754762Y-126664417D01*
X170754762Y-126664417D02*
X170707143Y-126473941D01*
X170707143Y-126473941D02*
X170707143Y-126140608D01*
X170707143Y-126140608D02*
X170754762Y-125950132D01*
X170754762Y-125950132D02*
X170850000Y-125854894D01*
X170850000Y-125854894D02*
X170945238Y-125807275D01*
X166945238Y-127417219D02*
X167135714Y-127417219D01*
X167135714Y-127417219D02*
X167230952Y-127464838D01*
X167230952Y-127464838D02*
X167326190Y-127560076D01*
X167326190Y-127560076D02*
X167373809Y-127750552D01*
X167373809Y-127750552D02*
X167373809Y-128083885D01*
X167373809Y-128083885D02*
X167326190Y-128274361D01*
X167326190Y-128274361D02*
X167230952Y-128369600D01*
X167230952Y-128369600D02*
X167135714Y-128417219D01*
X167135714Y-128417219D02*
X166945238Y-128417219D01*
X166945238Y-128417219D02*
X166850000Y-128369600D01*
X166850000Y-128369600D02*
X166754762Y-128274361D01*
X166754762Y-128274361D02*
X166707143Y-128083885D01*
X166707143Y-128083885D02*
X166707143Y-127750552D01*
X166707143Y-127750552D02*
X166754762Y-127560076D01*
X166754762Y-127560076D02*
X166850000Y-127464838D01*
X166850000Y-127464838D02*
X166945238Y-127417219D01*
X167802381Y-127417219D02*
X167802381Y-128226742D01*
X167802381Y-128226742D02*
X167850000Y-128321980D01*
X167850000Y-128321980D02*
X167897619Y-128369600D01*
X167897619Y-128369600D02*
X167992857Y-128417219D01*
X167992857Y-128417219D02*
X168183333Y-128417219D01*
X168183333Y-128417219D02*
X168278571Y-128369600D01*
X168278571Y-128369600D02*
X168326190Y-128321980D01*
X168326190Y-128321980D02*
X168373809Y-128226742D01*
X168373809Y-128226742D02*
X168373809Y-127417219D01*
X168707143Y-127417219D02*
X169278571Y-127417219D01*
X168992857Y-128417219D02*
X168992857Y-127417219D01*
X169611905Y-128417219D02*
X169611905Y-127417219D01*
X169611905Y-127417219D02*
X169992857Y-127417219D01*
X169992857Y-127417219D02*
X170088095Y-127464838D01*
X170088095Y-127464838D02*
X170135714Y-127512457D01*
X170135714Y-127512457D02*
X170183333Y-127607695D01*
X170183333Y-127607695D02*
X170183333Y-127750552D01*
X170183333Y-127750552D02*
X170135714Y-127845790D01*
X170135714Y-127845790D02*
X170088095Y-127893409D01*
X170088095Y-127893409D02*
X169992857Y-127941028D01*
X169992857Y-127941028D02*
X169611905Y-127941028D01*
X170611905Y-127417219D02*
X170611905Y-128226742D01*
X170611905Y-128226742D02*
X170659524Y-128321980D01*
X170659524Y-128321980D02*
X170707143Y-128369600D01*
X170707143Y-128369600D02*
X170802381Y-128417219D01*
X170802381Y-128417219D02*
X170992857Y-128417219D01*
X170992857Y-128417219D02*
X171088095Y-128369600D01*
X171088095Y-128369600D02*
X171135714Y-128321980D01*
X171135714Y-128321980D02*
X171183333Y-128226742D01*
X171183333Y-128226742D02*
X171183333Y-127417219D01*
X171516667Y-127417219D02*
X172088095Y-127417219D01*
X171802381Y-128417219D02*
X171802381Y-127417219D01*
D12*
X131716666Y-81354819D02*
X131716666Y-82069104D01*
X131716666Y-82069104D02*
X131669047Y-82211961D01*
X131669047Y-82211961D02*
X131573809Y-82307200D01*
X131573809Y-82307200D02*
X131430952Y-82354819D01*
X131430952Y-82354819D02*
X131335714Y-82354819D01*
X132716666Y-82354819D02*
X132145238Y-82354819D01*
X132430952Y-82354819D02*
X132430952Y-81354819D01*
X132430952Y-81354819D02*
X132335714Y-81497676D01*
X132335714Y-81497676D02*
X132240476Y-81592914D01*
X132240476Y-81592914D02*
X132145238Y-81640533D01*
X147710734Y-124359580D02*
X147663115Y-124407200D01*
X147663115Y-124407200D02*
X147520258Y-124454819D01*
X147520258Y-124454819D02*
X147425020Y-124454819D01*
X147425020Y-124454819D02*
X147282163Y-124407200D01*
X147282163Y-124407200D02*
X147186925Y-124311961D01*
X147186925Y-124311961D02*
X147139306Y-124216723D01*
X147139306Y-124216723D02*
X147091687Y-124026247D01*
X147091687Y-124026247D02*
X147091687Y-123883390D01*
X147091687Y-123883390D02*
X147139306Y-123692914D01*
X147139306Y-123692914D02*
X147186925Y-123597676D01*
X147186925Y-123597676D02*
X147282163Y-123502438D01*
X147282163Y-123502438D02*
X147425020Y-123454819D01*
X147425020Y-123454819D02*
X147520258Y-123454819D01*
X147520258Y-123454819D02*
X147663115Y-123502438D01*
X147663115Y-123502438D02*
X147710734Y-123550057D01*
X148567877Y-123454819D02*
X148377401Y-123454819D01*
X148377401Y-123454819D02*
X148282163Y-123502438D01*
X148282163Y-123502438D02*
X148234544Y-123550057D01*
X148234544Y-123550057D02*
X148139306Y-123692914D01*
X148139306Y-123692914D02*
X148091687Y-123883390D01*
X148091687Y-123883390D02*
X148091687Y-124264342D01*
X148091687Y-124264342D02*
X148139306Y-124359580D01*
X148139306Y-124359580D02*
X148186925Y-124407200D01*
X148186925Y-124407200D02*
X148282163Y-124454819D01*
X148282163Y-124454819D02*
X148472639Y-124454819D01*
X148472639Y-124454819D02*
X148567877Y-124407200D01*
X148567877Y-124407200D02*
X148615496Y-124359580D01*
X148615496Y-124359580D02*
X148663115Y-124264342D01*
X148663115Y-124264342D02*
X148663115Y-124026247D01*
X148663115Y-124026247D02*
X148615496Y-123931009D01*
X148615496Y-123931009D02*
X148567877Y-123883390D01*
X148567877Y-123883390D02*
X148472639Y-123835771D01*
X148472639Y-123835771D02*
X148282163Y-123835771D01*
X148282163Y-123835771D02*
X148186925Y-123883390D01*
X148186925Y-123883390D02*
X148139306Y-123931009D01*
X148139306Y-123931009D02*
X148091687Y-124026247D01*
X134831009Y-90235714D02*
X134878628Y-90092857D01*
X134878628Y-90092857D02*
X134926247Y-90045238D01*
X134926247Y-90045238D02*
X135021485Y-89997619D01*
X135021485Y-89997619D02*
X135164342Y-89997619D01*
X135164342Y-89997619D02*
X135259580Y-90045238D01*
X135259580Y-90045238D02*
X135307200Y-90092857D01*
X135307200Y-90092857D02*
X135354819Y-90188095D01*
X135354819Y-90188095D02*
X135354819Y-90569047D01*
X135354819Y-90569047D02*
X134354819Y-90569047D01*
X134354819Y-90569047D02*
X134354819Y-90235714D01*
X134354819Y-90235714D02*
X134402438Y-90140476D01*
X134402438Y-90140476D02*
X134450057Y-90092857D01*
X134450057Y-90092857D02*
X134545295Y-90045238D01*
X134545295Y-90045238D02*
X134640533Y-90045238D01*
X134640533Y-90045238D02*
X134735771Y-90092857D01*
X134735771Y-90092857D02*
X134783390Y-90140476D01*
X134783390Y-90140476D02*
X134831009Y-90235714D01*
X134831009Y-90235714D02*
X134831009Y-90569047D01*
X134354819Y-89711904D02*
X134354819Y-89140476D01*
X135354819Y-89426190D02*
X134354819Y-89426190D01*
X135354819Y-88283333D02*
X135354819Y-88854761D01*
X135354819Y-88569047D02*
X134354819Y-88569047D01*
X134354819Y-88569047D02*
X134497676Y-88664285D01*
X134497676Y-88664285D02*
X134592914Y-88759523D01*
X134592914Y-88759523D02*
X134640533Y-88854761D01*
X160033333Y-116559580D02*
X159985714Y-116607200D01*
X159985714Y-116607200D02*
X159842857Y-116654819D01*
X159842857Y-116654819D02*
X159747619Y-116654819D01*
X159747619Y-116654819D02*
X159604762Y-116607200D01*
X159604762Y-116607200D02*
X159509524Y-116511961D01*
X159509524Y-116511961D02*
X159461905Y-116416723D01*
X159461905Y-116416723D02*
X159414286Y-116226247D01*
X159414286Y-116226247D02*
X159414286Y-116083390D01*
X159414286Y-116083390D02*
X159461905Y-115892914D01*
X159461905Y-115892914D02*
X159509524Y-115797676D01*
X159509524Y-115797676D02*
X159604762Y-115702438D01*
X159604762Y-115702438D02*
X159747619Y-115654819D01*
X159747619Y-115654819D02*
X159842857Y-115654819D01*
X159842857Y-115654819D02*
X159985714Y-115702438D01*
X159985714Y-115702438D02*
X160033333Y-115750057D01*
X160604762Y-116083390D02*
X160509524Y-116035771D01*
X160509524Y-116035771D02*
X160461905Y-115988152D01*
X160461905Y-115988152D02*
X160414286Y-115892914D01*
X160414286Y-115892914D02*
X160414286Y-115845295D01*
X160414286Y-115845295D02*
X160461905Y-115750057D01*
X160461905Y-115750057D02*
X160509524Y-115702438D01*
X160509524Y-115702438D02*
X160604762Y-115654819D01*
X160604762Y-115654819D02*
X160795238Y-115654819D01*
X160795238Y-115654819D02*
X160890476Y-115702438D01*
X160890476Y-115702438D02*
X160938095Y-115750057D01*
X160938095Y-115750057D02*
X160985714Y-115845295D01*
X160985714Y-115845295D02*
X160985714Y-115892914D01*
X160985714Y-115892914D02*
X160938095Y-115988152D01*
X160938095Y-115988152D02*
X160890476Y-116035771D01*
X160890476Y-116035771D02*
X160795238Y-116083390D01*
X160795238Y-116083390D02*
X160604762Y-116083390D01*
X160604762Y-116083390D02*
X160509524Y-116131009D01*
X160509524Y-116131009D02*
X160461905Y-116178628D01*
X160461905Y-116178628D02*
X160414286Y-116273866D01*
X160414286Y-116273866D02*
X160414286Y-116464342D01*
X160414286Y-116464342D02*
X160461905Y-116559580D01*
X160461905Y-116559580D02*
X160509524Y-116607200D01*
X160509524Y-116607200D02*
X160604762Y-116654819D01*
X160604762Y-116654819D02*
X160795238Y-116654819D01*
X160795238Y-116654819D02*
X160890476Y-116607200D01*
X160890476Y-116607200D02*
X160938095Y-116559580D01*
X160938095Y-116559580D02*
X160985714Y-116464342D01*
X160985714Y-116464342D02*
X160985714Y-116273866D01*
X160985714Y-116273866D02*
X160938095Y-116178628D01*
X160938095Y-116178628D02*
X160890476Y-116131009D01*
X160890476Y-116131009D02*
X160795238Y-116083390D01*
X166554819Y-105745238D02*
X166078628Y-106078571D01*
X166554819Y-106316666D02*
X165554819Y-106316666D01*
X165554819Y-106316666D02*
X165554819Y-105935714D01*
X165554819Y-105935714D02*
X165602438Y-105840476D01*
X165602438Y-105840476D02*
X165650057Y-105792857D01*
X165650057Y-105792857D02*
X165745295Y-105745238D01*
X165745295Y-105745238D02*
X165888152Y-105745238D01*
X165888152Y-105745238D02*
X165983390Y-105792857D01*
X165983390Y-105792857D02*
X166031009Y-105840476D01*
X166031009Y-105840476D02*
X166078628Y-105935714D01*
X166078628Y-105935714D02*
X166078628Y-106316666D01*
X165554819Y-105459523D02*
X166554819Y-105126190D01*
X166554819Y-105126190D02*
X165554819Y-104792857D01*
X165554819Y-103983333D02*
X165554819Y-104459523D01*
X165554819Y-104459523D02*
X166031009Y-104507142D01*
X166031009Y-104507142D02*
X165983390Y-104459523D01*
X165983390Y-104459523D02*
X165935771Y-104364285D01*
X165935771Y-104364285D02*
X165935771Y-104126190D01*
X165935771Y-104126190D02*
X165983390Y-104030952D01*
X165983390Y-104030952D02*
X166031009Y-103983333D01*
X166031009Y-103983333D02*
X166126247Y-103935714D01*
X166126247Y-103935714D02*
X166364342Y-103935714D01*
X166364342Y-103935714D02*
X166459580Y-103983333D01*
X166459580Y-103983333D02*
X166507200Y-104030952D01*
X166507200Y-104030952D02*
X166554819Y-104126190D01*
X166554819Y-104126190D02*
X166554819Y-104364285D01*
X166554819Y-104364285D02*
X166507200Y-104459523D01*
X166507200Y-104459523D02*
X166459580Y-104507142D01*
X176433333Y-83441903D02*
X176385714Y-83489523D01*
X176385714Y-83489523D02*
X176242857Y-83537142D01*
X176242857Y-83537142D02*
X176147619Y-83537142D01*
X176147619Y-83537142D02*
X176004762Y-83489523D01*
X176004762Y-83489523D02*
X175909524Y-83394284D01*
X175909524Y-83394284D02*
X175861905Y-83299046D01*
X175861905Y-83299046D02*
X175814286Y-83108570D01*
X175814286Y-83108570D02*
X175814286Y-82965713D01*
X175814286Y-82965713D02*
X175861905Y-82775237D01*
X175861905Y-82775237D02*
X175909524Y-82679999D01*
X175909524Y-82679999D02*
X176004762Y-82584761D01*
X176004762Y-82584761D02*
X176147619Y-82537142D01*
X176147619Y-82537142D02*
X176242857Y-82537142D01*
X176242857Y-82537142D02*
X176385714Y-82584761D01*
X176385714Y-82584761D02*
X176433333Y-82632380D01*
X176766667Y-82537142D02*
X177433333Y-82537142D01*
X177433333Y-82537142D02*
X177004762Y-83537142D01*
X169016666Y-119054819D02*
X169016666Y-119769104D01*
X169016666Y-119769104D02*
X168969047Y-119911961D01*
X168969047Y-119911961D02*
X168873809Y-120007200D01*
X168873809Y-120007200D02*
X168730952Y-120054819D01*
X168730952Y-120054819D02*
X168635714Y-120054819D01*
X169445238Y-119150057D02*
X169492857Y-119102438D01*
X169492857Y-119102438D02*
X169588095Y-119054819D01*
X169588095Y-119054819D02*
X169826190Y-119054819D01*
X169826190Y-119054819D02*
X169921428Y-119102438D01*
X169921428Y-119102438D02*
X169969047Y-119150057D01*
X169969047Y-119150057D02*
X170016666Y-119245295D01*
X170016666Y-119245295D02*
X170016666Y-119340533D01*
X170016666Y-119340533D02*
X169969047Y-119483390D01*
X169969047Y-119483390D02*
X169397619Y-120054819D01*
X169397619Y-120054819D02*
X170016666Y-120054819D01*
X138166667Y-82307200D02*
X138309524Y-82354819D01*
X138309524Y-82354819D02*
X138547619Y-82354819D01*
X138547619Y-82354819D02*
X138642857Y-82307200D01*
X138642857Y-82307200D02*
X138690476Y-82259580D01*
X138690476Y-82259580D02*
X138738095Y-82164342D01*
X138738095Y-82164342D02*
X138738095Y-82069104D01*
X138738095Y-82069104D02*
X138690476Y-81973866D01*
X138690476Y-81973866D02*
X138642857Y-81926247D01*
X138642857Y-81926247D02*
X138547619Y-81878628D01*
X138547619Y-81878628D02*
X138357143Y-81831009D01*
X138357143Y-81831009D02*
X138261905Y-81783390D01*
X138261905Y-81783390D02*
X138214286Y-81735771D01*
X138214286Y-81735771D02*
X138166667Y-81640533D01*
X138166667Y-81640533D02*
X138166667Y-81545295D01*
X138166667Y-81545295D02*
X138214286Y-81450057D01*
X138214286Y-81450057D02*
X138261905Y-81402438D01*
X138261905Y-81402438D02*
X138357143Y-81354819D01*
X138357143Y-81354819D02*
X138595238Y-81354819D01*
X138595238Y-81354819D02*
X138738095Y-81402438D01*
X139071429Y-81354819D02*
X139309524Y-82354819D01*
X139309524Y-82354819D02*
X139500000Y-81640533D01*
X139500000Y-81640533D02*
X139690476Y-82354819D01*
X139690476Y-82354819D02*
X139928572Y-81354819D01*
X140261905Y-81450057D02*
X140309524Y-81402438D01*
X140309524Y-81402438D02*
X140404762Y-81354819D01*
X140404762Y-81354819D02*
X140642857Y-81354819D01*
X140642857Y-81354819D02*
X140738095Y-81402438D01*
X140738095Y-81402438D02*
X140785714Y-81450057D01*
X140785714Y-81450057D02*
X140833333Y-81545295D01*
X140833333Y-81545295D02*
X140833333Y-81640533D01*
X140833333Y-81640533D02*
X140785714Y-81783390D01*
X140785714Y-81783390D02*
X140214286Y-82354819D01*
X140214286Y-82354819D02*
X140833333Y-82354819D01*
X145416667Y-82307200D02*
X145559524Y-82354819D01*
X145559524Y-82354819D02*
X145797619Y-82354819D01*
X145797619Y-82354819D02*
X145892857Y-82307200D01*
X145892857Y-82307200D02*
X145940476Y-82259580D01*
X145940476Y-82259580D02*
X145988095Y-82164342D01*
X145988095Y-82164342D02*
X145988095Y-82069104D01*
X145988095Y-82069104D02*
X145940476Y-81973866D01*
X145940476Y-81973866D02*
X145892857Y-81926247D01*
X145892857Y-81926247D02*
X145797619Y-81878628D01*
X145797619Y-81878628D02*
X145607143Y-81831009D01*
X145607143Y-81831009D02*
X145511905Y-81783390D01*
X145511905Y-81783390D02*
X145464286Y-81735771D01*
X145464286Y-81735771D02*
X145416667Y-81640533D01*
X145416667Y-81640533D02*
X145416667Y-81545295D01*
X145416667Y-81545295D02*
X145464286Y-81450057D01*
X145464286Y-81450057D02*
X145511905Y-81402438D01*
X145511905Y-81402438D02*
X145607143Y-81354819D01*
X145607143Y-81354819D02*
X145845238Y-81354819D01*
X145845238Y-81354819D02*
X145988095Y-81402438D01*
X146321429Y-81354819D02*
X146559524Y-82354819D01*
X146559524Y-82354819D02*
X146750000Y-81640533D01*
X146750000Y-81640533D02*
X146940476Y-82354819D01*
X146940476Y-82354819D02*
X147178572Y-81354819D01*
X148083333Y-82354819D02*
X147511905Y-82354819D01*
X147797619Y-82354819D02*
X147797619Y-81354819D01*
X147797619Y-81354819D02*
X147702381Y-81497676D01*
X147702381Y-81497676D02*
X147607143Y-81592914D01*
X147607143Y-81592914D02*
X147511905Y-81640533D01*
X155454761Y-120054819D02*
X155121428Y-119578628D01*
X154883333Y-120054819D02*
X154883333Y-119054819D01*
X154883333Y-119054819D02*
X155264285Y-119054819D01*
X155264285Y-119054819D02*
X155359523Y-119102438D01*
X155359523Y-119102438D02*
X155407142Y-119150057D01*
X155407142Y-119150057D02*
X155454761Y-119245295D01*
X155454761Y-119245295D02*
X155454761Y-119388152D01*
X155454761Y-119388152D02*
X155407142Y-119483390D01*
X155407142Y-119483390D02*
X155359523Y-119531009D01*
X155359523Y-119531009D02*
X155264285Y-119578628D01*
X155264285Y-119578628D02*
X154883333Y-119578628D01*
X155740476Y-119054819D02*
X156073809Y-120054819D01*
X156073809Y-120054819D02*
X156407142Y-119054819D01*
X156883333Y-119483390D02*
X156788095Y-119435771D01*
X156788095Y-119435771D02*
X156740476Y-119388152D01*
X156740476Y-119388152D02*
X156692857Y-119292914D01*
X156692857Y-119292914D02*
X156692857Y-119245295D01*
X156692857Y-119245295D02*
X156740476Y-119150057D01*
X156740476Y-119150057D02*
X156788095Y-119102438D01*
X156788095Y-119102438D02*
X156883333Y-119054819D01*
X156883333Y-119054819D02*
X157073809Y-119054819D01*
X157073809Y-119054819D02*
X157169047Y-119102438D01*
X157169047Y-119102438D02*
X157216666Y-119150057D01*
X157216666Y-119150057D02*
X157264285Y-119245295D01*
X157264285Y-119245295D02*
X157264285Y-119292914D01*
X157264285Y-119292914D02*
X157216666Y-119388152D01*
X157216666Y-119388152D02*
X157169047Y-119435771D01*
X157169047Y-119435771D02*
X157073809Y-119483390D01*
X157073809Y-119483390D02*
X156883333Y-119483390D01*
X156883333Y-119483390D02*
X156788095Y-119531009D01*
X156788095Y-119531009D02*
X156740476Y-119578628D01*
X156740476Y-119578628D02*
X156692857Y-119673866D01*
X156692857Y-119673866D02*
X156692857Y-119864342D01*
X156692857Y-119864342D02*
X156740476Y-119959580D01*
X156740476Y-119959580D02*
X156788095Y-120007200D01*
X156788095Y-120007200D02*
X156883333Y-120054819D01*
X156883333Y-120054819D02*
X157073809Y-120054819D01*
X157073809Y-120054819D02*
X157169047Y-120007200D01*
X157169047Y-120007200D02*
X157216666Y-119959580D01*
X157216666Y-119959580D02*
X157264285Y-119864342D01*
X157264285Y-119864342D02*
X157264285Y-119673866D01*
X157264285Y-119673866D02*
X157216666Y-119578628D01*
X157216666Y-119578628D02*
X157169047Y-119531009D01*
X157169047Y-119531009D02*
X157073809Y-119483390D01*
X163054761Y-82354819D02*
X162721428Y-81878628D01*
X162483333Y-82354819D02*
X162483333Y-81354819D01*
X162483333Y-81354819D02*
X162864285Y-81354819D01*
X162864285Y-81354819D02*
X162959523Y-81402438D01*
X162959523Y-81402438D02*
X163007142Y-81450057D01*
X163007142Y-81450057D02*
X163054761Y-81545295D01*
X163054761Y-81545295D02*
X163054761Y-81688152D01*
X163054761Y-81688152D02*
X163007142Y-81783390D01*
X163007142Y-81783390D02*
X162959523Y-81831009D01*
X162959523Y-81831009D02*
X162864285Y-81878628D01*
X162864285Y-81878628D02*
X162483333Y-81878628D01*
X163340476Y-81354819D02*
X163673809Y-82354819D01*
X163673809Y-82354819D02*
X164007142Y-81354819D01*
X164245238Y-81354819D02*
X164911904Y-81354819D01*
X164911904Y-81354819D02*
X164483333Y-82354819D01*
X166554819Y-97545238D02*
X166078628Y-97878571D01*
X166554819Y-98116666D02*
X165554819Y-98116666D01*
X165554819Y-98116666D02*
X165554819Y-97735714D01*
X165554819Y-97735714D02*
X165602438Y-97640476D01*
X165602438Y-97640476D02*
X165650057Y-97592857D01*
X165650057Y-97592857D02*
X165745295Y-97545238D01*
X165745295Y-97545238D02*
X165888152Y-97545238D01*
X165888152Y-97545238D02*
X165983390Y-97592857D01*
X165983390Y-97592857D02*
X166031009Y-97640476D01*
X166031009Y-97640476D02*
X166078628Y-97735714D01*
X166078628Y-97735714D02*
X166078628Y-98116666D01*
X165554819Y-97259523D02*
X166554819Y-96926190D01*
X166554819Y-96926190D02*
X165554819Y-96592857D01*
X165554819Y-95830952D02*
X165554819Y-96021428D01*
X165554819Y-96021428D02*
X165602438Y-96116666D01*
X165602438Y-96116666D02*
X165650057Y-96164285D01*
X165650057Y-96164285D02*
X165792914Y-96259523D01*
X165792914Y-96259523D02*
X165983390Y-96307142D01*
X165983390Y-96307142D02*
X166364342Y-96307142D01*
X166364342Y-96307142D02*
X166459580Y-96259523D01*
X166459580Y-96259523D02*
X166507200Y-96211904D01*
X166507200Y-96211904D02*
X166554819Y-96116666D01*
X166554819Y-96116666D02*
X166554819Y-95926190D01*
X166554819Y-95926190D02*
X166507200Y-95830952D01*
X166507200Y-95830952D02*
X166459580Y-95783333D01*
X166459580Y-95783333D02*
X166364342Y-95735714D01*
X166364342Y-95735714D02*
X166126247Y-95735714D01*
X166126247Y-95735714D02*
X166031009Y-95783333D01*
X166031009Y-95783333D02*
X165983390Y-95830952D01*
X165983390Y-95830952D02*
X165935771Y-95926190D01*
X165935771Y-95926190D02*
X165935771Y-96116666D01*
X165935771Y-96116666D02*
X165983390Y-96211904D01*
X165983390Y-96211904D02*
X166031009Y-96259523D01*
X166031009Y-96259523D02*
X166126247Y-96307142D01*
X135354819Y-118095238D02*
X134878628Y-118428571D01*
X135354819Y-118666666D02*
X134354819Y-118666666D01*
X134354819Y-118666666D02*
X134354819Y-118285714D01*
X134354819Y-118285714D02*
X134402438Y-118190476D01*
X134402438Y-118190476D02*
X134450057Y-118142857D01*
X134450057Y-118142857D02*
X134545295Y-118095238D01*
X134545295Y-118095238D02*
X134688152Y-118095238D01*
X134688152Y-118095238D02*
X134783390Y-118142857D01*
X134783390Y-118142857D02*
X134831009Y-118190476D01*
X134831009Y-118190476D02*
X134878628Y-118285714D01*
X134878628Y-118285714D02*
X134878628Y-118666666D01*
X134354819Y-117809523D02*
X135354819Y-117476190D01*
X135354819Y-117476190D02*
X134354819Y-117142857D01*
X134688152Y-116380952D02*
X135354819Y-116380952D01*
X134307200Y-116619047D02*
X135021485Y-116857142D01*
X135021485Y-116857142D02*
X135021485Y-116238095D01*
X135354819Y-111095238D02*
X134878628Y-111428571D01*
X135354819Y-111666666D02*
X134354819Y-111666666D01*
X134354819Y-111666666D02*
X134354819Y-111285714D01*
X134354819Y-111285714D02*
X134402438Y-111190476D01*
X134402438Y-111190476D02*
X134450057Y-111142857D01*
X134450057Y-111142857D02*
X134545295Y-111095238D01*
X134545295Y-111095238D02*
X134688152Y-111095238D01*
X134688152Y-111095238D02*
X134783390Y-111142857D01*
X134783390Y-111142857D02*
X134831009Y-111190476D01*
X134831009Y-111190476D02*
X134878628Y-111285714D01*
X134878628Y-111285714D02*
X134878628Y-111666666D01*
X134354819Y-110809523D02*
X135354819Y-110476190D01*
X135354819Y-110476190D02*
X134354819Y-110142857D01*
X134354819Y-109904761D02*
X134354819Y-109285714D01*
X134354819Y-109285714D02*
X134735771Y-109619047D01*
X134735771Y-109619047D02*
X134735771Y-109476190D01*
X134735771Y-109476190D02*
X134783390Y-109380952D01*
X134783390Y-109380952D02*
X134831009Y-109333333D01*
X134831009Y-109333333D02*
X134926247Y-109285714D01*
X134926247Y-109285714D02*
X135164342Y-109285714D01*
X135164342Y-109285714D02*
X135259580Y-109333333D01*
X135259580Y-109333333D02*
X135307200Y-109380952D01*
X135307200Y-109380952D02*
X135354819Y-109476190D01*
X135354819Y-109476190D02*
X135354819Y-109761904D01*
X135354819Y-109761904D02*
X135307200Y-109857142D01*
X135307200Y-109857142D02*
X135259580Y-109904761D01*
X135354819Y-104095238D02*
X134878628Y-104428571D01*
X135354819Y-104666666D02*
X134354819Y-104666666D01*
X134354819Y-104666666D02*
X134354819Y-104285714D01*
X134354819Y-104285714D02*
X134402438Y-104190476D01*
X134402438Y-104190476D02*
X134450057Y-104142857D01*
X134450057Y-104142857D02*
X134545295Y-104095238D01*
X134545295Y-104095238D02*
X134688152Y-104095238D01*
X134688152Y-104095238D02*
X134783390Y-104142857D01*
X134783390Y-104142857D02*
X134831009Y-104190476D01*
X134831009Y-104190476D02*
X134878628Y-104285714D01*
X134878628Y-104285714D02*
X134878628Y-104666666D01*
X134354819Y-103809523D02*
X135354819Y-103476190D01*
X135354819Y-103476190D02*
X134354819Y-103142857D01*
X134450057Y-102857142D02*
X134402438Y-102809523D01*
X134402438Y-102809523D02*
X134354819Y-102714285D01*
X134354819Y-102714285D02*
X134354819Y-102476190D01*
X134354819Y-102476190D02*
X134402438Y-102380952D01*
X134402438Y-102380952D02*
X134450057Y-102333333D01*
X134450057Y-102333333D02*
X134545295Y-102285714D01*
X134545295Y-102285714D02*
X134640533Y-102285714D01*
X134640533Y-102285714D02*
X134783390Y-102333333D01*
X134783390Y-102333333D02*
X135354819Y-102904761D01*
X135354819Y-102904761D02*
X135354819Y-102285714D01*
X135354819Y-97095238D02*
X134878628Y-97428571D01*
X135354819Y-97666666D02*
X134354819Y-97666666D01*
X134354819Y-97666666D02*
X134354819Y-97285714D01*
X134354819Y-97285714D02*
X134402438Y-97190476D01*
X134402438Y-97190476D02*
X134450057Y-97142857D01*
X134450057Y-97142857D02*
X134545295Y-97095238D01*
X134545295Y-97095238D02*
X134688152Y-97095238D01*
X134688152Y-97095238D02*
X134783390Y-97142857D01*
X134783390Y-97142857D02*
X134831009Y-97190476D01*
X134831009Y-97190476D02*
X134878628Y-97285714D01*
X134878628Y-97285714D02*
X134878628Y-97666666D01*
X134354819Y-96809523D02*
X135354819Y-96476190D01*
X135354819Y-96476190D02*
X134354819Y-96142857D01*
X135354819Y-95285714D02*
X135354819Y-95857142D01*
X135354819Y-95571428D02*
X134354819Y-95571428D01*
X134354819Y-95571428D02*
X134497676Y-95666666D01*
X134497676Y-95666666D02*
X134592914Y-95761904D01*
X134592914Y-95761904D02*
X134640533Y-95857142D01*
X152011905Y-82354819D02*
X152011905Y-81354819D01*
X152011905Y-81354819D02*
X152250000Y-81354819D01*
X152250000Y-81354819D02*
X152392857Y-81402438D01*
X152392857Y-81402438D02*
X152488095Y-81497676D01*
X152488095Y-81497676D02*
X152535714Y-81592914D01*
X152535714Y-81592914D02*
X152583333Y-81783390D01*
X152583333Y-81783390D02*
X152583333Y-81926247D01*
X152583333Y-81926247D02*
X152535714Y-82116723D01*
X152535714Y-82116723D02*
X152488095Y-82211961D01*
X152488095Y-82211961D02*
X152392857Y-82307200D01*
X152392857Y-82307200D02*
X152250000Y-82354819D01*
X152250000Y-82354819D02*
X152011905Y-82354819D01*
X152964286Y-81450057D02*
X153011905Y-81402438D01*
X153011905Y-81402438D02*
X153107143Y-81354819D01*
X153107143Y-81354819D02*
X153345238Y-81354819D01*
X153345238Y-81354819D02*
X153440476Y-81402438D01*
X153440476Y-81402438D02*
X153488095Y-81450057D01*
X153488095Y-81450057D02*
X153535714Y-81545295D01*
X153535714Y-81545295D02*
X153535714Y-81640533D01*
X153535714Y-81640533D02*
X153488095Y-81783390D01*
X153488095Y-81783390D02*
X152916667Y-82354819D01*
X152916667Y-82354819D02*
X153535714Y-82354819D01*
X140633333Y-109394580D02*
X140585714Y-109442200D01*
X140585714Y-109442200D02*
X140442857Y-109489819D01*
X140442857Y-109489819D02*
X140347619Y-109489819D01*
X140347619Y-109489819D02*
X140204762Y-109442200D01*
X140204762Y-109442200D02*
X140109524Y-109346961D01*
X140109524Y-109346961D02*
X140061905Y-109251723D01*
X140061905Y-109251723D02*
X140014286Y-109061247D01*
X140014286Y-109061247D02*
X140014286Y-108918390D01*
X140014286Y-108918390D02*
X140061905Y-108727914D01*
X140061905Y-108727914D02*
X140109524Y-108632676D01*
X140109524Y-108632676D02*
X140204762Y-108537438D01*
X140204762Y-108537438D02*
X140347619Y-108489819D01*
X140347619Y-108489819D02*
X140442857Y-108489819D01*
X140442857Y-108489819D02*
X140585714Y-108537438D01*
X140585714Y-108537438D02*
X140633333Y-108585057D01*
X140966667Y-108489819D02*
X141585714Y-108489819D01*
X141585714Y-108489819D02*
X141252381Y-108870771D01*
X141252381Y-108870771D02*
X141395238Y-108870771D01*
X141395238Y-108870771D02*
X141490476Y-108918390D01*
X141490476Y-108918390D02*
X141538095Y-108966009D01*
X141538095Y-108966009D02*
X141585714Y-109061247D01*
X141585714Y-109061247D02*
X141585714Y-109299342D01*
X141585714Y-109299342D02*
X141538095Y-109394580D01*
X141538095Y-109394580D02*
X141490476Y-109442200D01*
X141490476Y-109442200D02*
X141395238Y-109489819D01*
X141395238Y-109489819D02*
X141109524Y-109489819D01*
X141109524Y-109489819D02*
X141014286Y-109442200D01*
X141014286Y-109442200D02*
X140966667Y-109394580D01*
X150460418Y-93609819D02*
X150460418Y-94419342D01*
X150460418Y-94419342D02*
X150508037Y-94514580D01*
X150508037Y-94514580D02*
X150555656Y-94562200D01*
X150555656Y-94562200D02*
X150650894Y-94609819D01*
X150650894Y-94609819D02*
X150841370Y-94609819D01*
X150841370Y-94609819D02*
X150936608Y-94562200D01*
X150936608Y-94562200D02*
X150984227Y-94514580D01*
X150984227Y-94514580D02*
X151031846Y-94419342D01*
X151031846Y-94419342D02*
X151031846Y-93609819D01*
X152031846Y-94609819D02*
X151460418Y-94609819D01*
X151746132Y-94609819D02*
X151746132Y-93609819D01*
X151746132Y-93609819D02*
X151650894Y-93752676D01*
X151650894Y-93752676D02*
X151555656Y-93847914D01*
X151555656Y-93847914D02*
X151460418Y-93895533D01*
X166807142Y-84159580D02*
X166759523Y-84207200D01*
X166759523Y-84207200D02*
X166616666Y-84254819D01*
X166616666Y-84254819D02*
X166521428Y-84254819D01*
X166521428Y-84254819D02*
X166378571Y-84207200D01*
X166378571Y-84207200D02*
X166283333Y-84111961D01*
X166283333Y-84111961D02*
X166235714Y-84016723D01*
X166235714Y-84016723D02*
X166188095Y-83826247D01*
X166188095Y-83826247D02*
X166188095Y-83683390D01*
X166188095Y-83683390D02*
X166235714Y-83492914D01*
X166235714Y-83492914D02*
X166283333Y-83397676D01*
X166283333Y-83397676D02*
X166378571Y-83302438D01*
X166378571Y-83302438D02*
X166521428Y-83254819D01*
X166521428Y-83254819D02*
X166616666Y-83254819D01*
X166616666Y-83254819D02*
X166759523Y-83302438D01*
X166759523Y-83302438D02*
X166807142Y-83350057D01*
X167759523Y-84254819D02*
X167188095Y-84254819D01*
X167473809Y-84254819D02*
X167473809Y-83254819D01*
X167473809Y-83254819D02*
X167378571Y-83397676D01*
X167378571Y-83397676D02*
X167283333Y-83492914D01*
X167283333Y-83492914D02*
X167188095Y-83540533D01*
X168711904Y-84254819D02*
X168140476Y-84254819D01*
X168426190Y-84254819D02*
X168426190Y-83254819D01*
X168426190Y-83254819D02*
X168330952Y-83397676D01*
X168330952Y-83397676D02*
X168235714Y-83492914D01*
X168235714Y-83492914D02*
X168140476Y-83540533D01*
X158957142Y-91359580D02*
X158909523Y-91407200D01*
X158909523Y-91407200D02*
X158766666Y-91454819D01*
X158766666Y-91454819D02*
X158671428Y-91454819D01*
X158671428Y-91454819D02*
X158528571Y-91407200D01*
X158528571Y-91407200D02*
X158433333Y-91311961D01*
X158433333Y-91311961D02*
X158385714Y-91216723D01*
X158385714Y-91216723D02*
X158338095Y-91026247D01*
X158338095Y-91026247D02*
X158338095Y-90883390D01*
X158338095Y-90883390D02*
X158385714Y-90692914D01*
X158385714Y-90692914D02*
X158433333Y-90597676D01*
X158433333Y-90597676D02*
X158528571Y-90502438D01*
X158528571Y-90502438D02*
X158671428Y-90454819D01*
X158671428Y-90454819D02*
X158766666Y-90454819D01*
X158766666Y-90454819D02*
X158909523Y-90502438D01*
X158909523Y-90502438D02*
X158957142Y-90550057D01*
X159909523Y-91454819D02*
X159338095Y-91454819D01*
X159623809Y-91454819D02*
X159623809Y-90454819D01*
X159623809Y-90454819D02*
X159528571Y-90597676D01*
X159528571Y-90597676D02*
X159433333Y-90692914D01*
X159433333Y-90692914D02*
X159338095Y-90740533D01*
X160528571Y-90454819D02*
X160623809Y-90454819D01*
X160623809Y-90454819D02*
X160719047Y-90502438D01*
X160719047Y-90502438D02*
X160766666Y-90550057D01*
X160766666Y-90550057D02*
X160814285Y-90645295D01*
X160814285Y-90645295D02*
X160861904Y-90835771D01*
X160861904Y-90835771D02*
X160861904Y-91073866D01*
X160861904Y-91073866D02*
X160814285Y-91264342D01*
X160814285Y-91264342D02*
X160766666Y-91359580D01*
X160766666Y-91359580D02*
X160719047Y-91407200D01*
X160719047Y-91407200D02*
X160623809Y-91454819D01*
X160623809Y-91454819D02*
X160528571Y-91454819D01*
X160528571Y-91454819D02*
X160433333Y-91407200D01*
X160433333Y-91407200D02*
X160385714Y-91359580D01*
X160385714Y-91359580D02*
X160338095Y-91264342D01*
X160338095Y-91264342D02*
X160290476Y-91073866D01*
X160290476Y-91073866D02*
X160290476Y-90835771D01*
X160290476Y-90835771D02*
X160338095Y-90645295D01*
X160338095Y-90645295D02*
X160385714Y-90550057D01*
X160385714Y-90550057D02*
X160433333Y-90502438D01*
X160433333Y-90502438D02*
X160528571Y-90454819D01*
X140625656Y-95489819D02*
X140292323Y-95013628D01*
X140054228Y-95489819D02*
X140054228Y-94489819D01*
X140054228Y-94489819D02*
X140435180Y-94489819D01*
X140435180Y-94489819D02*
X140530418Y-94537438D01*
X140530418Y-94537438D02*
X140578037Y-94585057D01*
X140578037Y-94585057D02*
X140625656Y-94680295D01*
X140625656Y-94680295D02*
X140625656Y-94823152D01*
X140625656Y-94823152D02*
X140578037Y-94918390D01*
X140578037Y-94918390D02*
X140530418Y-94966009D01*
X140530418Y-94966009D02*
X140435180Y-95013628D01*
X140435180Y-95013628D02*
X140054228Y-95013628D01*
X141578037Y-95489819D02*
X141006609Y-95489819D01*
X141292323Y-95489819D02*
X141292323Y-94489819D01*
X141292323Y-94489819D02*
X141197085Y-94632676D01*
X141197085Y-94632676D02*
X141101847Y-94727914D01*
X141101847Y-94727914D02*
X141006609Y-94775533D01*
X160637142Y-104554819D02*
X160303809Y-104078628D01*
X160065714Y-104554819D02*
X160065714Y-103554819D01*
X160065714Y-103554819D02*
X160446666Y-103554819D01*
X160446666Y-103554819D02*
X160541904Y-103602438D01*
X160541904Y-103602438D02*
X160589523Y-103650057D01*
X160589523Y-103650057D02*
X160637142Y-103745295D01*
X160637142Y-103745295D02*
X160637142Y-103888152D01*
X160637142Y-103888152D02*
X160589523Y-103983390D01*
X160589523Y-103983390D02*
X160541904Y-104031009D01*
X160541904Y-104031009D02*
X160446666Y-104078628D01*
X160446666Y-104078628D02*
X160065714Y-104078628D01*
X161589523Y-104554819D02*
X161018095Y-104554819D01*
X161303809Y-104554819D02*
X161303809Y-103554819D01*
X161303809Y-103554819D02*
X161208571Y-103697676D01*
X161208571Y-103697676D02*
X161113333Y-103792914D01*
X161113333Y-103792914D02*
X161018095Y-103840533D01*
X162541904Y-104554819D02*
X161970476Y-104554819D01*
X162256190Y-104554819D02*
X162256190Y-103554819D01*
X162256190Y-103554819D02*
X162160952Y-103697676D01*
X162160952Y-103697676D02*
X162065714Y-103792914D01*
X162065714Y-103792914D02*
X161970476Y-103840533D01*
X140625656Y-117354819D02*
X140292323Y-116878628D01*
X140054228Y-117354819D02*
X140054228Y-116354819D01*
X140054228Y-116354819D02*
X140435180Y-116354819D01*
X140435180Y-116354819D02*
X140530418Y-116402438D01*
X140530418Y-116402438D02*
X140578037Y-116450057D01*
X140578037Y-116450057D02*
X140625656Y-116545295D01*
X140625656Y-116545295D02*
X140625656Y-116688152D01*
X140625656Y-116688152D02*
X140578037Y-116783390D01*
X140578037Y-116783390D02*
X140530418Y-116831009D01*
X140530418Y-116831009D02*
X140435180Y-116878628D01*
X140435180Y-116878628D02*
X140054228Y-116878628D01*
X141482799Y-116688152D02*
X141482799Y-117354819D01*
X141244704Y-116307200D02*
X141006609Y-117021485D01*
X141006609Y-117021485D02*
X141625656Y-117021485D01*
X140665656Y-92394580D02*
X140618037Y-92442200D01*
X140618037Y-92442200D02*
X140475180Y-92489819D01*
X140475180Y-92489819D02*
X140379942Y-92489819D01*
X140379942Y-92489819D02*
X140237085Y-92442200D01*
X140237085Y-92442200D02*
X140141847Y-92346961D01*
X140141847Y-92346961D02*
X140094228Y-92251723D01*
X140094228Y-92251723D02*
X140046609Y-92061247D01*
X140046609Y-92061247D02*
X140046609Y-91918390D01*
X140046609Y-91918390D02*
X140094228Y-91727914D01*
X140094228Y-91727914D02*
X140141847Y-91632676D01*
X140141847Y-91632676D02*
X140237085Y-91537438D01*
X140237085Y-91537438D02*
X140379942Y-91489819D01*
X140379942Y-91489819D02*
X140475180Y-91489819D01*
X140475180Y-91489819D02*
X140618037Y-91537438D01*
X140618037Y-91537438D02*
X140665656Y-91585057D01*
X141618037Y-92489819D02*
X141046609Y-92489819D01*
X141332323Y-92489819D02*
X141332323Y-91489819D01*
X141332323Y-91489819D02*
X141237085Y-91632676D01*
X141237085Y-91632676D02*
X141141847Y-91727914D01*
X141141847Y-91727914D02*
X141046609Y-91775533D01*
X151065656Y-92419580D02*
X151018037Y-92467200D01*
X151018037Y-92467200D02*
X150875180Y-92514819D01*
X150875180Y-92514819D02*
X150779942Y-92514819D01*
X150779942Y-92514819D02*
X150637085Y-92467200D01*
X150637085Y-92467200D02*
X150541847Y-92371961D01*
X150541847Y-92371961D02*
X150494228Y-92276723D01*
X150494228Y-92276723D02*
X150446609Y-92086247D01*
X150446609Y-92086247D02*
X150446609Y-91943390D01*
X150446609Y-91943390D02*
X150494228Y-91752914D01*
X150494228Y-91752914D02*
X150541847Y-91657676D01*
X150541847Y-91657676D02*
X150637085Y-91562438D01*
X150637085Y-91562438D02*
X150779942Y-91514819D01*
X150779942Y-91514819D02*
X150875180Y-91514819D01*
X150875180Y-91514819D02*
X151018037Y-91562438D01*
X151018037Y-91562438D02*
X151065656Y-91610057D01*
X151970418Y-91514819D02*
X151494228Y-91514819D01*
X151494228Y-91514819D02*
X151446609Y-91991009D01*
X151446609Y-91991009D02*
X151494228Y-91943390D01*
X151494228Y-91943390D02*
X151589466Y-91895771D01*
X151589466Y-91895771D02*
X151827561Y-91895771D01*
X151827561Y-91895771D02*
X151922799Y-91943390D01*
X151922799Y-91943390D02*
X151970418Y-91991009D01*
X151970418Y-91991009D02*
X152018037Y-92086247D01*
X152018037Y-92086247D02*
X152018037Y-92324342D01*
X152018037Y-92324342D02*
X151970418Y-92419580D01*
X151970418Y-92419580D02*
X151922799Y-92467200D01*
X151922799Y-92467200D02*
X151827561Y-92514819D01*
X151827561Y-92514819D02*
X151589466Y-92514819D01*
X151589466Y-92514819D02*
X151494228Y-92467200D01*
X151494228Y-92467200D02*
X151446609Y-92419580D01*
X140593333Y-106489819D02*
X140260000Y-106013628D01*
X140021905Y-106489819D02*
X140021905Y-105489819D01*
X140021905Y-105489819D02*
X140402857Y-105489819D01*
X140402857Y-105489819D02*
X140498095Y-105537438D01*
X140498095Y-105537438D02*
X140545714Y-105585057D01*
X140545714Y-105585057D02*
X140593333Y-105680295D01*
X140593333Y-105680295D02*
X140593333Y-105823152D01*
X140593333Y-105823152D02*
X140545714Y-105918390D01*
X140545714Y-105918390D02*
X140498095Y-105966009D01*
X140498095Y-105966009D02*
X140402857Y-106013628D01*
X140402857Y-106013628D02*
X140021905Y-106013628D01*
X141450476Y-105489819D02*
X141260000Y-105489819D01*
X141260000Y-105489819D02*
X141164762Y-105537438D01*
X141164762Y-105537438D02*
X141117143Y-105585057D01*
X141117143Y-105585057D02*
X141021905Y-105727914D01*
X141021905Y-105727914D02*
X140974286Y-105918390D01*
X140974286Y-105918390D02*
X140974286Y-106299342D01*
X140974286Y-106299342D02*
X141021905Y-106394580D01*
X141021905Y-106394580D02*
X141069524Y-106442200D01*
X141069524Y-106442200D02*
X141164762Y-106489819D01*
X141164762Y-106489819D02*
X141355238Y-106489819D01*
X141355238Y-106489819D02*
X141450476Y-106442200D01*
X141450476Y-106442200D02*
X141498095Y-106394580D01*
X141498095Y-106394580D02*
X141545714Y-106299342D01*
X141545714Y-106299342D02*
X141545714Y-106061247D01*
X141545714Y-106061247D02*
X141498095Y-105966009D01*
X141498095Y-105966009D02*
X141450476Y-105918390D01*
X141450476Y-105918390D02*
X141355238Y-105870771D01*
X141355238Y-105870771D02*
X141164762Y-105870771D01*
X141164762Y-105870771D02*
X141069524Y-105918390D01*
X141069524Y-105918390D02*
X141021905Y-105966009D01*
X141021905Y-105966009D02*
X140974286Y-106061247D01*
X141695705Y-89024619D02*
X141695705Y-88024619D01*
X141695705Y-88024619D02*
X141933800Y-88024619D01*
X141933800Y-88024619D02*
X142076657Y-88072238D01*
X142076657Y-88072238D02*
X142171895Y-88167476D01*
X142171895Y-88167476D02*
X142219514Y-88262714D01*
X142219514Y-88262714D02*
X142267133Y-88453190D01*
X142267133Y-88453190D02*
X142267133Y-88596047D01*
X142267133Y-88596047D02*
X142219514Y-88786523D01*
X142219514Y-88786523D02*
X142171895Y-88881761D01*
X142171895Y-88881761D02*
X142076657Y-88977000D01*
X142076657Y-88977000D02*
X141933800Y-89024619D01*
X141933800Y-89024619D02*
X141695705Y-89024619D01*
X143124276Y-88357952D02*
X143124276Y-89024619D01*
X142886181Y-87977000D02*
X142648086Y-88691285D01*
X142648086Y-88691285D02*
X143267133Y-88691285D01*
X147871895Y-88824619D02*
X147871895Y-87824619D01*
X148443323Y-88824619D02*
X148014752Y-88253190D01*
X148443323Y-87824619D02*
X147871895Y-88396047D01*
X141481905Y-86094819D02*
X141481905Y-85094819D01*
X141481905Y-85094819D02*
X141720000Y-85094819D01*
X141720000Y-85094819D02*
X141862857Y-85142438D01*
X141862857Y-85142438D02*
X141958095Y-85237676D01*
X141958095Y-85237676D02*
X142005714Y-85332914D01*
X142005714Y-85332914D02*
X142053333Y-85523390D01*
X142053333Y-85523390D02*
X142053333Y-85666247D01*
X142053333Y-85666247D02*
X142005714Y-85856723D01*
X142005714Y-85856723D02*
X141958095Y-85951961D01*
X141958095Y-85951961D02*
X141862857Y-86047200D01*
X141862857Y-86047200D02*
X141720000Y-86094819D01*
X141720000Y-86094819D02*
X141481905Y-86094819D01*
X142386667Y-85094819D02*
X143005714Y-85094819D01*
X143005714Y-85094819D02*
X142672381Y-85475771D01*
X142672381Y-85475771D02*
X142815238Y-85475771D01*
X142815238Y-85475771D02*
X142910476Y-85523390D01*
X142910476Y-85523390D02*
X142958095Y-85571009D01*
X142958095Y-85571009D02*
X143005714Y-85666247D01*
X143005714Y-85666247D02*
X143005714Y-85904342D01*
X143005714Y-85904342D02*
X142958095Y-85999580D01*
X142958095Y-85999580D02*
X142910476Y-86047200D01*
X142910476Y-86047200D02*
X142815238Y-86094819D01*
X142815238Y-86094819D02*
X142529524Y-86094819D01*
X142529524Y-86094819D02*
X142434286Y-86047200D01*
X142434286Y-86047200D02*
X142386667Y-85999580D01*
X147858095Y-86094819D02*
X147858095Y-85094819D01*
X148429523Y-86094819D02*
X148000952Y-85523390D01*
X148429523Y-85094819D02*
X147858095Y-85666247D01*
X151033333Y-116159580D02*
X150985714Y-116207200D01*
X150985714Y-116207200D02*
X150842857Y-116254819D01*
X150842857Y-116254819D02*
X150747619Y-116254819D01*
X150747619Y-116254819D02*
X150604762Y-116207200D01*
X150604762Y-116207200D02*
X150509524Y-116111961D01*
X150509524Y-116111961D02*
X150461905Y-116016723D01*
X150461905Y-116016723D02*
X150414286Y-115826247D01*
X150414286Y-115826247D02*
X150414286Y-115683390D01*
X150414286Y-115683390D02*
X150461905Y-115492914D01*
X150461905Y-115492914D02*
X150509524Y-115397676D01*
X150509524Y-115397676D02*
X150604762Y-115302438D01*
X150604762Y-115302438D02*
X150747619Y-115254819D01*
X150747619Y-115254819D02*
X150842857Y-115254819D01*
X150842857Y-115254819D02*
X150985714Y-115302438D01*
X150985714Y-115302438D02*
X151033333Y-115350057D01*
X151890476Y-115588152D02*
X151890476Y-116254819D01*
X151652381Y-115207200D02*
X151414286Y-115921485D01*
X151414286Y-115921485D02*
X152033333Y-115921485D01*
X160637142Y-102054819D02*
X160303809Y-101578628D01*
X160065714Y-102054819D02*
X160065714Y-101054819D01*
X160065714Y-101054819D02*
X160446666Y-101054819D01*
X160446666Y-101054819D02*
X160541904Y-101102438D01*
X160541904Y-101102438D02*
X160589523Y-101150057D01*
X160589523Y-101150057D02*
X160637142Y-101245295D01*
X160637142Y-101245295D02*
X160637142Y-101388152D01*
X160637142Y-101388152D02*
X160589523Y-101483390D01*
X160589523Y-101483390D02*
X160541904Y-101531009D01*
X160541904Y-101531009D02*
X160446666Y-101578628D01*
X160446666Y-101578628D02*
X160065714Y-101578628D01*
X161589523Y-102054819D02*
X161018095Y-102054819D01*
X161303809Y-102054819D02*
X161303809Y-101054819D01*
X161303809Y-101054819D02*
X161208571Y-101197676D01*
X161208571Y-101197676D02*
X161113333Y-101292914D01*
X161113333Y-101292914D02*
X161018095Y-101340533D01*
X162446666Y-101388152D02*
X162446666Y-102054819D01*
X162208571Y-101007200D02*
X161970476Y-101721485D01*
X161970476Y-101721485D02*
X162589523Y-101721485D01*
X140693333Y-112454819D02*
X140360000Y-111978628D01*
X140121905Y-112454819D02*
X140121905Y-111454819D01*
X140121905Y-111454819D02*
X140502857Y-111454819D01*
X140502857Y-111454819D02*
X140598095Y-111502438D01*
X140598095Y-111502438D02*
X140645714Y-111550057D01*
X140645714Y-111550057D02*
X140693333Y-111645295D01*
X140693333Y-111645295D02*
X140693333Y-111788152D01*
X140693333Y-111788152D02*
X140645714Y-111883390D01*
X140645714Y-111883390D02*
X140598095Y-111931009D01*
X140598095Y-111931009D02*
X140502857Y-111978628D01*
X140502857Y-111978628D02*
X140121905Y-111978628D01*
X141026667Y-111454819D02*
X141645714Y-111454819D01*
X141645714Y-111454819D02*
X141312381Y-111835771D01*
X141312381Y-111835771D02*
X141455238Y-111835771D01*
X141455238Y-111835771D02*
X141550476Y-111883390D01*
X141550476Y-111883390D02*
X141598095Y-111931009D01*
X141598095Y-111931009D02*
X141645714Y-112026247D01*
X141645714Y-112026247D02*
X141645714Y-112264342D01*
X141645714Y-112264342D02*
X141598095Y-112359580D01*
X141598095Y-112359580D02*
X141550476Y-112407200D01*
X141550476Y-112407200D02*
X141455238Y-112454819D01*
X141455238Y-112454819D02*
X141169524Y-112454819D01*
X141169524Y-112454819D02*
X141074286Y-112407200D01*
X141074286Y-112407200D02*
X141026667Y-112359580D01*
X163583333Y-117259580D02*
X163535714Y-117307200D01*
X163535714Y-117307200D02*
X163392857Y-117354819D01*
X163392857Y-117354819D02*
X163297619Y-117354819D01*
X163297619Y-117354819D02*
X163154762Y-117307200D01*
X163154762Y-117307200D02*
X163059524Y-117211961D01*
X163059524Y-117211961D02*
X163011905Y-117116723D01*
X163011905Y-117116723D02*
X162964286Y-116926247D01*
X162964286Y-116926247D02*
X162964286Y-116783390D01*
X162964286Y-116783390D02*
X163011905Y-116592914D01*
X163011905Y-116592914D02*
X163059524Y-116497676D01*
X163059524Y-116497676D02*
X163154762Y-116402438D01*
X163154762Y-116402438D02*
X163297619Y-116354819D01*
X163297619Y-116354819D02*
X163392857Y-116354819D01*
X163392857Y-116354819D02*
X163535714Y-116402438D01*
X163535714Y-116402438D02*
X163583333Y-116450057D01*
X164059524Y-117354819D02*
X164250000Y-117354819D01*
X164250000Y-117354819D02*
X164345238Y-117307200D01*
X164345238Y-117307200D02*
X164392857Y-117259580D01*
X164392857Y-117259580D02*
X164488095Y-117116723D01*
X164488095Y-117116723D02*
X164535714Y-116926247D01*
X164535714Y-116926247D02*
X164535714Y-116545295D01*
X164535714Y-116545295D02*
X164488095Y-116450057D01*
X164488095Y-116450057D02*
X164440476Y-116402438D01*
X164440476Y-116402438D02*
X164345238Y-116354819D01*
X164345238Y-116354819D02*
X164154762Y-116354819D01*
X164154762Y-116354819D02*
X164059524Y-116402438D01*
X164059524Y-116402438D02*
X164011905Y-116450057D01*
X164011905Y-116450057D02*
X163964286Y-116545295D01*
X163964286Y-116545295D02*
X163964286Y-116783390D01*
X163964286Y-116783390D02*
X164011905Y-116878628D01*
X164011905Y-116878628D02*
X164059524Y-116926247D01*
X164059524Y-116926247D02*
X164154762Y-116973866D01*
X164154762Y-116973866D02*
X164345238Y-116973866D01*
X164345238Y-116973866D02*
X164440476Y-116926247D01*
X164440476Y-116926247D02*
X164488095Y-116878628D01*
X164488095Y-116878628D02*
X164535714Y-116783390D01*
X140593333Y-114989819D02*
X140260000Y-114513628D01*
X140021905Y-114989819D02*
X140021905Y-113989819D01*
X140021905Y-113989819D02*
X140402857Y-113989819D01*
X140402857Y-113989819D02*
X140498095Y-114037438D01*
X140498095Y-114037438D02*
X140545714Y-114085057D01*
X140545714Y-114085057D02*
X140593333Y-114180295D01*
X140593333Y-114180295D02*
X140593333Y-114323152D01*
X140593333Y-114323152D02*
X140545714Y-114418390D01*
X140545714Y-114418390D02*
X140498095Y-114466009D01*
X140498095Y-114466009D02*
X140402857Y-114513628D01*
X140402857Y-114513628D02*
X140021905Y-114513628D01*
X140926667Y-113989819D02*
X141593333Y-113989819D01*
X141593333Y-113989819D02*
X141164762Y-114989819D01*
X160717142Y-107054819D02*
X160383809Y-106578628D01*
X160145714Y-107054819D02*
X160145714Y-106054819D01*
X160145714Y-106054819D02*
X160526666Y-106054819D01*
X160526666Y-106054819D02*
X160621904Y-106102438D01*
X160621904Y-106102438D02*
X160669523Y-106150057D01*
X160669523Y-106150057D02*
X160717142Y-106245295D01*
X160717142Y-106245295D02*
X160717142Y-106388152D01*
X160717142Y-106388152D02*
X160669523Y-106483390D01*
X160669523Y-106483390D02*
X160621904Y-106531009D01*
X160621904Y-106531009D02*
X160526666Y-106578628D01*
X160526666Y-106578628D02*
X160145714Y-106578628D01*
X161669523Y-107054819D02*
X161098095Y-107054819D01*
X161383809Y-107054819D02*
X161383809Y-106054819D01*
X161383809Y-106054819D02*
X161288571Y-106197676D01*
X161288571Y-106197676D02*
X161193333Y-106292914D01*
X161193333Y-106292914D02*
X161098095Y-106340533D01*
X162050476Y-106150057D02*
X162098095Y-106102438D01*
X162098095Y-106102438D02*
X162193333Y-106054819D01*
X162193333Y-106054819D02*
X162431428Y-106054819D01*
X162431428Y-106054819D02*
X162526666Y-106102438D01*
X162526666Y-106102438D02*
X162574285Y-106150057D01*
X162574285Y-106150057D02*
X162621904Y-106245295D01*
X162621904Y-106245295D02*
X162621904Y-106340533D01*
X162621904Y-106340533D02*
X162574285Y-106483390D01*
X162574285Y-106483390D02*
X162002857Y-107054819D01*
X162002857Y-107054819D02*
X162621904Y-107054819D01*
X157307142Y-83279819D02*
X156973809Y-82803628D01*
X156735714Y-83279819D02*
X156735714Y-82279819D01*
X156735714Y-82279819D02*
X157116666Y-82279819D01*
X157116666Y-82279819D02*
X157211904Y-82327438D01*
X157211904Y-82327438D02*
X157259523Y-82375057D01*
X157259523Y-82375057D02*
X157307142Y-82470295D01*
X157307142Y-82470295D02*
X157307142Y-82613152D01*
X157307142Y-82613152D02*
X157259523Y-82708390D01*
X157259523Y-82708390D02*
X157211904Y-82756009D01*
X157211904Y-82756009D02*
X157116666Y-82803628D01*
X157116666Y-82803628D02*
X156735714Y-82803628D01*
X158259523Y-83279819D02*
X157688095Y-83279819D01*
X157973809Y-83279819D02*
X157973809Y-82279819D01*
X157973809Y-82279819D02*
X157878571Y-82422676D01*
X157878571Y-82422676D02*
X157783333Y-82517914D01*
X157783333Y-82517914D02*
X157688095Y-82565533D01*
X158878571Y-82279819D02*
X158973809Y-82279819D01*
X158973809Y-82279819D02*
X159069047Y-82327438D01*
X159069047Y-82327438D02*
X159116666Y-82375057D01*
X159116666Y-82375057D02*
X159164285Y-82470295D01*
X159164285Y-82470295D02*
X159211904Y-82660771D01*
X159211904Y-82660771D02*
X159211904Y-82898866D01*
X159211904Y-82898866D02*
X159164285Y-83089342D01*
X159164285Y-83089342D02*
X159116666Y-83184580D01*
X159116666Y-83184580D02*
X159069047Y-83232200D01*
X159069047Y-83232200D02*
X158973809Y-83279819D01*
X158973809Y-83279819D02*
X158878571Y-83279819D01*
X158878571Y-83279819D02*
X158783333Y-83232200D01*
X158783333Y-83232200D02*
X158735714Y-83184580D01*
X158735714Y-83184580D02*
X158688095Y-83089342D01*
X158688095Y-83089342D02*
X158640476Y-82898866D01*
X158640476Y-82898866D02*
X158640476Y-82660771D01*
X158640476Y-82660771D02*
X158688095Y-82470295D01*
X158688095Y-82470295D02*
X158735714Y-82375057D01*
X158735714Y-82375057D02*
X158783333Y-82327438D01*
X158783333Y-82327438D02*
X158878571Y-82279819D01*
X140633333Y-100859580D02*
X140585714Y-100907200D01*
X140585714Y-100907200D02*
X140442857Y-100954819D01*
X140442857Y-100954819D02*
X140347619Y-100954819D01*
X140347619Y-100954819D02*
X140204762Y-100907200D01*
X140204762Y-100907200D02*
X140109524Y-100811961D01*
X140109524Y-100811961D02*
X140061905Y-100716723D01*
X140061905Y-100716723D02*
X140014286Y-100526247D01*
X140014286Y-100526247D02*
X140014286Y-100383390D01*
X140014286Y-100383390D02*
X140061905Y-100192914D01*
X140061905Y-100192914D02*
X140109524Y-100097676D01*
X140109524Y-100097676D02*
X140204762Y-100002438D01*
X140204762Y-100002438D02*
X140347619Y-99954819D01*
X140347619Y-99954819D02*
X140442857Y-99954819D01*
X140442857Y-99954819D02*
X140585714Y-100002438D01*
X140585714Y-100002438D02*
X140633333Y-100050057D01*
X141014286Y-100050057D02*
X141061905Y-100002438D01*
X141061905Y-100002438D02*
X141157143Y-99954819D01*
X141157143Y-99954819D02*
X141395238Y-99954819D01*
X141395238Y-99954819D02*
X141490476Y-100002438D01*
X141490476Y-100002438D02*
X141538095Y-100050057D01*
X141538095Y-100050057D02*
X141585714Y-100145295D01*
X141585714Y-100145295D02*
X141585714Y-100240533D01*
X141585714Y-100240533D02*
X141538095Y-100383390D01*
X141538095Y-100383390D02*
X140966667Y-100954819D01*
X140966667Y-100954819D02*
X141585714Y-100954819D01*
X160637142Y-99554819D02*
X160303809Y-99078628D01*
X160065714Y-99554819D02*
X160065714Y-98554819D01*
X160065714Y-98554819D02*
X160446666Y-98554819D01*
X160446666Y-98554819D02*
X160541904Y-98602438D01*
X160541904Y-98602438D02*
X160589523Y-98650057D01*
X160589523Y-98650057D02*
X160637142Y-98745295D01*
X160637142Y-98745295D02*
X160637142Y-98888152D01*
X160637142Y-98888152D02*
X160589523Y-98983390D01*
X160589523Y-98983390D02*
X160541904Y-99031009D01*
X160541904Y-99031009D02*
X160446666Y-99078628D01*
X160446666Y-99078628D02*
X160065714Y-99078628D01*
X161589523Y-99554819D02*
X161018095Y-99554819D01*
X161303809Y-99554819D02*
X161303809Y-98554819D01*
X161303809Y-98554819D02*
X161208571Y-98697676D01*
X161208571Y-98697676D02*
X161113333Y-98792914D01*
X161113333Y-98792914D02*
X161018095Y-98840533D01*
X161922857Y-98554819D02*
X162541904Y-98554819D01*
X162541904Y-98554819D02*
X162208571Y-98935771D01*
X162208571Y-98935771D02*
X162351428Y-98935771D01*
X162351428Y-98935771D02*
X162446666Y-98983390D01*
X162446666Y-98983390D02*
X162494285Y-99031009D01*
X162494285Y-99031009D02*
X162541904Y-99126247D01*
X162541904Y-99126247D02*
X162541904Y-99364342D01*
X162541904Y-99364342D02*
X162494285Y-99459580D01*
X162494285Y-99459580D02*
X162446666Y-99507200D01*
X162446666Y-99507200D02*
X162351428Y-99554819D01*
X162351428Y-99554819D02*
X162065714Y-99554819D01*
X162065714Y-99554819D02*
X161970476Y-99507200D01*
X161970476Y-99507200D02*
X161922857Y-99459580D01*
X140625656Y-119854819D02*
X140292323Y-119378628D01*
X140054228Y-119854819D02*
X140054228Y-118854819D01*
X140054228Y-118854819D02*
X140435180Y-118854819D01*
X140435180Y-118854819D02*
X140530418Y-118902438D01*
X140530418Y-118902438D02*
X140578037Y-118950057D01*
X140578037Y-118950057D02*
X140625656Y-119045295D01*
X140625656Y-119045295D02*
X140625656Y-119188152D01*
X140625656Y-119188152D02*
X140578037Y-119283390D01*
X140578037Y-119283390D02*
X140530418Y-119331009D01*
X140530418Y-119331009D02*
X140435180Y-119378628D01*
X140435180Y-119378628D02*
X140054228Y-119378628D01*
X141197085Y-119283390D02*
X141101847Y-119235771D01*
X141101847Y-119235771D02*
X141054228Y-119188152D01*
X141054228Y-119188152D02*
X141006609Y-119092914D01*
X141006609Y-119092914D02*
X141006609Y-119045295D01*
X141006609Y-119045295D02*
X141054228Y-118950057D01*
X141054228Y-118950057D02*
X141101847Y-118902438D01*
X141101847Y-118902438D02*
X141197085Y-118854819D01*
X141197085Y-118854819D02*
X141387561Y-118854819D01*
X141387561Y-118854819D02*
X141482799Y-118902438D01*
X141482799Y-118902438D02*
X141530418Y-118950057D01*
X141530418Y-118950057D02*
X141578037Y-119045295D01*
X141578037Y-119045295D02*
X141578037Y-119092914D01*
X141578037Y-119092914D02*
X141530418Y-119188152D01*
X141530418Y-119188152D02*
X141482799Y-119235771D01*
X141482799Y-119235771D02*
X141387561Y-119283390D01*
X141387561Y-119283390D02*
X141197085Y-119283390D01*
X141197085Y-119283390D02*
X141101847Y-119331009D01*
X141101847Y-119331009D02*
X141054228Y-119378628D01*
X141054228Y-119378628D02*
X141006609Y-119473866D01*
X141006609Y-119473866D02*
X141006609Y-119664342D01*
X141006609Y-119664342D02*
X141054228Y-119759580D01*
X141054228Y-119759580D02*
X141101847Y-119807200D01*
X141101847Y-119807200D02*
X141197085Y-119854819D01*
X141197085Y-119854819D02*
X141387561Y-119854819D01*
X141387561Y-119854819D02*
X141482799Y-119807200D01*
X141482799Y-119807200D02*
X141530418Y-119759580D01*
X141530418Y-119759580D02*
X141578037Y-119664342D01*
X141578037Y-119664342D02*
X141578037Y-119473866D01*
X141578037Y-119473866D02*
X141530418Y-119378628D01*
X141530418Y-119378628D02*
X141482799Y-119331009D01*
X141482799Y-119331009D02*
X141387561Y-119283390D01*
X154367142Y-88279819D02*
X154033809Y-87803628D01*
X153795714Y-88279819D02*
X153795714Y-87279819D01*
X153795714Y-87279819D02*
X154176666Y-87279819D01*
X154176666Y-87279819D02*
X154271904Y-87327438D01*
X154271904Y-87327438D02*
X154319523Y-87375057D01*
X154319523Y-87375057D02*
X154367142Y-87470295D01*
X154367142Y-87470295D02*
X154367142Y-87613152D01*
X154367142Y-87613152D02*
X154319523Y-87708390D01*
X154319523Y-87708390D02*
X154271904Y-87756009D01*
X154271904Y-87756009D02*
X154176666Y-87803628D01*
X154176666Y-87803628D02*
X153795714Y-87803628D01*
X155319523Y-88279819D02*
X154748095Y-88279819D01*
X155033809Y-88279819D02*
X155033809Y-87279819D01*
X155033809Y-87279819D02*
X154938571Y-87422676D01*
X154938571Y-87422676D02*
X154843333Y-87517914D01*
X154843333Y-87517914D02*
X154748095Y-87565533D01*
X156224285Y-87279819D02*
X155748095Y-87279819D01*
X155748095Y-87279819D02*
X155700476Y-87756009D01*
X155700476Y-87756009D02*
X155748095Y-87708390D01*
X155748095Y-87708390D02*
X155843333Y-87660771D01*
X155843333Y-87660771D02*
X156081428Y-87660771D01*
X156081428Y-87660771D02*
X156176666Y-87708390D01*
X156176666Y-87708390D02*
X156224285Y-87756009D01*
X156224285Y-87756009D02*
X156271904Y-87851247D01*
X156271904Y-87851247D02*
X156271904Y-88089342D01*
X156271904Y-88089342D02*
X156224285Y-88184580D01*
X156224285Y-88184580D02*
X156176666Y-88232200D01*
X156176666Y-88232200D02*
X156081428Y-88279819D01*
X156081428Y-88279819D02*
X155843333Y-88279819D01*
X155843333Y-88279819D02*
X155748095Y-88232200D01*
X155748095Y-88232200D02*
X155700476Y-88184580D01*
X140573333Y-97989819D02*
X140240000Y-97513628D01*
X140001905Y-97989819D02*
X140001905Y-96989819D01*
X140001905Y-96989819D02*
X140382857Y-96989819D01*
X140382857Y-96989819D02*
X140478095Y-97037438D01*
X140478095Y-97037438D02*
X140525714Y-97085057D01*
X140525714Y-97085057D02*
X140573333Y-97180295D01*
X140573333Y-97180295D02*
X140573333Y-97323152D01*
X140573333Y-97323152D02*
X140525714Y-97418390D01*
X140525714Y-97418390D02*
X140478095Y-97466009D01*
X140478095Y-97466009D02*
X140382857Y-97513628D01*
X140382857Y-97513628D02*
X140001905Y-97513628D01*
X141478095Y-96989819D02*
X141001905Y-96989819D01*
X141001905Y-96989819D02*
X140954286Y-97466009D01*
X140954286Y-97466009D02*
X141001905Y-97418390D01*
X141001905Y-97418390D02*
X141097143Y-97370771D01*
X141097143Y-97370771D02*
X141335238Y-97370771D01*
X141335238Y-97370771D02*
X141430476Y-97418390D01*
X141430476Y-97418390D02*
X141478095Y-97466009D01*
X141478095Y-97466009D02*
X141525714Y-97561247D01*
X141525714Y-97561247D02*
X141525714Y-97799342D01*
X141525714Y-97799342D02*
X141478095Y-97894580D01*
X141478095Y-97894580D02*
X141430476Y-97942200D01*
X141430476Y-97942200D02*
X141335238Y-97989819D01*
X141335238Y-97989819D02*
X141097143Y-97989819D01*
X141097143Y-97989819D02*
X141001905Y-97942200D01*
X141001905Y-97942200D02*
X140954286Y-97894580D01*
X140625656Y-103989819D02*
X140292323Y-103513628D01*
X140054228Y-103989819D02*
X140054228Y-102989819D01*
X140054228Y-102989819D02*
X140435180Y-102989819D01*
X140435180Y-102989819D02*
X140530418Y-103037438D01*
X140530418Y-103037438D02*
X140578037Y-103085057D01*
X140578037Y-103085057D02*
X140625656Y-103180295D01*
X140625656Y-103180295D02*
X140625656Y-103323152D01*
X140625656Y-103323152D02*
X140578037Y-103418390D01*
X140578037Y-103418390D02*
X140530418Y-103466009D01*
X140530418Y-103466009D02*
X140435180Y-103513628D01*
X140435180Y-103513628D02*
X140054228Y-103513628D01*
X141006609Y-103085057D02*
X141054228Y-103037438D01*
X141054228Y-103037438D02*
X141149466Y-102989819D01*
X141149466Y-102989819D02*
X141387561Y-102989819D01*
X141387561Y-102989819D02*
X141482799Y-103037438D01*
X141482799Y-103037438D02*
X141530418Y-103085057D01*
X141530418Y-103085057D02*
X141578037Y-103180295D01*
X141578037Y-103180295D02*
X141578037Y-103275533D01*
X141578037Y-103275533D02*
X141530418Y-103418390D01*
X141530418Y-103418390D02*
X140958990Y-103989819D01*
X140958990Y-103989819D02*
X141578037Y-103989819D01*
X155571905Y-85954819D02*
X155571905Y-84954819D01*
X155571905Y-84954819D02*
X155810000Y-84954819D01*
X155810000Y-84954819D02*
X155952857Y-85002438D01*
X155952857Y-85002438D02*
X156048095Y-85097676D01*
X156048095Y-85097676D02*
X156095714Y-85192914D01*
X156095714Y-85192914D02*
X156143333Y-85383390D01*
X156143333Y-85383390D02*
X156143333Y-85526247D01*
X156143333Y-85526247D02*
X156095714Y-85716723D01*
X156095714Y-85716723D02*
X156048095Y-85811961D01*
X156048095Y-85811961D02*
X155952857Y-85907200D01*
X155952857Y-85907200D02*
X155810000Y-85954819D01*
X155810000Y-85954819D02*
X155571905Y-85954819D01*
X157095714Y-85954819D02*
X156524286Y-85954819D01*
X156810000Y-85954819D02*
X156810000Y-84954819D01*
X156810000Y-84954819D02*
X156714762Y-85097676D01*
X156714762Y-85097676D02*
X156619524Y-85192914D01*
X156619524Y-85192914D02*
X156524286Y-85240533D01*
X161708095Y-85854819D02*
X161708095Y-84854819D01*
X162279523Y-85854819D02*
X161850952Y-85283390D01*
X162279523Y-84854819D02*
X161708095Y-85426247D01*
D13*
%TO.C,J1*%
X135410000Y-81110000D02*
X135410000Y-79860000D01*
X135110000Y-80810000D02*
X135110000Y-76090000D01*
X135110000Y-79500000D02*
X134500000Y-79500000D01*
X135110000Y-78200000D02*
X134500000Y-78200000D01*
X135110000Y-76090000D02*
X128990000Y-76090000D01*
X134500000Y-80200000D02*
X134500000Y-76700000D01*
X134500000Y-76700000D02*
X129600000Y-76700000D01*
X134160000Y-81110000D02*
X135410000Y-81110000D01*
X133650000Y-81010000D02*
X133650000Y-80810000D01*
X133350000Y-81010000D02*
X133650000Y-81010000D01*
X133350000Y-80910000D02*
X133650000Y-80910000D01*
X133350000Y-80810000D02*
X133350000Y-81010000D01*
X132550000Y-80810000D02*
X132550000Y-80200000D01*
X132550000Y-80200000D02*
X134500000Y-80200000D01*
X132150000Y-77200000D02*
X131950000Y-77200000D01*
X132150000Y-76700000D02*
X132150000Y-77200000D01*
X132050000Y-76700000D02*
X132050000Y-77200000D01*
X131950000Y-77200000D02*
X131950000Y-76700000D01*
X131550000Y-80200000D02*
X131550000Y-80810000D01*
X129600000Y-80200000D02*
X131550000Y-80200000D01*
X129600000Y-76700000D02*
X129600000Y-80200000D01*
X128990000Y-80810000D02*
X135110000Y-80810000D01*
X128990000Y-79500000D02*
X129600000Y-79500000D01*
X128990000Y-78200000D02*
X129600000Y-78200000D01*
X128990000Y-76090000D02*
X128990000Y-80810000D01*
%TO.C,C6*%
X142107600Y-122805000D02*
X142507600Y-122805000D01*
X142307600Y-122605000D02*
X142307600Y-123005000D01*
X144377401Y-121920000D02*
X144377401Y-126080000D01*
X144417401Y-121920000D02*
X144417401Y-126080000D01*
X144457401Y-121921000D02*
X144457401Y-126079000D01*
X144497401Y-121923000D02*
X144497401Y-126077000D01*
X144537401Y-121926000D02*
X144537401Y-126074000D01*
X144577401Y-121929000D02*
X144577401Y-123160000D01*
X144577401Y-124840000D02*
X144577401Y-126071000D01*
X144617401Y-121933000D02*
X144617401Y-123160000D01*
X144617401Y-124840000D02*
X144617401Y-126067000D01*
X144657401Y-121938000D02*
X144657401Y-123160000D01*
X144657401Y-124840000D02*
X144657401Y-126062000D01*
X144697401Y-121944000D02*
X144697401Y-123160000D01*
X144697401Y-124840000D02*
X144697401Y-126056000D01*
X144737401Y-121950000D02*
X144737401Y-123160000D01*
X144737401Y-124840000D02*
X144737401Y-126050000D01*
X144777401Y-121958000D02*
X144777401Y-123160000D01*
X144777401Y-124840000D02*
X144777401Y-126042000D01*
X144817401Y-121966000D02*
X144817401Y-123160000D01*
X144817401Y-124840000D02*
X144817401Y-126034000D01*
X144857401Y-121975000D02*
X144857401Y-123160000D01*
X144857401Y-124840000D02*
X144857401Y-126025000D01*
X144897401Y-121984000D02*
X144897401Y-123160000D01*
X144897401Y-124840000D02*
X144897401Y-126016000D01*
X144937401Y-121995000D02*
X144937401Y-123160000D01*
X144937401Y-124840000D02*
X144937401Y-126005000D01*
X144977401Y-122006000D02*
X144977401Y-123160000D01*
X144977401Y-124840000D02*
X144977401Y-125994000D01*
X145017401Y-122018000D02*
X145017401Y-123160000D01*
X145017401Y-124840000D02*
X145017401Y-125982000D01*
X145057401Y-122032000D02*
X145057401Y-123160000D01*
X145057401Y-124840000D02*
X145057401Y-125968000D01*
X145098401Y-122046000D02*
X145098401Y-123160000D01*
X145098401Y-124840000D02*
X145098401Y-125954000D01*
X145138401Y-122060000D02*
X145138401Y-123160000D01*
X145138401Y-124840000D02*
X145138401Y-125940000D01*
X145178401Y-122076000D02*
X145178401Y-123160000D01*
X145178401Y-124840000D02*
X145178401Y-125924000D01*
X145218401Y-122093000D02*
X145218401Y-123160000D01*
X145218401Y-124840000D02*
X145218401Y-125907000D01*
X145258401Y-122111000D02*
X145258401Y-123160000D01*
X145258401Y-124840000D02*
X145258401Y-125889000D01*
X145298401Y-122130000D02*
X145298401Y-123160000D01*
X145298401Y-124840000D02*
X145298401Y-125870000D01*
X145338401Y-122149000D02*
X145338401Y-123160000D01*
X145338401Y-124840000D02*
X145338401Y-125851000D01*
X145378401Y-122170000D02*
X145378401Y-123160000D01*
X145378401Y-124840000D02*
X145378401Y-125830000D01*
X145418401Y-122192000D02*
X145418401Y-123160000D01*
X145418401Y-124840000D02*
X145418401Y-125808000D01*
X145458401Y-122215000D02*
X145458401Y-123160000D01*
X145458401Y-124840000D02*
X145458401Y-125785000D01*
X145498401Y-122240000D02*
X145498401Y-123160000D01*
X145498401Y-124840000D02*
X145498401Y-125760000D01*
X145538401Y-122265000D02*
X145538401Y-123160000D01*
X145538401Y-124840000D02*
X145538401Y-125735000D01*
X145578401Y-122292000D02*
X145578401Y-123160000D01*
X145578401Y-124840000D02*
X145578401Y-125708000D01*
X145618401Y-122320000D02*
X145618401Y-123160000D01*
X145618401Y-124840000D02*
X145618401Y-125680000D01*
X145658401Y-122350000D02*
X145658401Y-123160000D01*
X145658401Y-124840000D02*
X145658401Y-125650000D01*
X145698401Y-122381000D02*
X145698401Y-123160000D01*
X145698401Y-124840000D02*
X145698401Y-125619000D01*
X145738401Y-122413000D02*
X145738401Y-123160000D01*
X145738401Y-124840000D02*
X145738401Y-125587000D01*
X145778401Y-122448000D02*
X145778401Y-123160000D01*
X145778401Y-124840000D02*
X145778401Y-125552000D01*
X145818401Y-122484000D02*
X145818401Y-123160000D01*
X145818401Y-124840000D02*
X145818401Y-125516000D01*
X145858401Y-122522000D02*
X145858401Y-123160000D01*
X145858401Y-124840000D02*
X145858401Y-125478000D01*
X145898401Y-122562000D02*
X145898401Y-123160000D01*
X145898401Y-124840000D02*
X145898401Y-125438000D01*
X145938401Y-122604000D02*
X145938401Y-123160000D01*
X145938401Y-124840000D02*
X145938401Y-125396000D01*
X145978401Y-122649000D02*
X145978401Y-123160000D01*
X145978401Y-124840000D02*
X145978401Y-125351000D01*
X146018401Y-122696000D02*
X146018401Y-123160000D01*
X146018401Y-124840000D02*
X146018401Y-125304000D01*
X146058401Y-122746000D02*
X146058401Y-123160000D01*
X146058401Y-124840000D02*
X146058401Y-125254000D01*
X146098401Y-122800000D02*
X146098401Y-123160000D01*
X146098401Y-124840000D02*
X146098401Y-125200000D01*
X146138401Y-122858000D02*
X146138401Y-123160000D01*
X146138401Y-124840000D02*
X146138401Y-125142000D01*
X146178401Y-122920000D02*
X146178401Y-123160000D01*
X146178401Y-124840000D02*
X146178401Y-125080000D01*
X146218401Y-122987000D02*
X146218401Y-125013000D01*
X146258401Y-123060000D02*
X146258401Y-124940000D01*
X146298401Y-123141000D02*
X146298401Y-124859000D01*
X146338401Y-123232000D02*
X146338401Y-124768000D01*
X146378401Y-123336000D02*
X146378401Y-124664000D01*
X146418401Y-123463000D02*
X146418401Y-124537000D01*
X146458401Y-123630000D02*
X146458401Y-124370000D01*
X146497401Y-124000000D02*
G75*
G02*
X142257401Y-124000000I-2120000J0D01*
G01*
X142257401Y-124000000D02*
G75*
G02*
X146497401Y-124000000I2120000J0D01*
G01*
%TO.C,BT1*%
X129090000Y-92510000D02*
X133810000Y-92510000D01*
X131200000Y-92510000D02*
X131200000Y-91900000D01*
X132500000Y-92510000D02*
X132500000Y-91900000D01*
X133810000Y-92510000D02*
X133810000Y-86390000D01*
X129700000Y-91900000D02*
X133200000Y-91900000D01*
X133200000Y-91900000D02*
X133200000Y-89950000D01*
X133200000Y-89950000D02*
X133810000Y-89950000D01*
X130200000Y-89550000D02*
X129700000Y-89550000D01*
X129700000Y-89450000D02*
X130200000Y-89450000D01*
X129700000Y-89350000D02*
X130200000Y-89350000D01*
X130200000Y-89350000D02*
X130200000Y-89550000D01*
X133200000Y-88950000D02*
X133200000Y-87000000D01*
X133810000Y-88950000D02*
X133200000Y-88950000D01*
X133810000Y-88150000D02*
X134010000Y-88150000D01*
X133910000Y-88150000D02*
X133910000Y-87850000D01*
X134010000Y-88150000D02*
X134010000Y-87850000D01*
X134010000Y-87850000D02*
X133810000Y-87850000D01*
X134110000Y-87340000D02*
X134110000Y-86090000D01*
X129700000Y-87000000D02*
X129700000Y-91900000D01*
X133200000Y-87000000D02*
X129700000Y-87000000D01*
X129090000Y-86390000D02*
X129090000Y-92510000D01*
X131200000Y-86390000D02*
X131200000Y-87000000D01*
X132500000Y-86390000D02*
X132500000Y-87000000D01*
X133810000Y-86390000D02*
X129090000Y-86390000D01*
X134110000Y-86090000D02*
X132860000Y-86090000D01*
%TO.C,C8*%
X162370000Y-112800000D02*
G75*
G02*
X158130000Y-112800000I-2120000J0D01*
G01*
X158130000Y-112800000D02*
G75*
G02*
X162370000Y-112800000I2120000J0D01*
G01*
X159410000Y-113000000D02*
X158179000Y-113000000D01*
X159410000Y-113040000D02*
X158183000Y-113040000D01*
X159410000Y-113080000D02*
X158188000Y-113080000D01*
X159410000Y-113120000D02*
X158194000Y-113120000D01*
X159410000Y-113160000D02*
X158200000Y-113160000D01*
X159410000Y-113200000D02*
X158208000Y-113200000D01*
X159410000Y-113240000D02*
X158216000Y-113240000D01*
X159410000Y-113280000D02*
X158225000Y-113280000D01*
X159410000Y-113320000D02*
X158234000Y-113320000D01*
X159410000Y-113360000D02*
X158245000Y-113360000D01*
X159410000Y-113400000D02*
X158256000Y-113400000D01*
X159410000Y-113440000D02*
X158268000Y-113440000D01*
X159410000Y-113480000D02*
X158282000Y-113480000D01*
X159410000Y-113521000D02*
X158296000Y-113521000D01*
X159410000Y-113561000D02*
X158310000Y-113561000D01*
X159410000Y-113601000D02*
X158326000Y-113601000D01*
X159410000Y-113641000D02*
X158343000Y-113641000D01*
X159410000Y-113681000D02*
X158361000Y-113681000D01*
X159410000Y-113721000D02*
X158380000Y-113721000D01*
X159410000Y-113761000D02*
X158399000Y-113761000D01*
X159410000Y-113801000D02*
X158420000Y-113801000D01*
X159410000Y-113841000D02*
X158442000Y-113841000D01*
X159410000Y-113881000D02*
X158465000Y-113881000D01*
X159410000Y-113921000D02*
X158490000Y-113921000D01*
X159410000Y-113961000D02*
X158515000Y-113961000D01*
X159410000Y-114001000D02*
X158542000Y-114001000D01*
X159410000Y-114041000D02*
X158570000Y-114041000D01*
X159410000Y-114081000D02*
X158600000Y-114081000D01*
X159410000Y-114121000D02*
X158631000Y-114121000D01*
X159410000Y-114161000D02*
X158663000Y-114161000D01*
X159410000Y-114201000D02*
X158698000Y-114201000D01*
X159410000Y-114241000D02*
X158734000Y-114241000D01*
X159410000Y-114281000D02*
X158772000Y-114281000D01*
X159410000Y-114321000D02*
X158812000Y-114321000D01*
X159410000Y-114361000D02*
X158854000Y-114361000D01*
X159410000Y-114401000D02*
X158899000Y-114401000D01*
X159410000Y-114441000D02*
X158946000Y-114441000D01*
X159410000Y-114481000D02*
X158996000Y-114481000D01*
X159410000Y-114521000D02*
X159050000Y-114521000D01*
X159410000Y-114561000D02*
X159108000Y-114561000D01*
X159410000Y-114601000D02*
X159170000Y-114601000D01*
X160620000Y-114881000D02*
X159880000Y-114881000D01*
X160787000Y-114841000D02*
X159713000Y-114841000D01*
X160914000Y-114801000D02*
X159586000Y-114801000D01*
X161018000Y-114761000D02*
X159482000Y-114761000D01*
X161109000Y-114721000D02*
X159391000Y-114721000D01*
X161190000Y-114681000D02*
X159310000Y-114681000D01*
X161263000Y-114641000D02*
X159237000Y-114641000D01*
X161330000Y-114601000D02*
X161090000Y-114601000D01*
X161392000Y-114561000D02*
X161090000Y-114561000D01*
X161445000Y-110530199D02*
X161445000Y-110930199D01*
X161450000Y-114521000D02*
X161090000Y-114521000D01*
X161504000Y-114481000D02*
X161090000Y-114481000D01*
X161554000Y-114441000D02*
X161090000Y-114441000D01*
X161601000Y-114401000D02*
X161090000Y-114401000D01*
X161645000Y-110730199D02*
X161245000Y-110730199D01*
X161646000Y-114361000D02*
X161090000Y-114361000D01*
X161688000Y-114321000D02*
X161090000Y-114321000D01*
X161728000Y-114281000D02*
X161090000Y-114281000D01*
X161766000Y-114241000D02*
X161090000Y-114241000D01*
X161802000Y-114201000D02*
X161090000Y-114201000D01*
X161837000Y-114161000D02*
X161090000Y-114161000D01*
X161869000Y-114121000D02*
X161090000Y-114121000D01*
X161900000Y-114081000D02*
X161090000Y-114081000D01*
X161930000Y-114041000D02*
X161090000Y-114041000D01*
X161958000Y-114001000D02*
X161090000Y-114001000D01*
X161985000Y-113961000D02*
X161090000Y-113961000D01*
X162010000Y-113921000D02*
X161090000Y-113921000D01*
X162035000Y-113881000D02*
X161090000Y-113881000D01*
X162058000Y-113841000D02*
X161090000Y-113841000D01*
X162080000Y-113801000D02*
X161090000Y-113801000D01*
X162101000Y-113761000D02*
X161090000Y-113761000D01*
X162120000Y-113721000D02*
X161090000Y-113721000D01*
X162139000Y-113681000D02*
X161090000Y-113681000D01*
X162157000Y-113641000D02*
X161090000Y-113641000D01*
X162174000Y-113601000D02*
X161090000Y-113601000D01*
X162190000Y-113561000D02*
X161090000Y-113561000D01*
X162204000Y-113521000D02*
X161090000Y-113521000D01*
X162218000Y-113480000D02*
X161090000Y-113480000D01*
X162232000Y-113440000D02*
X161090000Y-113440000D01*
X162244000Y-113400000D02*
X161090000Y-113400000D01*
X162255000Y-113360000D02*
X161090000Y-113360000D01*
X162266000Y-113320000D02*
X161090000Y-113320000D01*
X162275000Y-113280000D02*
X161090000Y-113280000D01*
X162284000Y-113240000D02*
X161090000Y-113240000D01*
X162292000Y-113200000D02*
X161090000Y-113200000D01*
X162300000Y-113160000D02*
X161090000Y-113160000D01*
X162306000Y-113120000D02*
X161090000Y-113120000D01*
X162312000Y-113080000D02*
X161090000Y-113080000D01*
X162317000Y-113040000D02*
X161090000Y-113040000D01*
X162321000Y-113000000D02*
X161090000Y-113000000D01*
X162324000Y-112960000D02*
X158176000Y-112960000D01*
X162327000Y-112920000D02*
X158173000Y-112920000D01*
X162329000Y-112880000D02*
X158171000Y-112880000D01*
X162330000Y-112800000D02*
X158170000Y-112800000D01*
X162330000Y-112840000D02*
X158170000Y-112840000D01*
%TO.C,RV5*%
X171910000Y-102090000D02*
X167190000Y-102090000D01*
X169800000Y-102090000D02*
X169800000Y-102700000D01*
X168500000Y-102090000D02*
X168500000Y-102700000D01*
X167190000Y-102090000D02*
X167190000Y-108210000D01*
X171300000Y-102700000D02*
X167800000Y-102700000D01*
X167800000Y-102700000D02*
X167800000Y-104650000D01*
X167800000Y-104650000D02*
X167190000Y-104650000D01*
X170800000Y-105050000D02*
X171300000Y-105050000D01*
X171300000Y-105150000D02*
X170800000Y-105150000D01*
X171300000Y-105250000D02*
X170800000Y-105250000D01*
X170800000Y-105250000D02*
X170800000Y-105050000D01*
X167800000Y-105650000D02*
X167800000Y-107600000D01*
X167190000Y-105650000D02*
X167800000Y-105650000D01*
X167190000Y-106450000D02*
X166990000Y-106450000D01*
X167090000Y-106450000D02*
X167090000Y-106750000D01*
X166990000Y-106450000D02*
X166990000Y-106750000D01*
X166990000Y-106750000D02*
X167190000Y-106750000D01*
X166890000Y-107260000D02*
X166890000Y-108510000D01*
X171300000Y-107600000D02*
X171300000Y-102700000D01*
X167800000Y-107600000D02*
X171300000Y-107600000D01*
X171910000Y-108210000D02*
X171910000Y-102090000D01*
X169800000Y-108210000D02*
X169800000Y-107600000D01*
X168500000Y-108210000D02*
X168500000Y-107600000D01*
X167190000Y-108210000D02*
X171910000Y-108210000D01*
X166890000Y-108510000D02*
X168140000Y-108510000D01*
%TO.C,C7*%
X174099000Y-82463323D02*
X172901000Y-82463323D01*
X174362000Y-82423323D02*
X172638000Y-82423323D01*
X174562000Y-82383323D02*
X172438000Y-82383323D01*
X174730000Y-82343323D02*
X172270000Y-82343323D01*
X174878000Y-82303323D02*
X172122000Y-82303323D01*
X175010000Y-82263323D02*
X171990000Y-82263323D01*
X175130000Y-82223323D02*
X171870000Y-82223323D01*
X175242000Y-82183323D02*
X171758000Y-82183323D01*
X175346000Y-82143323D02*
X171654000Y-82143323D01*
X175444000Y-82103323D02*
X171556000Y-82103323D01*
X175537000Y-82063323D02*
X171463000Y-82063323D01*
X175625000Y-82023323D02*
X171375000Y-82023323D01*
X175709000Y-81983323D02*
X171291000Y-81983323D01*
X175789000Y-81943323D02*
X171211000Y-81943323D01*
X175865000Y-81903323D02*
X171135000Y-81903323D01*
X175939000Y-81863323D02*
X171061000Y-81863323D01*
X176010000Y-81823323D02*
X170990000Y-81823323D01*
X176079000Y-81783323D02*
X170921000Y-81783323D01*
X176145000Y-81743323D02*
X170855000Y-81743323D01*
X176209000Y-81703323D02*
X170791000Y-81703323D01*
X176270000Y-81663323D02*
X170730000Y-81663323D01*
X176330000Y-81623323D02*
X170670000Y-81623323D01*
X176389000Y-81583323D02*
X170611000Y-81583323D01*
X176445000Y-81543323D02*
X170555000Y-81543323D01*
X176500000Y-81503323D02*
X170500000Y-81503323D01*
X176554000Y-81463323D02*
X170446000Y-81463323D01*
X176606000Y-81423323D02*
X170394000Y-81423323D01*
X176656000Y-81383323D02*
X170344000Y-81383323D01*
X176706000Y-81343323D02*
X170294000Y-81343323D01*
X176754000Y-81303323D02*
X170246000Y-81303323D01*
X176801000Y-81263323D02*
X170199000Y-81263323D01*
X176847000Y-81223323D02*
X170153000Y-81223323D01*
X176892000Y-81183323D02*
X170108000Y-81183323D01*
X176936000Y-81143323D02*
X170064000Y-81143323D01*
X172259000Y-81103323D02*
X170022000Y-81103323D01*
X176978000Y-81103323D02*
X174741000Y-81103323D01*
X172259000Y-81063323D02*
X169980000Y-81063323D01*
X177020000Y-81063323D02*
X174741000Y-81063323D01*
X172259000Y-81023323D02*
X169939000Y-81023323D01*
X177061000Y-81023323D02*
X174741000Y-81023323D01*
X172259000Y-80983323D02*
X169899000Y-80983323D01*
X177101000Y-80983323D02*
X174741000Y-80983323D01*
X172259000Y-80943323D02*
X169860000Y-80943323D01*
X177140000Y-80943323D02*
X174741000Y-80943323D01*
X172259000Y-80903323D02*
X169821000Y-80903323D01*
X177179000Y-80903323D02*
X174741000Y-80903323D01*
X172259000Y-80863323D02*
X169784000Y-80863323D01*
X177216000Y-80863323D02*
X174741000Y-80863323D01*
X172259000Y-80823323D02*
X169747000Y-80823323D01*
X177253000Y-80823323D02*
X174741000Y-80823323D01*
X172259000Y-80783323D02*
X169711000Y-80783323D01*
X177289000Y-80783323D02*
X174741000Y-80783323D01*
X172259000Y-80743323D02*
X169676000Y-80743323D01*
X177324000Y-80743323D02*
X174741000Y-80743323D01*
X172259000Y-80703323D02*
X169642000Y-80703323D01*
X177358000Y-80703323D02*
X174741000Y-80703323D01*
X172259000Y-80663323D02*
X169608000Y-80663323D01*
X177392000Y-80663323D02*
X174741000Y-80663323D01*
X172259000Y-80623323D02*
X169575000Y-80623323D01*
X177425000Y-80623323D02*
X174741000Y-80623323D01*
X172259000Y-80583323D02*
X169543000Y-80583323D01*
X177457000Y-80583323D02*
X174741000Y-80583323D01*
X172259000Y-80543323D02*
X169511000Y-80543323D01*
X177489000Y-80543323D02*
X174741000Y-80543323D01*
X172259000Y-80503323D02*
X169480000Y-80503323D01*
X177520000Y-80503323D02*
X174741000Y-80503323D01*
X172259000Y-80463323D02*
X169450000Y-80463323D01*
X177550000Y-80463323D02*
X174741000Y-80463323D01*
X172259000Y-80423323D02*
X169420000Y-80423323D01*
X177580000Y-80423323D02*
X174741000Y-80423323D01*
X172259000Y-80383323D02*
X169390000Y-80383323D01*
X177610000Y-80383323D02*
X174741000Y-80383323D01*
X172259000Y-80343323D02*
X169362000Y-80343323D01*
X177638000Y-80343323D02*
X174741000Y-80343323D01*
X172259000Y-80303323D02*
X169334000Y-80303323D01*
X177666000Y-80303323D02*
X174741000Y-80303323D01*
X172259000Y-80263323D02*
X169306000Y-80263323D01*
X177694000Y-80263323D02*
X174741000Y-80263323D01*
X172259000Y-80223323D02*
X169279000Y-80223323D01*
X177721000Y-80223323D02*
X174741000Y-80223323D01*
X172259000Y-80183323D02*
X169253000Y-80183323D01*
X177747000Y-80183323D02*
X174741000Y-80183323D01*
X172259000Y-80143323D02*
X169227000Y-80143323D01*
X177773000Y-80143323D02*
X174741000Y-80143323D01*
X172259000Y-80103323D02*
X169202000Y-80103323D01*
X177798000Y-80103323D02*
X174741000Y-80103323D01*
X172259000Y-80063323D02*
X169177000Y-80063323D01*
X177823000Y-80063323D02*
X174741000Y-80063323D01*
X172259000Y-80023323D02*
X169153000Y-80023323D01*
X177847000Y-80023323D02*
X174741000Y-80023323D01*
X172259000Y-79983323D02*
X169129000Y-79983323D01*
X177871000Y-79983323D02*
X174741000Y-79983323D01*
X172259000Y-79943323D02*
X169105000Y-79943323D01*
X177895000Y-79943323D02*
X174741000Y-79943323D01*
X172259000Y-79903323D02*
X169083000Y-79903323D01*
X177917000Y-79903323D02*
X174741000Y-79903323D01*
X172259000Y-79863323D02*
X169060000Y-79863323D01*
X177940000Y-79863323D02*
X174741000Y-79863323D01*
X172259000Y-79823323D02*
X169038000Y-79823323D01*
X177962000Y-79823323D02*
X174741000Y-79823323D01*
X172259000Y-79783323D02*
X169017000Y-79783323D01*
X177983000Y-79783323D02*
X174741000Y-79783323D01*
X172259000Y-79743323D02*
X168996000Y-79743323D01*
X178004000Y-79743323D02*
X174741000Y-79743323D01*
X172259000Y-79703323D02*
X168975000Y-79703323D01*
X178025000Y-79703323D02*
X174741000Y-79703323D01*
X172259000Y-79663323D02*
X168955000Y-79663323D01*
X178045000Y-79663323D02*
X174741000Y-79663323D01*
X172259000Y-79623323D02*
X168936000Y-79623323D01*
X178064000Y-79623323D02*
X174741000Y-79623323D01*
X172259000Y-79583323D02*
X168916000Y-79583323D01*
X178084000Y-79583323D02*
X174741000Y-79583323D01*
X172259000Y-79543323D02*
X168897000Y-79543323D01*
X178103000Y-79543323D02*
X174741000Y-79543323D01*
X172259000Y-79503323D02*
X168879000Y-79503323D01*
X178121000Y-79503323D02*
X174741000Y-79503323D01*
X172259000Y-79463323D02*
X168861000Y-79463323D01*
X178139000Y-79463323D02*
X174741000Y-79463323D01*
X172259000Y-79423323D02*
X168843000Y-79423323D01*
X178157000Y-79423323D02*
X174741000Y-79423323D01*
X172259000Y-79383323D02*
X168826000Y-79383323D01*
X178174000Y-79383323D02*
X174741000Y-79383323D01*
X172259000Y-79343323D02*
X168810000Y-79343323D01*
X178190000Y-79343323D02*
X174741000Y-79343323D01*
X172259000Y-79303323D02*
X168793000Y-79303323D01*
X178207000Y-79303323D02*
X174741000Y-79303323D01*
X172259000Y-79263323D02*
X168777000Y-79263323D01*
X178223000Y-79263323D02*
X174741000Y-79263323D01*
X172259000Y-79223323D02*
X168762000Y-79223323D01*
X178238000Y-79223323D02*
X174741000Y-79223323D01*
X172259000Y-79183323D02*
X168746000Y-79183323D01*
X178254000Y-79183323D02*
X174741000Y-79183323D01*
X172259000Y-79143323D02*
X168732000Y-79143323D01*
X178268000Y-79143323D02*
X174741000Y-79143323D01*
X172259000Y-79103323D02*
X168717000Y-79103323D01*
X178283000Y-79103323D02*
X174741000Y-79103323D01*
X172259000Y-79063323D02*
X168703000Y-79063323D01*
X178297000Y-79063323D02*
X174741000Y-79063323D01*
X172259000Y-79023323D02*
X168689000Y-79023323D01*
X178311000Y-79023323D02*
X174741000Y-79023323D01*
X172259000Y-78983323D02*
X168676000Y-78983323D01*
X178324000Y-78983323D02*
X174741000Y-78983323D01*
X172259000Y-78943323D02*
X168663000Y-78943323D01*
X178337000Y-78943323D02*
X174741000Y-78943323D01*
X172259000Y-78903323D02*
X168650000Y-78903323D01*
X178350000Y-78903323D02*
X174741000Y-78903323D01*
X172259000Y-78863323D02*
X168638000Y-78863323D01*
X178362000Y-78863323D02*
X174741000Y-78863323D01*
X172259000Y-78823323D02*
X168626000Y-78823323D01*
X178374000Y-78823323D02*
X174741000Y-78823323D01*
X172259000Y-78783323D02*
X168615000Y-78783323D01*
X178385000Y-78783323D02*
X174741000Y-78783323D01*
X172259000Y-78743323D02*
X168603000Y-78743323D01*
X178397000Y-78743323D02*
X174741000Y-78743323D01*
X172259000Y-78703323D02*
X168593000Y-78703323D01*
X178407000Y-78703323D02*
X174741000Y-78703323D01*
X172259000Y-78663323D02*
X168582000Y-78663323D01*
X178418000Y-78663323D02*
X174741000Y-78663323D01*
X178428000Y-78623323D02*
X168572000Y-78623323D01*
X178438000Y-78583323D02*
X168562000Y-78583323D01*
X178447000Y-78543323D02*
X168553000Y-78543323D01*
X178456000Y-78503323D02*
X168544000Y-78503323D01*
X178465000Y-78463323D02*
X168535000Y-78463323D01*
X178474000Y-78423323D02*
X168526000Y-78423323D01*
X178482000Y-78383323D02*
X168518000Y-78383323D01*
X178490000Y-78343323D02*
X168510000Y-78343323D01*
X178497000Y-78303323D02*
X168503000Y-78303323D01*
X178504000Y-78263323D02*
X168496000Y-78263323D01*
X178511000Y-78223323D02*
X168489000Y-78223323D01*
X178518000Y-78183323D02*
X168482000Y-78183323D01*
X178524000Y-78143323D02*
X168476000Y-78143323D01*
X178530000Y-78103323D02*
X168470000Y-78103323D01*
X178535000Y-78062323D02*
X168465000Y-78062323D01*
X178540000Y-78022323D02*
X168460000Y-78022323D01*
X178545000Y-77982323D02*
X168455000Y-77982323D01*
X178550000Y-77942323D02*
X168450000Y-77942323D01*
X178554000Y-77902323D02*
X168446000Y-77902323D01*
X178558000Y-77862323D02*
X168442000Y-77862323D01*
X178562000Y-77822323D02*
X168438000Y-77822323D01*
X178565000Y-77782323D02*
X168435000Y-77782323D01*
X178568000Y-77742323D02*
X168432000Y-77742323D01*
X178570000Y-77702323D02*
X168430000Y-77702323D01*
X178573000Y-77662323D02*
X168427000Y-77662323D01*
X178575000Y-77622323D02*
X168425000Y-77622323D01*
X178577000Y-77582323D02*
X168423000Y-77582323D01*
X178578000Y-77542323D02*
X168422000Y-77542323D01*
X178579000Y-77502323D02*
X168421000Y-77502323D01*
X178580000Y-77462323D02*
X168420000Y-77462323D01*
X178580000Y-77422323D02*
X168420000Y-77422323D01*
X178580000Y-77382323D02*
X168420000Y-77382323D01*
X176875000Y-72402677D02*
X175875000Y-72402677D01*
X176375000Y-71902677D02*
X176375000Y-72902677D01*
X178620000Y-77382323D02*
G75*
G02*
X168380000Y-77382323I-5120000J0D01*
G01*
X168380000Y-77382323D02*
G75*
G02*
X178620000Y-77382323I5120000J0D01*
G01*
%TO.C,J2*%
X165990000Y-120390000D02*
X165990000Y-121640000D01*
X166290000Y-120690000D02*
X166290000Y-125410000D01*
X166290000Y-122000000D02*
X166900000Y-122000000D01*
X166290000Y-123300000D02*
X166900000Y-123300000D01*
X166290000Y-125410000D02*
X172410000Y-125410000D01*
X166900000Y-121300000D02*
X166900000Y-124800000D01*
X166900000Y-124800000D02*
X171800000Y-124800000D01*
X167240000Y-120390000D02*
X165990000Y-120390000D01*
X167750000Y-120490000D02*
X167750000Y-120690000D01*
X168050000Y-120490000D02*
X167750000Y-120490000D01*
X168050000Y-120590000D02*
X167750000Y-120590000D01*
X168050000Y-120690000D02*
X168050000Y-120490000D01*
X168850000Y-120690000D02*
X168850000Y-121300000D01*
X168850000Y-121300000D02*
X166900000Y-121300000D01*
X169250000Y-124300000D02*
X169450000Y-124300000D01*
X169250000Y-124800000D02*
X169250000Y-124300000D01*
X169350000Y-124800000D02*
X169350000Y-124300000D01*
X169450000Y-124300000D02*
X169450000Y-124800000D01*
X169850000Y-121300000D02*
X169850000Y-120690000D01*
X171800000Y-121300000D02*
X169850000Y-121300000D01*
X171800000Y-124800000D02*
X171800000Y-121300000D01*
X172410000Y-120690000D02*
X166290000Y-120690000D01*
X172410000Y-122000000D02*
X171800000Y-122000000D01*
X172410000Y-123300000D02*
X171800000Y-123300000D01*
X172410000Y-125410000D02*
X172410000Y-120690000D01*
%TO.C,SW2*%
X142860000Y-81110000D02*
X142860000Y-79860000D01*
X142560000Y-80810000D02*
X142560000Y-76090000D01*
X142560000Y-79500000D02*
X141950000Y-79500000D01*
X142560000Y-78200000D02*
X141950000Y-78200000D01*
X142560000Y-76090000D02*
X136440000Y-76090000D01*
X141950000Y-80200000D02*
X141950000Y-76700000D01*
X141950000Y-76700000D02*
X137050000Y-76700000D01*
X141610000Y-81110000D02*
X142860000Y-81110000D01*
X141100000Y-81010000D02*
X141100000Y-80810000D01*
X140800000Y-81010000D02*
X141100000Y-81010000D01*
X140800000Y-80910000D02*
X141100000Y-80910000D01*
X140800000Y-80810000D02*
X140800000Y-81010000D01*
X140000000Y-80810000D02*
X140000000Y-80200000D01*
X140000000Y-80200000D02*
X141950000Y-80200000D01*
X139600000Y-77200000D02*
X139400000Y-77200000D01*
X139600000Y-76700000D02*
X139600000Y-77200000D01*
X139500000Y-76700000D02*
X139500000Y-77200000D01*
X139400000Y-77200000D02*
X139400000Y-76700000D01*
X139000000Y-80200000D02*
X139000000Y-80810000D01*
X137050000Y-80200000D02*
X139000000Y-80200000D01*
X137050000Y-76700000D02*
X137050000Y-80200000D01*
X136440000Y-80810000D02*
X142560000Y-80810000D01*
X136440000Y-79500000D02*
X137050000Y-79500000D01*
X136440000Y-78200000D02*
X137050000Y-78200000D01*
X136440000Y-76090000D02*
X136440000Y-80810000D01*
%TO.C,SW1*%
X150110000Y-81110000D02*
X150110000Y-79860000D01*
X149810000Y-80810000D02*
X149810000Y-76090000D01*
X149810000Y-79500000D02*
X149200000Y-79500000D01*
X149810000Y-78200000D02*
X149200000Y-78200000D01*
X149810000Y-76090000D02*
X143690000Y-76090000D01*
X149200000Y-80200000D02*
X149200000Y-76700000D01*
X149200000Y-76700000D02*
X144300000Y-76700000D01*
X148860000Y-81110000D02*
X150110000Y-81110000D01*
X148350000Y-81010000D02*
X148350000Y-80810000D01*
X148050000Y-81010000D02*
X148350000Y-81010000D01*
X148050000Y-80910000D02*
X148350000Y-80910000D01*
X148050000Y-80810000D02*
X148050000Y-81010000D01*
X147250000Y-80810000D02*
X147250000Y-80200000D01*
X147250000Y-80200000D02*
X149200000Y-80200000D01*
X146850000Y-77200000D02*
X146650000Y-77200000D01*
X146850000Y-76700000D02*
X146850000Y-77200000D01*
X146750000Y-76700000D02*
X146750000Y-77200000D01*
X146650000Y-77200000D02*
X146650000Y-76700000D01*
X146250000Y-80200000D02*
X146250000Y-80810000D01*
X144300000Y-80200000D02*
X146250000Y-80200000D01*
X144300000Y-76700000D02*
X144300000Y-80200000D01*
X143690000Y-80810000D02*
X149810000Y-80810000D01*
X143690000Y-79500000D02*
X144300000Y-79500000D01*
X143690000Y-78200000D02*
X144300000Y-78200000D01*
X143690000Y-76090000D02*
X143690000Y-80810000D01*
%TO.C,RV8*%
X151690000Y-120390000D02*
X151690000Y-121640000D01*
X151990000Y-120690000D02*
X151990000Y-125410000D01*
X151990000Y-122000000D02*
X152600000Y-122000000D01*
X151990000Y-123300000D02*
X152600000Y-123300000D01*
X151990000Y-125410000D02*
X160110000Y-125410000D01*
X152600000Y-121300000D02*
X152600000Y-124800000D01*
X152600000Y-124800000D02*
X159500000Y-124800000D01*
X152940000Y-120390000D02*
X151690000Y-120390000D01*
X153450000Y-120490000D02*
X153450000Y-120690000D01*
X153750000Y-120490000D02*
X153450000Y-120490000D01*
X153750000Y-120590000D02*
X153450000Y-120590000D01*
X153750000Y-120690000D02*
X153750000Y-120490000D01*
X154550000Y-120690000D02*
X154550000Y-121300000D01*
X154550000Y-121300000D02*
X152600000Y-121300000D01*
X154950000Y-124300000D02*
X155150000Y-124300000D01*
X154950000Y-124800000D02*
X154950000Y-124300000D01*
X155050000Y-124800000D02*
X155050000Y-124300000D01*
X155150000Y-124300000D02*
X155150000Y-124800000D01*
X156950000Y-124300000D02*
X157150000Y-124300000D01*
X156950000Y-124800000D02*
X156950000Y-124300000D01*
X157050000Y-124800000D02*
X157050000Y-124300000D01*
X157150000Y-124300000D02*
X157150000Y-124800000D01*
X157550000Y-121300000D02*
X157550000Y-120690000D01*
X159500000Y-121300000D02*
X157550000Y-121300000D01*
X159500000Y-124800000D02*
X159500000Y-121300000D01*
X160110000Y-120690000D02*
X151990000Y-120690000D01*
X160110000Y-122000000D02*
X159500000Y-122000000D01*
X160110000Y-123300000D02*
X159500000Y-123300000D01*
X160110000Y-125410000D02*
X160110000Y-120690000D01*
%TO.C,RV7*%
X165310000Y-81110000D02*
X165310000Y-79860000D01*
X165010000Y-80810000D02*
X165010000Y-76090000D01*
X165010000Y-79500000D02*
X164400000Y-79500000D01*
X165010000Y-78200000D02*
X164400000Y-78200000D01*
X165010000Y-76090000D02*
X158890000Y-76090000D01*
X164400000Y-80200000D02*
X164400000Y-76700000D01*
X164400000Y-76700000D02*
X159500000Y-76700000D01*
X164060000Y-81110000D02*
X165310000Y-81110000D01*
X163550000Y-81010000D02*
X163550000Y-80810000D01*
X163250000Y-81010000D02*
X163550000Y-81010000D01*
X163250000Y-80910000D02*
X163550000Y-80910000D01*
X163250000Y-80810000D02*
X163250000Y-81010000D01*
X162450000Y-80810000D02*
X162450000Y-80200000D01*
X162450000Y-80200000D02*
X164400000Y-80200000D01*
X162050000Y-77200000D02*
X161850000Y-77200000D01*
X162050000Y-76700000D02*
X162050000Y-77200000D01*
X161950000Y-76700000D02*
X161950000Y-77200000D01*
X161850000Y-77200000D02*
X161850000Y-76700000D01*
X161450000Y-80200000D02*
X161450000Y-80810000D01*
X159500000Y-80200000D02*
X161450000Y-80200000D01*
X159500000Y-76700000D02*
X159500000Y-80200000D01*
X158890000Y-80810000D02*
X165010000Y-80810000D01*
X158890000Y-79500000D02*
X159500000Y-79500000D01*
X158890000Y-78200000D02*
X159500000Y-78200000D01*
X158890000Y-76090000D02*
X158890000Y-80810000D01*
%TO.C,RV6*%
X166890000Y-100310000D02*
X168140000Y-100310000D01*
X167190000Y-100010000D02*
X171910000Y-100010000D01*
X168500000Y-100010000D02*
X168500000Y-99400000D01*
X169800000Y-100010000D02*
X169800000Y-99400000D01*
X171910000Y-100010000D02*
X171910000Y-93890000D01*
X167800000Y-99400000D02*
X171300000Y-99400000D01*
X171300000Y-99400000D02*
X171300000Y-94500000D01*
X166890000Y-99060000D02*
X166890000Y-100310000D01*
X166990000Y-98550000D02*
X167190000Y-98550000D01*
X166990000Y-98250000D02*
X166990000Y-98550000D01*
X167090000Y-98250000D02*
X167090000Y-98550000D01*
X167190000Y-98250000D02*
X166990000Y-98250000D01*
X167190000Y-97450000D02*
X167800000Y-97450000D01*
X167800000Y-97450000D02*
X167800000Y-99400000D01*
X170800000Y-97050000D02*
X170800000Y-96850000D01*
X171300000Y-97050000D02*
X170800000Y-97050000D01*
X171300000Y-96950000D02*
X170800000Y-96950000D01*
X170800000Y-96850000D02*
X171300000Y-96850000D01*
X167800000Y-96450000D02*
X167190000Y-96450000D01*
X167800000Y-94500000D02*
X167800000Y-96450000D01*
X171300000Y-94500000D02*
X167800000Y-94500000D01*
X167190000Y-93890000D02*
X167190000Y-100010000D01*
X168500000Y-93890000D02*
X168500000Y-94500000D01*
X169800000Y-93890000D02*
X169800000Y-94500000D01*
X171910000Y-93890000D02*
X167190000Y-93890000D01*
%TO.C,RV4*%
X129090000Y-120560000D02*
X133810000Y-120560000D01*
X131200000Y-120560000D02*
X131200000Y-119950000D01*
X132500000Y-120560000D02*
X132500000Y-119950000D01*
X133810000Y-120560000D02*
X133810000Y-114440000D01*
X129700000Y-119950000D02*
X133200000Y-119950000D01*
X133200000Y-119950000D02*
X133200000Y-118000000D01*
X133200000Y-118000000D02*
X133810000Y-118000000D01*
X130200000Y-117600000D02*
X129700000Y-117600000D01*
X129700000Y-117500000D02*
X130200000Y-117500000D01*
X129700000Y-117400000D02*
X130200000Y-117400000D01*
X130200000Y-117400000D02*
X130200000Y-117600000D01*
X133200000Y-117000000D02*
X133200000Y-115050000D01*
X133810000Y-117000000D02*
X133200000Y-117000000D01*
X133810000Y-116200000D02*
X134010000Y-116200000D01*
X133910000Y-116200000D02*
X133910000Y-115900000D01*
X134010000Y-116200000D02*
X134010000Y-115900000D01*
X134010000Y-115900000D02*
X133810000Y-115900000D01*
X134110000Y-115390000D02*
X134110000Y-114140000D01*
X129700000Y-115050000D02*
X129700000Y-119950000D01*
X133200000Y-115050000D02*
X129700000Y-115050000D01*
X129090000Y-114440000D02*
X129090000Y-120560000D01*
X131200000Y-114440000D02*
X131200000Y-115050000D01*
X132500000Y-114440000D02*
X132500000Y-115050000D01*
X133810000Y-114440000D02*
X129090000Y-114440000D01*
X134110000Y-114140000D02*
X132860000Y-114140000D01*
%TO.C,RV3*%
X134110000Y-107140000D02*
X132860000Y-107140000D01*
X133810000Y-107440000D02*
X129090000Y-107440000D01*
X132500000Y-107440000D02*
X132500000Y-108050000D01*
X131200000Y-107440000D02*
X131200000Y-108050000D01*
X129090000Y-107440000D02*
X129090000Y-113560000D01*
X133200000Y-108050000D02*
X129700000Y-108050000D01*
X129700000Y-108050000D02*
X129700000Y-112950000D01*
X134110000Y-108390000D02*
X134110000Y-107140000D01*
X134010000Y-108900000D02*
X133810000Y-108900000D01*
X134010000Y-109200000D02*
X134010000Y-108900000D01*
X133910000Y-109200000D02*
X133910000Y-108900000D01*
X133810000Y-109200000D02*
X134010000Y-109200000D01*
X133810000Y-110000000D02*
X133200000Y-110000000D01*
X133200000Y-110000000D02*
X133200000Y-108050000D01*
X130200000Y-110400000D02*
X130200000Y-110600000D01*
X129700000Y-110400000D02*
X130200000Y-110400000D01*
X129700000Y-110500000D02*
X130200000Y-110500000D01*
X130200000Y-110600000D02*
X129700000Y-110600000D01*
X133200000Y-111000000D02*
X133810000Y-111000000D01*
X133200000Y-112950000D02*
X133200000Y-111000000D01*
X129700000Y-112950000D02*
X133200000Y-112950000D01*
X133810000Y-113560000D02*
X133810000Y-107440000D01*
X132500000Y-113560000D02*
X132500000Y-112950000D01*
X131200000Y-113560000D02*
X131200000Y-112950000D01*
X129090000Y-113560000D02*
X133810000Y-113560000D01*
%TO.C,RV2*%
X134110000Y-100140000D02*
X132860000Y-100140000D01*
X133810000Y-100440000D02*
X129090000Y-100440000D01*
X132500000Y-100440000D02*
X132500000Y-101050000D01*
X131200000Y-100440000D02*
X131200000Y-101050000D01*
X129090000Y-100440000D02*
X129090000Y-106560000D01*
X133200000Y-101050000D02*
X129700000Y-101050000D01*
X129700000Y-101050000D02*
X129700000Y-105950000D01*
X134110000Y-101390000D02*
X134110000Y-100140000D01*
X134010000Y-101900000D02*
X133810000Y-101900000D01*
X134010000Y-102200000D02*
X134010000Y-101900000D01*
X133910000Y-102200000D02*
X133910000Y-101900000D01*
X133810000Y-102200000D02*
X134010000Y-102200000D01*
X133810000Y-103000000D02*
X133200000Y-103000000D01*
X133200000Y-103000000D02*
X133200000Y-101050000D01*
X130200000Y-103400000D02*
X130200000Y-103600000D01*
X129700000Y-103400000D02*
X130200000Y-103400000D01*
X129700000Y-103500000D02*
X130200000Y-103500000D01*
X130200000Y-103600000D02*
X129700000Y-103600000D01*
X133200000Y-104000000D02*
X133810000Y-104000000D01*
X133200000Y-105950000D02*
X133200000Y-104000000D01*
X129700000Y-105950000D02*
X133200000Y-105950000D01*
X133810000Y-106560000D02*
X133810000Y-100440000D01*
X132500000Y-106560000D02*
X132500000Y-105950000D01*
X131200000Y-106560000D02*
X131200000Y-105950000D01*
X129090000Y-106560000D02*
X133810000Y-106560000D01*
%TO.C,RV1*%
X134110000Y-93140000D02*
X132860000Y-93140000D01*
X133810000Y-93440000D02*
X129090000Y-93440000D01*
X132500000Y-93440000D02*
X132500000Y-94050000D01*
X131200000Y-93440000D02*
X131200000Y-94050000D01*
X129090000Y-93440000D02*
X129090000Y-99560000D01*
X133200000Y-94050000D02*
X129700000Y-94050000D01*
X129700000Y-94050000D02*
X129700000Y-98950000D01*
X134110000Y-94390000D02*
X134110000Y-93140000D01*
X134010000Y-94900000D02*
X133810000Y-94900000D01*
X134010000Y-95200000D02*
X134010000Y-94900000D01*
X133910000Y-95200000D02*
X133910000Y-94900000D01*
X133810000Y-95200000D02*
X134010000Y-95200000D01*
X133810000Y-96000000D02*
X133200000Y-96000000D01*
X133200000Y-96000000D02*
X133200000Y-94050000D01*
X130200000Y-96400000D02*
X130200000Y-96600000D01*
X129700000Y-96400000D02*
X130200000Y-96400000D01*
X129700000Y-96500000D02*
X130200000Y-96500000D01*
X130200000Y-96600000D02*
X129700000Y-96600000D01*
X133200000Y-97000000D02*
X133810000Y-97000000D01*
X133200000Y-98950000D02*
X133200000Y-97000000D01*
X129700000Y-98950000D02*
X133200000Y-98950000D01*
X133810000Y-99560000D02*
X133810000Y-93440000D01*
X132500000Y-99560000D02*
X132500000Y-98950000D01*
X131200000Y-99560000D02*
X131200000Y-98950000D01*
X129090000Y-99560000D02*
X133810000Y-99560000D01*
%TO.C,D2*%
X157710000Y-81110000D02*
X157710000Y-79860000D01*
X157410000Y-80810000D02*
X157410000Y-76090000D01*
X157410000Y-79500000D02*
X156800000Y-79500000D01*
X157410000Y-78200000D02*
X156800000Y-78200000D01*
X157410000Y-76090000D02*
X151290000Y-76090000D01*
X156800000Y-80200000D02*
X156800000Y-76700000D01*
X156800000Y-76700000D02*
X151900000Y-76700000D01*
X156460000Y-81110000D02*
X157710000Y-81110000D01*
X155950000Y-81010000D02*
X155950000Y-80810000D01*
X155650000Y-81010000D02*
X155950000Y-81010000D01*
X155650000Y-80910000D02*
X155950000Y-80910000D01*
X155650000Y-80810000D02*
X155650000Y-81010000D01*
X154850000Y-80810000D02*
X154850000Y-80200000D01*
X154850000Y-80200000D02*
X156800000Y-80200000D01*
X154450000Y-77200000D02*
X154250000Y-77200000D01*
X154450000Y-76700000D02*
X154450000Y-77200000D01*
X154350000Y-76700000D02*
X154350000Y-77200000D01*
X154250000Y-77200000D02*
X154250000Y-76700000D01*
X153850000Y-80200000D02*
X153850000Y-80810000D01*
X151900000Y-80200000D02*
X153850000Y-80200000D01*
X151900000Y-76700000D02*
X151900000Y-80200000D01*
X151290000Y-80810000D02*
X157410000Y-80810000D01*
X151290000Y-79500000D02*
X151900000Y-79500000D01*
X151290000Y-78200000D02*
X151900000Y-78200000D01*
X151290000Y-76090000D02*
X151290000Y-80810000D01*
%TO.C,C3*%
X137180000Y-110405000D02*
X137180000Y-107665000D01*
X144420000Y-107665000D02*
X137180000Y-107665000D01*
X144420000Y-110405000D02*
X137180000Y-110405000D01*
X144420000Y-110405000D02*
X144420000Y-107665000D01*
%TO.C,U1*%
X148572323Y-95155000D02*
X148572323Y-113055000D01*
X148572323Y-113055000D02*
X153872323Y-113055000D01*
X150222323Y-95155000D02*
X148572323Y-95155000D01*
X153872323Y-95155000D02*
X152222323Y-95155000D01*
X153872323Y-113055000D02*
X153872323Y-95155000D01*
X152222323Y-95155000D02*
G75*
G02*
X150222323Y-95155000I-1000000J0D01*
G01*
%TO.C,C11*%
X166910000Y-88990000D02*
X164127000Y-88990000D01*
X166910000Y-89030000D02*
X164130000Y-89030000D01*
X166910000Y-89070000D02*
X164133000Y-89070000D01*
X166910000Y-89110000D02*
X164136000Y-89110000D01*
X166910000Y-89150000D02*
X164140000Y-89150000D01*
X166910000Y-89190000D02*
X164145000Y-89190000D01*
X166910000Y-89230000D02*
X164149000Y-89230000D01*
X166910000Y-89270000D02*
X164155000Y-89270000D01*
X166910000Y-89310000D02*
X164160000Y-89310000D01*
X166910000Y-89350000D02*
X164166000Y-89350000D01*
X166910000Y-89390000D02*
X164173000Y-89390000D01*
X166910000Y-89430000D02*
X164180000Y-89430000D01*
X166910000Y-89471000D02*
X164187000Y-89471000D01*
X166910000Y-89511000D02*
X164195000Y-89511000D01*
X166910000Y-89551000D02*
X164203000Y-89551000D01*
X166910000Y-89591000D02*
X164212000Y-89591000D01*
X166910000Y-89631000D02*
X164221000Y-89631000D01*
X166910000Y-89671000D02*
X164230000Y-89671000D01*
X166910000Y-89711000D02*
X164240000Y-89711000D01*
X166910000Y-89751000D02*
X164251000Y-89751000D01*
X166910000Y-89791000D02*
X164262000Y-89791000D01*
X166910000Y-89831000D02*
X164273000Y-89831000D01*
X166910000Y-89871000D02*
X164285000Y-89871000D01*
X166910000Y-89911000D02*
X164297000Y-89911000D01*
X166910000Y-89951000D02*
X164310000Y-89951000D01*
X166910000Y-89991000D02*
X164324000Y-89991000D01*
X166910000Y-90031000D02*
X164337000Y-90031000D01*
X166910000Y-90071000D02*
X164352000Y-90071000D01*
X166910000Y-90111000D02*
X164366000Y-90111000D01*
X166910000Y-90151000D02*
X164382000Y-90151000D01*
X166910000Y-90191000D02*
X164397000Y-90191000D01*
X166910000Y-90231000D02*
X164414000Y-90231000D01*
X166910000Y-90271000D02*
X164430000Y-90271000D01*
X166910000Y-90311000D02*
X164448000Y-90311000D01*
X166910000Y-90351000D02*
X164466000Y-90351000D01*
X166910000Y-90391000D02*
X164484000Y-90391000D01*
X166910000Y-90431000D02*
X164503000Y-90431000D01*
X166910000Y-90471000D02*
X164523000Y-90471000D01*
X166910000Y-90511000D02*
X164543000Y-90511000D01*
X166910000Y-90551000D02*
X164564000Y-90551000D01*
X166910000Y-90591000D02*
X164585000Y-90591000D01*
X166910000Y-90631000D02*
X164607000Y-90631000D01*
X166910000Y-90671000D02*
X164629000Y-90671000D01*
X166910000Y-90711000D02*
X164653000Y-90711000D01*
X166910000Y-90751000D02*
X164676000Y-90751000D01*
X166910000Y-90791000D02*
X164701000Y-90791000D01*
X166910000Y-90831000D02*
X164726000Y-90831000D01*
X166910000Y-90871000D02*
X164752000Y-90871000D01*
X166910000Y-90911000D02*
X164778000Y-90911000D01*
X166910000Y-90951000D02*
X164806000Y-90951000D01*
X166910000Y-90991000D02*
X164834000Y-90991000D01*
X166910000Y-91031000D02*
X164862000Y-91031000D01*
X168391000Y-92591000D02*
X167509000Y-92591000D01*
X168643000Y-92551000D02*
X167257000Y-92551000D01*
X168827000Y-92511000D02*
X167073000Y-92511000D01*
X168978000Y-92471000D02*
X166922000Y-92471000D01*
X169108000Y-92431000D02*
X166792000Y-92431000D01*
X169225000Y-92391000D02*
X166675000Y-92391000D01*
X169331000Y-92351000D02*
X166569000Y-92351000D01*
X169428000Y-92311000D02*
X166472000Y-92311000D01*
X169519000Y-92271000D02*
X166381000Y-92271000D01*
X169604000Y-92231000D02*
X166296000Y-92231000D01*
X169683000Y-92191000D02*
X166217000Y-92191000D01*
X169759000Y-92151000D02*
X166141000Y-92151000D01*
X169831000Y-92111000D02*
X166069000Y-92111000D01*
X169899000Y-92071000D02*
X166001000Y-92071000D01*
X169964000Y-92031000D02*
X165936000Y-92031000D01*
X170027000Y-91991000D02*
X165873000Y-91991000D01*
X170087000Y-91951000D02*
X165813000Y-91951000D01*
X170125000Y-84607789D02*
X170125000Y-85357789D01*
X170145000Y-91911000D02*
X165755000Y-91911000D01*
X170200000Y-91871000D02*
X165700000Y-91871000D01*
X170254000Y-91831000D02*
X165646000Y-91831000D01*
X170305000Y-91791000D02*
X165595000Y-91791000D01*
X170355000Y-91751000D02*
X165545000Y-91751000D01*
X170404000Y-91711000D02*
X165496000Y-91711000D01*
X170450000Y-91671000D02*
X165450000Y-91671000D01*
X170496000Y-91631000D02*
X165404000Y-91631000D01*
X170500000Y-84982789D02*
X169750000Y-84982789D01*
X170539000Y-91591000D02*
X165361000Y-91591000D01*
X170582000Y-91551000D02*
X165318000Y-91551000D01*
X170623000Y-91511000D02*
X165277000Y-91511000D01*
X170663000Y-91471000D02*
X165237000Y-91471000D01*
X170702000Y-91431000D02*
X165198000Y-91431000D01*
X170740000Y-91391000D02*
X165160000Y-91391000D01*
X170777000Y-91351000D02*
X165123000Y-91351000D01*
X170813000Y-91311000D02*
X165087000Y-91311000D01*
X170848000Y-91271000D02*
X165052000Y-91271000D01*
X170881000Y-91231000D02*
X165019000Y-91231000D01*
X170914000Y-91191000D02*
X164986000Y-91191000D01*
X170946000Y-91151000D02*
X164954000Y-91151000D01*
X170978000Y-91111000D02*
X164922000Y-91111000D01*
X171008000Y-91071000D02*
X164892000Y-91071000D01*
X171038000Y-91031000D02*
X168990000Y-91031000D01*
X171066000Y-90991000D02*
X168990000Y-90991000D01*
X171094000Y-90951000D02*
X168990000Y-90951000D01*
X171122000Y-90911000D02*
X168990000Y-90911000D01*
X171148000Y-90871000D02*
X168990000Y-90871000D01*
X171174000Y-90831000D02*
X168990000Y-90831000D01*
X171199000Y-90791000D02*
X168990000Y-90791000D01*
X171224000Y-90751000D02*
X168990000Y-90751000D01*
X171247000Y-90711000D02*
X168990000Y-90711000D01*
X171271000Y-90671000D02*
X168990000Y-90671000D01*
X171293000Y-90631000D02*
X168990000Y-90631000D01*
X171315000Y-90591000D02*
X168990000Y-90591000D01*
X171336000Y-90551000D02*
X168990000Y-90551000D01*
X171357000Y-90511000D02*
X168990000Y-90511000D01*
X171377000Y-90471000D02*
X168990000Y-90471000D01*
X171397000Y-90431000D02*
X168990000Y-90431000D01*
X171416000Y-90391000D02*
X168990000Y-90391000D01*
X171434000Y-90351000D02*
X168990000Y-90351000D01*
X171452000Y-90311000D02*
X168990000Y-90311000D01*
X171470000Y-90271000D02*
X168990000Y-90271000D01*
X171486000Y-90231000D02*
X168990000Y-90231000D01*
X171503000Y-90191000D02*
X168990000Y-90191000D01*
X171518000Y-90151000D02*
X168990000Y-90151000D01*
X171534000Y-90111000D02*
X168990000Y-90111000D01*
X171548000Y-90071000D02*
X168990000Y-90071000D01*
X171563000Y-90031000D02*
X168990000Y-90031000D01*
X171576000Y-89991000D02*
X168990000Y-89991000D01*
X171590000Y-89951000D02*
X168990000Y-89951000D01*
X171603000Y-89911000D02*
X168990000Y-89911000D01*
X171615000Y-89871000D02*
X168990000Y-89871000D01*
X171627000Y-89831000D02*
X168990000Y-89831000D01*
X171638000Y-89791000D02*
X168990000Y-89791000D01*
X171649000Y-89751000D02*
X168990000Y-89751000D01*
X171660000Y-89711000D02*
X168990000Y-89711000D01*
X171670000Y-89671000D02*
X168990000Y-89671000D01*
X171679000Y-89631000D02*
X168990000Y-89631000D01*
X171688000Y-89591000D02*
X168990000Y-89591000D01*
X171697000Y-89551000D02*
X168990000Y-89551000D01*
X171705000Y-89511000D02*
X168990000Y-89511000D01*
X171713000Y-89471000D02*
X168990000Y-89471000D01*
X171720000Y-89430000D02*
X168990000Y-89430000D01*
X171727000Y-89390000D02*
X168990000Y-89390000D01*
X171734000Y-89350000D02*
X168990000Y-89350000D01*
X171740000Y-89310000D02*
X168990000Y-89310000D01*
X171745000Y-89270000D02*
X168990000Y-89270000D01*
X171751000Y-89230000D02*
X168990000Y-89230000D01*
X171755000Y-89190000D02*
X168990000Y-89190000D01*
X171760000Y-89150000D02*
X168990000Y-89150000D01*
X171764000Y-89110000D02*
X168990000Y-89110000D01*
X171767000Y-89070000D02*
X168990000Y-89070000D01*
X171770000Y-89030000D02*
X168990000Y-89030000D01*
X171773000Y-88990000D02*
X168990000Y-88990000D01*
X171775000Y-88950000D02*
X164125000Y-88950000D01*
X171777000Y-88910000D02*
X164123000Y-88910000D01*
X171779000Y-88870000D02*
X164121000Y-88870000D01*
X171780000Y-88750000D02*
X164120000Y-88750000D01*
X171780000Y-88790000D02*
X164120000Y-88790000D01*
X171780000Y-88830000D02*
X164120000Y-88830000D01*
X171820000Y-88750000D02*
G75*
G02*
X164080000Y-88750000I-3870000J0D01*
G01*
X164080000Y-88750000D02*
G75*
G02*
X171820000Y-88750000I3870000J0D01*
G01*
%TO.C,C10*%
X161831000Y-93630000D02*
X161831000Y-94370000D01*
X161791000Y-93463000D02*
X161791000Y-94537000D01*
X161751000Y-93336000D02*
X161751000Y-94664000D01*
X161711000Y-93232000D02*
X161711000Y-94768000D01*
X161671000Y-93141000D02*
X161671000Y-94859000D01*
X161631000Y-93060000D02*
X161631000Y-94940000D01*
X161591000Y-92987000D02*
X161591000Y-95013000D01*
X161551000Y-94840000D02*
X161551000Y-95080000D01*
X161551000Y-92920000D02*
X161551000Y-93160000D01*
X161511000Y-94840000D02*
X161511000Y-95142000D01*
X161511000Y-92858000D02*
X161511000Y-93160000D01*
X161471000Y-94840000D02*
X161471000Y-95200000D01*
X161471000Y-92800000D02*
X161471000Y-93160000D01*
X161431000Y-94840000D02*
X161431000Y-95254000D01*
X161431000Y-92746000D02*
X161431000Y-93160000D01*
X161391000Y-94840000D02*
X161391000Y-95304000D01*
X161391000Y-92696000D02*
X161391000Y-93160000D01*
X161351000Y-94840000D02*
X161351000Y-95351000D01*
X161351000Y-92649000D02*
X161351000Y-93160000D01*
X161311000Y-94840000D02*
X161311000Y-95396000D01*
X161311000Y-92604000D02*
X161311000Y-93160000D01*
X161271000Y-94840000D02*
X161271000Y-95438000D01*
X161271000Y-92562000D02*
X161271000Y-93160000D01*
X161231000Y-94840000D02*
X161231000Y-95478000D01*
X161231000Y-92522000D02*
X161231000Y-93160000D01*
X161191000Y-94840000D02*
X161191000Y-95516000D01*
X161191000Y-92484000D02*
X161191000Y-93160000D01*
X161151000Y-94840000D02*
X161151000Y-95552000D01*
X161151000Y-92448000D02*
X161151000Y-93160000D01*
X161111000Y-94840000D02*
X161111000Y-95587000D01*
X161111000Y-92413000D02*
X161111000Y-93160000D01*
X161071000Y-94840000D02*
X161071000Y-95619000D01*
X161071000Y-92381000D02*
X161071000Y-93160000D01*
X161031000Y-94840000D02*
X161031000Y-95650000D01*
X161031000Y-92350000D02*
X161031000Y-93160000D01*
X160991000Y-94840000D02*
X160991000Y-95680000D01*
X160991000Y-92320000D02*
X160991000Y-93160000D01*
X160951000Y-94840000D02*
X160951000Y-95708000D01*
X160951000Y-92292000D02*
X160951000Y-93160000D01*
X160911000Y-94840000D02*
X160911000Y-95735000D01*
X160911000Y-92265000D02*
X160911000Y-93160000D01*
X160871000Y-94840000D02*
X160871000Y-95760000D01*
X160871000Y-92240000D02*
X160871000Y-93160000D01*
X160831000Y-94840000D02*
X160831000Y-95785000D01*
X160831000Y-92215000D02*
X160831000Y-93160000D01*
X160791000Y-94840000D02*
X160791000Y-95808000D01*
X160791000Y-92192000D02*
X160791000Y-93160000D01*
X160751000Y-94840000D02*
X160751000Y-95830000D01*
X160751000Y-92170000D02*
X160751000Y-93160000D01*
X160711000Y-94840000D02*
X160711000Y-95851000D01*
X160711000Y-92149000D02*
X160711000Y-93160000D01*
X160671000Y-94840000D02*
X160671000Y-95870000D01*
X160671000Y-92130000D02*
X160671000Y-93160000D01*
X160631000Y-94840000D02*
X160631000Y-95889000D01*
X160631000Y-92111000D02*
X160631000Y-93160000D01*
X160591000Y-94840000D02*
X160591000Y-95907000D01*
X160591000Y-92093000D02*
X160591000Y-93160000D01*
X160551000Y-94840000D02*
X160551000Y-95924000D01*
X160551000Y-92076000D02*
X160551000Y-93160000D01*
X160511000Y-94840000D02*
X160511000Y-95940000D01*
X160511000Y-92060000D02*
X160511000Y-93160000D01*
X160471000Y-94840000D02*
X160471000Y-95954000D01*
X160471000Y-92046000D02*
X160471000Y-93160000D01*
X160430000Y-94840000D02*
X160430000Y-95968000D01*
X160430000Y-92032000D02*
X160430000Y-93160000D01*
X160390000Y-94840000D02*
X160390000Y-95982000D01*
X160390000Y-92018000D02*
X160390000Y-93160000D01*
X160350000Y-94840000D02*
X160350000Y-95994000D01*
X160350000Y-92006000D02*
X160350000Y-93160000D01*
X160310000Y-94840000D02*
X160310000Y-96005000D01*
X160310000Y-91995000D02*
X160310000Y-93160000D01*
X160270000Y-94840000D02*
X160270000Y-96016000D01*
X160270000Y-91984000D02*
X160270000Y-93160000D01*
X160230000Y-94840000D02*
X160230000Y-96025000D01*
X160230000Y-91975000D02*
X160230000Y-93160000D01*
X160190000Y-94840000D02*
X160190000Y-96034000D01*
X160190000Y-91966000D02*
X160190000Y-93160000D01*
X160150000Y-94840000D02*
X160150000Y-96042000D01*
X160150000Y-91958000D02*
X160150000Y-93160000D01*
X160110000Y-94840000D02*
X160110000Y-96050000D01*
X160110000Y-91950000D02*
X160110000Y-93160000D01*
X160070000Y-94840000D02*
X160070000Y-96056000D01*
X160070000Y-91944000D02*
X160070000Y-93160000D01*
X160030000Y-94840000D02*
X160030000Y-96062000D01*
X160030000Y-91938000D02*
X160030000Y-93160000D01*
X159990000Y-94840000D02*
X159990000Y-96067000D01*
X159990000Y-91933000D02*
X159990000Y-93160000D01*
X159950000Y-94840000D02*
X159950000Y-96071000D01*
X159950000Y-91929000D02*
X159950000Y-93160000D01*
X159910000Y-91926000D02*
X159910000Y-96074000D01*
X159870000Y-91923000D02*
X159870000Y-96077000D01*
X159830000Y-91921000D02*
X159830000Y-96079000D01*
X159790000Y-91920000D02*
X159790000Y-96080000D01*
X159750000Y-91920000D02*
X159750000Y-96080000D01*
X157680199Y-92605000D02*
X157680199Y-93005000D01*
X157480199Y-92805000D02*
X157880199Y-92805000D01*
X161870000Y-94000000D02*
G75*
G02*
X157630000Y-94000000I-2120000J0D01*
G01*
X157630000Y-94000000D02*
G75*
G02*
X161870000Y-94000000I2120000J0D01*
G01*
%TO.C,R1*%
X142712323Y-94115000D02*
X138872323Y-94115000D01*
X142712323Y-95955000D02*
X138872323Y-95955000D01*
%TO.C,R11*%
X159360000Y-103180000D02*
X163200000Y-103180000D01*
X159360000Y-105020000D02*
X163200000Y-105020000D01*
%TO.C,R4*%
X142712323Y-115980000D02*
X138872323Y-115980000D01*
X142712323Y-117820000D02*
X138872323Y-117820000D01*
%TO.C,C1*%
X137212323Y-93405000D02*
X137212323Y-90665000D01*
X144452323Y-90665000D02*
X137212323Y-90665000D01*
X144452323Y-93405000D02*
X137212323Y-93405000D01*
X144452323Y-93405000D02*
X144452323Y-90665000D01*
%TO.C,C5*%
X147612323Y-93430000D02*
X147612323Y-90690000D01*
X154852323Y-90690000D02*
X147612323Y-90690000D01*
X154852323Y-93430000D02*
X147612323Y-93430000D01*
X154852323Y-93430000D02*
X154852323Y-90690000D01*
%TO.C,R6*%
X142680000Y-105115000D02*
X138840000Y-105115000D01*
X142680000Y-106955000D02*
X138840000Y-106955000D01*
%TO.C,D4*%
X139963800Y-88469800D02*
X140613800Y-88469800D01*
X140613800Y-87349800D02*
X140613800Y-89589800D01*
X140613800Y-89589800D02*
X144853800Y-89589800D01*
X144013800Y-89589800D02*
X144013800Y-87349800D01*
X144133800Y-89589800D02*
X144133800Y-87349800D01*
X144253800Y-89589800D02*
X144253800Y-87349800D01*
X144853800Y-87349800D02*
X140613800Y-87349800D01*
X144853800Y-89589800D02*
X144853800Y-87349800D01*
X145503800Y-88469800D02*
X144853800Y-88469800D01*
%TO.C,D3*%
X139960000Y-85640000D02*
X140610000Y-85640000D01*
X140610000Y-84520000D02*
X140610000Y-86760000D01*
X140610000Y-86760000D02*
X144850000Y-86760000D01*
X144010000Y-86760000D02*
X144010000Y-84520000D01*
X144130000Y-86760000D02*
X144130000Y-84520000D01*
X144250000Y-86760000D02*
X144250000Y-84520000D01*
X144850000Y-84520000D02*
X140610000Y-84520000D01*
X144850000Y-86760000D02*
X144850000Y-84520000D01*
X145500000Y-85640000D02*
X144850000Y-85640000D01*
%TO.C,C4*%
X147580000Y-114430000D02*
X147580000Y-117170000D01*
X147580000Y-114430000D02*
X154820000Y-114430000D01*
X147580000Y-117170000D02*
X154820000Y-117170000D01*
X154820000Y-114430000D02*
X154820000Y-117170000D01*
%TO.C,R14*%
X163200000Y-100680000D02*
X159360000Y-100680000D01*
X163200000Y-102520000D02*
X159360000Y-102520000D01*
%TO.C,R3*%
X142780000Y-112920000D02*
X138940000Y-112920000D01*
X142780000Y-111080000D02*
X138940000Y-111080000D01*
%TO.C,C9*%
X172170000Y-113750000D02*
G75*
G02*
X164430000Y-113750000I-3870000J0D01*
G01*
X164430000Y-113750000D02*
G75*
G02*
X172170000Y-113750000I3870000J0D01*
G01*
X169340000Y-113510000D02*
X172123000Y-113510000D01*
X169340000Y-113470000D02*
X172120000Y-113470000D01*
X169340000Y-113430000D02*
X172117000Y-113430000D01*
X169340000Y-113390000D02*
X172114000Y-113390000D01*
X169340000Y-113350000D02*
X172110000Y-113350000D01*
X169340000Y-113310000D02*
X172105000Y-113310000D01*
X169340000Y-113270000D02*
X172101000Y-113270000D01*
X169340000Y-113230000D02*
X172095000Y-113230000D01*
X169340000Y-113190000D02*
X172090000Y-113190000D01*
X169340000Y-113150000D02*
X172084000Y-113150000D01*
X169340000Y-113110000D02*
X172077000Y-113110000D01*
X169340000Y-113070000D02*
X172070000Y-113070000D01*
X169340000Y-113029000D02*
X172063000Y-113029000D01*
X169340000Y-112989000D02*
X172055000Y-112989000D01*
X169340000Y-112949000D02*
X172047000Y-112949000D01*
X169340000Y-112909000D02*
X172038000Y-112909000D01*
X169340000Y-112869000D02*
X172029000Y-112869000D01*
X169340000Y-112829000D02*
X172020000Y-112829000D01*
X169340000Y-112789000D02*
X172010000Y-112789000D01*
X169340000Y-112749000D02*
X171999000Y-112749000D01*
X169340000Y-112709000D02*
X171988000Y-112709000D01*
X169340000Y-112669000D02*
X171977000Y-112669000D01*
X169340000Y-112629000D02*
X171965000Y-112629000D01*
X169340000Y-112589000D02*
X171953000Y-112589000D01*
X169340000Y-112549000D02*
X171940000Y-112549000D01*
X169340000Y-112509000D02*
X171926000Y-112509000D01*
X169340000Y-112469000D02*
X171913000Y-112469000D01*
X169340000Y-112429000D02*
X171898000Y-112429000D01*
X169340000Y-112389000D02*
X171884000Y-112389000D01*
X169340000Y-112349000D02*
X171868000Y-112349000D01*
X169340000Y-112309000D02*
X171853000Y-112309000D01*
X169340000Y-112269000D02*
X171836000Y-112269000D01*
X169340000Y-112229000D02*
X171820000Y-112229000D01*
X169340000Y-112189000D02*
X171802000Y-112189000D01*
X169340000Y-112149000D02*
X171784000Y-112149000D01*
X169340000Y-112109000D02*
X171766000Y-112109000D01*
X169340000Y-112069000D02*
X171747000Y-112069000D01*
X169340000Y-112029000D02*
X171727000Y-112029000D01*
X169340000Y-111989000D02*
X171707000Y-111989000D01*
X169340000Y-111949000D02*
X171686000Y-111949000D01*
X169340000Y-111909000D02*
X171665000Y-111909000D01*
X169340000Y-111869000D02*
X171643000Y-111869000D01*
X169340000Y-111829000D02*
X171621000Y-111829000D01*
X169340000Y-111789000D02*
X171597000Y-111789000D01*
X169340000Y-111749000D02*
X171574000Y-111749000D01*
X169340000Y-111709000D02*
X171549000Y-111709000D01*
X169340000Y-111669000D02*
X171524000Y-111669000D01*
X169340000Y-111629000D02*
X171498000Y-111629000D01*
X169340000Y-111589000D02*
X171472000Y-111589000D01*
X169340000Y-111549000D02*
X171444000Y-111549000D01*
X169340000Y-111509000D02*
X171416000Y-111509000D01*
X169340000Y-111469000D02*
X171388000Y-111469000D01*
X167859000Y-109909000D02*
X168741000Y-109909000D01*
X167607000Y-109949000D02*
X168993000Y-109949000D01*
X167423000Y-109989000D02*
X169177000Y-109989000D01*
X167272000Y-110029000D02*
X169328000Y-110029000D01*
X167142000Y-110069000D02*
X169458000Y-110069000D01*
X167025000Y-110109000D02*
X169575000Y-110109000D01*
X166919000Y-110149000D02*
X169681000Y-110149000D01*
X166822000Y-110189000D02*
X169778000Y-110189000D01*
X166731000Y-110229000D02*
X169869000Y-110229000D01*
X166646000Y-110269000D02*
X169954000Y-110269000D01*
X166567000Y-110309000D02*
X170033000Y-110309000D01*
X166491000Y-110349000D02*
X170109000Y-110349000D01*
X166419000Y-110389000D02*
X170181000Y-110389000D01*
X166351000Y-110429000D02*
X170249000Y-110429000D01*
X166286000Y-110469000D02*
X170314000Y-110469000D01*
X166223000Y-110509000D02*
X170377000Y-110509000D01*
X166163000Y-110549000D02*
X170437000Y-110549000D01*
X166125000Y-117892211D02*
X166125000Y-117142211D01*
X166105000Y-110589000D02*
X170495000Y-110589000D01*
X166050000Y-110629000D02*
X170550000Y-110629000D01*
X165996000Y-110669000D02*
X170604000Y-110669000D01*
X165945000Y-110709000D02*
X170655000Y-110709000D01*
X165895000Y-110749000D02*
X170705000Y-110749000D01*
X165846000Y-110789000D02*
X170754000Y-110789000D01*
X165800000Y-110829000D02*
X170800000Y-110829000D01*
X165754000Y-110869000D02*
X170846000Y-110869000D01*
X165750000Y-117517211D02*
X166500000Y-117517211D01*
X165711000Y-110909000D02*
X170889000Y-110909000D01*
X165668000Y-110949000D02*
X170932000Y-110949000D01*
X165627000Y-110989000D02*
X170973000Y-110989000D01*
X165587000Y-111029000D02*
X171013000Y-111029000D01*
X165548000Y-111069000D02*
X171052000Y-111069000D01*
X165510000Y-111109000D02*
X171090000Y-111109000D01*
X165473000Y-111149000D02*
X171127000Y-111149000D01*
X165437000Y-111189000D02*
X171163000Y-111189000D01*
X165402000Y-111229000D02*
X171198000Y-111229000D01*
X165369000Y-111269000D02*
X171231000Y-111269000D01*
X165336000Y-111309000D02*
X171264000Y-111309000D01*
X165304000Y-111349000D02*
X171296000Y-111349000D01*
X165272000Y-111389000D02*
X171328000Y-111389000D01*
X165242000Y-111429000D02*
X171358000Y-111429000D01*
X165212000Y-111469000D02*
X167260000Y-111469000D01*
X165184000Y-111509000D02*
X167260000Y-111509000D01*
X165156000Y-111549000D02*
X167260000Y-111549000D01*
X165128000Y-111589000D02*
X167260000Y-111589000D01*
X165102000Y-111629000D02*
X167260000Y-111629000D01*
X165076000Y-111669000D02*
X167260000Y-111669000D01*
X165051000Y-111709000D02*
X167260000Y-111709000D01*
X165026000Y-111749000D02*
X167260000Y-111749000D01*
X165003000Y-111789000D02*
X167260000Y-111789000D01*
X164979000Y-111829000D02*
X167260000Y-111829000D01*
X164957000Y-111869000D02*
X167260000Y-111869000D01*
X164935000Y-111909000D02*
X167260000Y-111909000D01*
X164914000Y-111949000D02*
X167260000Y-111949000D01*
X164893000Y-111989000D02*
X167260000Y-111989000D01*
X164873000Y-112029000D02*
X167260000Y-112029000D01*
X164853000Y-112069000D02*
X167260000Y-112069000D01*
X164834000Y-112109000D02*
X167260000Y-112109000D01*
X164816000Y-112149000D02*
X167260000Y-112149000D01*
X164798000Y-112189000D02*
X167260000Y-112189000D01*
X164780000Y-112229000D02*
X167260000Y-112229000D01*
X164764000Y-112269000D02*
X167260000Y-112269000D01*
X164747000Y-112309000D02*
X167260000Y-112309000D01*
X164732000Y-112349000D02*
X167260000Y-112349000D01*
X164716000Y-112389000D02*
X167260000Y-112389000D01*
X164702000Y-112429000D02*
X167260000Y-112429000D01*
X164687000Y-112469000D02*
X167260000Y-112469000D01*
X164674000Y-112509000D02*
X167260000Y-112509000D01*
X164660000Y-112549000D02*
X167260000Y-112549000D01*
X164647000Y-112589000D02*
X167260000Y-112589000D01*
X164635000Y-112629000D02*
X167260000Y-112629000D01*
X164623000Y-112669000D02*
X167260000Y-112669000D01*
X164612000Y-112709000D02*
X167260000Y-112709000D01*
X164601000Y-112749000D02*
X167260000Y-112749000D01*
X164590000Y-112789000D02*
X167260000Y-112789000D01*
X164580000Y-112829000D02*
X167260000Y-112829000D01*
X164571000Y-112869000D02*
X167260000Y-112869000D01*
X164562000Y-112909000D02*
X167260000Y-112909000D01*
X164553000Y-112949000D02*
X167260000Y-112949000D01*
X164545000Y-112989000D02*
X167260000Y-112989000D01*
X164537000Y-113029000D02*
X167260000Y-113029000D01*
X164530000Y-113070000D02*
X167260000Y-113070000D01*
X164523000Y-113110000D02*
X167260000Y-113110000D01*
X164516000Y-113150000D02*
X167260000Y-113150000D01*
X164510000Y-113190000D02*
X167260000Y-113190000D01*
X164505000Y-113230000D02*
X167260000Y-113230000D01*
X164499000Y-113270000D02*
X167260000Y-113270000D01*
X164495000Y-113310000D02*
X167260000Y-113310000D01*
X164490000Y-113350000D02*
X167260000Y-113350000D01*
X164486000Y-113390000D02*
X167260000Y-113390000D01*
X164483000Y-113430000D02*
X167260000Y-113430000D01*
X164480000Y-113470000D02*
X167260000Y-113470000D01*
X164477000Y-113510000D02*
X167260000Y-113510000D01*
X164475000Y-113550000D02*
X172125000Y-113550000D01*
X164473000Y-113590000D02*
X172127000Y-113590000D01*
X164471000Y-113630000D02*
X172129000Y-113630000D01*
X164470000Y-113750000D02*
X172130000Y-113750000D01*
X164470000Y-113710000D02*
X172130000Y-113710000D01*
X164470000Y-113670000D02*
X172130000Y-113670000D01*
%TO.C,R7*%
X142680000Y-113615000D02*
X138840000Y-113615000D01*
X142680000Y-115455000D02*
X138840000Y-115455000D01*
%TO.C,R12*%
X163280000Y-105680000D02*
X159440000Y-105680000D01*
X163280000Y-107520000D02*
X159440000Y-107520000D01*
%TO.C,R10*%
X156080000Y-81980000D02*
X159920000Y-81980000D01*
X156080000Y-83820000D02*
X159920000Y-83820000D01*
%TO.C,C2*%
X137180000Y-101870000D02*
X137180000Y-99130000D01*
X144420000Y-99130000D02*
X137180000Y-99130000D01*
X144420000Y-101870000D02*
X137180000Y-101870000D01*
X144420000Y-101870000D02*
X144420000Y-99130000D01*
%TO.C,R13*%
X159360000Y-98180000D02*
X163200000Y-98180000D01*
X159360000Y-100020000D02*
X163200000Y-100020000D01*
%TO.C,R8*%
X142712323Y-118480000D02*
X138872323Y-118480000D01*
X142712323Y-120320000D02*
X138872323Y-120320000D01*
%TO.C,R15*%
X153090000Y-87030000D02*
X156930000Y-87030000D01*
X153090000Y-88870000D02*
X156930000Y-88870000D01*
%TO.C,R5*%
X142660000Y-96615000D02*
X138820000Y-96615000D01*
X142660000Y-98455000D02*
X138820000Y-98455000D01*
%TO.C,R2*%
X142712323Y-102615000D02*
X138872323Y-102615000D01*
X142712323Y-104455000D02*
X138872323Y-104455000D01*
%TO.C,D1*%
X153540000Y-85500000D02*
X154190000Y-85500000D01*
X154190000Y-84380000D02*
X154190000Y-86620000D01*
X154190000Y-86620000D02*
X158430000Y-86620000D01*
X157590000Y-86620000D02*
X157590000Y-84380000D01*
X157710000Y-86620000D02*
X157710000Y-84380000D01*
X157830000Y-86620000D02*
X157830000Y-84380000D01*
X158430000Y-84380000D02*
X154190000Y-84380000D01*
X158430000Y-86620000D02*
X158430000Y-84380000D01*
X159080000Y-85500000D02*
X158430000Y-85500000D01*
%TD*%
%LPC*%
D14*
%TO.C,H10*%
X162500000Y-130000000D03*
%TD*%
%TO.C,H3*%
X122500000Y-110000000D03*
%TD*%
%TO.C,H2*%
X177500000Y-90000000D03*
%TD*%
%TO.C,H9*%
X150000000Y-130000000D03*
%TD*%
%TO.C,H4*%
X177500000Y-110000000D03*
%TD*%
%TO.C,H5*%
X137500000Y-70000000D03*
%TD*%
%TO.C,H8*%
X137500000Y-130000000D03*
%TD*%
%TO.C,H7*%
X162500000Y-70000000D03*
%TD*%
%TO.C,H6*%
X150000000Y-70000000D03*
%TD*%
%TO.C,H1*%
X122500000Y-90000000D03*
%TD*%
D15*
%TO.C,J1*%
X133050000Y-79000000D03*
D16*
X131050000Y-79000000D03*
%TD*%
D17*
%TO.C,C6*%
X143377401Y-124000000D03*
D18*
X145377401Y-124000000D03*
%TD*%
D19*
%TO.C,BT1*%
X132000000Y-90450000D03*
D20*
X132000000Y-88450000D03*
%TD*%
D18*
%TO.C,C8*%
X160250000Y-113800000D03*
D17*
X160250000Y-111800000D03*
%TD*%
D19*
%TO.C,RV5*%
X169000000Y-104150000D03*
D21*
X169000000Y-106150000D03*
%TD*%
D22*
%TO.C,C7*%
X173500000Y-74882323D03*
D23*
X173500000Y-79882323D03*
%TD*%
D24*
%TO.C,J2*%
X168350000Y-122500000D03*
D16*
X170350000Y-122500000D03*
%TD*%
D15*
%TO.C,SW2*%
X140500000Y-79000000D03*
D16*
X138500000Y-79000000D03*
%TD*%
D15*
%TO.C,SW1*%
X147750000Y-79000000D03*
D16*
X145750000Y-79000000D03*
%TD*%
D24*
%TO.C,RV8*%
X154050000Y-122500000D03*
D16*
X156050000Y-122500000D03*
X158050000Y-122500000D03*
%TD*%
D15*
%TO.C,RV7*%
X162950000Y-79000000D03*
D16*
X160950000Y-79000000D03*
%TD*%
D21*
%TO.C,RV6*%
X169000000Y-97950000D03*
D19*
X169000000Y-95950000D03*
%TD*%
%TO.C,RV4*%
X132000000Y-118500000D03*
D20*
X132000000Y-116500000D03*
%TD*%
%TO.C,RV3*%
X132000000Y-109500000D03*
D19*
X132000000Y-111500000D03*
%TD*%
D20*
%TO.C,RV2*%
X132000000Y-102500000D03*
D19*
X132000000Y-104500000D03*
%TD*%
D20*
%TO.C,RV1*%
X132000000Y-95500000D03*
D19*
X132000000Y-97500000D03*
%TD*%
D15*
%TO.C,D2*%
X155350000Y-79000000D03*
D16*
X153350000Y-79000000D03*
%TD*%
D25*
%TO.C,C3*%
X143300000Y-109035000D03*
X138300000Y-109035000D03*
%TD*%
D26*
%TO.C,U1*%
X147412323Y-96485000D03*
D27*
X147412323Y-99025000D03*
X147412323Y-101565000D03*
X147412323Y-104105000D03*
X147412323Y-106645000D03*
X147412323Y-109185000D03*
X147412323Y-111725000D03*
X155032323Y-111725000D03*
X155032323Y-109185000D03*
X155032323Y-106645000D03*
X155032323Y-104105000D03*
X155032323Y-101565000D03*
X155032323Y-99025000D03*
X155032323Y-96485000D03*
%TD*%
D26*
%TO.C,C11*%
X167950000Y-87500000D03*
D25*
X167950000Y-90000000D03*
%TD*%
D17*
%TO.C,C10*%
X158750000Y-94000000D03*
D18*
X160750000Y-94000000D03*
%TD*%
D28*
%TO.C,R1*%
X143332323Y-95035000D03*
D29*
X138252323Y-95035000D03*
%TD*%
D28*
%TO.C,R11*%
X158740000Y-104100000D03*
D29*
X163820000Y-104100000D03*
%TD*%
D28*
%TO.C,R4*%
X143332323Y-116900000D03*
D29*
X138252323Y-116900000D03*
%TD*%
D25*
%TO.C,C1*%
X143332323Y-92035000D03*
X138332323Y-92035000D03*
%TD*%
%TO.C,C5*%
X153732323Y-92060000D03*
X148732323Y-92060000D03*
%TD*%
D28*
%TO.C,R6*%
X143300000Y-106035000D03*
D29*
X138220000Y-106035000D03*
%TD*%
D26*
%TO.C,D4*%
X146543800Y-88469800D03*
D27*
X138923800Y-88469800D03*
%TD*%
D26*
%TO.C,D3*%
X146540000Y-85640000D03*
D27*
X138920000Y-85640000D03*
%TD*%
D25*
%TO.C,C4*%
X148700000Y-115800000D03*
X153700000Y-115800000D03*
%TD*%
D28*
%TO.C,R14*%
X163820000Y-101600000D03*
D29*
X158740000Y-101600000D03*
%TD*%
%TO.C,R3*%
X138320000Y-112000000D03*
D28*
X143400000Y-112000000D03*
%TD*%
D25*
%TO.C,C9*%
X168300000Y-112500000D03*
D26*
X168300000Y-115000000D03*
%TD*%
D28*
%TO.C,R7*%
X143300000Y-114535000D03*
D29*
X138220000Y-114535000D03*
%TD*%
D28*
%TO.C,R12*%
X163900000Y-106600000D03*
D29*
X158820000Y-106600000D03*
%TD*%
D28*
%TO.C,R10*%
X155460000Y-82900000D03*
D29*
X160540000Y-82900000D03*
%TD*%
D25*
%TO.C,C2*%
X143300000Y-100500000D03*
X138300000Y-100500000D03*
%TD*%
D28*
%TO.C,R13*%
X158740000Y-99100000D03*
D29*
X163820000Y-99100000D03*
%TD*%
D28*
%TO.C,R8*%
X143332323Y-119400000D03*
D29*
X138252323Y-119400000D03*
%TD*%
D28*
%TO.C,R15*%
X152470000Y-87950000D03*
D29*
X157550000Y-87950000D03*
%TD*%
D28*
%TO.C,R5*%
X143280000Y-97535000D03*
D29*
X138200000Y-97535000D03*
%TD*%
D28*
%TO.C,R2*%
X143332323Y-103535000D03*
D29*
X138252323Y-103535000D03*
%TD*%
D27*
%TO.C,D1*%
X152500000Y-85500000D03*
D26*
X160120000Y-85500000D03*
%TD*%
%LPD*%
M02*
